<svg xmlns="http://www.w3.org/2000/svg" width="87.707" height="88.936" viewBox="0 0 87.707 88.936">
  <g id="agreement" transform="translate(-3.536)">
    <path id="Path_3762" data-name="Path 3762" d="M125.326,49.909a1.352,1.352,0,1,0,0,2.7h6.088a2.373,2.373,0,0,0,2.37-2.37V45.558a2.373,2.373,0,0,0-2.37-2.371H103.456a2.373,2.373,0,0,0-2.371,2.371v4.685a2.373,2.373,0,0,0,2.371,2.37h15.517a1.352,1.352,0,1,0,0-2.7H103.789V45.891h27.292v4.018h-5.755Z" transform="translate(-80.605 -35.685)" fill="#db5c1c"/>
    <path id="Path_3763" data-name="Path 3763" d="M66.3,130.973a1.352,1.352,0,0,0,1.352,1.352H110.02a1.352,1.352,0,1,0,0-2.7H67.654A1.351,1.351,0,0,0,66.3,130.973Z" transform="translate(-51.863 -107.106)" fill="#db5c1c"/>
    <path id="Path_3764" data-name="Path 3764" d="M67.654,181.29H110.02a1.352,1.352,0,1,0,0-2.7H67.654a1.352,1.352,0,1,0,0,2.7Z" transform="translate(-51.863 -147.566)" fill="#db5c1c"/>
    <path id="Path_3765" data-name="Path 3765" d="M101.663,228.906a1.352,1.352,0,0,0-1.352-1.352H67.654a1.352,1.352,0,0,0,0,2.7h32.658a1.352,1.352,0,0,0,1.352-1.352Z" transform="translate(-51.863 -188.027)" fill="#db5c1c"/>
    <path id="Path_3766" data-name="Path 3766" d="M84.539,279.223a1.352,1.352,0,1,0,0-2.7H67.654a1.352,1.352,0,0,0,0,2.7Z" transform="translate(-51.863 -228.488)" fill="#db5c1c"/>
    <path id="Path_3767" data-name="Path 3767" d="M60.03,411.836a1.351,1.351,0,0,0,1.67-.93,4.445,4.445,0,0,1,4.348-3,5.042,5.042,0,0,1,3.632,1.6,8.471,8.471,0,0,0,5.981,2.39c3.857,0,5.93-4.078,6.017-4.252a1.352,1.352,0,0,0-2.418-1.209c-.014.028-1.423,2.757-3.6,2.757a5.794,5.794,0,0,1-4.257-1.769,7.632,7.632,0,0,0-5.356-2.217,7.139,7.139,0,0,0-6.948,4.966,1.352,1.352,0,0,0,.93,1.671Z" transform="translate(-45.87 -334.815)" fill="#db5c1c"/>
    <path id="Path_3768" data-name="Path 3768" d="M91.146,13.88a1.352,1.352,0,0,0-.726-.741L87.28,11.8a1.374,1.374,0,0,0-.72-1.738l-.626-.27L86.95,7.441a5.33,5.33,0,0,0-9.786-4.226L76.117,5.639A2.674,2.674,0,0,0,73.227,7.2l-2.816,6.521V6.8a6.809,6.809,0,0,0-6.8-6.8H10.336a6.807,6.807,0,0,0-6.8,6.8V82.136a6.807,6.807,0,0,0,6.8,6.8H63.611a6.807,6.807,0,0,0,6.8-6.8V63.21a1.352,1.352,0,1,0-2.7,0V82.136a4.1,4.1,0,0,1-4.1,4.1H10.336a4.1,4.1,0,0,1-4.1-4.1V6.8a4.1,4.1,0,0,1,4.1-4.1H63.609a4.1,4.1,0,0,1,4.1,4.1V19.983L46.987,67.972a1.368,1.368,0,0,0-.112.537L46.891,79.9a3,3,0,0,0,5,2.161l8.3-7.8a1.344,1.344,0,0,0,.281-.379c.007-.014.015-.029.021-.043s.009-.018.013-.027l25.7-59.524,1.9.81L78.059,38.476a1.352,1.352,0,1,0,2.484,1.068L91.133,14.917a1.352,1.352,0,0,0,.013-1.037ZM82.21,2.708a2.652,2.652,0,0,1,2.257,3.661L83.451,8.722,78.63,6.64l1.017-2.353A2.638,2.638,0,0,1,82.21,2.708ZM75.69,8.316l8.557,3.694L73.375,37.19l-8.558-3.7ZM58.562,71.5,50.005,67.8l13.74-31.825,8.558,3.7Zm-8.519,8.589a.268.268,0,0,1-.449-.193l-.013-9.329L56.84,73.7Z" fill="#db5c1c"/>
  </g>
</svg>
