<svg xmlns="http://www.w3.org/2000/svg" width="28.032" height="22.507" viewBox="0 0 28.032 22.507">
  <path id="Icon_awesome-angle-double-left" data-name="Icon awesome-angle-double-left" d="M15.772,16.8,6.209,7.242a1.68,1.68,0,0,0-2.384,0L2.237,8.831a1.681,1.681,0,0,0,0,2.384L9.008,18,2.23,24.778a1.681,1.681,0,0,0,0,2.384l1.589,1.6a1.68,1.68,0,0,0,2.384,0L15.765,19.2a1.683,1.683,0,0,0,.007-2.391Zm13.5,2.391-9.562,9.562a1.68,1.68,0,0,1-2.384,0l-1.589-1.589a1.681,1.681,0,0,1,0-2.384L22.508,18,15.73,11.222a1.681,1.681,0,0,1,0-2.384l1.589-1.6a1.68,1.68,0,0,1,2.384,0L29.264,16.8A1.683,1.683,0,0,1,29.271,19.2Z" transform="translate(-1.734 -6.747)" fill="#0d3862"/>
</svg>
