<svg xmlns="http://www.w3.org/2000/svg" width="79.775" height="98.921" viewBox="0 0 79.775 98.921">
  <g id="choose" transform="translate(-7 -1)">
    <path id="Path_3753" data-name="Path 3753" d="M20.651,42.031H43.759A1.651,1.651,0,0,0,45.41,40.38V35.429a13.213,13.213,0,0,0-7.75-12.011,8.253,8.253,0,1,0-10.911,0A13.213,13.213,0,0,0,19,35.429V40.38A1.651,1.651,0,0,0,20.651,42.031Zm6.6-24.759A4.952,4.952,0,1,1,32.2,22.224a4.952,4.952,0,0,1-4.952-4.952ZM22.3,35.429a9.9,9.9,0,1,1,19.807,0v3.3H22.3Z" transform="translate(6.835 5.186)" fill="#0c3761"/>
    <rect id="Rectangle_1434" data-name="Rectangle 1434" width="28.488" height="3.676" transform="translate(13.433 55.115)" fill="#0c3761"/>
    <path id="Path_3754" data-name="Path 3754" d="M85.095,59.518l-.957-2.872a4.3,4.3,0,0,0-5.34-2.811v-.183a4.763,4.763,0,0,0-1.6-3.542V2.6a1.6,1.6,0,0,0-1.6-1.6H14.977a1.6,1.6,0,0,0-1.6,1.6V7.382H8.6A1.6,1.6,0,0,0,7,8.977V91.943a1.6,1.6,0,0,0,1.6,1.6h49.46v4.786a1.6,1.6,0,0,0,1.6,1.6H83.584a1.6,1.6,0,0,0,1.6-1.6V87.157a1.6,1.6,0,0,0-1.6-1.6h-.511a35.2,35.2,0,0,0,3.7-15.689,32.689,32.689,0,0,0-1.68-10.355ZM16.573,4.191H74.011V48.865H72.122a4.786,4.786,0,0,0-1.3-1.947V18.55a1.6,1.6,0,0,0-.467-1.128L60.779,7.849a1.6,1.6,0,0,0-1.128-.467H16.573Zm44.674,8.638,4.126,4.126H61.247ZM10.191,90.348V10.573H58.056V18.55a1.6,1.6,0,0,0,1.6,1.6h7.977V45.674h-1.6V40.887a4.786,4.786,0,1,0-9.573,0v7.977H13.382v3.191H56.46v6.621l-.319-.4a8.019,8.019,0,0,0-9.8-2.152l-1.768.882a1.6,1.6,0,0,0-.672,2.219l1.371,2.393H13.382v3.191H47.1L48.925,68H13.382V71.2H50.291l.319,2.285c.045.308.123.6.183.906H13.382v3.191H51.743a16.952,16.952,0,0,0,1.714,3.191H13.382V83.96H56.338a17.189,17.189,0,0,0,2.53,1.83,1.573,1.573,0,0,0-.812,1.367v3.191Zm71.8,6.382H61.247V88.752H81.988ZM79.455,85.561H64.861l-4.209-2.406a13.835,13.835,0,0,1-6.877-10.122l-.522-3.654a1.577,1.577,0,0,0-.195-.565l-5.544-9.7.258-.129a4.81,4.81,0,0,1,5.878,1.291l2.81,3.512v5.822h3.191V40.887a1.6,1.6,0,1,1,3.191,0V63.224h3.191V48.865h1.6a1.6,1.6,0,0,1,1.6,1.6V63.224h3.191V52.056h1.6a1.6,1.6,0,0,1,1.6,1.6V64.82H78.8V58.028a1.185,1.185,0,0,1,2.312-.373l.957,2.872a29.486,29.486,0,0,1,1.517,9.346A32.006,32.006,0,0,1,79.455,85.561Z" transform="translate(0)" fill="#0c3761"/>
  </g>
</svg>
