<svg xmlns="http://www.w3.org/2000/svg" width="85.96" height="85.852" viewBox="0 0 85.96 85.852">
  <g id="contract" transform="translate(0 -0.322)">
    <path id="Path_3755" data-name="Path 3755" d="M62.648,3.646,13.046.329A2.942,2.942,0,0,0,9.919,3.064l-.388,5.8H2.938A2.942,2.942,0,0,0,0,11.8V83.236a2.942,2.942,0,0,0,2.938,2.938H40.905a1.273,1.273,0,0,0,.888-.367L47.525,80.1a1.252,1.252,0,0,0,.179.026l9.785.654a3.011,3.011,0,0,0,3.128-2.735L65.383,6.774a2.963,2.963,0,0,0-2.735-3.128ZM42.164,81.867V73.12a.42.42,0,0,1,.42-.42H51.3ZM58.1,77.878a.42.42,0,0,1-.447.391l-7.77-.52,5.331-5.307a1.259,1.259,0,0,0,.371-.892V11.8a2.942,2.942,0,0,0-2.938-2.938H39.556a1.26,1.26,0,0,0,0,2.518H52.651a.42.42,0,0,1,.42.42V70.182H42.584a2.942,2.942,0,0,0-2.938,2.938V83.655H2.938a.42.42,0,0,1-.42-.42V11.8a.42.42,0,0,1,.42-.42H32.851a1.26,1.26,0,0,0,0-2.518h-20.8l.377-5.634a.42.42,0,0,1,.447-.391l49.6,3.318a.42.42,0,0,1,.391.447Z" fill="#3cb4e7"/>
    <path id="Path_3756" data-name="Path 3756" d="M91.376,237.047H57.033a1.259,1.259,0,0,0,0,2.518H91.376a1.259,1.259,0,1,0,0-2.518Z" transform="translate(-46.41 -196.981)" fill="#3cb4e7"/>
    <path id="Path_3757" data-name="Path 3757" d="M91.376,289.332H57.033a1.259,1.259,0,0,0,0,2.518H91.376a1.259,1.259,0,1,0,0-2.518Z" transform="translate(-46.41 -240.488)" fill="#3cb4e7"/>
    <path id="Path_3758" data-name="Path 3758" d="M55.774,186.021a1.259,1.259,0,0,0,1.259,1.259H91.376a1.259,1.259,0,1,0,0-2.518H57.033A1.259,1.259,0,0,0,55.774,186.021Z" transform="translate(-46.41 -153.474)" fill="#3cb4e7"/>
    <path id="Path_3759" data-name="Path 3759" d="M91.807,133.736A1.259,1.259,0,0,0,93.066,135H115.31a1.259,1.259,0,0,0,0-2.518H93.066A1.259,1.259,0,0,0,91.807,133.736Z" transform="translate(-76.393 -109.967)" fill="#3cb4e7"/>
    <path id="Path_3760" data-name="Path 3760" d="M77.1,395.587q-3.4.009-6.794.014l-2.283,0c-1.379,0-2.309-.276-2.617-1.793-.261-1.283-2.076-1.11-2.428,0-.871,2.743-2.313,1.668-3.12-.177a25.832,25.832,0,0,1-1.364-5.859c-.259-1.439-2.435-1.036-2.473.335a23.463,23.463,0,0,1-.677,5.332,42.784,42.784,0,0,1-1.884,5.268c-.613,1.5,1.824,2.152,2.428.67a48.624,48.624,0,0,0,1.711-4.653c.863,2.075,2.648,4.422,5.192,3.039a5.071,5.071,0,0,0,1.3-1.05c1.323,1.529,3.292,1.408,5.135,1.406q3.935-.005,7.871-.016A1.26,1.26,0,0,0,77.1,395.587Z" transform="translate(-44.402 -321.651)" fill="#3cb4e7"/>
    <path id="Path_3761" data-name="Path 3761" d="M417.42,186.612a3.622,3.622,0,0,0-2.467-1.01l-.952,0v-1.8a3.486,3.486,0,0,0-1.584-2.831v-2.535c0-5.216-8.121-5.194-8.121.025V181a3.328,3.328,0,0,0-1.587,2.829v1.844c-4.192.285-4.2,6.673,0,6.922.027,5.637.026,11.182,0,16.913a1.26,1.26,0,0,0,2.518.013c.03-5.736.032-11.286,0-16.927l6.247-.031s-.008,18.61-.008,26.994c0,4.086-6.249,4.113-6.249-.042l0-2.3a1.26,1.26,0,0,0-2.514-.152v2.155a6.184,6.184,0,0,0,1.677,4.511,10.53,10.53,0,0,0,3.084,7.044,1.335,1.335,0,0,0,1.8-.031,10.384,10.384,0,0,0,3.05-7.121c.831-.828,1.663-1.661,1.663-4.516V207.635a3.528,3.528,0,0,0,4.448-3.349V189.064A3.435,3.435,0,0,0,417.42,186.612Zm-12.193-.962v-1.82a.809.809,0,0,1,.6-.778l5.041-.025a.795.795,0,0,1,.615.78v1.812Zm3.135-8.73a1.639,1.639,0,0,1,1.537,1.521v2.043l-3.084.015v-2.033A1.554,1.554,0,0,1,408.362,176.92Zm0,51.022a8.033,8.033,0,0,1-1.245-2.754,5.476,5.476,0,0,0,2.5-.032A7.851,7.851,0,0,1,408.36,227.942Zm7.56-23.656a.962.962,0,0,1-1.923.022s0-11.916,0-13.008a1.27,1.27,0,0,0-1.269-1.261l-9.8.049a.955.955,0,0,1,.012-1.908l12.023-.06a.944.944,0,0,1,.955.943v15.223Z" transform="translate(-332.479 -144.969)" fill="#3cb4e7"/>
  </g>
</svg>
