<svg xmlns="http://www.w3.org/2000/svg" width="86.373" height="86.373" viewBox="0 0 86.373 86.373">
  <g id="contract_1_" data-name="contract (1)" transform="translate(-1 -1)">
    <path id="Path_4638" data-name="Path 4638" d="M87.373,29.609a6.318,6.318,0,0,0-10.787-4.468L72.457,29.27l-4.588,4.588V20.392A9.746,9.746,0,0,0,66.476,1H10.752A9.763,9.763,0,0,0,1,10.752V80.407A1.394,1.394,0,0,0,2.393,81.8H9.359V85.98a1.394,1.394,0,0,0,1.393,1.393H66.476a1.394,1.394,0,0,0,1.393-1.393V51.729L81.392,38.206l1.431-1.431a18.666,18.666,0,0,1-5.131,9.55l-6.627,6.627,1.97,1.97,6.627-6.627a21.416,21.416,0,0,0,6.294-14.746,6.247,6.247,0,0,0,1.417-3.94Zm-8.817-2.5a3.532,3.532,0,1,1,5,5l-3.144,3.144-5-5Zm-5.114,5.114,1.513,1.513L57.421,51.272l-1.513-1.513ZM40.309,68.988l2.866-5.733,4.232,4.232-5.733,2.866ZM44.763,60.9l9.175-9.175,5,5L49.759,65.9ZM66.476,3.786a6.966,6.966,0,1,1,0,13.931H17.564a9.723,9.723,0,0,0,0-13.931ZM12.145,17.577V13.538a1.4,1.4,0,0,1,1.393-1.393h4.039A6.987,6.987,0,0,1,12.145,17.577ZM3.786,79.014V10.752a6.966,6.966,0,0,1,13.79-1.393H13.538a4.184,4.184,0,0,0-4.179,4.179V79.014Zm61.3,5.572H12.145V20.5H65.083V36.644l-6.149,6.149H17.717V45.58h38.43l-2.786,2.786H17.717v2.786H50.575l-8.767,8.767a1.364,1.364,0,0,0-.245.369l-.015-.008-4.179,8.359a1.392,1.392,0,0,0,.262,1.608l.407.41L34.843,73.85l1.97,1.97,3.194-3.194.408.408a1.393,1.393,0,0,0,.985.408,1.413,1.413,0,0,0,.623-.146l8.359-4.179-.008-.015a1.364,1.364,0,0,0,.369-.245L61.887,57.711l3.2-3.2ZM60.9,54.755l-1.513-1.513L76.925,35.708l1.513,1.513Z" transform="translate(0 0)" fill="#0c3761"/>
    <path id="Path_4639" data-name="Path 4639" d="M13,19H54.793v2.786H13Z" transform="translate(4.717 7.076)" fill="#0c3761"/>
    <path id="Path_4640" data-name="Path 4640" d="M13,23H54.793v2.786H13Z" transform="translate(4.717 8.649)" fill="#0c3761"/>
    <path id="Path_4641" data-name="Path 4641" d="M13,27H54.793v2.786H13Z" transform="translate(4.717 10.221)" fill="#0c3761"/>
    <path id="Path_4642" data-name="Path 4642" d="M13,51H28.324v2.786H13Z" transform="translate(4.717 19.656)" fill="#0c3761"/>
    <path id="Path_4643" data-name="Path 4643" d="M13,55H54.793v2.786H13Z" transform="translate(4.717 21.228)" fill="#0c3761"/>
  </g>
</svg>
