<svg id="Group_1622" data-name="Group 1622" xmlns="http://www.w3.org/2000/svg" xmlns:xlink="http://www.w3.org/1999/xlink" width="273.364" height="268.084" viewBox="0 0 273.364 268.084">
  <defs>
    <clipPath id="clip-path">
      <rect id="Rectangle_1360" data-name="Rectangle 1360" width="273.364" height="268.084" fill="none"/>
    </clipPath>
    <clipPath id="clip-path-4">
      <rect id="Rectangle_1364" data-name="Rectangle 1364" width="16.468" height="3.095" fill="none"/>
    </clipPath>
    <clipPath id="clip-path-5">
      <rect id="Rectangle_1367" data-name="Rectangle 1367" width="30.114" height="2.961" fill="none"/>
    </clipPath>
    <clipPath id="clip-path-7">
      <rect id="Rectangle_1373" data-name="Rectangle 1373" width="16.469" height="3.095" fill="none"/>
    </clipPath>
    <clipPath id="clip-path-9">
      <rect id="Rectangle_1377" data-name="Rectangle 1377" width="35.255" height="2.958" fill="none"/>
    </clipPath>
    <clipPath id="clip-path-10">
      <rect id="Rectangle_1378" data-name="Rectangle 1378" width="8.471" height="9.259" fill="none"/>
    </clipPath>
    <clipPath id="clip-path-11">
      <rect id="Rectangle_1381" data-name="Rectangle 1381" width="30.213" height="3.75" fill="none"/>
    </clipPath>
    <clipPath id="clip-path-14">
      <rect id="Rectangle_1384" data-name="Rectangle 1384" width="28.499" height="3.469" fill="none"/>
    </clipPath>
    <clipPath id="clip-path-15">
      <rect id="Rectangle_1385" data-name="Rectangle 1385" width="5.23" height="20.305" fill="none"/>
    </clipPath>
  </defs>
  <g id="Group_1653" data-name="Group 1653">
    <path id="Path_3442" data-name="Path 3442" d="M263.985,187.943H367.559v59.41H263.985Zm-.64,60.05H368.2V187.3H263.345Z" transform="translate(-94.834 -67.45)" fill="#e0e0e0"/>
    <rect id="Rectangle_1339" data-name="Rectangle 1339" width="69.194" height="2.03" transform="translate(182.542 152.212)" fill="#f0f0f0"/>
    <rect id="Rectangle_1340" data-name="Rectangle 1340" width="73.959" height="2.215" transform="translate(182.542 159.777)" fill="#f0f0f0"/>
    <rect id="Rectangle_1341" data-name="Rectangle 1341" width="73.959" height="2.215" transform="translate(182.542 167.429)" fill="#f0f0f0"/>
    <rect id="Rectangle_1342" data-name="Rectangle 1342" width="24.183" height="5.266" transform="translate(182.542 141.226)" fill="#f0f0f0"/>
    <rect id="Rectangle_1343" data-name="Rectangle 1343" width="104.214" height="9.662" transform="translate(168.831 120.172)" fill="#e0e0e0"/>
    <g id="Group_1582" data-name="Group 1582">
      <g id="Group_1581" data-name="Group 1581" clip-path="url(#clip-path)">
        <path id="Path_3443" data-name="Path 3443" d="M414.171,196.828c-.133-.127,1.21-1.747,3-3.617s3.349-3.284,3.482-3.157-1.21,1.747-3,3.617-3.347,3.284-3.48,3.157" transform="translate(-149.146 -68.438)" fill="#fff"/>
        <path id="Path_3444" data-name="Path 3444" d="M420.651,196.828c-.133.127-1.691-1.286-3.48-3.157s-3.133-3.49-3-3.617,1.691,1.286,3.481,3.157,3.132,3.49,3,3.617" transform="translate(-149.146 -68.438)" fill="#fff"/>
        <rect id="Rectangle_1344" data-name="Rectangle 1344" width="104.214" height="60.05" transform="translate(40.109)" fill="#fff"/>
        <rect id="Rectangle_1345" data-name="Rectangle 1345" width="69.193" height="2.03" transform="translate(53.821 32.039)" fill="#f0f0f0"/>
        <rect id="Rectangle_1346" data-name="Rectangle 1346" width="73.959" height="2.214" transform="translate(53.821 39.604)" fill="#f0f0f0"/>
        <rect id="Rectangle_1347" data-name="Rectangle 1347" width="73.959" height="2.214" transform="translate(53.821 47.257)" fill="#f0f0f0"/>
        <rect id="Rectangle_1348" data-name="Rectangle 1348" width="24.183" height="5.266" transform="translate(53.821 21.054)" fill="#f0f0f0"/>
        <rect id="Rectangle_1349" data-name="Rectangle 1349" width="104.214" height="9.661" transform="translate(40.109)" fill="#edeeef"/>
        <path id="Path_3445" data-name="Path 3445" d="M212.451,8.953c-.133-.127,1.21-1.747,3-3.617s3.349-3.284,3.482-3.157-1.21,1.746-3,3.617-3.347,3.284-3.48,3.157" transform="translate(-76.503 -0.782)" fill="#8fc069"/>
        <path id="Path_3446" data-name="Path 3446" d="M218.931,8.953c-.134.127-1.692-1.286-3.481-3.157s-3.133-3.491-3-3.617,1.691,1.286,3.481,3.157,3.132,3.49,3,3.617" transform="translate(-76.503 -0.782)" fill="#8fc069"/>
        <path id="Path_3447" data-name="Path 3447" d="M104.854,140.18H0V79.49H104.854ZM.64,139.54H104.214V80.13H.64Z" transform="translate(0 -28.625)" fill="#edeeef"/>
        <rect id="Rectangle_1350" data-name="Rectangle 1350" width="69.194" height="2.03" transform="translate(14.031 83.224)" fill="#fff"/>
        <rect id="Rectangle_1351" data-name="Rectangle 1351" width="73.96" height="2.214" transform="translate(14.031 90.79)" fill="#f0f0f0"/>
        <rect id="Rectangle_1352" data-name="Rectangle 1352" width="73.96" height="2.214" transform="translate(14.031 98.441)" fill="#f0f0f0"/>
        <rect id="Rectangle_1353" data-name="Rectangle 1353" width="24.183" height="5.266" transform="translate(14.031 72.238)" fill="#fff"/>
        <rect id="Rectangle_1354" data-name="Rectangle 1354" width="104.214" height="9.662" transform="translate(0.32 51.184)" fill="#edeeef"/>
        <rect id="Rectangle_1355" data-name="Rectangle 1355" width="123.053" height="110.16" transform="translate(102.811 125.462)" fill="#e6e6e6"/>
        <rect id="Rectangle_1356" data-name="Rectangle 1356" width="96.391" height="100.148" transform="translate(12.606 90.759)" fill="#f0f0f0"/>
        <rect id="Rectangle_1357" data-name="Rectangle 1357" width="96.391" height="10.912" transform="translate(12.606 90.759)" fill="#fff"/>
        <path id="Path_3448" data-name="Path 3448" d="M29.862,149a2.026,2.026,0,1,1-2.024-2.115A2.071,2.071,0,0,1,29.862,149" transform="translate(-9.296 -52.895)" fill="#0c3761"/>
        <path id="Path_3449" data-name="Path 3449" d="M42.691,149a2.026,2.026,0,1,1-2.024-2.115A2.071,2.071,0,0,1,42.691,149" transform="translate(-13.916 -52.895)" fill="#0c3761"/>
        <path id="Path_3450" data-name="Path 3450" d="M55.519,149a2.026,2.026,0,1,1-2.024-2.115A2.071,2.071,0,0,1,55.519,149" transform="translate(-18.536 -52.895)" fill="#0c3761"/>
        <rect id="Rectangle_1358" data-name="Rectangle 1358" width="123.053" height="122.641" transform="translate(136.552 21.903)" fill="#fff"/>
        <rect id="Rectangle_1359" data-name="Rectangle 1359" width="123.053" height="14.365" transform="translate(136.552 21.903)" fill="#e0e0e0"/>
        <path id="Path_3451" data-name="Path 3451" d="M226.778,43.658a2.667,2.667,0,1,1-2.664-2.785,2.727,2.727,0,0,1,2.664,2.785" transform="translate(-79.747 -14.719)" fill="#fff"/>
        <path id="Path_3452" data-name="Path 3452" d="M242.853,41.807A2.667,2.667,0,1,1,239,41.722a2.726,2.726,0,0,1,3.854.086" transform="translate(-85.795 -14.752)" fill="#fff"/>
        <path id="Path_3453" data-name="Path 3453" d="M260.556,43.658a2.667,2.667,0,1,1-2.664-2.785,2.727,2.727,0,0,1,2.664,2.785" transform="translate(-91.911 -14.719)" fill="#fff"/>
      </g>
    </g>
    <g id="Group_1584" data-name="Group 1584">
      <g id="Group_1583" data-name="Group 1583" clip-path="url(#clip-path)">
        <path id="Path_3454" data-name="Path 3454" d="M310.755,18.07l-3.3,1.179-1.41-4.306a14.439,14.439,0,0,0-18.491-9.477c-7.6,2.718-11.656,11.388-9.056,19.33l1.41,4.306L276.6,30.286a5.262,5.262,0,0,0-3.084,6.577l9.173,28.021A4.942,4.942,0,0,0,289,68.155l34.153-12.217a5.287,5.287,0,0,0,3.112-6.639l-9.173-28.021a4.936,4.936,0,0,0-6.336-3.207m-26.031,4.5a8.446,8.446,0,0,1,4.964-10.595,7.911,7.911,0,0,1,10.131,5.2l1.41,4.306-15.095,5.4Zm19.2,24.861,2.343,7.156a.575.575,0,0,1-.367.717l-3.277,1.172a.531.531,0,0,1-.671-.346l-2.343-7.156a6.4,6.4,0,0,1-5.777-4.482,6.726,6.726,0,0,1,3.962-8.433,6.3,6.3,0,0,1,8.071,4.129,6.836,6.836,0,0,1-1.941,7.242" transform="translate(-98.403 -1.673)" fill="#8f2225"/>
        <path id="Path_3455" data-name="Path 3455" d="M310.978,27.346c.031.086-6.111,2.386-13.717,5.135s-13.8,4.909-13.832,4.823,6.11-2.385,13.719-5.136,13.8-4.909,13.831-4.822" transform="translate(-102.066 -9.847)" fill="#fff"/>
        <path id="Path_3456" data-name="Path 3456" d="M323.6,29.19a.707.707,0,0,1,.074.168l.186.5.684,1.94c.588,1.712,1.424,4.15,2.455,7.153l3.6,10.621c.668,2.005,1.4,4.088,2.1,6.288a9.417,9.417,0,0,1,.48,3.511,4.675,4.675,0,0,1-.518,1.771,4.846,4.846,0,0,1-1.209,1.426,11.4,11.4,0,0,1-3.248,1.658l-3.3,1.184-6.237,2.233L308.1,71.406l-7.133,2.509-1.945.667-.509.165a.752.752,0,0,1-.177.045.764.764,0,0,1,.165-.077l.5-.2,1.923-.725,7.1-2.609,10.543-3.829,6.23-2.251,3.3-1.189a11.108,11.108,0,0,0,3.151-1.605,4.512,4.512,0,0,0,1.127-1.325,4.354,4.354,0,0,0,.481-1.645,9.131,9.131,0,0,0-.463-3.388c-.689-2.178-1.419-4.28-2.078-6.282l-3.533-10.645-2.355-7.186c-.266-.832-.474-1.488-.624-1.959-.064-.21-.115-.379-.155-.513a.742.742,0,0,1-.042-.178" transform="translate(-107.435 -10.512)" fill="#fff"/>
        <path id="Path_3457" data-name="Path 3457" d="M302,14.7c-.017.028-.34-.171-.969-.426a8.561,8.561,0,0,0-2.793-.56,9.516,9.516,0,0,0-4.122.779,9.21,9.21,0,0,0-3.912,3.269,8.638,8.638,0,0,0-1.5,4.859,14.936,14.936,0,0,0,.651,4.187c.338,1.168.683,2.1.909,2.739a6.85,6.85,0,0,1,.331,1.01,6.1,6.1,0,0,1-.452-.963c-.264-.631-.644-1.547-1.014-2.72a14.47,14.47,0,0,1-.733-4.257,8.823,8.823,0,0,1,1.535-5.044A9.367,9.367,0,0,1,294,14.214a9.5,9.5,0,0,1,4.255-.733,8.015,8.015,0,0,1,2.832.676,5.668,5.668,0,0,1,.7.38c.153.1.229.154.223.164" transform="translate(-103.856 -4.849)" fill="#fff"/>
        <path id="Path_3458" data-name="Path 3458" d="M307.981,54.079a1.872,1.872,0,0,1,.324-.161,6.877,6.877,0,0,1,.987-.356,7.025,7.025,0,0,1,1.662-.276,5.624,5.624,0,0,1,2.245.335,6.94,6.94,0,0,1,3.882,4.46,6.43,6.43,0,0,1,.029,3.674,8.326,8.326,0,0,1-2.092,3.459l.042-.169c.85,2.331,1.775,4.871,2.739,7.51l.058.161-.162.055-1.463.49-3.184,1.066-.157.052-.052-.158c-.877-2.653-1.837-5.154-2.535-7.545l.138.109a6.389,6.389,0,0,1-3.425-1.354,7.69,7.69,0,0,1-2.149-2.567,5.931,5.931,0,0,1-.678-2.882,6.785,6.785,0,0,1,.537-2.472,6.715,6.715,0,0,1,2.146-2.814,4.054,4.054,0,0,1,1.106-.618,11.861,11.861,0,0,0-1.047.7A6.836,6.836,0,0,0,304.9,57.58a6.065,6.065,0,0,0,.2,5.168,7.492,7.492,0,0,0,2.094,2.458,6.122,6.122,0,0,0,3.269,1.274l.108.007.03.1c.705,2.373,1.671,4.865,2.556,7.528l-.21-.1,3.183-1.068,1.463-.49-.1.214c-.957-2.643-1.876-5.183-2.72-7.518l-.035-.094.076-.076a8.058,8.058,0,0,0,2.022-3.309,6.167,6.167,0,0,0,0-3.514,6.769,6.769,0,0,0-3.7-4.357,5.556,5.556,0,0,0-2.171-.365,7.231,7.231,0,0,0-1.641.227c-.879.226-1.326.444-1.338.416" transform="translate(-109.542 -19.186)" fill="#fff"/>
      </g>
    </g>
    <g id="Group_1610" data-name="Group 1610">
      <g id="Group_1609" data-name="Group 1609" clip-path="url(#clip-path)">
        <path id="Path_3459" data-name="Path 3459" d="M235.443,237.252l-63.912-.3a13.922,13.922,0,0,1-13.858-13.981l.678-160.229a13.923,13.923,0,0,1,13.986-13.864l63.912.3a13.922,13.922,0,0,1,13.857,13.981l-.677,160.23a13.922,13.922,0,0,1-13.986,13.863" transform="translate(-56.78 -17.603)" fill="#253b61"/>
        <path id="Path_3460" data-name="Path 3460" d="M238.547,57.821l-12.391-.057a3.078,3.078,0,0,0-3.022,3.132l-.01,2.247a3.078,3.078,0,0,1-3.022,3.132l-24.154-.112a3.081,3.081,0,0,1-3-3.159l.01-2.248a3.081,3.081,0,0,0-3-3.16l-4.358-.02-10.846-.05a9.75,9.75,0,0,0-9.795,9.709l-.661,156.4a9.75,9.75,0,0,0,9.705,9.792l63.784.294a9.751,9.751,0,0,0,9.8-9.709l.661-156.4a9.751,9.751,0,0,0-9.705-9.792" transform="translate(-59.169 -20.716)" fill="#fff"/>
        <path id="Path_3461" data-name="Path 3461" d="M239.723,291.824l-47.431-.219c-.491,0-.887-.537-.884-1.194L191.46,278c0-.657.4-1.188.894-1.186l47.431.219c.491,0,.887.537.884,1.194l-.052,12.407c0,.658-.4,1.189-.894,1.186" transform="translate(-68.929 -99.686)" fill="#e8505b"/>
        <text id="SING_UP" data-name="SING UP" transform="matrix(1, 0.005, -0.004, 1, 136.241, 185.018)" fill="#e8e8e3" font-size="4" font-family="Montserrat-Regular, Montserrat"><tspan x="0" y="0">SING UP</tspan></text>
        <rect id="Rectangle_1362" data-name="Rectangle 1362" width="3.019" height="16.455" transform="translate(116.342 86.011) rotate(-89.735)" fill="#e8505b"/>
        <g id="Group_1587" data-name="Group 1587" transform="translate(116.343 82.991)" opacity="0.1">
          <g id="Group_1586" data-name="Group 1586">
            <g id="Group_1585" data-name="Group 1585" clip-path="url(#clip-path-4)">
              <rect id="Rectangle_1363" data-name="Rectangle 1363" width="3.019" height="16.455" transform="translate(0 3.019) rotate(-89.735)"/>
            </g>
          </g>
        </g>
        <path id="Path_3462" data-name="Path 3462" d="M246.419,152.459a1.46,1.46,0,0,0,.376-.088,1.012,1.012,0,0,0,.62-.861c0-1.021-.005-2.5-.009-4.409,0-.959,0-2.023,0-3.187q0-.438,0-.893a1.229,1.229,0,0,0-.179-.839.944.944,0,0,0-.757-.39l-1,0-9.243-.018-53.52-.2a.866.866,0,0,0-.705.356,1.234,1.234,0,0,0-.166.836q0,.974-.009,1.942-.008,1.935-.017,3.844,0,.955-.009,1.9a5.609,5.609,0,0,0,.027.9.867.867,0,0,0,.5.577.963.963,0,0,0,.4.068l.468,0,.934,0,1.856.009,14.211.076,24.061.147,16.221.128,4.41.052,1.147.022c.259.007.391.019.391.019s-.132.011-.391.015l-1.147.012-4.411.011-16.221-.022-24.062-.076-14.21-.056-1.856-.008-.934,0-.468,0a1.3,1.3,0,0,1-.522-.093,1.2,1.2,0,0,1-.691-.8,1.863,1.863,0,0,1-.04-.512l0-.473q0-.947.008-1.9.008-1.909.015-3.844,0-.968.008-1.942a4.335,4.335,0,0,1,.016-.511,1.177,1.177,0,0,1,.214-.52,1.2,1.2,0,0,1,.976-.494l53.519.3,9.244.067,1,.008a1.117,1.117,0,0,1,.9.469,1.39,1.39,0,0,1,.205.939q0,.456-.007.893c-.011,1.164-.02,2.229-.028,3.187-.024,1.907-.042,3.392-.054,4.413a1.044,1.044,0,0,1-.675.888.771.771,0,0,1-.387.056" transform="translate(-65.348 -50.863)" fill="#e0e0e0"/>
        <rect id="Rectangle_1365" data-name="Rectangle 1365" width="2.823" height="30.102" transform="translate(120.759 97.428) rotate(-89.736)" fill="#e8505b"/>
        <g id="Group_1590" data-name="Group 1590" transform="translate(120.759 94.605)" opacity="0.2">
          <g id="Group_1589" data-name="Group 1589">
            <g id="Group_1588" data-name="Group 1588" clip-path="url(#clip-path-5)">
              <rect id="Rectangle_1366" data-name="Rectangle 1366" width="2.823" height="30.102" transform="translate(0 2.823) rotate(-89.736)" fill="#fff"/>
            </g>
          </g>
        </g>
        <rect id="Rectangle_1368" data-name="Rectangle 1368" width="3.019" height="16.455" transform="translate(116.226 113.566) rotate(-89.735)" fill="#e8505b"/>
        <g id="Group_1593" data-name="Group 1593" transform="translate(116.226 110.547)" opacity="0.1">
          <g id="Group_1592" data-name="Group 1592">
            <g id="Group_1591" data-name="Group 1591" clip-path="url(#clip-path-4)">
              <rect id="Rectangle_1369" data-name="Rectangle 1369" width="3.019" height="16.455" transform="translate(-0.001 3.019) rotate(-89.735)"/>
            </g>
          </g>
        </g>
        <path id="Path_3463" data-name="Path 3463" d="M245.931,195.521a2.69,2.69,0,0,0,.379-.072,1.327,1.327,0,0,0,.81-.725,1.732,1.732,0,0,0,.111-.811q0-.467,0-1.017c0-.736,0-1.584-.005-2.536s0-2.016,0-3.176v-.889a1.39,1.39,0,0,0-.186-.845,1.259,1.259,0,0,0-.7-.539,3.969,3.969,0,0,0-.967-.055l-9.212-.018-53.334-.2a1.177,1.177,0,0,0-1.168,1.03c-.019.609-.01,1.281-.017,1.916q-.009,1.928-.017,3.831,0,.951-.008,1.9a3.955,3.955,0,0,0,.04.893,1.179,1.179,0,0,0,.467.656,1.266,1.266,0,0,0,.8.2l.931,0,1.85.01,14.161.075,23.978.147,16.164.127,4.395.052,1.143.022c.257.007.389.019.389.019s-.132.011-.39.015l-1.143.012-4.395.012-16.165-.022-23.978-.075-14.161-.056-1.85-.008-.93,0a1.605,1.605,0,0,1-.98-.261,1.514,1.514,0,0,1-.6-.841,4.076,4.076,0,0,1-.052-.982q0-.944.007-1.895.008-1.9.015-3.832c.008-.651-.005-1.27.019-1.954a1.51,1.51,0,0,1,1.5-1.323l53.334.295,9.211.067a4,4,0,0,1,1.019.07,1.431,1.431,0,0,1,.79.621,1.561,1.561,0,0,1,.2.936c0,.3,0,.6-.006.889-.01,1.16-.02,2.221-.028,3.176s-.019,1.8-.026,2.536q-.007.55-.012,1.017a1.793,1.793,0,0,1-.132.838,1.35,1.35,0,0,1-.863.73,1.027,1.027,0,0,1-.388.039" transform="translate(-65.283 -66.371)" fill="#e0e0e0"/>
        <rect id="Rectangle_1371" data-name="Rectangle 1371" width="3.02" height="16.456" transform="translate(116.104 142.306) rotate(-89.737)" fill="#e8505b"/>
        <g id="Group_1596" data-name="Group 1596" transform="translate(116.105 139.286)" opacity="0.1">
          <g id="Group_1595" data-name="Group 1595">
            <g id="Group_1594" data-name="Group 1594" clip-path="url(#clip-path-7)">
              <rect id="Rectangle_1372" data-name="Rectangle 1372" width="3.02" height="16.456" transform="translate(0 3.019) rotate(-89.737)"/>
            </g>
          </g>
        </g>
        <path id="Path_3464" data-name="Path 3464" d="M245.741,240.434a2.7,2.7,0,0,0,.379-.071,1.327,1.327,0,0,0,.81-.726,1.724,1.724,0,0,0,.111-.811c0-.311,0-.649,0-1.017,0-.737,0-1.584,0-2.536s0-2.017,0-3.177q0-.435,0-.89a1.4,1.4,0,0,0-.187-.844,1.262,1.262,0,0,0-.7-.539,3.974,3.974,0,0,0-.967-.055l-9.211-.018-53.333-.2a1.175,1.175,0,0,0-1.168,1.03c-.019.608-.011,1.28-.017,1.916q-.01,1.927-.017,3.831-.006.951-.008,1.9a4.033,4.033,0,0,0,.039.893,1.182,1.182,0,0,0,.468.656,1.263,1.263,0,0,0,.8.2l.931,0,1.849.01,14.161.075,23.978.146,16.164.127,4.394.052,1.144.022c.257.006.389.019.389.019s-.132.011-.389.015l-1.144.012-4.4.012-16.164-.022-23.978-.075-14.161-.056-1.849-.008-.931,0a1.609,1.609,0,0,1-.98-.261,1.514,1.514,0,0,1-.6-.841,4.108,4.108,0,0,1-.052-.982q0-.944.007-1.895.009-1.9.015-3.832c.007-.651,0-1.27.019-1.954a1.509,1.509,0,0,1,1.5-1.323l53.333.295,9.211.067a3.972,3.972,0,0,1,1.019.07,1.436,1.436,0,0,1,.79.621,1.557,1.557,0,0,1,.2.936q0,.454-.007.889c-.01,1.16-.02,2.221-.028,3.176s-.019,1.8-.026,2.537q-.007.55-.013,1.016a1.79,1.79,0,0,1-.132.84,1.348,1.348,0,0,1-.862.729,1.043,1.043,0,0,1-.388.039" transform="translate(-65.214 -82.545)" fill="#e0e0e0"/>
        <rect id="Rectangle_1374" data-name="Rectangle 1374" width="2.823" height="30.103" transform="translate(120.642 124.984) rotate(-89.736)" fill="#e8505b"/>
        <g id="Group_1599" data-name="Group 1599" transform="translate(120.643 122.161)" opacity="0.2">
          <g id="Group_1598" data-name="Group 1598">
            <g id="Group_1597" data-name="Group 1597" clip-path="url(#clip-path-5)">
              <rect id="Rectangle_1375" data-name="Rectangle 1375" width="2.823" height="30.103" transform="translate(0 2.822) rotate(-89.736)" fill="#fff"/>
            </g>
          </g>
        </g>
        <path id="Path_3465" data-name="Path 3465" d="M191.35,237.79a1.319,1.319,0,1,1-1.31-1.41,1.362,1.362,0,0,1,1.31,1.41" transform="translate(-67.96 -85.124)" fill="#e8505b"/>
        <path id="Path_3466" data-name="Path 3466" d="M197.723,237.819a1.319,1.319,0,1,1-1.31-1.41,1.362,1.362,0,0,1,1.31,1.41" transform="translate(-70.255 -85.134)" fill="#e8505b"/>
        <path id="Path_3467" data-name="Path 3467" d="M204.095,237.848a1.319,1.319,0,1,1-1.31-1.41,1.361,1.361,0,0,1,1.31,1.41" transform="translate(-72.55 -85.145)" fill="#e8505b"/>
        <path id="Path_3468" data-name="Path 3468" d="M210.468,237.878a1.319,1.319,0,1,1-1.31-1.41,1.361,1.361,0,0,1,1.31,1.41" transform="translate(-74.845 -85.155)" fill="#e8505b"/>
        <path id="Path_3469" data-name="Path 3469" d="M216.841,237.907a1.319,1.319,0,1,1-1.31-1.41,1.361,1.361,0,0,1,1.31,1.41" transform="translate(-77.14 -85.166)" fill="#e8505b"/>
        <path id="Path_3470" data-name="Path 3470" d="M223.214,237.936a1.319,1.319,0,1,1-1.31-1.41,1.361,1.361,0,0,1,1.31,1.41" transform="translate(-79.435 -85.176)" fill="#e8505b"/>
        <path id="Path_3471" data-name="Path 3471" d="M229.587,237.965a1.319,1.319,0,1,1-1.31-1.408,1.363,1.363,0,0,1,1.31,1.408" transform="translate(-81.73 -85.188)" fill="#e8505b"/>
        <path id="Path_3472" data-name="Path 3472" d="M235.959,237.995a1.318,1.318,0,1,1-1.31-1.409,1.362,1.362,0,0,1,1.31,1.409" transform="translate(-84.025 -85.198)" fill="#e8505b"/>
        <path id="Path_3473" data-name="Path 3473" d="M242.332,238.025a1.319,1.319,0,1,1-1.31-1.41,1.361,1.361,0,0,1,1.31,1.41" transform="translate(-86.319 -85.208)" fill="#e8505b"/>
        <g id="Group_1602" data-name="Group 1602" transform="translate(120.757 151.256)" opacity="0.2">
          <g id="Group_1601" data-name="Group 1601">
            <g id="Group_1600" data-name="Group 1600" clip-path="url(#clip-path-9)">
              <path id="Path_3474" data-name="Path 3474" d="M191.35,237.79a1.319,1.319,0,1,1-1.31-1.41,1.362,1.362,0,0,1,1.31,1.41" transform="translate(-188.717 -236.38)" fill="#fff"/>
              <path id="Path_3475" data-name="Path 3475" d="M197.723,237.819a1.319,1.319,0,1,1-1.31-1.41,1.362,1.362,0,0,1,1.31,1.41" transform="translate(-191.012 -236.39)" fill="#fff"/>
              <path id="Path_3476" data-name="Path 3476" d="M204.095,237.848a1.319,1.319,0,1,1-1.31-1.41,1.361,1.361,0,0,1,1.31,1.41" transform="translate(-193.307 -236.401)" fill="#fff"/>
              <path id="Path_3477" data-name="Path 3477" d="M210.468,237.878a1.319,1.319,0,1,1-1.31-1.41,1.361,1.361,0,0,1,1.31,1.41" transform="translate(-195.602 -236.412)" fill="#fff"/>
              <path id="Path_3478" data-name="Path 3478" d="M216.841,237.907a1.319,1.319,0,1,1-1.31-1.41,1.361,1.361,0,0,1,1.31,1.41" transform="translate(-197.897 -236.422)" fill="#fff"/>
              <path id="Path_3479" data-name="Path 3479" d="M223.214,237.936a1.319,1.319,0,1,1-1.31-1.41,1.361,1.361,0,0,1,1.31,1.41" transform="translate(-200.192 -236.433)" fill="#fff"/>
              <path id="Path_3480" data-name="Path 3480" d="M229.587,237.965a1.319,1.319,0,1,1-1.31-1.408,1.363,1.363,0,0,1,1.31,1.408" transform="translate(-202.487 -236.444)" fill="#fff"/>
              <path id="Path_3481" data-name="Path 3481" d="M235.959,237.995a1.318,1.318,0,1,1-1.31-1.409,1.362,1.362,0,0,1,1.31,1.409" transform="translate(-204.782 -236.454)" fill="#fff"/>
              <path id="Path_3482" data-name="Path 3482" d="M242.332,238.025a1.319,1.319,0,1,1-1.31-1.41,1.361,1.361,0,0,1,1.31,1.41" transform="translate(-207.077 -236.465)" fill="#fff"/>
            </g>
          </g>
        </g>
        <path id="Path_3483" data-name="Path 3483" d="M231.885,91.756a2.481,2.481,0,0,0,1.479-2.3,2.332,2.332,0,1,0-4.655-.022,2.477,2.477,0,0,0,1.483,2.317c-3.581.539-3.418,4.432-3.418,4.432l8.468.039s.193-3.935-3.357-4.471" transform="translate(-81.664 -31.318)" fill="#e8505b"/>
        <g id="Group_1605" data-name="Group 1605" transform="translate(145.108 55.65)" opacity="0.1">
          <g id="Group_1604" data-name="Group 1604">
            <g id="Group_1603" data-name="Group 1603" clip-path="url(#clip-path-10)">
              <path id="Path_3484" data-name="Path 3484" d="M231.885,91.756a2.481,2.481,0,0,0,1.479-2.3,2.332,2.332,0,1,0-4.655-.022,2.477,2.477,0,0,0,1.483,2.317c-3.581.539-3.418,4.432-3.418,4.432l8.468.039s.193-3.935-3.357-4.471" transform="translate(-226.772 -86.968)"/>
            </g>
          </g>
        </g>
        <rect id="Rectangle_1379" data-name="Rectangle 1379" width="3.611" height="30.197" transform="translate(133.769 70.928) rotate(-89.735)" fill="#e8505b"/>
        <g id="Group_1608" data-name="Group 1608" transform="translate(133.769 67.317)" opacity="0.2">
          <g id="Group_1607" data-name="Group 1607">
            <g id="Group_1606" data-name="Group 1606" clip-path="url(#clip-path-11)">
              <rect id="Rectangle_1380" data-name="Rectangle 1380" width="3.611" height="30.197" transform="translate(0 3.611) rotate(-89.735)" fill="#fff"/>
            </g>
          </g>
        </g>
      </g>
    </g>
    <g id="Group_1612" data-name="Group 1612">
      <g id="Group_1611" data-name="Group 1611" clip-path="url(#clip-path)">
        <path id="Path_3485" data-name="Path 3485" d="M73.518,134.62a1.846,1.846,0,0,1-.3.033l-.872.063a9.867,9.867,0,0,0-1.4.187c-.274.056-.577.078-.887.17l-.992.275a16.338,16.338,0,0,0-4.719,2.34,16.733,16.733,0,0,0-4.643,5.168,17.56,17.56,0,0,0-1.627,3.716,18.727,18.727,0,0,0-.667,6.656c.02.393.106.783.155,1.178a8.346,8.346,0,0,0,.224,1.185,16.715,16.715,0,0,0,1.792,4.644,16.517,16.517,0,0,0,7.794,7.082,15.2,15.2,0,0,0,5.5,1.234,14.86,14.86,0,0,0,5.737-.826l.562-.207.074-.027.067.034,8.07,4.1-.24.2-2.5-7.756-.031-.1.072-.071a17.239,17.239,0,0,0,4.237-7.045,17.7,17.7,0,0,0,.615-7.5,17.264,17.264,0,0,0-5.764-10.818,17.723,17.723,0,0,0-3.965-2.522,17.359,17.359,0,0,0-3.349-1.055l-1.255-.214-.927-.065-.567-.044a.959.959,0,0,1-.193-.025,1.051,1.051,0,0,1,.193,0l.57.016.932.038,1.267.189a17.053,17.053,0,0,1,3.393,1.017,17.7,17.7,0,0,1,4.033,2.513,17.378,17.378,0,0,1,3.724,4.5,17.584,17.584,0,0,1,2.185,6.442,17.955,17.955,0,0,1-.6,7.627,17.521,17.521,0,0,1-4.3,7.187l.04-.167,2.51,7.752.127.391-.367-.186-8.073-4.092.141.006-.575.211a15.171,15.171,0,0,1-5.865.843,15.506,15.506,0,0,1-5.616-1.267,16.812,16.812,0,0,1-7.938-7.237,17,17,0,0,1-1.811-4.734,8.633,8.633,0,0,1-.224-1.206c-.049-.4-.134-.8-.154-1.2a18.305,18.305,0,0,1-.033-2.358,18.108,18.108,0,0,1,.74-4.4,17.759,17.759,0,0,1,1.671-3.763,16.828,16.828,0,0,1,4.742-5.2,16.247,16.247,0,0,1,4.793-2.313l1-.261a18.943,18.943,0,0,1,2.312-.31l.876-.029a1.94,1.94,0,0,1,.3,0" transform="translate(-20.545 -48.477)" fill="#8f2225"/>
        <path id="Path_3486" data-name="Path 3486" d="M82.871,154.618H81.689l-2.581-3.6v-2.361s-1.828-.112-1.613,2.979-.017,2.3-.017,2.3-3.882.015-4.2.352c-.234.245-.34,4.1-.381,6.191a2.264,2.264,0,0,0,1.6,2.281,1.709,1.709,0,0,0,.417.056c.968,0,5.914-.787,5.914-.787h2.043Z" transform="translate(-26.25 -53.535)" fill="#8f2225"/>
        <path id="Path_3487" data-name="Path 3487" d="M92.229,156.959l-.728,8.088H89.476v-7.926Z" transform="translate(-32.222 -56.523)" fill="#8f2225"/>
      </g>
    </g>
    <g id="Group_1620" data-name="Group 1620">
      <g id="Group_1619" data-name="Group 1619" clip-path="url(#clip-path)">
        <path id="Path_3488" data-name="Path 3488" d="M125.9,411.169v-5.475l-9.809-.065-.081,8.271.608.045c2.706.175,13.77.429,15.584-.132,2.022-.626-6.3-2.644-6.3-2.644" transform="translate(-41.778 -146.073)" fill="#8f2225"/>
        <path id="Path_3489" data-name="Path 3489" d="M132.455,417.522c0,.093-3.67.167-8.2.167s-8.2-.074-8.2-.167,3.668-.166,8.2-.166,8.2.074,8.2.166" transform="translate(-41.796 -150.296)" fill="#fff"/>
        <path id="Path_3490" data-name="Path 3490" d="M131.721,415.467c-.081-.042-.012-.331.2-.617s.467-.438.531-.374-.069.307-.262.571-.386.463-.468.419" transform="translate(-47.423 -149.254)" fill="#fff"/>
        <path id="Path_3491" data-name="Path 3491" d="M132.694,415.922c-.085-.032-.041-.356.152-.7s.447-.547.518-.491-.05.337-.228.655-.355.568-.442.534" transform="translate(-47.77 -149.348)" fill="#fff"/>
        <path id="Path_3492" data-name="Path 3492" d="M119.089,416.5c-.038.027-.184-.117-.4-.358a6.492,6.492,0,0,0-.86-.861,2.256,2.256,0,0,0-1.062-.464c-.3-.04-.494.006-.511-.042s.165-.173.518-.194a1.949,1.949,0,0,1,1.257.435,3.551,3.551,0,0,1,.847.987c.168.282.244.471.207.5" transform="translate(-41.867 -149.294)" fill="#fff"/>
        <path id="Path_3493" data-name="Path 3493" d="M131.253,414.4c.048.077-.12.268-.4.37s-.531.068-.545-.022.184-.2.43-.29.467-.137.515-.058" transform="translate(-46.925 -149.217)" fill="#fff"/>
        <path id="Path_3494" data-name="Path 3494" d="M130.886,413.508c.009.092-.253.171-.584.175s-.6-.067-.588-.159.267-.17.584-.174.579.067.588.158" transform="translate(-46.712 -148.853)" fill="#fff"/>
        <path id="Path_3495" data-name="Path 3495" d="M163.655,411.169v-5.475l-9.811-.065-.081,8.187.608.045c2.706.175,13.771.514,15.584-.047,2.022-.626-6.3-2.644-6.3-2.644" transform="translate(-55.373 -146.073)" fill="#8f2225"/>
        <path id="Path_3496" data-name="Path 3496" d="M170.206,417.541c0,.092-3.669.167-8.2.167s-8.2-.075-8.2-.167,3.668-.167,8.2-.167,8.2.075,8.2.167" transform="translate(-55.391 -150.302)" fill="#fff"/>
        <path id="Path_3497" data-name="Path 3497" d="M169.473,415.467c-.081-.042-.012-.331.2-.617s.466-.438.53-.374-.069.307-.262.571-.386.463-.468.419" transform="translate(-61.018 -149.254)" fill="#fff"/>
        <path id="Path_3498" data-name="Path 3498" d="M170.446,415.922c-.085-.032-.041-.356.152-.7s.447-.547.518-.491-.05.337-.228.655-.355.568-.442.534" transform="translate(-61.365 -149.348)" fill="#fff"/>
        <path id="Path_3499" data-name="Path 3499" d="M156.841,416.5c-.038.027-.184-.117-.4-.358a6.454,6.454,0,0,0-.86-.861,2.254,2.254,0,0,0-1.062-.464c-.3-.04-.494.006-.511-.042s.165-.173.518-.194a1.952,1.952,0,0,1,1.257.435,3.573,3.573,0,0,1,.847.987c.167.282.243.471.206.5" transform="translate(-55.462 -149.294)" fill="#fff"/>
        <path id="Path_3500" data-name="Path 3500" d="M169,414.4c.048.077-.12.268-.4.37s-.531.068-.545-.022.184-.2.429-.29.467-.137.516-.058" transform="translate(-60.52 -149.217)" fill="#fff"/>
        <path id="Path_3501" data-name="Path 3501" d="M168.636,413.508c.009.092-.253.171-.584.175s-.594-.067-.589-.159.268-.17.584-.174.579.067.588.158" transform="translate(-60.306 -148.853)" fill="#fff"/>
        <path id="Path_3502" data-name="Path 3502" d="M174.231,155.535c-.256-.264-.886-.139-.886-.139a3.4,3.4,0,0,0-.006-1.11c-.115-.362-.922-.292-.922-.292a3.765,3.765,0,0,1,.02-.909.321.321,0,0,0-.187-.322,2.97,2.97,0,0,0-1.206-.22c-.494-.353,1.505-3.148,2.246-4.043s.609-1.591-.052-1.591c-.45,0-2.783,2.688-3.5,3.59s-2.62,3.411-2.686,1.408-.87-3.517-1.373-3.775-1.045.347-.767.9a7.355,7.355,0,0,1,.448,1.97,4.777,4.777,0,0,1-.074,1.618,18.593,18.593,0,0,1-.861,2.89l-.049-.028s-13.967,13.392-14.973,14.348c-.906.86-19.055-1.017-22.69-1.4a25.178,25.178,0,0,0-3.741-.255c-1.577.069-1.858.293-3.436.314a77.6,77.6,0,0,0-11.859,1.043,9.82,9.82,0,0,0-7.718,6.694c-3.67,11.452-11.972,38.565-13.451,53.8a63.66,63.66,0,0,0-3,6.19c-1.028,2.8-.779,2.9-.432,2.96.93.172,1.995-4.855,2.393-3.642s-2.017,6-1.037,6.138c1.277.182,2.3-5.1,2.414-5.543s.76-.283.632.109c-.185.564-1.986,6.534-.733,6.725.694.106.769-1.158.769-1.158s1.273-5.71,1.861-5.6-.037,3.489-.331,4.613.119,1.7.717,1.421c.409-.191,1.392-3.611,1.657-4.729s.938-4.2,1.842-2.41,2.272,2.822,2.836,2.844a.627.627,0,0,0,.315-1.143,7.26,7.26,0,0,1-1.237-1.6,4.761,4.761,0,0,1-.616-1.5,16.546,16.546,0,0,1-.446-3.238l-.1-.658c1.433-7.1,5.563-27.923,11.5-41.227l2.443,5.028,1.06,3.722L102.5,213.413l27.779-.366-4.141-15.957,5.032-16.64h0c5.445.122,19.431.324,21.782-.726,2.93-1.309,18.095-20.425,18.095-20.425h0a35.92,35.92,0,0,0,2.835-2.459s.9-.731.348-1.3" transform="translate(-29.811 -52.904)" fill="#ffbe9d"/>
        <path id="Path_3503" data-name="Path 3503" d="M106.834,212.814c.8-2.751,4.946-16.354,4.946-16.354s2.032,11.09,1.5,12.425a23.541,23.541,0,0,1-1.747,3.3c-4.7,7.153-4.081,10.728-4.081,10.728l28.373-.865c.069-3.969-2.28-13.194-2.771-14.663s1.138-6.294,1.138-6.294,3.206-3.256,3.082-4.932a27.013,27.013,0,0,0-.559-4.467l17.265.635-.543-11.714-24.817-2.483c-.859,2.444-8.674,1.247-8.674,1.247-8.437.277-8.948,1.829-12.466,4.553s-9.312,26.119-9.312,26.119Z" transform="translate(-35.351 -64.147)" fill="#8f2225"/>
        <path id="Path_3504" data-name="Path 3504" d="M132.239,227.427a6.07,6.07,0,0,1-1.5.076c-.923-.006-2.2-.063-3.6-.2s-2.665-.34-3.571-.518a6.038,6.038,0,0,1-1.45-.372,7.428,7.428,0,0,1,1.488.14c.912.118,2.172.278,3.567.418s2.661.235,3.579.3a7.5,7.5,0,0,1,1.486.16" transform="translate(-43.977 -81.528)" fill="#fff"/>
        <path id="Path_3505" data-name="Path 3505" d="M134.779,224.232a6.616,6.616,0,0,1-1.549.528,28.069,28.069,0,0,1-7.823.929,6.672,6.672,0,0,1-1.63-.15,10.005,10.005,0,0,1,1.629-.085c1-.031,2.387-.1,3.906-.285s2.881-.434,3.863-.638a10.072,10.072,0,0,1,1.6-.3" transform="translate(-44.574 -80.746)" fill="#fff"/>
        <path id="Path_3506" data-name="Path 3506" d="M154.548,207.416a6.175,6.175,0,0,1-.194,1.447c-.165.885-.425,2.1-.752,3.434s-.66,2.533-.923,3.393a6.125,6.125,0,0,1-.5,1.373,6.594,6.594,0,0,1,.271-1.434c.241-1,.52-2.146.827-3.412s.6-2.409.845-3.406a6.616,6.616,0,0,1,.424-1.4" transform="translate(-54.799 -74.693)" fill="#fff"/>
        <path id="Path_3507" data-name="Path 3507" d="M107.306,228.451a30.239,30.239,0,0,1-4.37-1.019,30.284,30.284,0,0,1-4.283-1.341,30.356,30.356,0,0,1,4.37,1.019,30.321,30.321,0,0,1,4.283,1.341" transform="translate(-35.526 -81.414)" fill="#fff"/>
        <path id="Path_3508" data-name="Path 3508" d="M154.445,191.918a2.272,2.272,0,0,1-.735,0,7.458,7.458,0,0,1-1.951-.465,8.177,8.177,0,0,1-2.546-1.55,7.977,7.977,0,0,1-2.083-3,8.239,8.239,0,0,1-.573-3.606,5.657,5.657,0,0,1,.876-2.854,2.951,2.951,0,0,1,1.619-1.193,2,2,0,0,1,.546-.073c.126,0,.191.017.191.028,0,.031-.265.016-.7.168a2.972,2.972,0,0,0-1.463,1.2,7.3,7.3,0,0,0-.188,6.206,7.911,7.911,0,0,0,1.98,2.9,8.363,8.363,0,0,0,2.427,1.559,12.511,12.511,0,0,0,2.6.687" transform="translate(-52.771 -64.523)" fill="#fff"/>
        <path id="Path_3509" data-name="Path 3509" d="M182.117,193.316a52.3,52.3,0,0,1-.155-5.9,52.222,52.222,0,0,1,.179-5.9,52.321,52.321,0,0,1,.155,5.9,52.215,52.215,0,0,1-.179,5.9" transform="translate(-65.527 -65.369)" fill="#fff"/>
        <path id="Path_3510" data-name="Path 3510" d="M140.147,166.633c.07-1.428.219-3.041.219-3.041a4.277,4.277,0,0,0,3.745-4.037c.214-3.648,0-12.059,0-12.059l-6.431-3.275-7.075,5.582,1.072,18.238,6.51.414a1.877,1.877,0,0,0,1.959-1.822" transform="translate(-47.033 -51.936)" fill="#ffbe9d"/>
        <path id="Path_3511" data-name="Path 3511" d="M145.685,162.506c.01,0,.011.068-.056.157a.5.5,0,0,1-.406.179c-.41-.02-.8-.473-.95-1.026a1.745,1.745,0,0,1-.018-.811.694.694,0,0,1,.384-.55.344.344,0,0,1,.272.006.308.308,0,0,1,.145.147c.047.109.01.175,0,.17s-.011-.061-.064-.129a.236.236,0,0,0-.3-.064.574.574,0,0,0-.263.457,1.7,1.7,0,0,0,.029.723c.128.5.472.9.777.938a.462.462,0,0,0,.344-.095c.069-.057.094-.108.107-.1" transform="translate(-51.934 -57.774)" fill="#eb996e"/>
        <path id="Path_3512" data-name="Path 3512" d="M136.905,144.21c-.491-1.678-2.277-2.513-3.9-2.974a12.32,12.32,0,0,0-7.572-.122c-2.417.89-5.324,2.455-5.324,5.127-1.427-.117-2.242,1.133-2.808,2.682a10.235,10.235,0,0,0-.607,2.943l-.023-.008c-.184,3.5-1.158,8.312-3.424,10.9-1.252,1.428-3.054,2.415-3.783,4.193-.634,1.545-.306,3.372-.905,4.932-.529,1.377-1.7,2.355-2.541,3.552a9.5,9.5,0,0,0-.61,9.208,11.683,11.683,0,0,0,6.965,6.019,16.317,16.317,0,0,0,9.187.086,15.358,15.358,0,0,0,6.154-3.049,10.309,10.309,0,0,0,3.534-5.964c.45-2.614-.281-5.268-.819-7.865-1.7-8.214-1.216-8.64.932-16.258.048-.134.078-.274.115-.412.029-.1.056-.2.085-.3l0,0a4.742,4.742,0,0,0,.1-.911,1.75,1.75,0,0,1-1.851-.4,1.933,1.933,0,0,1-.437-1.915,2.771,2.771,0,0,1,1.65-1.555c.71-.3,1.473-.447,2.17-.778a7.24,7.24,0,0,0,3.2-3.691,5.047,5.047,0,0,0,.521-3.433" transform="translate(-37.633 -50.621)" fill="#263238"/>
        <path id="Path_3513" data-name="Path 3513" d="M146.286,163.918a2.912,2.912,0,0,1,.337.632c.19.4.445.975.728,1.63l.053.124-.135.012-.651.056c-.447.029-.819.083-1.252.078a.227.227,0,0,1-.165-.145.377.377,0,0,1-.01-.178c.019-.1.041-.175.061-.26l.113-.453a4.312,4.312,0,0,1,.269-.886,4.244,4.244,0,0,1-.131.916l-.089.458c-.033.154-.089.386-.006.368.318-.014.772-.067,1.193-.1l.651-.052-.082.136c-.274-.659-.506-1.239-.664-1.656a2.9,2.9,0,0,1-.22-.682" transform="translate(-52.283 -59.029)" fill="#e8505b"/>
        <path id="Path_3514" data-name="Path 3514" d="M111.9,247.63l28.373-.865,12.34,48.208-2.273,55.3H135.323l1.861-54.121-10.975-33.559,1.691,89.825-15.161.223-1.6-84.432c-.066-2.346-.839-7.641-.551-9.969Z" transform="translate(-39.802 -88.864)" fill="#263238"/>
        <path id="Path_3515" data-name="Path 3515" d="M135.714,271.5a5.455,5.455,0,0,1-1.392-.083c-.854-.1-2.028-.28-3.314-.539s-2.439-.547-3.265-.785a5.419,5.419,0,0,1-1.316-.462c.025-.092,2.085.407,4.646.92s4.652.853,4.64.948" transform="translate(-45.528 -97.096)" fill="#455a64"/>
        <path id="Path_3516" data-name="Path 3516" d="M163.987,403.689c0,.093-3.4.167-7.593.167s-7.594-.074-7.594-.167,3.4-.166,7.594-.166,7.593.075,7.593.166" transform="translate(-53.585 -145.314)" fill="#455a64"/>
        <path id="Path_3517" data-name="Path 3517" d="M129.174,408.132c0,.093-3.3.167-7.366.167s-7.366-.074-7.366-.167,3.3-.166,7.366-.166,7.366.074,7.366.166" transform="translate(-41.212 -146.914)" fill="#455a64"/>
        <path id="Path_3518" data-name="Path 3518" d="M133.587,358.524c-.092,0-.491-19.627-.891-43.834s-.649-43.843-.557-43.844.491,19.622.891,43.838.649,43.838.557,43.84" transform="translate(-47.578 -97.535)" fill="#455a64"/>
        <path id="Path_3519" data-name="Path 3519" d="M163.632,347.725a1.562,1.562,0,0,1-.007-.261c0-.189.008-.443.014-.767.02-.692.049-1.681.086-2.947.089-2.576.218-6.273.376-10.834.351-9.161.834-21.789,1.367-35.737.005-.129.01-.257.015-.376l0,.047c-3.363-13.465-6.4-25.635-8.605-34.46l-2.568-10.438c-.293-1.22-.522-2.174-.681-2.84l-.169-.741a1.455,1.455,0,0,1-.047-.255,1.535,1.535,0,0,1,.079.247l.2.732c.175.664.424,1.612.742,2.826l2.67,10.413c2.229,8.818,5.3,20.98,8.7,34.435l.006.023v.024c0,.118-.01.247-.015.376-.571,13.946-1.089,26.573-1.465,35.733l-.482,10.829c-.063,1.264-.113,2.252-.148,2.944-.02.323-.035.577-.047.765a1.5,1.5,0,0,1-.027.26" transform="translate(-55.247 -89.35)" fill="#455a64"/>
        <path id="Path_3520" data-name="Path 3520" d="M157.9,322.432a17.45,17.45,0,0,1-3.318.738c-1.38.237-2.571.4-3.091.429v-.13c.173.047.266.084.262.107s-.1.03-.282.022l-.388-.017.387-.113c.5-.146,1.678-.39,3.057-.627a17.444,17.444,0,0,1,3.374-.411" transform="translate(-54.405 -116.104)" fill="#455a64"/>
        <path id="Path_3521" data-name="Path 3521" d="M157.931,325.01a17.2,17.2,0,0,1-2.987-.136,17.2,17.2,0,0,1-2.972-.328,18.953,18.953,0,0,1,5.959.464" transform="translate(-54.727 -116.843)" fill="#455a64"/>
        <g id="Group_1615" data-name="Group 1615" transform="translate(71.972 157.901)" opacity="0.2">
          <g id="Group_1614" data-name="Group 1614">
            <g id="Group_1613" data-name="Group 1613" clip-path="url(#clip-path-14)">
              <path id="Path_3522" data-name="Path 3522" d="M112.478,248.649a3.9,3.9,0,0,0,2.8,1.49,12.682,12.682,0,0,0,3.441-.065c7.323-.813,15.084-1.563,22.257-3.309-9.284.52-19.088.345-28.373.865,0,0-.079.639-.1.793" transform="translate(-112.477 -246.764)"/>
            </g>
          </g>
        </g>
        <g id="Group_1618" data-name="Group 1618" transform="translate(81.543 172.872)" opacity="0.2">
          <g id="Group_1617" data-name="Group 1617">
            <g id="Group_1616" data-name="Group 1616" clip-path="url(#clip-path-15)">
              <path id="Path_3523" data-name="Path 3523" d="M127.433,270.16l5.23,20.3-.366-19.449Z" transform="translate(-127.433 -270.16)"/>
            </g>
          </g>
        </g>
      </g>
    </g>
  </g>
</svg>
