<svg xmlns="http://www.w3.org/2000/svg" width="86.478" height="99.641" viewBox="0 0 86.478 99.641">
  <g id="digital-signature_1_" data-name="digital-signature (1)" transform="translate(-10.49 -5.245)">
    <path id="Path_3774" data-name="Path 3774" d="M85.886,78.864l1.058,1.88c1.1,1.945,1.117,2.894.7,3.753S86,86.391,83.928,87.579L74.647,92.9c-2.068,1.181-3.588,1.716-4.523,1.638s-1.723-.58-2.82-2.525L66.2,90.237ZM59.614,48.807l3.133,5.437c.971,1.686.639,3.812-1.872,5.5l-8.082-8.107a7.156,7.156,0,0,0,1.456-.462Zm-21.26-4.7,3.421.5,29.451,29.55a1.781,1.781,0,0,1,.673,1.554,2.339,2.339,0,0,1-2.083,2.075,1.981,1.981,0,0,1-1.554-.674l-18.028-18.1c-1.241-4.106-2.73-6.592-4.512-7.994a6.171,6.171,0,0,0-4.731-1.267l-2.142-2.161ZM64.6,39.565,72.762,53.7a1.423,1.423,0,0,0,2.46-1.43l-3.3-5.725c2.355,1.236,5.162,2.768,7.011,3.983A6.455,6.455,0,0,1,81.938,55.8l1.117,10.229c.326,2.949.137,6.958,1.515,10.319L64.66,87.84a17.433,17.433,0,0,0-4.1-4.2L43.923,70.777c-1.179-.912-1.508-2.792-1.395-5.083l.287-5.8-.693-7c.6.02,1.176-.175,1.849.353,1.089.862,2.506,2.78,3.564,6.606a2.606,2.606,0,0,0,.8,1.273L66.253,79.132a4.936,4.936,0,1,0,6.978-6.983L62.9,61.79c3.082-2.409,3.943-6.13,2.3-8.969L61.435,46.28a1.424,1.424,0,0,0-1.8-.593L53.1,48.571c-2.232.993-3.069.372-3.532-.43-.588-1.013-.236-1.88.835-2.663l9.387-6.855c2.018-1.479,3.676-1.023,4.811.942Zm-6.487-3.238L47.893,43.794a3.568,3.568,0,0,0-1.253,1.671l-3.187-3.2a1.406,1.406,0,0,0-.8-.4l-5.77-.836a1.4,1.4,0,0,0-1.605,1.6l.835,5.841a1.406,1.406,0,0,0,.392.8l2.663,2.671.8,7.91-.274,5.711c-.125,2.612.13,5.64,2.494,7.468L58.824,85.887a13.736,13.736,0,0,1,4.147,4.571c.593.986,1.238,1.959,1.854,2.938,1.325,2.356,3.028,3.8,5.059,3.975s3.948-.732,6.173-2.005l9.281-5.325c2.219-1.275,3.975-2.469,4.864-4.3s.549-4.04-.783-6.391l-1.775-3.126c-1.489-2.585-1.425-7.349-1.757-10.5L84.771,55.484A9.647,9.647,0,0,0,80.5,48.152c-3.916-2.564-10.668-5.853-11.169-6.1l-2.265-3.91c-2.123-3.659-5.562-4.286-8.949-1.813Z" transform="translate(6.272 7.495)" fill="#80dbd1"/>
    <path id="Path_3775" data-name="Path 3775" d="M16.566,8.086H61.337a3.2,3.2,0,0,1,3.238,3.231v4.262H13.342V11.317a3.183,3.183,0,0,1,3.223-3.231Zm0-2.841a6.09,6.09,0,0,0-6.076,6.072V89.551a6.1,6.1,0,0,0,6.076,6.078H58.727a1.423,1.423,0,1,0,0-2.846H16.566a3.184,3.184,0,0,1-3.223-3.232V84.873H44.386a1.426,1.426,0,1,0,0-2.852H13.342V18.432H64.576v20.9a1.421,1.421,0,1,0,2.84,0V11.317a6.091,6.091,0,0,0-6.078-6.072Z" fill="#80dbd1" fill-rule="evenodd"/>
    <path id="Path_3776" data-name="Path 3776" d="M28.876,27.593A20.239,20.239,0,0,0,24.22,32.11c-3.153,3.845-6.2,8.768-6.767,12.676a5.4,5.4,0,0,0,2.514,5.653,6.725,6.725,0,0,0,2.981.8,1.422,1.422,0,1,0,.046-2.841,4.24,4.24,0,0,1-1.652-.456c-.744-.411-1.356-.841-1.077-2.747.387-2.669,3.207-7.724,6.148-11.285,3.128-3.781,5.66-6.046,4.915-.144a51.815,51.815,0,0,1-1.43,6.584c-.593,2.24-1.219,4.366-1.6,6.1-.5,1.911-.757,3.538.658,4.576,1.743,1.278,3.461.1,4.91-.986A28.226,28.226,0,0,0,38.4,44.5,1.425,1.425,0,0,0,36.036,42.9a27.121,27.121,0,0,1-4.022,4.974c-1.384,1.2-1.14.247-.925-.83.306-1.567.945-3.687,1.552-5.965a57.811,57.811,0,0,0,1.5-6.953c.293-2.245.56-4.438-.485-6.069-1.3-2.028-3.126-1.453-4.782-.469Z" transform="translate(1.745 5.433)" fill="#80dbd1"/>
  </g>
</svg>
