<svg xmlns="http://www.w3.org/2000/svg" xmlns:xlink="http://www.w3.org/1999/xlink" width="666.247" height="623.907" viewBox="0 0 666.247 623.907">
  <defs>
    <clipPath id="clip-path">
      <rect id="Rectangle_1470" data-name="Rectangle 1470" width="666.247" height="623.907" fill="none"/>
    </clipPath>
    <clipPath id="clip-path-3">
      <rect id="Rectangle_1458" data-name="Rectangle 1458" width="65.909" height="6.844" fill="none"/>
    </clipPath>
    <clipPath id="clip-path-4">
      <rect id="Rectangle_1460" data-name="Rectangle 1460" width="31.286" height="79.866" fill="none"/>
    </clipPath>
    <clipPath id="clip-path-5">
      <rect id="Rectangle_1461" data-name="Rectangle 1461" width="19.73" height="14.409" fill="none"/>
    </clipPath>
    <clipPath id="clip-path-6">
      <rect id="Rectangle_1462" data-name="Rectangle 1462" width="217.225" height="50.062" fill="none"/>
    </clipPath>
    <clipPath id="clip-path-7">
      <rect id="Rectangle_1463" data-name="Rectangle 1463" width="10.328" height="2.098" fill="none"/>
    </clipPath>
    <clipPath id="clip-path-8">
      <rect id="Rectangle_1464" data-name="Rectangle 1464" width="27.215" height="55.203" fill="none"/>
    </clipPath>
    <clipPath id="clip-path-9">
      <rect id="Rectangle_1465" data-name="Rectangle 1465" width="41.019" height="69.004" fill="none"/>
    </clipPath>
    <clipPath id="clip-path-10">
      <rect id="Rectangle_1466" data-name="Rectangle 1466" width="17.251" height="94.306" fill="none"/>
    </clipPath>
    <clipPath id="clip-path-12">
      <rect id="Rectangle_1468" data-name="Rectangle 1468" width="18.386" height="42.084" fill="none"/>
    </clipPath>
  </defs>
  <g id="Group_1774" data-name="Group 1774" clip-path="url(#clip-path)">
    <g id="Group_1773" data-name="Group 1773">
      <g id="Group_1772" data-name="Group 1772" clip-path="url(#clip-path)">
        <path id="Path_3891" data-name="Path 3891" d="M370.47,514.922H53.415A28.28,28.28,0,0,1,25.13,486.637V33.6A28.28,28.28,0,0,1,53.415,5.317H370.47A28.284,28.284,0,0,1,398.755,33.6V486.637a28.284,28.284,0,0,1-28.285,28.285" transform="translate(116.774 24.707)" fill="#7b4a8a"/>
        <rect id="Rectangle_1456" data-name="Rectangle 1456" width="337.435" height="425.282" transform="translate(160.002 72.188)" fill="#c2bfd8"/>
        <rect id="Rectangle_1457" data-name="Rectangle 1457" width="279.629" height="394.462" transform="translate(188.902 87.598)" fill="#fff"/>
        <g id="Group_1744" data-name="Group 1744" transform="translate(291.787 49.697)" opacity="0.3" style="mix-blend-mode: screen;isolation: isolate">
          <g id="Group_1743" data-name="Group 1743">
            <g id="Group_1742" data-name="Group 1742" clip-path="url(#clip-path-3)">
              <path id="Path_3892" data-name="Path 3892" d="M57.755,8.8a3.424,3.424,0,0,0,0,6.844h43.661a3.357,3.357,0,0,0,3.309-3.422A3.35,3.35,0,0,0,101.416,8.8Z" transform="translate(-38.816 -8.801)" fill="#b2b2b2"/>
              <path id="Path_3893" data-name="Path 3893" d="M54.955,8.8a3.338,3.338,0,0,0-3.281,3.422,3.345,3.345,0,0,0,3.281,3.422h3.1a3.363,3.363,0,0,0,3.281-3.422A3.356,3.356,0,0,0,58.055,8.8Z" transform="translate(-51.669 -8.801)" fill="#b2b2b2"/>
            </g>
          </g>
        </g>
        <path id="Path_3894" data-name="Path 3894" d="M101.881,36.285H77.509a2.566,2.566,0,0,1,0-5.127h24.372a2.566,2.566,0,0,1,0,5.127" transform="translate(348.727 144.784)" fill="#d5cae5"/>
        <path id="Path_3895" data-name="Path 3895" d="M182.125,36.285H51.707a2.566,2.566,0,0,1,0-5.127H182.125a2.566,2.566,0,0,1,0,5.127" transform="translate(228.831 144.784)" fill="#d5cae5"/>
        <path id="Path_3896" data-name="Path 3896" d="M98.983,36.285H38.76a2.566,2.566,0,0,1,0-5.127H98.983a2.566,2.566,0,0,1,0,5.127" transform="translate(168.641 144.784)" fill="#d5cae5"/>
        <path id="Path_3897" data-name="Path 3897" d="M148.288,40.288H67.522a2.566,2.566,0,0,1,0-5.127h80.766a2.566,2.566,0,0,1,0,5.127" transform="translate(302.32 163.385)" fill="#d5cae5"/>
        <path id="Path_3898" data-name="Path 3898" d="M159.814,40.288H45.258a2.566,2.566,0,0,1,0-5.127H159.814a2.566,2.566,0,0,1,0,5.127" transform="translate(198.864 163.385)" fill="#d5cae5"/>
        <path id="Path_3899" data-name="Path 3899" d="M63.735,40.288H38.76a2.566,2.566,0,0,1,0-5.127H63.735a2.566,2.566,0,0,1,0,5.127" transform="translate(168.641 163.385)" fill="#d5cae5"/>
        <path id="Path_3900" data-name="Path 3900" d="M123.158,44.293H72.93a2.566,2.566,0,0,1,0-5.127h50.228a2.566,2.566,0,0,1,0,5.127" transform="translate(327.449 181.996)" fill="#d5cae5"/>
        <path id="Path_3901" data-name="Path 3901" d="M129.349,44.293H58.262a2.566,2.566,0,0,1,0-5.127h71.087a2.566,2.566,0,0,1,0,5.127" transform="translate(259.29 181.996)" fill="#d5cae5"/>
        <path id="Path_3902" data-name="Path 3902" d="M134.807,44.293H38.755a2.566,2.566,0,0,1,0-5.127h96.052a2.566,2.566,0,0,1,0,5.127" transform="translate(168.646 181.996)" fill="#d5cae5"/>
        <path id="Path_3903" data-name="Path 3903" d="M101.881,48.3H77.509a2.566,2.566,0,0,1,0-5.127h24.372a2.566,2.566,0,0,1,0,5.127" transform="translate(348.727 200.597)" fill="#d5cae5"/>
        <path id="Path_3904" data-name="Path 3904" d="M182.125,48.3H51.707a2.566,2.566,0,0,1,0-5.127H182.125a2.566,2.566,0,0,1,0,5.127" transform="translate(228.831 200.597)" fill="#d5cae5"/>
        <path id="Path_3905" data-name="Path 3905" d="M98.983,48.3H38.76a2.566,2.566,0,0,1,0-5.127H98.983a2.566,2.566,0,0,1,0,5.127" transform="translate(168.641 200.597)" fill="#d5cae5"/>
        <path id="Path_3906" data-name="Path 3906" d="M148.288,52.3H67.522a2.566,2.566,0,0,1,0-5.127h80.766a2.566,2.566,0,0,1,0,5.127" transform="translate(302.32 219.203)" fill="#d5cae5"/>
        <path id="Path_3907" data-name="Path 3907" d="M159.814,52.3H45.258a2.566,2.566,0,0,1,0-5.127H159.814a2.566,2.566,0,0,1,0,5.127" transform="translate(198.864 219.203)" fill="#d5cae5"/>
        <path id="Path_3908" data-name="Path 3908" d="M63.735,52.3H38.76a2.566,2.566,0,0,1,0-5.127H63.735a2.566,2.566,0,0,1,0,5.127" transform="translate(168.641 219.203)" fill="#d5cae5"/>
        <path id="Path_3909" data-name="Path 3909" d="M123.158,56.3H72.93a2.566,2.566,0,0,1,0-5.127h50.228a2.566,2.566,0,0,1,0,5.127" transform="translate(327.449 237.808)" fill="#d5cae5"/>
        <path id="Path_3910" data-name="Path 3910" d="M129.349,56.3H58.262a2.566,2.566,0,0,1,0-5.127h71.087a2.566,2.566,0,0,1,0,5.127" transform="translate(259.29 237.808)" fill="#d5cae5"/>
        <path id="Path_3911" data-name="Path 3911" d="M134.807,56.3H38.755a2.566,2.566,0,0,1,0-5.127h96.052a2.566,2.566,0,0,1,0,5.127" transform="translate(168.646 237.808)" fill="#d5cae5"/>
        <path id="Path_3912" data-name="Path 3912" d="M101.881,60.308H77.509a2.566,2.566,0,0,1,0-5.127h24.372a2.566,2.566,0,0,1,0,5.127" transform="translate(348.727 256.414)" fill="#d5cae5"/>
        <path id="Path_3913" data-name="Path 3913" d="M182.125,60.308H51.707a2.566,2.566,0,0,1,0-5.127H182.125a2.566,2.566,0,0,1,0,5.127" transform="translate(228.831 256.414)" fill="#d5cae5"/>
        <path id="Path_3914" data-name="Path 3914" d="M98.983,60.308H38.76a2.566,2.566,0,0,1,0-5.127H98.983a2.566,2.566,0,0,1,0,5.127" transform="translate(168.641 256.414)" fill="#d5cae5"/>
        <path id="Path_3915" data-name="Path 3915" d="M148.288,64.311H67.522a2.566,2.566,0,0,1,0-5.127h80.766a2.566,2.566,0,0,1,0,5.127" transform="translate(302.32 275.015)" fill="#d5cae5"/>
        <path id="Path_3916" data-name="Path 3916" d="M159.814,64.311H45.258a2.566,2.566,0,0,1,0-5.127H159.814a2.566,2.566,0,0,1,0,5.127" transform="translate(198.864 275.015)" fill="#d5cae5"/>
        <path id="Path_3917" data-name="Path 3917" d="M63.735,64.311H38.76a2.566,2.566,0,0,1,0-5.127H63.735a2.566,2.566,0,0,1,0,5.127" transform="translate(168.641 275.015)" fill="#d5cae5"/>
        <path id="Path_3918" data-name="Path 3918" d="M123.158,68.316H72.93a2.566,2.566,0,0,1,0-5.127h50.228a2.566,2.566,0,0,1,0,5.127" transform="translate(327.449 293.625)" fill="#d5cae5"/>
        <path id="Path_3919" data-name="Path 3919" d="M129.349,68.316H58.262a2.566,2.566,0,0,1,0-5.127h71.087a2.566,2.566,0,0,1,0,5.127" transform="translate(259.29 293.625)" fill="#d5cae5"/>
        <path id="Path_3920" data-name="Path 3920" d="M134.807,68.316H38.755a2.566,2.566,0,0,1,0-5.127h96.052a2.566,2.566,0,0,1,0,5.127" transform="translate(168.646 293.625)" fill="#d5cae5"/>
        <path id="Path_3921" data-name="Path 3921" d="M49.5,33.7H42.16v5.167h8.611v3.2H38.337v-19.3H50.743v3.219H42.16v4.6H49.5Z" transform="translate(178.144 105.803)" fill="#aaa8c1"/>
        <rect id="Rectangle_1459" data-name="Rectangle 1459" width="3.693" height="20.357" transform="translate(231.106 127.51)" fill="#aaa8c1"/>
        <path id="Path_3922" data-name="Path 3922" d="M48.873,38.468A7.266,7.266,0,0,1,46,37.926a6.269,6.269,0,0,1-3.5-3.693,7.813,7.813,0,0,1-.469-2.71v-.514a9.346,9.346,0,0,1,.457-2.993,6.9,6.9,0,0,1,1.287-2.338,5.856,5.856,0,0,1,2.027-1.53,6.249,6.249,0,0,1,2.665-.548,6.369,6.369,0,0,1,2.626.508A5.338,5.338,0,0,1,53,25.537a6.109,6.109,0,0,1,1.158,2.219,10.086,10.086,0,0,1,.39,2.891v1.632H45.767a4.212,4.212,0,0,0,.361,1.271,3.271,3.271,0,0,0,.7.977,3.091,3.091,0,0,0,1,.627,3.462,3.462,0,0,0,1.287.226,4.442,4.442,0,0,0,1.863-.39,3.792,3.792,0,0,0,1.463-1.214l1.813,2.106a6.083,6.083,0,0,1-.83.954,5.59,5.59,0,0,1-1.175.83,6.642,6.642,0,0,1-1.525.582,7.307,7.307,0,0,1-1.852.22M48.455,26.7a2.358,2.358,0,0,0-1.05.22,2.155,2.155,0,0,0-.779.61,3.239,3.239,0,0,0-.531.932A5.651,5.651,0,0,0,45.8,29.67h5.122v-.3A3.948,3.948,0,0,0,50.77,28.3a2.421,2.421,0,0,0-.452-.853,2.017,2.017,0,0,0-.762-.553,2.841,2.841,0,0,0-1.1-.2" transform="translate(195.3 109.664)" fill="#aaa8c1"/>
        <path id="Path_3923" data-name="Path 3923" d="M50.821,35.379a2.733,2.733,0,0,0,.932-.152,2.1,2.1,0,0,0,.723-.429,1.9,1.9,0,0,0,.48-.672,2.4,2.4,0,0,0,.186-.881h3.45a4.973,4.973,0,0,1-.457,2.1,5.157,5.157,0,0,1-1.208,1.66,5.574,5.574,0,0,1-1.807,1.079,6.987,6.987,0,0,1-5.037-.181A5.539,5.539,0,0,1,46.1,36.367a6.648,6.648,0,0,1-1.186-2.293,10.018,10.018,0,0,1-.4-2.846v-.367a10.087,10.087,0,0,1,.4-2.852,6.754,6.754,0,0,1,1.186-2.3,5.471,5.471,0,0,1,1.982-1.542,6.415,6.415,0,0,1,2.784-.565,6.66,6.66,0,0,1,2.326.39,5.113,5.113,0,0,1,1.8,1.118,5.059,5.059,0,0,1,1.169,1.773,6.2,6.2,0,0,1,.435,2.321h-3.45a3.25,3.25,0,0,0-.175-.971,2.3,2.3,0,0,0-.452-.8,2.128,2.128,0,0,0-.728-.536,2.382,2.382,0,0,0-.994-.2,2.3,2.3,0,0,0-1.31.344,2.381,2.381,0,0,0-.8.92A4.387,4.387,0,0,0,48.3,29.3a10.857,10.857,0,0,0-.107,1.564v.367A10.926,10.926,0,0,0,48.3,32.81a4.35,4.35,0,0,0,.384,1.327,2.331,2.331,0,0,0,.8.9,2.387,2.387,0,0,0,1.338.339" transform="translate(206.847 109.664)" fill="#aaa8c1"/>
        <path id="Path_3924" data-name="Path 3924" d="M52.49,23.022v3.529h2.36v2.812H52.49v7.149a2.577,2.577,0,0,0,.09.751,1.078,1.078,0,0,0,.265.457,1.022,1.022,0,0,0,.44.226,2.873,2.873,0,0,0,.621.051c.22,0,.418-.006.6-.023s.339-.04.474-.062v2.9a7.647,7.647,0,0,1-1,.237,6.185,6.185,0,0,1-1.225.107,5.284,5.284,0,0,1-1.638-.237,3.048,3.048,0,0,1-1.237-.734,3.254,3.254,0,0,1-.8-1.31,5.84,5.84,0,0,1-.282-1.948V29.363H46.8V26.551h2.01V23.022Z" transform="translate(217.46 106.978)" fill="#aaa8c1"/>
        <path id="Path_3925" data-name="Path 3925" d="M56.334,27.457c-.186-.023-.407-.051-.661-.073s-.469-.034-.666-.034a3.576,3.576,0,0,0-1.75.378,2.305,2.305,0,0,0-.988,1.1v9.385H48.587V23.865h3.478l.1,1.711a4.311,4.311,0,0,1,1.287-1.451,3.063,3.063,0,0,1,1.784-.525,3.418,3.418,0,0,1,.616.056,3.456,3.456,0,0,1,.531.119Z" transform="translate(225.773 109.664)" fill="#aaa8c1"/>
        <path id="Path_3926" data-name="Path 3926" d="M50.09,30.9a9.391,9.391,0,0,1,.435-2.9,6.692,6.692,0,0,1,1.259-2.315,5.884,5.884,0,0,1,2.044-1.53,7.265,7.265,0,0,1,5.562,0,5.948,5.948,0,0,1,2.061,1.53A6.7,6.7,0,0,1,62.716,28a9.39,9.39,0,0,1,.435,2.9v.277a9.375,9.375,0,0,1-.435,2.908,6.65,6.65,0,0,1-1.265,2.3,5.9,5.9,0,0,1-2.044,1.525,7.265,7.265,0,0,1-5.562,0A5.843,5.843,0,0,1,51.79,36.39a6.65,6.65,0,0,1-1.265-2.3,9.376,9.376,0,0,1-.435-2.908Zm3.682.277a8.46,8.46,0,0,0,.152,1.643,4.137,4.137,0,0,0,.491,1.333,2.612,2.612,0,0,0,.881.892,2.776,2.776,0,0,0,2.637,0,2.612,2.612,0,0,0,.881-.892,4.144,4.144,0,0,0,.5-1.333,8.471,8.471,0,0,0,.147-1.643V30.9a8.16,8.16,0,0,0-.147-1.609,4.229,4.229,0,0,0-.5-1.338,2.6,2.6,0,0,0-.887-.915A2.479,2.479,0,0,0,56.6,26.7a2.4,2.4,0,0,0-1.3.339,2.585,2.585,0,0,0-.881.915,4.221,4.221,0,0,0-.491,1.338,8.151,8.151,0,0,0-.152,1.609Z" transform="translate(232.757 109.664)" fill="#aaa8c1"/>
        <path id="Path_3927" data-name="Path 3927" d="M56.257,23.865l.113,1.655a4.84,4.84,0,0,1,3.964-1.92,5.257,5.257,0,0,1,1.784.288,3.221,3.221,0,0,1,1.378.932,4.49,4.49,0,0,1,.881,1.694,9.124,9.124,0,0,1,.311,2.575V38.2H61.006V29.06a3.828,3.828,0,0,0-.141-1.141,1.727,1.727,0,0,0-.429-.717,1.671,1.671,0,0,0-.689-.378,3.628,3.628,0,0,0-.943-.113,2.534,2.534,0,0,0-1.395.373,2.79,2.79,0,0,0-.937,1.011V38.2H52.79V23.865Z" transform="translate(245.304 109.664)" fill="#aaa8c1"/>
        <path id="Path_3928" data-name="Path 3928" d="M55.387,24.616A1.923,1.923,0,0,1,55.94,23.2a2.042,2.042,0,0,1,1.513-.559,2.412,2.412,0,0,1,.853.147,1.8,1.8,0,0,1,.649.412,1.835,1.835,0,0,1,.412.627,2.232,2.232,0,0,1,0,1.592,1.835,1.835,0,0,1-.412.627,1.8,1.8,0,0,1-.649.412,2.412,2.412,0,0,1-.853.147,2.444,2.444,0,0,1-.858-.147,1.808,1.808,0,0,1-1.062-1.039,2.156,2.156,0,0,1-.147-.8M59.3,42.664H55.607V28.326H59.3Z" transform="translate(257.371 105.203)" fill="#aaa8c1"/>
        <path id="Path_3929" data-name="Path 3929" d="M62.822,35.379a2.733,2.733,0,0,0,.932-.152,2.155,2.155,0,0,0,.723-.429,1.9,1.9,0,0,0,.48-.672,2.4,2.4,0,0,0,.186-.881h3.45a4.974,4.974,0,0,1-.457,2.1,5.158,5.158,0,0,1-1.208,1.66,5.574,5.574,0,0,1-1.807,1.079,6.987,6.987,0,0,1-5.037-.181A5.539,5.539,0,0,1,58.1,36.367a6.648,6.648,0,0,1-1.186-2.293,10.018,10.018,0,0,1-.4-2.846v-.367a10.087,10.087,0,0,1,.4-2.852,6.754,6.754,0,0,1,1.186-2.3,5.471,5.471,0,0,1,1.982-1.542,6.415,6.415,0,0,1,2.784-.565,6.66,6.66,0,0,1,2.326.39,5.114,5.114,0,0,1,1.8,1.118,5.059,5.059,0,0,1,1.169,1.773,6.2,6.2,0,0,1,.435,2.321h-3.45a3.251,3.251,0,0,0-.175-.971,2.3,2.3,0,0,0-.452-.8,2.128,2.128,0,0,0-.728-.536,2.364,2.364,0,0,0-.994-.2,2.3,2.3,0,0,0-1.31.344,2.381,2.381,0,0,0-.8.92A4.233,4.233,0,0,0,60.3,29.3a10.856,10.856,0,0,0-.107,1.564v.367A10.925,10.925,0,0,0,60.3,32.81a4.2,4.2,0,0,0,.384,1.327,2.331,2.331,0,0,0,.8.9,2.387,2.387,0,0,0,1.338.339" transform="translate(262.613 109.664)" fill="#aaa8c1"/>
        <path id="Path_3930" data-name="Path 3930" d="M70.473,37.223a2.7,2.7,0,0,0-.141-.909,1.712,1.712,0,0,0-.542-.751,4.981,4.981,0,0,0-1.1-.672,17.825,17.825,0,0,0-1.83-.706,21.132,21.132,0,0,1-2.406-.954,8.733,8.733,0,0,1-1.976-1.248,5.619,5.619,0,0,1-1.338-1.666,4.752,4.752,0,0,1-.486-2.2,4.863,4.863,0,0,1,.5-2.208,5.005,5.005,0,0,1,1.412-1.705,6.919,6.919,0,0,1,2.168-1.09,9.089,9.089,0,0,1,2.761-.4,8.47,8.47,0,0,1,2.8.446A6.288,6.288,0,0,1,72.449,24.4,5.58,5.58,0,0,1,73.827,26.3a5.842,5.842,0,0,1,.48,2.389H70.49a3.423,3.423,0,0,0-.186-1.124,2.274,2.274,0,0,0-.565-.887,2.626,2.626,0,0,0-.96-.576,4.057,4.057,0,0,0-1.35-.209,4.266,4.266,0,0,0-1.3.175,2.575,2.575,0,0,0-.92.474,1.966,1.966,0,0,0-.542.717,2.1,2.1,0,0,0-.186.875,1.887,1.887,0,0,0,.937,1.6,10.309,10.309,0,0,0,2.744,1.2,17.872,17.872,0,0,1,2.665,1.084,7.97,7.97,0,0,1,1.926,1.355,5.082,5.082,0,0,1,1.163,1.694,5.429,5.429,0,0,1,.4,2.134,5.189,5.189,0,0,1-.474,2.264,4.664,4.664,0,0,1-1.355,1.677,6.282,6.282,0,0,1-2.123,1.05,10.633,10.633,0,0,1-4.608.2A8.568,8.568,0,0,1,64,41.876a7.508,7.508,0,0,1-1.547-.864,5.785,5.785,0,0,1-1.242-1.22,5.436,5.436,0,0,1-.83-1.6,6.245,6.245,0,0,1-.294-1.982h3.834a3.639,3.639,0,0,0,.265,1.485,2.482,2.482,0,0,0,.745.988,2.952,2.952,0,0,0,1.152.548,5.866,5.866,0,0,0,1.5.175,4.574,4.574,0,0,0,1.287-.164,2.661,2.661,0,0,0,.9-.457,1.822,1.822,0,0,0,.531-.7,2.2,2.2,0,0,0,.169-.864" transform="translate(279.193 105.584)" fill="#aaa8c1"/>
        <path id="Path_3931" data-name="Path 3931" d="M63.013,24.616a1.923,1.923,0,0,1,.553-1.417,2.042,2.042,0,0,1,1.513-.559,2.434,2.434,0,0,1,.853.147,1.8,1.8,0,0,1,.649.412,1.849,1.849,0,0,1,.418.627,2.316,2.316,0,0,1,0,1.592,1.85,1.85,0,0,1-.418.627,1.8,1.8,0,0,1-.649.412,2.566,2.566,0,0,1-1.711,0,1.8,1.8,0,0,1-.649-.412,1.744,1.744,0,0,1-.407-.627,2.049,2.049,0,0,1-.152-.8m3.913,18.047H63.233V28.326h3.693Z" transform="translate(292.808 105.203)" fill="#aaa8c1"/>
        <path id="Path_3932" data-name="Path 3932" d="M64.148,30.93a10.568,10.568,0,0,1,.39-2.987,7.167,7.167,0,0,1,1.107-2.315A4.922,4.922,0,0,1,69.727,23.6a4.662,4.662,0,0,1,2.072.424,4.175,4.175,0,0,1,1.457,1.191l.152-1.35h3.343V37.711a6.717,6.717,0,0,1-.486,2.609,5.467,5.467,0,0,1-1.361,1.931,5.809,5.809,0,0,1-2.089,1.191,8.453,8.453,0,0,1-2.694.407,7.693,7.693,0,0,1-2.761-.548,6.857,6.857,0,0,1-1.316-.7A4.367,4.367,0,0,1,64.989,41.6l1.626-2.332a4.871,4.871,0,0,0,1.491,1.18,4.011,4.011,0,0,0,1.852.424,3.076,3.076,0,0,0,2.281-.819,3.121,3.121,0,0,0,.813-2.31v-.768a4.284,4.284,0,0,1-1.44,1.107,4.44,4.44,0,0,1-1.914.39,4.75,4.75,0,0,1-2.31-.553A5.2,5.2,0,0,1,65.644,36.4a7.219,7.219,0,0,1-1.107-2.3,10.054,10.054,0,0,1-.39-2.891Zm3.682.277a7.871,7.871,0,0,0,.164,1.632,4.382,4.382,0,0,0,.514,1.316,2.7,2.7,0,0,0,.881.887,2.338,2.338,0,0,0,1.259.328,2.9,2.9,0,0,0,1.468-.344,2.464,2.464,0,0,0,.937-.971V28.027a2.52,2.52,0,0,0-.937-.977,2.838,2.838,0,0,0-1.446-.339,2.3,2.3,0,0,0-1.254.328,2.787,2.787,0,0,0-.887.892A4.253,4.253,0,0,0,68,29.269a8.1,8.1,0,0,0-.169,1.66Z" transform="translate(298.082 109.664)" fill="#aaa8c1"/>
        <path id="Path_3933" data-name="Path 3933" d="M75.321,38.208a4.719,4.719,0,0,1-.373-1.287,4.781,4.781,0,0,1-1.406,1.1,4.367,4.367,0,0,1-2.067.446,5.262,5.262,0,0,1-1.858-.316,4.5,4.5,0,0,1-1.485-.887,4.115,4.115,0,0,1-.994-1.361,4.22,4.22,0,0,1-.356-1.728,4.767,4.767,0,0,1,.4-2,3.879,3.879,0,0,1,1.208-1.485,5.618,5.618,0,0,1,1.993-.926,10.7,10.7,0,0,1,2.773-.316H74.8v-.824a2.439,2.439,0,0,0-.491-1.592,1.9,1.9,0,0,0-1.547-.593A2.144,2.144,0,0,0,71.3,26.9a1.612,1.612,0,0,0-.525,1.271H67.088a3.907,3.907,0,0,1,.418-1.762,4.391,4.391,0,0,1,1.175-1.457,5.85,5.85,0,0,1,1.852-.988,7.551,7.551,0,0,1,2.422-.367,7.307,7.307,0,0,1,2.214.322,4.988,4.988,0,0,1,1.762.943,4.423,4.423,0,0,1,1.152,1.581,5.56,5.56,0,0,1,.412,2.208v6.065c0,.407.011.774.034,1.1s.062.615.107.875a4.266,4.266,0,0,0,.164.7,4.645,4.645,0,0,0,.243.593v.226Zm-3.044-2.665a3.027,3.027,0,0,0,.87-.119,3.4,3.4,0,0,0,.723-.311,2.7,2.7,0,0,0,.553-.446,2.431,2.431,0,0,0,.378-.519V31.686H73.282a4.368,4.368,0,0,0-1.259.164,2.423,2.423,0,0,0-.881.469,1.88,1.88,0,0,0-.508.7,2.331,2.331,0,0,0-.164.881,1.571,1.571,0,0,0,.48,1.18,1.845,1.845,0,0,0,1.327.463" transform="translate(310.326 109.664)" fill="#aaa8c1"/>
        <path id="Path_3934" data-name="Path 3934" d="M74.827,23.022v3.529h2.36v2.812h-2.36v7.149a2.575,2.575,0,0,0,.09.751,1.208,1.208,0,0,0,.265.457,1.022,1.022,0,0,0,.44.226,2.873,2.873,0,0,0,.621.051c.22,0,.418-.006.6-.023s.35-.04.48-.062v2.9a7.647,7.647,0,0,1-1,.237,6.2,6.2,0,0,1-1.231.107,5.21,5.21,0,0,1-1.626-.237,3,3,0,0,1-1.242-.734,3.254,3.254,0,0,1-.8-1.31,5.849,5.849,0,0,1-.277-1.948V29.363H69.129V26.551h2.022V23.022Z" transform="translate(321.227 106.978)" fill="#aaa8c1"/>
        <path id="Path_3935" data-name="Path 3935" d="M79.249,36.527A4.476,4.476,0,0,1,77.668,37.8a4.991,4.991,0,0,1-2.191.452,5.55,5.55,0,0,1-1.858-.3,3.623,3.623,0,0,1-1.451-.937,4.369,4.369,0,0,1-.932-1.66,7.884,7.884,0,0,1-.333-2.428V23.647h3.682v9.3a3.357,3.357,0,0,0,.141,1.022,1.812,1.812,0,0,0,.412.683,1.57,1.57,0,0,0,.616.373,2.369,2.369,0,0,0,.791.124,3.264,3.264,0,0,0,1.621-.361,2.416,2.416,0,0,0,.954-.994V23.647h3.693V37.984H79.351Z" transform="translate(329.471 109.882)" fill="#aaa8c1"/>
        <path id="Path_3936" data-name="Path 3936" d="M81.252,27.457c-.192-.023-.407-.051-.655-.073s-.474-.034-.672-.034a3.577,3.577,0,0,0-1.75.378,2.278,2.278,0,0,0-.988,1.1v9.385H73.505V23.865h3.478l.1,1.711a4.311,4.311,0,0,1,1.287-1.451,3.063,3.063,0,0,1,1.784-.525,3.418,3.418,0,0,1,.616.056,3.307,3.307,0,0,1,.531.119Z" transform="translate(341.562 109.664)" fill="#aaa8c1"/>
        <path id="Path_3937" data-name="Path 3937" d="M81.9,38.468a7.218,7.218,0,0,1-2.869-.542,6.256,6.256,0,0,1-3.507-3.693,7.81,7.81,0,0,1-.463-2.71v-.514a9.349,9.349,0,0,1,.452-2.993A6.9,6.9,0,0,1,76.8,25.678a5.942,5.942,0,0,1,2.022-1.53,6.908,6.908,0,0,1,5.3-.04,5.339,5.339,0,0,1,1.9,1.429,6.205,6.205,0,0,1,1.163,2.219,10.294,10.294,0,0,1,.384,2.891v1.632H78.792a4.215,4.215,0,0,0,.361,1.271,3.272,3.272,0,0,0,.7.977,3.091,3.091,0,0,0,1,.627,3.462,3.462,0,0,0,1.287.226A4.442,4.442,0,0,0,84,34.99a3.792,3.792,0,0,0,1.463-1.214l1.813,2.106a5.786,5.786,0,0,1-2,1.784,6.8,6.8,0,0,1-1.519.582,7.417,7.417,0,0,1-1.858.22M81.479,26.7a2.358,2.358,0,0,0-1.05.22,2.2,2.2,0,0,0-.779.61,3.113,3.113,0,0,0-.531.932,5.658,5.658,0,0,0-.288,1.208h5.122v-.3a4.449,4.449,0,0,0-.158-1.062,2.506,2.506,0,0,0-.446-.853,2.083,2.083,0,0,0-.768-.553,2.841,2.841,0,0,0-1.1-.2" transform="translate(348.783 109.664)" fill="#aaa8c1"/>
        <path id="Path_3938" data-name="Path 3938" d="M127.316,109.338s-9.063-3.654-13.6-5.777-13.129-31.306-13.129-31.306a8.151,8.151,0,0,0-6.42,2.01s6.612,31.757,14.173,40.55,31.7,21.644,35.671,19.064c3.941-2.586-16.7-24.541-16.7-24.541" transform="translate(437.583 335.504)" fill="#0b75aa"/>
        <path id="Path_3939" data-name="Path 3939" d="M92.932,72.407c-.4,1.525,1.824,3.433,4.986,4.263,3.134.83,6.031.265,6.432-1.237S102.514,72,99.375,71.159c-3.162-.819-6.053-.254-6.443,1.248" transform="translate(431.621 328.915)" fill="#fda4a4"/>
        <path id="Path_3940" data-name="Path 3940" d="M111.489,108.771l1.344,5.918h-5.3l-1.423-6.24Z" transform="translate(493.061 503.939)" fill="#ffad97"/>
        <path id="Path_3941" data-name="Path 3941" d="M123.64,109.2a3.471,3.471,0,0,1,1.412,2.959v4.308H103.724s-.39-2.53,2.541-2.53,8.064-2.044,9.018-3.015c1.237-1.248,2.112-1.722,3.049-1.722Z" transform="translate(481.903 507.438)" fill="#02102a"/>
        <path id="Path_3942" data-name="Path 3942" d="M105.461,108.7,105,114.633H99.69l.474-6.251Z" transform="translate(463.238 503.63)" fill="#ffad97"/>
        <path id="Path_3943" data-name="Path 3943" d="M117.148,109.136a3.457,3.457,0,0,1,1.412,2.97v4.3H97.221s-.373-2.541,2.552-2.541,8.058-2.033,9.018-3c1.231-1.259,2.106-1.722,3.049-1.722Z" transform="translate(451.692 507.131)" fill="#02102a"/>
        <path id="Path_3944" data-name="Path 3944" d="M98.9,98.636l1.649,110.79s7.392,1.084,11.068,0c3.1-16.088,2.366-56.665,6.793-80,4.416-23.321,7.646-28.138,7.646-38.607S98.9,98.636,98.9,98.636" transform="translate(459.576 406.988)" fill="#02102a"/>
        <path id="Path_3945" data-name="Path 3945" d="M128.03,192.389s7.409.8,10.633-.486l-11.248-82.466-1.847-18.092-24.755,1.073Z" transform="translate(468.451 424.46)" fill="#041b3f"/>
        <path id="Path_3946" data-name="Path 3946" d="M111.893,78.388s-7.589,7.544-10.351,27.342c-2.626,18.6-3.021,46.569-3.021,46.569a41.52,41.52,0,0,0,38.816,2.242c-2.8-28.2-.2-50.047-1.016-62.679C135.5,79.2,121.057,77.993,111.893,78.388" transform="translate(457.806 363.969)" fill="#0c80c9"/>
        <g id="Group_1747" data-name="Group 1747" transform="translate(563.857 442.378)" opacity="0.79" style="mix-blend-mode: multiply;isolation: isolate">
          <g id="Group_1746" data-name="Group 1746">
            <g id="Group_1745" data-name="Group 1745" clip-path="url(#clip-path-4)">
              <path id="Path_3947" data-name="Path 3947" d="M123.1,145.7c0-6.358,1.062-25.794.881-36.93a16.129,16.129,0,0,0-4.06-10.588c-8.843-2.953-15.681-6.55-20.069-9.9,2.84-6.883,5.715-9.82,5.816-9.933,9.052.424,20.933,2.727,23.779,10.571h.056a13.722,13.722,0,0,1,.621,2.88c.813,12.637-1.779,34.479,1.016,62.685a42.471,42.471,0,0,1-19.284,3.687c8.4-2.055,11.243-6.353,11.243-12.468" transform="translate(-99.857 -78.345)" fill="#d2dbea"/>
            </g>
          </g>
        </g>
        <path id="Path_3948" data-name="Path 3948" d="M117.108,70.32a5.9,5.9,0,0,0,2.513,11.531l19.408-4.229a5.9,5.9,0,0,0-2.513-11.531Z" transform="translate(522.594 306.484)" fill="#5755e9"/>
        <g id="Group_1750" data-name="Group 1750" transform="translate(635.85 373.893)" opacity="0.1" style="mix-blend-mode: multiply;isolation: isolate">
          <g id="Group_1749" data-name="Group 1749">
            <g id="Group_1748" data-name="Group 1748" clip-path="url(#clip-path-5)">
              <path id="Path_3949" data-name="Path 3949" d="M132.33,77.744l-12.587,2.744a5.9,5.9,0,0,1-2.513-11.531l12.587-2.744Z" transform="translate(-112.601 -66.215)"/>
            </g>
          </g>
        </g>
        <path id="Path_3950" data-name="Path 3950" d="M109.242,104.208c-3.484.757-32.26,16-31.989,17.234s32.847,3.456,36.331,2.693l175.807-38.3a6.5,6.5,0,0,0,4.941-7.7l-1.587-7.279a6.487,6.487,0,0,0-7.7-4.952Z" transform="translate(358.967 305.568)" fill="#bdd1e9"/>
        <path id="Path_3951" data-name="Path 3951" d="M116.917,91.357l-29.51,6.432a1.685,1.685,0,0,0-.192.023L82.884,77.918c.073-.017.141-.051.181-.062l29.51-6.426Z" transform="translate(385.144 331.92)" fill="#5755e9"/>
        <path id="Path_3952" data-name="Path 3952" d="M145.11,74.866a1.6,1.6,0,0,1-3.123.678L140.909,70.6c-.48-2.2-1.643-2.931-3.823-2.456L109.857,74.07a1.613,1.613,0,1,1-.689-3.151L136.4,64.99c3.925-.858,6.776.988,7.634,4.93Z" transform="translate(501.305 301.034)" fill="#bdd1e9"/>
        <g id="Group_1753" data-name="Group 1753" transform="translate(436.215 379.799)" opacity="0.05" style="mix-blend-mode: multiply;isolation: isolate">
          <g id="Group_1752" data-name="Group 1752">
            <g id="Group_1751" data-name="Group 1751" clip-path="url(#clip-path-6)">
              <path id="Path_3953" data-name="Path 3953" d="M293.477,67.259l.853,3.908a6.5,6.5,0,0,1-4.941,7.7l-175.807,38.3c-3.484.762-36.066-1.474-36.331-2.693-.006-.04.023-.085.017-.107Z" transform="translate(-77.252 -67.261)"/>
            </g>
          </g>
        </g>
        <path id="Path_3954" data-name="Path 3954" d="M120.186,90.7h-.107a7.634,7.634,0,0,0,1.615-1.779c2-3.015-.282-4.043-2.3-2.343a13.444,13.444,0,0,0-2.586,3.14c-.875,1.6-.711-.452.627-2.936,1.321-2.473.3-6.166-1.705-6.607,0,0,1.129-1.225-1.581-2.739s-6.607-3.941-7.826-2.637c0,0-4.354,7.2-4.438,12.321-.062,5.116-1,7,1.937,8.239,1.22.52,1.739,5.867,6.194,3.49,0,0,1.892,6.471,7.471-6.691Z" transform="translate(472.523 345.847)" fill="#fda4a4"/>
        <g id="Group_1756" data-name="Group 1756" transform="translate(575.955 440.104)" opacity="0.4" style="mix-blend-mode: multiply;isolation: isolate">
          <g id="Group_1755" data-name="Group 1755">
            <g id="Group_1754" data-name="Group 1754" clip-path="url(#clip-path-7)">
              <path id="Path_3955" data-name="Path 3955" d="M112.326,77.939c-5.167,2.891-8.391,2.174-10.091,1.457a.4.4,0,0,1-.215-.508.375.375,0,0,1,.491-.186c.175.079,2.089,2.287,9.814-.762" transform="translate(-101.998 -77.938)" fill="#f19b81"/>
            </g>
          </g>
        </g>
        <path id="Path_3956" data-name="Path 3956" d="M114.186,88.692c2.01.44,3.027,4.128,1.705,6.6-1.333,2.49-1.5,4.54-.627,2.942a13.444,13.444,0,0,1,2.586-3.14c1.288-1.079,3.422-.542,2.5,2.01.424-.243,9.792-5.319,4.111-12.056,0,0,1.062-6.364-3.648-8.481-4.7-2.134-13.072-.83-15.546-3.185-3.687-3.512-4.788,5.579-.373,9.82a23.055,23.055,0,0,0,9.289,5.489" transform="translate(474.062 337.329)" fill="#211d3e"/>
        <path id="Path_3957" data-name="Path 3957" d="M96.361,70.472c-.983,1.039-.023,3.557,2.134,5.6,2.174,2.038,4.721,2.869,5.709,1.83s.04-3.546-2.123-5.607c-2.18-2.044-4.732-2.874-5.72-1.824" transform="translate(445.978 325.35)" fill="#fda4a4"/>
        <path id="Path_3958" data-name="Path 3958" d="M143.492,122.664c.548-5.444-4.077-8.978-13.863-12.92s-16.726-6.392-19.442-12.79S102.3,71.939,102.3,71.939a7.044,7.044,0,0,0-5.308.819s1.372,20.131,6.674,33.452,25.315,19.075,33.841,21.757c5.506,1.722,5.986-5.3,5.986-5.3" transform="translate(450.696 333.364)" fill="#0c80c9"/>
        <path id="Path_3959" data-name="Path 3959" d="M69.271,129.958A30.157,30.157,0,1,1,99.431,99.8a30.194,30.194,0,0,1-30.159,30.159m0-58.184A28.028,28.028,0,1,0,97.3,99.8,28.059,28.059,0,0,0,69.271,71.774" transform="translate(181.745 323.625)" fill="#d5cae5"/>
        <path id="Path_3960" data-name="Path 3960" d="M65.475,121.553a25.546,25.546,0,1,1,25.546-25.54,25.574,25.574,0,0,1-25.546,25.54m0-48.963A23.417,23.417,0,1,0,88.892,96.013,23.45,23.45,0,0,0,65.475,72.59" transform="translate(185.541 327.417)" fill="#d5cae5"/>
        <path id="Path_3961" data-name="Path 3961" d="M80.213,71.623s-16.878,24-22.5,32.017c-3.467-5.054-7.9-11.463-7.9-11.463A4.694,4.694,0,1,0,42.1,97.519L53.82,114.47a4.7,4.7,0,0,0,7.725.051L87.9,77.021a4.7,4.7,0,0,0-7.685-5.4" transform="translate(191.759 323.573)" fill="#453e77"/>
        <path id="Path_3962" data-name="Path 3962" d="M85.76,135.933a10.965,10.965,0,0,1-8.538-4.179c-3.507-4.241-4.755-10.791-3.332-17.516,1.446-6.827,5.314-12.406,10.356-14.924,3.817-1.909,7.753-2.287,11.576-2.586-2.366-11.356-7.217-19.159-14.49-23.259-3.145-1.773-9.255-2.05-13.146,4.472-4.89,8.2-5.861,16.709-3.241,28.454a1.458,1.458,0,1,1-2.846.632c-2.756-12.372-1.649-21.8,3.586-30.577,4.969-8.306,12.925-7.849,17.076-5.511C90.876,75.5,96.229,84.079,98.742,96.5a33.029,33.029,0,0,0,4.427-.655,53.656,53.656,0,0,1,.3-8.346c1.372-10.441,5.664-13.151,7.437-13.829a4.324,4.324,0,0,1,4.461.565,8.828,8.828,0,0,1,2.812,7.431,20.13,20.13,0,0,1-7.7,14.123,16.87,16.87,0,0,1-4.331,2.225,105.1,105.1,0,0,0,3.62,22.226c1.005,3.552,3.467,9.537,8.657,9.746h.017c.819,0,2.869-1.88,4.935-9.052a76.7,76.7,0,0,0,1.937-8.764,29.213,29.213,0,0,1-1.3-3.388c-3.433-10.977-3.236-17.183.593-18.437a3.007,3.007,0,0,1,3.179,1.525c1.931,3.094,1.784,11.469.508,19.752,1.5,2.953,4.162,6.285,7.753,6.014,2.756-.186,4.856-2.643,6.42-7.516.96-2.993.977-8.278.04-12.558a1.462,1.462,0,0,1,2.219-1.536l9.809,6.392a1.457,1.457,0,1,1-1.592,2.439l-7.053-4.591a28.038,28.038,0,0,1-.649,10.746c-.723,2.259-2.925,9.12-9.007,9.526-3.236.26-6.313-1.44-8.7-4.608-1.1,5.41-2.626,10.356-4.3,13.236-1.479,2.547-3.128,3.71-4.918,3.732-5.206-.215-9.238-4.421-11.344-11.87A107.951,107.951,0,0,1,103.293,98.8a36.265,36.265,0,0,1-4.032.57,89.849,89.849,0,0,1,1.005,9.837c.356,7.16.1,15.3-4.467,21.362a12.723,12.723,0,0,1-9.786,5.359c-.085.006-.169.006-.254.006m10.593-36.32c-3.795.288-7.38.593-10.808,2.3-4.252,2.129-7.544,6.957-8.8,12.925-1.237,5.861-.22,11.491,2.722,15.06a8.122,8.122,0,0,0,6.3,3.117h.186a9.86,9.86,0,0,0,7.522-4.2c4.009-5.325,4.212-12.829,3.885-19.47a87.207,87.207,0,0,0-1.005-9.735m28.895-6.347c-1.1.9-1.2,4.958.875,12.355.519-6.364.147-11.39-.875-12.355M112.78,76.224a2.442,2.442,0,0,0-.824.169c-2.078.791-4.642,4.224-5.6,11.491a49.662,49.662,0,0,0-.311,7.058,14.117,14.117,0,0,0,2.756-1.525,17.235,17.235,0,0,0,6.471-11.892,5.961,5.961,0,0,0-1.807-5.088,1.037,1.037,0,0,0-.689-.215" transform="translate(281.767 322.788)" fill="#453e77"/>
        <path id="Path_3963" data-name="Path 3963" d="M22.226,109.635s6.607,4.06,8.369,4.675.531,2.112.531,2.112H15.783l-.435-7.228Z" transform="translate(71.319 507.401)" fill="#02102a"/>
        <path id="Path_3964" data-name="Path 3964" d="M18.141,86.953l7.409,13.936-3,5.1L12.505,89.777Z" transform="translate(58.11 404.052)" fill="#fda4a4"/>
        <path id="Path_3965" data-name="Path 3965" d="M18.629,90.148S12.65,102.673,13.7,124s9.882,81.777,9.882,81.777h6.878s6.172-69.066,3.343-85.289c.35-5.3,2.761,5.071,5.878,15.986,3.173,11.1,3.879,11.288,3.173,19.278-1.107,12.592-2.112,49.15-2.112,49.15h6.934s14.444-50.539,13.338-65.791c-1.112-15.461-6.7-35.089-12.841-49.138-9.283-3.405-29.544.175-29.544.175" transform="translate(63.085 411.258)" fill="#02102a"/>
        <path id="Path_3966" data-name="Path 3966" d="M25.236,109.1s6.618,5.026,8.385,5.636c1.751.616.52,2.118.52,2.118H18.8l-.418-7.668Z" transform="translate(85.436 506.973)" fill="#02102a"/>
        <path id="Path_3967" data-name="Path 3967" d="M19.2,84.934s-1.767-3.349.881-5.11,5.285.525,6,5.274c2.818,4.952,16.929,22.587,17.1,26.642s-5.11,3.349-5.11,3.349l-15.167-16.4Z" transform="translate(86.512 368.158)" fill="#fda4a4"/>
        <path id="Path_3968" data-name="Path 3968" d="M31.1,80.075s10.339-.469,12.581,1.3c2.225,1.75,3.286,7.629,4,20.8.7,13.157-.949,23.406.22,27.393H18.274a110.767,110.767,0,0,0-.875-17.641c-1.242-8.109-5.641-22.039-2.818-25.924S31.1,80.075,31.1,80.075" transform="translate(63.44 371.831)" fill="#23bdcb"/>
        <path id="Path_3969" data-name="Path 3969" d="M23.336,95.238s-2.112,17.466-4.4,19.577-7.228,4.585-6.708-6.878,4.76-24.151,4.76-24.151l3.354-2.3Z" transform="translate(56.622 378.657)" fill="#23bdcb"/>
        <path id="Path_3970" data-name="Path 3970" d="M33.709,90.132c2.259-6.866-.079-14.061-.079-14.061-1.276.226-4.258-.034-6.415,0-2.134.045-2.129,2.727-2.242,3.975-.152,1.259-1.254,4.015-2,4.184-.378-1.451-.378-6.042-2.767-4.551-2.366,1.491-1.6,2.27-1.446,4.958.136,2.694-3.473,2.022-3.473,2.022,1.2,6.494.073,8.114,1.1,9.65,2.3,3.445,6.336,3.608,9.605,2.134-.717-3.134-1.062-5.98-1.062-5.98,4.975,2.987,7.5,1.389,8.786-2.332" transform="translate(71.021 353.473)" fill="#fda4a4"/>
        <path id="Path_3971" data-name="Path 3971" d="M44.988,75.153C40.183,73.86,29.38,73.324,26.1,78.525c0,0-3.213,1.434-3.213,7.358,0,3.625-1.208,9.978-7.132,23.276,0,0-4.325,11.09-2.846,16.827,3.219,12.519,12.135,18.657,22.926,4.5,4.241-5.562,2.852-19.56.559-28.736-.819-3.286-.774-5.573,1.062-9.792.5-1.146.1-7.533,2.236-7.572,2.157-.045,5.737,3.094,9.17,2.66s6.228-9.2-3.874-11.892" transform="translate(58.551 345.165)" fill="#211d3e"/>
        <path id="Path_3972" data-name="Path 3972" d="M19.168,80.26S28.09,89.775,34.8,97.776c6.7,7.985,10.147,15.145,6.7,17.161-1.406.83-4.93,1.649-19.16-15.4-4.715-7.4-3.173-19.278-3.173-19.278" transform="translate(87.951 372.951)" fill="#23bdcb"/>
        <path id="Path_3973" data-name="Path 3973" d="M165.517,94.2h-13.8V63.145a24.151,24.151,0,0,0-48.3,0V94.2h-13.8V63.145a37.952,37.952,0,0,1,75.9,0Z" transform="translate(416.412 117.066)" fill="#c2bfd8"/>
        <g id="Group_1759" data-name="Group 1759" transform="translate(547.046 156.062)" opacity="0.15" style="mix-blend-mode: multiply;isolation: isolate">
          <g id="Group_1758" data-name="Group 1758">
            <g id="Group_1757" data-name="Group 1757" clip-path="url(#clip-path-8)">
              <path id="Path_3974" data-name="Path 3974" d="M99.944,27.637a23.9,23.9,0,0,0-3.066.311,24.105,24.105,0,0,1,21.085,23.841V82.84H124.1V51.788A24.181,24.181,0,0,0,99.944,27.637" transform="translate(-96.875 -27.639)" fill="#565656"/>
            </g>
          </g>
        </g>
        <g id="Group_1762" data-name="Group 1762" transform="translate(506.027 142.26)" opacity="0.15" style="mix-blend-mode: multiply;isolation: isolate">
          <g id="Group_1761" data-name="Group 1761">
            <g id="Group_1760" data-name="Group 1760" clip-path="url(#clip-path-9)">
              <path id="Path_3975" data-name="Path 3975" d="M130.632,25.351c-1.016-.079-2.033-.158-3.072-.158A38,38,0,0,0,89.614,63.151V94.2h6.132V63.151a37.979,37.979,0,0,1,34.886-37.8" transform="translate(-89.61 -25.194)" fill="#565656"/>
            </g>
          </g>
        </g>
        <path id="Path_3976" data-name="Path 3976" d="M196.594,131.33H98.837a14,14,0,0,1-13.993-13.993V51.016A14,14,0,0,1,98.837,37.023h97.757a14,14,0,0,1,13.993,13.993v66.321a14,14,0,0,1-13.993,13.993" transform="translate(394.251 172.038)" fill="#3cb4e7"/>
        <g id="Group_1765" data-name="Group 1765" transform="translate(587.587 209.06)" opacity="0.5" style="mix-blend-mode: screen;isolation: isolate">
          <g id="Group_1764" data-name="Group 1764">
            <g id="Group_1763" data-name="Group 1763" clip-path="url(#clip-path-10)">
              <path id="Path_3977" data-name="Path 3977" d="M118.05,117.337a13.993,13.993,0,0,1-13.993,13.993h3.258a13.993,13.993,0,0,0,13.993-13.993V51.016a13.993,13.993,0,0,0-13.993-13.993h-3.258A13.993,13.993,0,0,1,118.05,51.016Z" transform="translate(-104.057 -37.022)" fill="#eab642"/>
            </g>
          </g>
        </g>
        <path id="Path_3978" data-name="Path 3978" d="M98.645,117.337V51.016a14,14,0,0,1,13.993-13.993h-13.8A13.993,13.993,0,0,0,84.844,51.016v66.321A13.993,13.993,0,0,0,98.837,131.33h13.8a14,14,0,0,1-13.993-13.993" transform="translate(394.251 172.038)" fill="#10ace2"/>
        <g id="Group_1768" data-name="Group 1768" transform="translate(479.096 209.06)" opacity="0.5" style="mix-blend-mode: multiply;isolation: isolate">
          <g id="Group_1767" data-name="Group 1767">
            <g id="Group_1766" data-name="Group 1766" clip-path="url(#clip-path-10)">
              <path id="Path_3979" data-name="Path 3979" d="M88.1,117.337a13.993,13.993,0,0,0,13.993,13.993H98.837a13.993,13.993,0,0,1-13.993-13.993V51.016A13.993,13.993,0,0,1,98.837,37.023h3.258A13.993,13.993,0,0,0,88.1,51.016Z" transform="translate(-84.845 -37.022)" fill="#eab642"/>
            </g>
          </g>
        </g>
        <path id="Path_3980" data-name="Path 3980" d="M115.886,52.293a10.845,10.845,0,1,0-16.522,9.2L96.648,81.707c-.48,3.631,1.688,6.6,4.828,6.6h7.132c3.14,0,5.308-2.965,4.828-6.6L110.72,61.491a10.8,10.8,0,0,0,5.167-9.2" transform="translate(437.713 192.614)" fill="#564117"/>
        <path id="Path_3981" data-name="Path 3981" d="M101.141,70.005a22.07,22.07,0,1,0,22.068-22.073,22.093,22.093,0,0,0-22.068,22.073" transform="translate(469.98 222.729)" fill="#f7f7f7"/>
        <path id="Path_3982" data-name="Path 3982" d="M101.737,67.236a18.708,18.708,0,1,0,18.708-18.708,18.729,18.729,0,0,0-18.708,18.708" transform="translate(472.75 225.499)" fill="#8fc069"/>
        <path id="Path_3983" data-name="Path 3983" d="M120.392,51.292s-6.85,7.832-9.187,10.514c-1.722-1.852-4.235-4.557-4.235-4.557a2.244,2.244,0,0,0-3.145-.1,2.205,2.205,0,0,0-.1,3.134l5.89,6.347a2.227,2.227,0,0,0,1.671.7,2.162,2.162,0,0,0,1.632-.751l10.825-12.361a2.225,2.225,0,0,0-3.354-2.925" transform="translate(479.183 234.819)" fill="#fff"/>
        <path id="Path_3984" data-name="Path 3984" d="M41.01,62.21c-3.653-2.281-6.962.52-7.369,6.189l-14.7,49.042c-.13,3.625.514,3.862,4.58.463L65.963,84.419c4.054-3.4,4.393-8.075.723-10.334Z" transform="translate(87.923 285.383)" fill="#3cb4e7"/>
        <path id="Path_3985" data-name="Path 3985" d="M0,90.113a35,35,0,0,0,35,35H163.553a35.01,35.01,0,1,0,0-70.02H35A35.008,35.008,0,0,0,0,90.113" transform="translate(0 256)" fill="#3cb4e7"/>
        <path id="Path_3986" data-name="Path 3986" d="M13.775,60.658a2.016,2.016,0,0,0,2.01,2.016H88.736a2.013,2.013,0,0,0,0-4.026H15.785a2.011,2.011,0,0,0-2.01,2.01" transform="translate(64.009 272.524)" fill="#fff"/>
        <path id="Path_3987" data-name="Path 3987" d="M7.459,60.658a2.016,2.016,0,0,0,2.01,2.016h26.28a2.013,2.013,0,1,0,0-4.026H9.469a2.011,2.011,0,0,0-2.01,2.01" transform="translate(34.66 272.524)" fill="#fff"/>
        <path id="Path_3988" data-name="Path 3988" d="M25.174,62.747a2.011,2.011,0,0,0,2.01,2.01h8.583a2.01,2.01,0,1,0,0-4.021H27.184a2.011,2.011,0,0,0-2.01,2.01" transform="translate(116.978 282.232)" fill="#fff"/>
        <path id="Path_3989" data-name="Path 3989" d="M7.459,62.747a2.011,2.011,0,0,0,2.01,2.01h90.648a2.01,2.01,0,1,0,0-4.021H9.469a2.011,2.011,0,0,0-2.01,2.01" transform="translate(34.66 282.232)" fill="#fff"/>
        <path id="Path_3990" data-name="Path 3990" d="M18.335,64.836a2.012,2.012,0,0,0,2.01,2.016h47.2a2.013,2.013,0,1,0,0-4.026h-47.2a2.015,2.015,0,0,0-2.01,2.01" transform="translate(85.199 291.939)" fill="#fff"/>
        <path id="Path_3991" data-name="Path 3991" d="M7.459,64.836a2.012,2.012,0,0,0,2.01,2.016H61.5a2.013,2.013,0,0,0,0-4.026H9.469a2.015,2.015,0,0,0-2.01,2.01" transform="translate(34.66 291.939)" fill="#fff"/>
        <path id="Path_3992" data-name="Path 3992" d="M17.9,42.3A11.519,11.519,0,1,0,29.4,53.8,11.529,11.529,0,0,0,17.9,42.3m0,19.1a7.581,7.581,0,1,1,7.561-7.6A7.6,7.6,0,0,1,17.9,61.4" transform="translate(29.605 196.554)" fill="#c1cddb"/>
        <path id="Path_3993" data-name="Path 3993" d="M76.932,68.454H67.7a26.755,26.755,0,0,0-2.62-6.3l6.556-6.533a1.979,1.979,0,0,0,.57-1.395,2.046,2.046,0,0,0-.587-1.389L63.532,44.76a2,2,0,0,0-2.8.006L54.22,51.305a29.028,29.028,0,0,0-6.307-2.637v-9.21a1.966,1.966,0,0,0-1.965-1.965H34.5a1.966,1.966,0,0,0-1.965,1.965v9.21a28.97,28.97,0,0,0-6.285,2.637l-6.528-6.533a1.943,1.943,0,0,0-1.372-.587h-.017a1.965,1.965,0,0,0-1.4.582L8.837,52.835a2,2,0,0,0-.582,1.417,1.9,1.9,0,0,0,.576,1.367l6.516,6.539a29.69,29.69,0,0,0-2.614,6.3H3.518a1.965,1.965,0,0,0-1.954,1.971V81.882a1.96,1.96,0,0,0,1.954,1.965h9.216a29.033,29.033,0,0,0,2.614,6.279L8.831,96.683a1.953,1.953,0,0,0,0,2.778l8.092,8.092a2.077,2.077,0,0,0,2.79.006l6.533-6.55a28.5,28.5,0,0,0,6.285,2.631v9.216a1.973,1.973,0,0,0,1.965,1.976H45.948a1.973,1.973,0,0,0,1.965-1.976v-9.216a28.454,28.454,0,0,0,6.307-2.631l6.511,6.55a2.028,2.028,0,0,0,2.8,0l8.1-8.1a1.979,1.979,0,0,0-.006-2.778l-6.545-6.55A26.385,26.385,0,0,0,67.7,83.847h9.232A1.971,1.971,0,0,0,78.9,81.882V70.425a1.976,1.976,0,0,0-1.971-1.971m-12.683,13a23.562,23.562,0,0,1-3.3,7.894,1.981,1.981,0,0,0,.26,2.451l6.245,6.262-5.308,5.314-6.234-6.234a1.969,1.969,0,0,0-2.445-.282,24.225,24.225,0,0,1-7.928,3.309,1.966,1.966,0,0,0-1.542,1.92V110.9H36.478v-8.809a1.964,1.964,0,0,0-1.559-1.914A24.284,24.284,0,0,1,27,96.863a1.983,1.983,0,0,0-2.445.288l-6.228,6.228L13,98.06,19.227,91.8a1.983,1.983,0,0,0,.265-2.456,24.324,24.324,0,0,1-3.3-7.905,1.944,1.944,0,0,0-1.914-1.513H5.511v-7.55h8.769a1.948,1.948,0,0,0,1.914-1.536A24.536,24.536,0,0,1,19.5,62.909a2,2,0,0,0-.277-2.439L13,54.23l5.325-5.291,6.24,6.251a1.964,1.964,0,0,0,2.451.254,24.5,24.5,0,0,1,7.905-3.32,1.958,1.958,0,0,0,1.559-1.92V41.423h7.516V50.2a1.949,1.949,0,0,0,1.536,1.92,24.782,24.782,0,0,1,7.922,3.309,1.962,1.962,0,0,0,2.462-.254l6.228-6.24,5.308,5.285-6.24,6.245a1.973,1.973,0,0,0-.26,2.456,23.96,23.96,0,0,1,3.3,7.905,1.951,1.951,0,0,0,1.92,1.547h8.786v7.55H66.169a1.948,1.948,0,0,0-1.92,1.53" transform="translate(7.268 174.222)" fill="#c1cddb"/>
        <path id="Path_3994" data-name="Path 3994" d="M48.276,105.227a4.763,4.763,0,1,1-4.76-4.766,4.762,4.762,0,0,1,4.76,4.766" transform="translate(180.063 466.82)" fill="#8eaec7"/>
        <path id="Path_3995" data-name="Path 3995" d="M120.013,92.027a4.763,4.763,0,1,1-4.76-4.766,4.762,4.762,0,0,1,4.76,4.766" transform="translate(513.409 405.483)" fill="#8eaec7"/>
        <path id="Path_3996" data-name="Path 3996" d="M69.494,4.766A4.763,4.763,0,1,1,64.728,0a4.763,4.763,0,0,1,4.766,4.766" transform="translate(278.658)" fill="#8eaec7"/>
        <path id="Path_3997" data-name="Path 3997" d="M17.073,17.467a11.651,11.651,0,0,1,3.507-.384h.232a11.491,11.491,0,0,1,3.49.384,22.352,22.352,0,0,1,2.434.824c.017-.209.051-.4.051-.61V13.39a6.1,6.1,0,0,0-12.191,0v4.292c0,.215.034.4.045.61a24.128,24.128,0,0,1,2.434-.824" transform="translate(67.815 33.908)" fill="#e46e3d"/>
        <path id="Path_3998" data-name="Path 3998" d="M23.949,18.452H13.92v.74c0,5.1,4.427,9.266,9.9,9.266s9.9-4.162,9.9-9.266v-.74Z" transform="translate(64.683 85.742)" fill="#e46e3d"/>
        <path id="Path_3999" data-name="Path 3999" d="M62.487,57.564c-1.9-2.038-5.517-6.624-5.517-6.624v-21.8c0-8.3-3.879-16.607-16.009-19.73a11.513,11.513,0,0,0-3.49-.384H37.24a11.651,11.651,0,0,0-3.507.384C21.61,12.537,17.719,20.843,17.719,29.144v21.8s-3.614,4.585-5.506,6.624c-1.875,2.022-1.717,4.67,1.6,4.67H60.894c3.32,0,3.473-2.648,1.592-4.67" transform="translate(51.161 41.96)" fill="#ffbc47"/>
        <g id="Group_1771" data-name="Group 1771" transform="translate(91.292 52.747)" opacity="0.5" style="mix-blend-mode: multiply;isolation: isolate">
          <g id="Group_1770" data-name="Group 1770">
            <g id="Group_1769" data-name="Group 1769" clip-path="url(#clip-path-12)">
              <path id="Path_4000" data-name="Path 4000" d="M33.007,49.5V27.7c0-7.284-3-14.574-11.943-18.363,1.835,1.705,8.182,8.154,8.182,15.811V41.313c0,3.608-2.7,9.266-12.423,9.266-.9,0-.853.847,0,.847H34.554c-.887-1.1-1.547-1.931-1.547-1.931" transform="translate(-16.168 -9.341)" fill="#ffbc47"/>
            </g>
          </g>
        </g>
        <path id="Path_4001" data-name="Path 4001" d="M19.319,33.112a2,2,0,0,1-4,0V23.281a2,2,0,1,1,4,0Z" transform="translate(71.193 98.865)" fill="#ffbc47"/>
        <path id="Path_4002" data-name="Path 4002" d="M27.856,28.293a2,2,0,1,1-2.829,2.835l-6.951-6.946a2,2,0,0,1,2.829-2.84Z" transform="translate(81.257 96.473)" fill="#ffbc47"/>
        <path id="Path_4003" data-name="Path 4003" d="M12.5,28.293a2.006,2.006,0,0,0,2.84,2.835L22.3,24.182a2.008,2.008,0,0,0-2.84-2.84Z" transform="translate(55.402 96.473)" fill="#ffbc47"/>
        <path id="Path_4004" data-name="Path 4004" d="M175.2,56.024l.006-38.505a7.521,7.521,0,0,0-7.38-7.38l-64.458-.028a7.358,7.358,0,0,0-5.223,2.168,7.28,7.28,0,0,0-2.163,5.212V55.984a7.394,7.394,0,0,0,4.308,6.725,7.234,7.234,0,0,0,3.072.683h64.441a7.384,7.384,0,0,0,7.4-7.369m-7.375-41.865a3.378,3.378,0,0,1,1.112.237c-3.682,3.049-21.48,16.229-33.446,25.021-12.05-8.894-30.024-22.293-33.327-25.032a3.5,3.5,0,0,1,1.2-.254Zm-64.464,45.2c-.09,0-.164-.051-.243-.051l18.894-17.646a1.364,1.364,0,0,0,.073-1.926,1.333,1.333,0,0,0-1.892-.045L100.7,57.893A3.234,3.234,0,0,1,100.011,56V17.756c5.3,4.32,23.107,17.545,34.282,25.783a3.047,3.047,0,0,0,.339.209,1.994,1.994,0,0,0,2.038-.209C147.9,35.3,165.841,22.1,171.189,17.728l-.017,38.3a3.205,3.205,0,0,1-.672,1.9L151.007,39.688a1.35,1.35,0,0,0-1.846,1.971l18.911,17.669c-.09,0-.152.04-.265.04Z" transform="translate(446.021 46.979)" fill="#c1cddb"/>
      </g>
    </g>
  </g>
</svg>
