<svg xmlns="http://www.w3.org/2000/svg" width="30.48" height="35.56" viewBox="0 0 30.48 35.56">
  <g id="employee" transform="translate(-36.571)">
    <g id="Group_3888" data-name="Group 3888" transform="translate(36.571)">
      <path id="Path_5689" data-name="Path 5689" d="M65.9,23.634h-.87V16.842a.521.521,0,0,0-.107-.316l-2.5-3.283a1.9,1.9,0,1,0-.833.626l2.4,3.148v6.616H61.5v-1.51a.521.521,0,1,0-1.042,0v1.51h-2.26V19.555a.521.521,0,1,0-1.042,0v4.078H54l-.9-5.315.253-.381a.863.863,0,0,0,.771.19.833.833,0,0,0,.544-.437l1.271-2.547,2.9,1.124A2.8,2.8,0,0,1,60.455,18.8v.9a.521.521,0,1,0,1.042,0v-.9A3.824,3.824,0,0,0,59.234,15.3l-.01,0-4.912-1.9V12.353a4.007,4.007,0,0,0,1.465-2.522,1.9,1.9,0,0,0,1.034-.448,1.873,1.873,0,0,0,.221-2.613v-1.5a5.266,5.266,0,0,0-10.532,0V6.809a1.772,1.772,0,0,0-.429,1.154,1.869,1.869,0,0,0,.65,1.419,1.9,1.9,0,0,0,1.037.448A4.053,4.053,0,0,0,49.3,12.417V13.4L44.4,15.3l-.01,0A3.824,3.824,0,0,0,42.125,18.8v4.838h-2.49V17.018l2.4-3.148a1.908,1.908,0,1,0-.833-.626l-2.5,3.283a.521.521,0,0,0-.107.316v6.792h-.87a1.153,1.153,0,0,0-1.152,1.152v2.7a1.153,1.153,0,0,0,1.151,1.152v5.837a1.086,1.086,0,0,0,1.085,1.085H50.6a.521.521,0,0,0,0-1.042H38.806a.043.043,0,0,1-.043-.043V28.638h26.1v5.837a.043.043,0,0,1-.043.043H53.026a.521.521,0,1,0,0,1.042H64.815A1.086,1.086,0,0,0,65.9,34.475V28.638a1.153,1.153,0,0,0,1.151-1.152v-2.7A1.153,1.153,0,0,0,65.9,23.634Zm-5-10.679a.863.863,0,1,1,.863-.863A.864.864,0,0,1,60.9,12.955ZM42.721,11.229a.863.863,0,1,1-.863.863A.864.864,0,0,1,42.721,11.229Zm12.243,3.539L53.844,17.01,52.562,16.1l1.394-1.721ZM51.81,16.842l.694.493-.231.347h-.926l-.23-.347Zm-1.463-3.275v-.588a4.422,4.422,0,0,0,1.47.248,4.064,4.064,0,0,0,1.453-.273v.616l-1.46,1.8Zm1.161,5.157h.6l.831,4.91H50.676ZM56.42,7.964a.828.828,0,0,1-.288.629.853.853,0,0,1-.308.169v-1.6A.833.833,0,0,1,56.42,7.964Zm-8.711.8a.852.852,0,0,1-.308-.169.828.828,0,0,1-.288-.629A.775.775,0,0,1,47.37,7.4l.005,0a1.014,1.014,0,0,1,.334-.2Zm.271-2.995a.884.884,0,0,0-.224.345,2.029,2.029,0,0,0-.213.044v-.89h0a4.224,4.224,0,1,1,8.448,0v.866c-.055-.012-.111-.022-.167-.03a.729.729,0,0,0-.223-.507c-.161-.2-.451-.493-1.116-1.208a.843.843,0,0,0-1.08-.132,7.925,7.925,0,0,1-4.789,1.29A.846.846,0,0,0,47.98,5.767Zm.771,3.454V6.6a8.674,8.674,0,0,0,2.937-.4,9.19,9.19,0,0,0,2.146-.983l.478.51.025.027.133.141c.142.152.252.271.312.34V9.221a3.016,3.016,0,0,1-6.031,0Zm.909,5.158L51.055,16.1l-1.28.91-1.119-2.242ZM43.167,18.8h0a2.785,2.785,0,0,1,1.614-2.526l2.9-1.124,1.271,2.547h0a.834.834,0,0,0,.746.461.905.905,0,0,0,.569-.215l.253.381-.9,5.315H46.469V19.555a.521.521,0,0,0-1.042,0v4.078h-2.26V18.8Zm22.842,8.691a.11.11,0,0,1-.11.11H37.723a.11.11,0,0,1-.11-.11v-2.7a.11.11,0,0,1,.11-.11H65.9a.11.11,0,0,1,.11.11Z" transform="translate(-36.571)" fill="#0d3862"/>
    </g>
  </g>
</svg>
