<svg xmlns="http://www.w3.org/2000/svg" width="41.47" height="41.47" viewBox="0 0 41.47 41.47">
  <path id="Icon_awesome-arrow-circle-right" data-name="Icon awesome-arrow-circle-right" d="M21.3.562A20.735,20.735,0,1,1,.562,21.3,20.731,20.731,0,0,1,21.3.562ZM18.881,12.569l6.312,6.053H9.927A2,2,0,0,0,7.92,20.629v1.338a2,2,0,0,0,2.007,2.007H25.194l-6.312,6.053a2.009,2.009,0,0,0-.033,2.868l.92.911a2,2,0,0,0,2.834,0L33.7,22.719a2,2,0,0,0,0-2.834L22.6,8.781a2,2,0,0,0-2.834,0l-.92.911a2.019,2.019,0,0,0,.033,2.876Z" transform="translate(-0.563 -0.563)" fill="#8fc069"/>
</svg>
