<svg xmlns="http://www.w3.org/2000/svg" xmlns:xlink="http://www.w3.org/1999/xlink" width="535" height="535" viewBox="0 0 535 535">
  <defs>
    <linearGradient id="linear-gradient" x1="0.081" y1="1.009" x2="0.082" y2="1.009" gradientUnits="objectBoundingBox">
      <stop offset="0" stop-color="#3cb4e7"/>
      <stop offset="1" stop-color="#4f52ff"/>
    </linearGradient>
    <clipPath id="clip-path">
      <circle id="Ellipse_544" data-name="Ellipse 544" cx="267.5" cy="267.5" r="267.5" transform="translate(0.367 0.367)" fill="none"/>
    </clipPath>
    <clipPath id="clip-path-2">
      <path id="Path_2474" data-name="Path 2474" d="M781.35,0,594.961.106a9.1,9.1,0,0,0-9.09,9.382l7.388,238.1a9.019,9.019,0,0,0,9.095,8.723H774.361a9.019,9.019,0,0,0,9.1-8.738L790.452,9.316a8.992,8.992,0,0,0-2.57-6.561A9.1,9.1,0,0,0,781.356,0Z" transform="translate(-585.867 0.003)" fill="none"/>
    </clipPath>
    <linearGradient id="linear-gradient-2" x1="-0.154" y1="0.897" x2="-0.154" y2="0.897" gradientUnits="objectBoundingBox">
      <stop offset="0" stop-color="#09005d"/>
      <stop offset="1" stop-color="#1a0f91"/>
    </linearGradient>
    <clipPath id="clip-path-3">
      <path id="Path_2475" data-name="Path 2475" d="M812.18,58.453l-170.36.1a8.317,8.317,0,0,0-8.308,8.574l6.753,217.6a8.236,8.236,0,0,0,8.313,7.964H805.791a8.236,8.236,0,0,0,8.313-7.977L820.5,66.966a8.207,8.207,0,0,0-2.348-5.992,8.318,8.318,0,0,0-5.965-2.521h0" transform="translate(-633.507 -58.453)" fill="none"/>
    </clipPath>
    <linearGradient id="linear-gradient-3" x1="-0.648" y1="1.046" x2="-0.647" y2="1.046" gradientUnits="objectBoundingBox">
      <stop offset="0" stop-color="#dae3fe"/>
      <stop offset="1" stop-color="#e9effd"/>
    </linearGradient>
    <clipPath id="clip-path-4">
      <path id="Path_2476" data-name="Path 2476" d="M1023.713,105.344a18.428,18.428,0,1,0,18.428-18.428,18.428,18.428,0,0,0-18.428,18.428" transform="translate(-1023.713 -86.916)" fill="none"/>
    </clipPath>
    <clipPath id="clip-path-5">
      <path id="Path_2477" data-name="Path 2477" d="M1032.8,110.857a17.122,17.122,0,1,0,17.122-17.122,17.122,17.122,0,0,0-17.122,17.122" transform="translate(-1032.804 -93.735)" fill="none"/>
    </clipPath>
    <clipPath id="clip-path-6">
      <path id="Path_2478" data-name="Path 2478" d="M1023.713,1055.329a18.428,18.428,0,1,0,18.428-18.428,18.428,18.428,0,0,0-18.428,18.428" transform="translate(-1023.713 -1036.901)" fill="none"/>
    </clipPath>
    <clipPath id="clip-path-7">
      <path id="Path_2479" data-name="Path 2479" d="M1032.8,1060.842a17.122,17.122,0,1,0,17.122-17.122,17.122,17.122,0,0,0-17.122,17.122" transform="translate(-1032.804 -1043.72)" fill="none"/>
    </clipPath>
    <clipPath id="clip-path-8">
      <rect id="Rectangle_327" data-name="Rectangle 327" width="30.089" height="30.089" transform="matrix(0.709, -0.705, 0.705, 0.709, 0, 21.224)" fill="none"/>
    </clipPath>
    <clipPath id="clip-path-9">
      <rect id="Rectangle_329" data-name="Rectangle 329" width="27.627" height="27.626" transform="matrix(0.709, -0.705, 0.705, 0.709, 0, 19.487)" fill="none"/>
    </clipPath>
    <clipPath id="clip-path-10">
      <path id="Path_2480" data-name="Path 2480" d="M1325.278,724.554a11.753,11.753,0,0,0,0,23.507h15.236a11.753,11.753,0,0,0,0-23.507Z" transform="translate(-1313.525 -724.554)" fill="#db5c1c"/>
    </clipPath>
    <clipPath id="clip-path-11">
      <path id="Path_2481" data-name="Path 2481" d="M1331.492,729.1a10.883,10.883,0,0,0,0,21.766h14.141a10.883,10.883,0,0,0,0-21.766Z" transform="translate(-1320.678 -729.099)" fill="#db5c1c"/>
    </clipPath>
    <clipPath id="clip-path-12">
      <path id="Path_2482" data-name="Path 2482" d="M1032.1,724.554a11.753,11.753,0,1,0,0,23.507h15.236a11.753,11.753,0,1,0,0-23.507Z" transform="translate(-1020.347 -724.554)" fill="#db5c1c"/>
    </clipPath>
    <clipPath id="clip-path-13">
      <path id="Path_2483" data-name="Path 2483" d="M1038.314,729.1a10.883,10.883,0,0,0,0,21.766h14.141a10.883,10.883,0,0,0,0-21.766Z" transform="translate(-1027.5 -729.099)" fill="#db5c1c"/>
    </clipPath>
    <clipPath id="clip-path-14">
      <path id="Path_2484" data-name="Path 2484" d="M732.106,724.554a11.753,11.753,0,1,0,0,23.507h15.236a11.753,11.753,0,1,0,0-23.507Z" transform="translate(-720.352 -724.554)" fill="#db5c1c"/>
    </clipPath>
    <clipPath id="clip-path-15">
      <path id="Path_2485" data-name="Path 2485" d="M738.319,729.1a10.883,10.883,0,0,0,0,21.766H752.46a10.883,10.883,0,0,0,0-21.766Z" transform="translate(-727.505 -729.099)" fill="#db5c1c"/>
    </clipPath>
    <clipPath id="clip-path-16">
      <path id="Path_2486" data-name="Path 2486" d="M1118.073,289.986v16.542a.653.653,0,0,0,1.306,0V289.986a.653.653,0,0,0-1.306,0" transform="translate(-1118.073 -289.333)" fill="none"/>
    </clipPath>
    <linearGradient id="linear-gradient-4" x1="-23.783" y1="12.01" x2="-23.761" y2="12.01" xlink:href="#linear-gradient-2"/>
    <clipPath id="clip-path-17">
      <path id="Path_2487" data-name="Path 2487" d="M1105.963,365.468l2.674,4.632,2.674-4.632Z" transform="translate(-1105.963 -365.468)" fill="none"/>
    </clipPath>
    <linearGradient id="linear-gradient-5" x1="-30.958" y1="28.893" x2="-30.93" y2="28.893" xlink:href="#linear-gradient-2"/>
    <clipPath id="clip-path-18">
      <path id="Path_2488" data-name="Path 2488" d="M1118.073,633.162v12.189a.653.653,0,0,0,1.306,0V633.162a.653.653,0,1,0-1.306,0" transform="translate(-1118.073 -632.509)" fill="none"/>
    </clipPath>
    <linearGradient id="linear-gradient-6" x1="-30.292" y1="10.574" x2="-30.264" y2="10.574" xlink:href="#linear-gradient-2"/>
    <clipPath id="clip-path-19">
      <path id="Path_2489" data-name="Path 2489" d="M1105.963,685.918l2.674,4.631,2.674-4.631Z" transform="translate(-1105.963 -685.918)" fill="none"/>
    </clipPath>
    <linearGradient id="linear-gradient-7" x1="-30.958" y1="19.42" x2="-30.93" y2="19.42" xlink:href="#linear-gradient-2"/>
    <clipPath id="clip-path-20">
      <path id="Path_2490" data-name="Path 2490" d="M1113.528,919.521v16.107a.653.653,0,1,0,1.306,0V919.521a.653.653,0,1,0-1.306,0" transform="translate(-1113.528 -918.868)" fill="none"/>
    </clipPath>
    <linearGradient id="linear-gradient-8" x1="-24.207" y1="4.897" x2="-24.185" y2="4.897" xlink:href="#linear-gradient-2"/>
    <clipPath id="clip-path-21">
      <path id="Path_2491" data-name="Path 2491" d="M1102.468,992.731l2.674,4.632,2.674-4.632Z" transform="translate(-1102.468 -992.731)" fill="none"/>
    </clipPath>
    <linearGradient id="linear-gradient-9" x1="-30.86" y1="10.35" x2="-30.831" y2="10.35" xlink:href="#linear-gradient-2"/>
    <clipPath id="clip-path-22">
      <path id="Path_2492" data-name="Path 2492" d="M807.367,510.921a.653.653,0,0,0-.653.653V542.7a.653.653,0,0,0,1.306,0V512.227h35.261a.653.653,0,1,0,0-1.306Z" transform="translate(-806.714 -510.921)" fill="none"/>
    </clipPath>
    <linearGradient id="linear-gradient-10" x1="-3.142" y1="3.642" x2="-3.138" y2="3.642" xlink:href="#linear-gradient-2"/>
    <clipPath id="clip-path-23">
      <path id="Path_2493" data-name="Path 2493" d="M794.6,674.554l2.674,4.632,2.674-4.632Z" transform="translate(-794.604 -674.554)" fill="none"/>
    </clipPath>
    <linearGradient id="linear-gradient-11" x1="-22.212" y1="19.755" x2="-22.184" y2="19.755" xlink:href="#linear-gradient-2"/>
    <clipPath id="clip-path-24">
      <path id="Path_2494" data-name="Path 2494" d="M1244.86,510.921a.653.653,0,1,0,0,1.306h35.261V542.7a.653.653,0,1,0,1.306,0V511.574a.653.653,0,0,0-.653-.653Z" transform="translate(-1244.207 -510.921)" fill="none"/>
    </clipPath>
    <linearGradient id="linear-gradient-12" x1="-5.175" y1="3.493" x2="-5.171" y2="3.493" xlink:href="#linear-gradient-2"/>
    <clipPath id="clip-path-25">
      <path id="Path_2495" data-name="Path 2495" d="M1421.543,674.554l2.674,4.632,2.674-4.632Z" transform="translate(-1421.543 -674.554)" fill="none"/>
    </clipPath>
    <linearGradient id="linear-gradient-13" x1="-41.933" y1="18.798" x2="-41.903" y2="18.798" xlink:href="#linear-gradient-2"/>
    <clipPath id="clip-path-26">
      <path id="Path_2496" data-name="Path 2496" d="M924.154,858.158v10.883H805.748V858.158a.653.653,0,0,0-1.306,0v11.536a.653.653,0,0,0,.653.653H924.807a.653.653,0,0,0,.653-.653V858.158a.653.653,0,0,0-1.306,0" transform="translate(-804.442 -857.505)" fill="none"/>
    </clipPath>
    <linearGradient id="linear-gradient-14" x1="-1.273" y1="7.169" x2="-1.272" y2="7.169" xlink:href="#linear-gradient-2"/>
    <clipPath id="clip-path-27">
      <path id="Rectangle_348" data-name="Rectangle 348" d="M2.83,0H47.667A2.83,2.83,0,0,1,50.5,2.83v0a2.83,2.83,0,0,1-2.83,2.83H2.829A2.829,2.829,0,0,1,0,2.83v0A2.83,2.83,0,0,1,2.83,0Z" fill="#3cb4e7"/>
    </clipPath>
    <clipPath id="clip-path-28">
      <rect id="Rectangle_350" data-name="Rectangle 350" width="50.497" height="5.659" rx="2.83" fill="#3cb4e7"/>
    </clipPath>
    <clipPath id="clip-path-29">
      <rect id="Rectangle_351" data-name="Rectangle 351" width="415.974" height="256.318" fill="none"/>
    </clipPath>
    <clipPath id="clip-path-30">
      <path id="Path_2575" data-name="Path 2575" d="M1593.585,304.757l-95.164,1.812a7.034,7.034,0,0,0-6.869,7.693l5.642,59.858a7.034,7.034,0,0,0,7,6.374h89.522a7.034,7.034,0,0,0,7.034-7.034V311.79a7.034,7.034,0,0,0-7.031-7.034h-.137" transform="translate(-1491.52 -304.756)" fill="#3cb4e7"/>
    </clipPath>
    <clipPath id="clip-path-31">
      <path id="Path_2576" data-name="Path 2576" d="M1615.614,341.777l-89.922,3.065a4.35,4.35,0,0,0-4.189,4.683l4,51.76a4.35,4.35,0,0,0,4.292,4.015l85.921.9a4.35,4.35,0,0,0,4.4-4.35V346.125a4.35,4.35,0,0,0-4.347-4.35l-.151,0" transform="translate(-1521.489 -341.775)" fill="none"/>
    </clipPath>
    <linearGradient id="linear-gradient-15" x1="-2.948" y1="2.961" x2="-2.946" y2="2.961" xlink:href="#linear-gradient-3"/>
    <clipPath id="clip-path-33">
      <path id="Path_2589" data-name="Path 2589" d="M103.088,635.971l.661,124.112a4.776,4.776,0,0,0,4.776,4.75H191.24a4.776,4.776,0,0,0,4.776-4.776V636.169a4.776,4.776,0,0,0-4.763-4.776l-83.377-.224h-.013a4.775,4.775,0,0,0-4.775,4.8" transform="translate(-103.088 -631.17)" fill="url(#linear-gradient)"/>
    </clipPath>
    <clipPath id="clip-path-35">
      <path id="Rectangle_358" data-name="Rectangle 358" d="M1.7,0H58.182a1.7,1.7,0,0,1,1.7,1.7v0a1.7,1.7,0,0,1-1.7,1.7H1.7A1.7,1.7,0,0,1,0,1.7v0A1.7,1.7,0,0,1,1.7,0Z" fill="none"/>
    </clipPath>
    <linearGradient id="linear-gradient-16" x1="-0.538" y1="36.527" x2="-0.535" y2="36.527" xlink:href="#linear-gradient-3"/>
    <clipPath id="clip-path-36">
      <path id="Path_2591" data-name="Path 2591" d="M201.523,722.642a1.45,1.45,0,0,0,1.421,1.371l49.838.908a1.449,1.449,0,0,0,1.476-1.449v-.118a1.45,1.45,0,0,0-1.427-1.449l-49.837-.79h-.024a1.449,1.449,0,0,0-1.447,1.528" transform="translate(-201.521 -721.114)" fill="none"/>
    </clipPath>
    <linearGradient id="linear-gradient-17" x1="-0.731" y1="30.923" x2="-0.727" y2="30.923" xlink:href="#linear-gradient-3"/>
    <clipPath id="clip-path-37">
      <path id="Path_2592" data-name="Path 2592" d="M147.368,854.483l-1.617-90.944a2.576,2.576,0,0,1,2.522-2.618l67.291-1.31h.051a2.574,2.574,0,0,1,2.571,2.524l1.735,91.444a2.573,2.573,0,0,1-2.541,2.621l-67.408.809h-.031a2.579,2.579,0,0,1-2.572-2.527m68.162-96.612-67.29,1.31a4.321,4.321,0,0,0-4.229,4.39l1.617,90.944a4.325,4.325,0,0,0,4.313,4.237h.052l67.408-.809a4.314,4.314,0,0,0,4.261-4.4L219.927,762.1a4.314,4.314,0,0,0-4.316-4.232h-.081" transform="translate(-144.009 -757.87)" fill="none"/>
    </clipPath>
    <linearGradient id="linear-gradient-18" x1="-0.354" y1="1.102" x2="-0.352" y2="1.102" xlink:href="#linear-gradient-3"/>
    <clipPath id="clip-path-38">
      <path id="Path_2593" data-name="Path 2593" d="M149.442,805.642a.871.871,0,1,0,0,1.741h73.412a.871.871,0,0,0,0-1.741Z" transform="translate(-148.571 -805.642)" fill="none"/>
    </clipPath>
    <linearGradient id="linear-gradient-19" x1="-0.379" y1="58.578" x2="-0.376" y2="58.578" xlink:href="#linear-gradient-3"/>
    <clipPath id="clip-path-40">
      <rect id="Rectangle_364" data-name="Rectangle 364" width="9.147" height="33.219" fill="none"/>
    </clipPath>
    <clipPath id="clip-path-41">
      <rect id="Rectangle_363" data-name="Rectangle 363" width="9.147" height="33.219" rx="4.574" fill="none"/>
    </clipPath>
    <linearGradient id="linear-gradient-20" x1="-3.949" y1="1.603" x2="-3.928" y2="1.603" xlink:href="#linear-gradient-3"/>
    <clipPath id="clip-path-42">
      <rect id="Rectangle_366" data-name="Rectangle 366" width="9.268" height="37.19" fill="none"/>
    </clipPath>
    <clipPath id="clip-path-43">
      <path id="Path_2594" data-name="Path 2594" d="M318.694,1039.5h-7.281a1.017,1.017,0,0,0-.933,1.063v35.029a1.053,1.053,0,0,0,.933,1.1h7.281a1.153,1.153,0,0,0,1.053-1.1v-35.029a1.119,1.119,0,0,0-1.053-1.063" transform="translate(-310.48 -1039.499)" fill="none"/>
    </clipPath>
    <linearGradient id="linear-gradient-21" x1="-6.417" y1="1.538" x2="-6.396" y2="1.538" xlink:href="#linear-gradient-3"/>
    <clipPath id="clip-path-44">
      <rect id="Rectangle_369" data-name="Rectangle 369" width="9.147" height="43.569" fill="none"/>
    </clipPath>
    <clipPath id="clip-path-45">
      <path id="Rectangle_368" data-name="Rectangle 368" d="M4.574,0h0A4.573,4.573,0,0,1,9.147,4.573V39a4.574,4.574,0,0,1-4.574,4.574h0A4.574,4.574,0,0,1,0,39V4.574A4.574,4.574,0,0,1,4.574,0Z" fill="none"/>
    </clipPath>
    <linearGradient id="linear-gradient-22" x1="-5.199" y1="1.459" x2="-5.178" y2="1.459" xlink:href="#linear-gradient-3"/>
    <clipPath id="clip-path-46">
      <rect id="Rectangle_372" data-name="Rectangle 372" width="9.147" height="58.373" fill="none"/>
    </clipPath>
    <clipPath id="clip-path-47">
      <rect id="Rectangle_371" data-name="Rectangle 371" width="9.147" height="58.373" rx="4.574" fill="none"/>
    </clipPath>
    <linearGradient id="linear-gradient-23" x1="-9.528" y1="1.343" x2="-9.507" y2="1.343" xlink:href="#linear-gradient-3"/>
    <clipPath id="clip-path-48">
      <rect id="Rectangle_375" data-name="Rectangle 375" width="9.147" height="50.309" fill="none"/>
    </clipPath>
    <clipPath id="clip-path-49">
      <path id="Rectangle_374" data-name="Rectangle 374" d="M4.573,0h0A4.574,4.574,0,0,1,9.147,4.574V45.736a4.573,4.573,0,0,1-4.573,4.573h0A4.573,4.573,0,0,1,0,45.736V4.573A4.573,4.573,0,0,1,4.573,0Z" fill="none"/>
    </clipPath>
    <linearGradient id="linear-gradient-24" x1="-8.041" y1="1.398" x2="-8.02" y2="1.398" xlink:href="#linear-gradient-3"/>
    <clipPath id="clip-path-50">
      <rect id="Rectangle_382" data-name="Rectangle 382" width="47.261" height="20.575" fill="none"/>
    </clipPath>
    <clipPath id="clip-path-51">
      <path id="Path_2595" data-name="Path 2595" d="M210.074,924.626l-.173-.317,12.174-6.652,11.317,4.975,9.717-9.532.019-.011,11.41-6.734.184.311-11.391,6.723-9.86,9.672-11.378-5Z" transform="translate(-209.901 -906.355)" fill="none"/>
    </clipPath>
    <linearGradient id="linear-gradient-25" x1="-0.897" y1="4.527" x2="-0.893" y2="4.527" xlink:href="#linear-gradient-3"/>
    <clipPath id="clip-path-52">
      <path id="Path_2596" data-name="Path 2596" d="M206.136,995.388a1.309,1.309,0,1,1-1.309-1.309,1.309,1.309,0,0,1,1.309,1.309" transform="translate(-203.517 -994.079)" fill="none"/>
    </clipPath>
    <linearGradient id="linear-gradient-26" x1="-14.886" y1="25.17" x2="-14.813" y2="25.17" xlink:href="#linear-gradient-3"/>
    <clipPath id="clip-path-53">
      <path id="Path_2597" data-name="Path 2597" d="M269.286,960.884a1.309,1.309,0,1,1-1.309-1.309,1.309,1.309,0,0,1,1.309,1.309" transform="translate(-266.667 -959.575)" fill="none"/>
    </clipPath>
    <linearGradient id="linear-gradient-27" x1="-19.506" y1="27.694" x2="-19.433" y2="27.694" xlink:href="#linear-gradient-3"/>
    <clipPath id="clip-path-54">
      <path id="Path_2598" data-name="Path 2598" d="M328.529,985.623a1.309,1.309,0,1,1-1.309-1.309,1.309,1.309,0,0,1,1.309,1.309" transform="translate(-325.91 -984.314)" fill="none"/>
    </clipPath>
    <linearGradient id="linear-gradient-28" x1="-23.838" y1="25.884" x2="-23.765" y2="25.884" xlink:href="#linear-gradient-3"/>
    <clipPath id="clip-path-55">
      <path id="Path_2599" data-name="Path 2599" d="M378.007,936.8a1.309,1.309,0,1,1-1.309-1.309,1.309,1.309,0,0,1,1.309,1.309" transform="translate(-375.388 -935.486)" fill="none"/>
    </clipPath>
    <linearGradient id="linear-gradient-29" x1="-27.457" y1="29.454" x2="-27.384" y2="29.454" xlink:href="#linear-gradient-3"/>
    <clipPath id="clip-path-56">
      <path id="Path_2600" data-name="Path 2600" d="M439.2,901.64a1.309,1.309,0,1,1-1.309-1.309,1.309,1.309,0,0,1,1.309,1.309" transform="translate(-436.585 -900.331)" fill="none"/>
    </clipPath>
    <linearGradient id="linear-gradient-30" x1="-31.935" y1="32.025" x2="-31.862" y2="32.025" xlink:href="#linear-gradient-3"/>
    <clipPath id="clip-path-57">
      <path id="Path_2601" data-name="Path 2601" d="M366.532,1106.274l.57,33.924a4.829,4.829,0,0,0,4.829,4.748h66.583a4.829,4.829,0,0,0,4.829-4.829v-31.75a4.829,4.829,0,0,0-4.673-4.827l-67.153-2.174-.159,0a4.829,4.829,0,0,0-4.825,4.91" transform="translate(-366.531 -1101.364)" fill="#db5c1c"/>
    </clipPath>
    <clipPath id="clip-path-58">
      <path id="Path_2602" data-name="Path 2602" d="M395.3,1134.47l1.445,31.2a2.216,2.216,0,0,0,2.253,2.114l60.63-1.068a2.217,2.217,0,0,0,2.177-2.216v-27.054a2.216,2.216,0,0,0-2.107-2.214l-62.075-3.073-.112,0a2.216,2.216,0,0,0-2.212,2.319" transform="translate(-395.297 -1132.151)" fill="none"/>
    </clipPath>
    <linearGradient id="linear-gradient-31" x1="-1.035" y1="0.984" x2="-1.033" y2="0.984" gradientUnits="objectBoundingBox">
      <stop offset="0" stop-color="#ff928e"/>
      <stop offset="1" stop-color="#feb3b1"/>
    </linearGradient>
    <clipPath id="clip-path-59">
      <path id="Path_2603" data-name="Path 2603" d="M420.552,1153.546v2.247a1.418,1.418,0,0,0,1.441,1.418l52.294-.853a1.418,1.418,0,0,0,.015-2.836l-52.294-1.394h-.038a1.418,1.418,0,0,0-1.417,1.418" transform="translate(-420.552 -1152.128)" fill="none"/>
    </clipPath>
    <linearGradient id="linear-gradient-32" x1="-1.461" y1="6.993" x2="-1.458" y2="6.993" gradientUnits="objectBoundingBox">
      <stop offset="0" stop-color="#fe7062"/>
      <stop offset="1" stop-color="#ff928e"/>
    </linearGradient>
    <clipPath id="clip-path-60">
      <path id="Path_2604" data-name="Path 2604" d="M475.844,1194.793l-49.807.316a1.418,1.418,0,0,0-1.409,1.418v2.061a1.418,1.418,0,0,0,1.467,1.417l49.807-1.735a1.418,1.418,0,0,0,1.369-1.417v-.643a1.418,1.418,0,0,0-1.418-1.418h-.009" transform="translate(-424.628 -1194.793)" fill="none"/>
    </clipPath>
    <linearGradient id="linear-gradient-33" x1="-1.545" y1="5.241" x2="-1.541" y2="5.241" xlink:href="#linear-gradient-32"/>
    <clipPath id="clip-path-61">
      <rect id="Rectangle_388" data-name="Rectangle 388" width="415.974" height="256.318" fill="#3cb4e7"/>
    </clipPath>
    <clipPath id="clip-path-62">
      <path id="Path_2606" data-name="Path 2606" d="M0,363.571c0,10.482,10.647,18.29,21.129,18.29a18.9,18.9,0,0,0,7.714-1.639l-4.267-6.1a11.859,11.859,0,0,1-3.85.641c-6.561,0-13.225-4.887-13.225-11.448,0-6.511,6.564-12.22,13.076-12.306l-1.087-7.024C9.567,344.871,0,353.636,0,363.571" transform="translate(0 -343.983)" fill="#3cb4e7"/>
    </clipPath>
    <clipPath id="clip-path-63">
      <path id="Path_2607" data-name="Path 2607" d="M131.687,368.156a11.877,11.877,0,0,1-3.379,20.662l4.267,6.1a18.974,18.974,0,0,0,3.348-32.757Z" transform="translate(-128.308 -362.163)" fill="#3cb4e7"/>
    </clipPath>
    <clipPath id="clip-path-64">
      <path id="Path_2608" data-name="Path 2608" d="M322.193,348.684l4.336,5.474a13.776,13.776,0,0,1,8.838-3.491A11.877,11.877,0,0,1,346,357.258l4.9-6.167a18.946,18.946,0,0,0-15.129-7.523,21.886,21.886,0,0,0-13.577,5.116" transform="translate(-322.193 -343.568)" fill="#db5c1c"/>
    </clipPath>
    <clipPath id="clip-path-65">
      <path id="Path_2609" data-name="Path 2609" d="M282.763,384.829c0,10.349,10.38,18.087,20.731,18.281l-.333-7.1c-6.453-.159-12.9-4.989-12.9-11.44a11.943,11.943,0,0,1,4.387-8.82l-4.336-5.474c-4.474,3.66-7.552,8.917-7.552,14.551" transform="translate(-282.763 -370.278)" fill="none"/>
    </clipPath>
    <linearGradient id="linear-gradient-34" x1="-1.351" y1="4.852" x2="-1.346" y2="4.852" xlink:href="#linear-gradient-32"/>
    <clipPath id="clip-path-66">
      <path id="Path_2610" data-name="Path 2610" d="M389.588,478.416c-.109,0-.219,0-.328-.008l.332,7.1c.133,0,.265.009.4.009a18.972,18.972,0,0,0,16.887-10.321c-1.816-.82-4.511-1.992-6.842-3a11.877,11.877,0,0,1-10.447,6.221" transform="translate(-389.26 -472.195)" fill="#db5c1c"/>
    </clipPath>
    <clipPath id="clip-path-67">
      <path id="Path_2611" data-name="Path 2611" d="M445.706,389.011a11.888,11.888,0,0,1-.189,10.948c2.331,1.007,5.026,2.179,6.842,3a18.969,18.969,0,0,0-1.758-20.113Z" transform="translate(-445.517 -382.844)" fill="#db5c1c"/>
    </clipPath>
    <clipPath id="clip-path-68">
      <path id="Path_2612" data-name="Path 2612" d="M602.914,349.013l4.542,5.307a13.817,13.817,0,0,1,9.023-3.652,11.821,11.821,0,0,1,6.812,2.15l3.828-6.247a18.883,18.883,0,0,0-10.238-3,21.977,21.977,0,0,0-13.968,5.445" transform="translate(-602.914 -343.568)" fill="none"/>
    </clipPath>
    <clipPath id="clip-path-69">
      <path id="Path_2613" data-name="Path 2613" d="M709.3,365.488a11.863,11.863,0,0,1,5.046,9.047l7.394-1.495a18.969,18.969,0,0,0-8.613-13.8Z" transform="translate(-709.3 -359.24)" fill="none"/>
    </clipPath>
    <clipPath id="clip-path-70">
      <path id="Path_2614" data-name="Path 2614" d="M565.527,386.216c0,6.791,4.472,12.457,10.47,15.607l3.71-6.029c-3.818-1.958-6.678-5.537-6.678-9.836a11.879,11.879,0,0,1,4.2-8.658l-4.542-5.307c-4.26,3.643-7.161,8.755-7.161,14.223" transform="translate(-565.527 -371.993)" fill="none"/>
    </clipPath>
    <clipPath id="clip-path-71">
      <path id="Path_2615" data-name="Path 2615" d="M642.3,432.78c.013.226.021.453.021.682a11.879,11.879,0,0,1-11.879,11.879,14.477,14.477,0,0,1-6.546-1.612l-3.71,6.029a23.145,23.145,0,0,0,10.659,2.683A18.956,18.956,0,0,0,649.7,431.285Z" transform="translate(-620.189 -431.285)" fill="none"/>
    </clipPath>
    <clipPath id="clip-path-73">
      <path id="Path_2619" data-name="Path 2619" d="M68.748,1137.369a4.541,4.541,0,0,0-1.585,6.475l.24.363a4.221,4.221,0,0,0,5.871,1.178l52.693-35.332-2.035-3.293Z" transform="translate(-66.409 -1106.759)" fill="#7b4a8a"/>
    </clipPath>
    <clipPath id="clip-path-75">
      <rect id="Rectangle_402" data-name="Rectangle 402" width="58.529" height="57.525" fill="none"/>
    </clipPath>
    <clipPath id="clip-path-76">
      <path id="Path_2620" data-name="Path 2620" d="M402.038,891.525c2.488,15.679-8.439,30.444-24.406,32.978s-30.929-8.123-33.417-23.8,8.439-30.444,24.406-32.978,30.928,8.123,33.417,23.8" transform="translate(-343.863 -867.35)" fill="none"/>
    </clipPath>
    <linearGradient id="linear-gradient-35" x1="-1.015" y1="1.493" x2="-1.012" y2="1.493" xlink:href="#linear-gradient-3"/>
    <clipPath id="clip-path-77">
      <path id="Path_2621" data-name="Path 2621" d="M331.757,886.782a27.793,27.793,0,1,1,31.721,22.594,28.5,28.5,0,0,1-4.467.354,27.447,27.447,0,0,1-27.254-22.948m22.432-35.946c-17.767,2.82-29.926,19.249-27.158,36.7s19.416,29.3,37.184,26.485,29.926-19.249,27.158-36.7a32.177,32.177,0,0,0-31.947-26.9,33.391,33.391,0,0,0-5.236.415" transform="translate(-326.639 -850.422)" fill="#7b4a8a"/>
    </clipPath>
  </defs>
  <g id="Group_337" data-name="Group 337" transform="translate(-103.123 -1628.171)">
    <g id="Group_1182" data-name="Group 1182" transform="translate(-341.877 -1106.829)">
      <circle id="Ellipse_545" data-name="Ellipse 545" cx="267.5" cy="267.5" r="267.5" transform="translate(445 2735)" fill="#e3f3f2" style="mix-blend-mode: multiply;isolation: isolate"/>
      <g id="Mask_Group_8" data-name="Mask Group 8" transform="translate(444.633 2734.633)" clip-path="url(#clip-path)">
        <path id="Path_3156" data-name="Path 3156" d="M0,277.214V65C106.83,86.9,226,41.653,287.827,26.228S354.153,9.213,389.5,4.005,467.528-2.832,498.18,8.468c21.349,7.87,26.232,18.5,27.229,24.221a9.079,9.079,0,0,1,.135,1.568v2.485l0,.006V277.214Z" transform="matrix(0.998, 0.07, -0.07, 0.998, 14.751, 277.796)" fill="#edeeef"/>
      </g>
    </g>
    <g id="Group_946" data-name="Group 946" transform="translate(-7.877 39.5)">
      <g id="Group_786" data-name="Group 786" transform="translate(283.218 1727.671)">
        <g id="Group_785" data-name="Group 785" clip-path="url(#clip-path-2)">
          <rect id="Rectangle_320" data-name="Rectangle 320" width="327.797" height="322.499" transform="matrix(0.654, -0.757, 0.757, 0.654, -126.879, 146.725)" fill="url(#linear-gradient-2)"/>
        </g>
      </g>
      <g id="Group_788" data-name="Group 788" transform="translate(292.343 1738.867)">
        <g id="Group_787" data-name="Group 787" clip-path="url(#clip-path-3)">
          <rect id="Rectangle_321" data-name="Rectangle 321" width="187.122" height="234.238" transform="translate(-0.066 0)" fill="url(#linear-gradient-3)"/>
        </g>
      </g>
      <g id="Group_790" data-name="Group 790" transform="translate(367.084 1744.319)">
        <g id="Group_789" data-name="Group 789" clip-path="url(#clip-path-4)">
          <rect id="Rectangle_322" data-name="Rectangle 322" width="51.686" height="51.686" transform="translate(-17.812 13.701) rotate(-37.569)" fill="#3cb4e7"/>
        </g>
      </g>
      <g id="Group_792" data-name="Group 792" transform="translate(368.825 1745.625)">
        <g id="Group_791" data-name="Group 791" clip-path="url(#clip-path-5)">
          <rect id="Rectangle_323" data-name="Rectangle 323" width="35.069" height="35.07" transform="translate(-0.835 0.02) rotate(-1.397)" fill="#3cb4e7"/>
        </g>
      </g>
      <g id="Group_794" data-name="Group 794" transform="translate(367.084 1926.28)">
        <g id="Group_793" data-name="Group 793" clip-path="url(#clip-path-6)">
          <rect id="Rectangle_324" data-name="Rectangle 324" width="51.685" height="51.686" transform="matrix(0.793, -0.61, 0.61, 0.793, -17.812, 13.701)" fill="#3cb4e7"/>
        </g>
      </g>
      <g id="Group_796" data-name="Group 796" transform="translate(368.825 1927.587)">
        <g id="Group_795" data-name="Group 795" clip-path="url(#clip-path-7)">
          <rect id="Rectangle_325" data-name="Rectangle 325" width="36.701" height="36.701" transform="matrix(0.997, -0.075, 0.075, 0.997, -2.544, 0.19)" fill="#3cb4e7"/>
        </g>
      </g>
      <g id="Group_798" data-name="Group 798" transform="translate(364.236 1805.099)">
        <g id="Group_797" data-name="Group 797" clip-path="url(#clip-path-8)">
          <rect id="Rectangle_326" data-name="Rectangle 326" width="55.544" height="55.544" transform="matrix(0.925, -0.381, 0.381, 0.925, -14.975, 6.162)" fill="#db5c1c"/>
        </g>
      </g>
      <g id="Group_800" data-name="Group 800" transform="translate(365.978 1806.839)">
        <g id="Group_799" data-name="Group 799" transform="translate(0 0)" clip-path="url(#clip-path-9)">
          <rect id="Rectangle_328" data-name="Rectangle 328" width="39.605" height="39.605" transform="translate(-0.539 39.062) rotate(-89.21)" fill="#db5c1c"/>
        </g>
      </g>
      <g id="Group_802" data-name="Group 802" transform="translate(422.595 1866.453)">
        <g id="Group_801" data-name="Group 801" clip-path="url(#clip-path-10)">
          <rect id="Rectangle_330" data-name="Rectangle 330" width="44.679" height="43.126" transform="translate(-11.631 10.063) rotate(-40.865)" fill="#db5c1c"/>
        </g>
      </g>
      <g id="Group_804" data-name="Group 804" transform="translate(423.965 1867.323)">
        <g id="Group_803" data-name="Group 803" clip-path="url(#clip-path-11)">
          <rect id="Rectangle_331" data-name="Rectangle 331" width="35.768" height="21.766" transform="translate(0 0)" fill="#db5c1c"/>
        </g>
      </g>
      <g id="Group_806" data-name="Group 806" transform="translate(366.439 1866.453)">
        <g id="Group_805" data-name="Group 805" clip-path="url(#clip-path-12)">
          <rect id="Rectangle_332" data-name="Rectangle 332" width="44.68" height="43.126" transform="translate(-11.631 10.063) rotate(-40.865)" fill="#db5c1c"/>
        </g>
      </g>
      <g id="Group_808" data-name="Group 808" transform="translate(367.81 1867.323)">
        <g id="Group_807" data-name="Group 807" clip-path="url(#clip-path-13)">
          <rect id="Rectangle_333" data-name="Rectangle 333" width="35.769" height="21.766" transform="translate(0 0)" fill="#db5c1c"/>
        </g>
      </g>
      <g id="Group_810" data-name="Group 810" transform="translate(308.978 1866.453)">
        <g id="Group_809" data-name="Group 809" clip-path="url(#clip-path-14)">
          <rect id="Rectangle_334" data-name="Rectangle 334" width="44.68" height="43.126" transform="matrix(0.756, -0.654, 0.654, 0.756, -11.631, 10.063)" fill="#db5c1c"/>
        </g>
      </g>
      <g id="Group_812" data-name="Group 812" transform="translate(310.348 1867.323)">
        <g id="Group_811" data-name="Group 811" clip-path="url(#clip-path-15)">
          <rect id="Rectangle_335" data-name="Rectangle 335" width="35.768" height="21.766" transform="translate(0 0)" fill="#db5c1c"/>
        </g>
      </g>
      <g id="Group_814" data-name="Group 814" transform="translate(385.158 1783.091)">
        <g id="Group_813" data-name="Group 813" clip-path="url(#clip-path-16)">
          <rect id="Rectangle_336" data-name="Rectangle 336" width="8.846" height="16.678" transform="matrix(0.903, -0.43, 0.43, 0.903, -6.923, 3.293)" fill="url(#linear-gradient-4)"/>
        </g>
      </g>
      <g id="Group_816" data-name="Group 816" transform="translate(382.838 1797.673)">
        <g id="Group_815" data-name="Group 815" clip-path="url(#clip-path-17)">
          <rect id="Rectangle_337" data-name="Rectangle 337" width="6.819" height="6.48" transform="translate(-1.797 0.855) rotate(-25.44)" fill="url(#linear-gradient-5)"/>
        </g>
      </g>
      <g id="Group_818" data-name="Group 818" transform="translate(385.158 1848.823)">
        <g id="Group_817" data-name="Group 817" clip-path="url(#clip-path-18)">
          <rect id="Rectangle_338" data-name="Rectangle 338" width="6.976" height="12.747" transform="matrix(0.903, -0.43, 0.43, 0.903, -5.235, 2.49)" fill="url(#linear-gradient-6)"/>
        </g>
      </g>
      <g id="Group_820" data-name="Group 820" transform="translate(382.838 1859.053)">
        <g id="Group_819" data-name="Group 819" clip-path="url(#clip-path-19)">
          <rect id="Rectangle_339" data-name="Rectangle 339" width="6.819" height="6.48" transform="matrix(0.903, -0.43, 0.43, 0.903, -1.797, 0.855)" fill="url(#linear-gradient-7)"/>
        </g>
      </g>
      <g id="Group_822" data-name="Group 822" transform="translate(384.287 1903.673)">
        <g id="Group_821" data-name="Group 821" clip-path="url(#clip-path-20)">
          <rect id="Rectangle_340" data-name="Rectangle 340" width="8.659" height="16.285" transform="translate(-6.755 3.213) rotate(-25.44)" fill="url(#linear-gradient-8)"/>
        </g>
      </g>
      <g id="Group_824" data-name="Group 824" transform="translate(382.169 1917.82)">
        <g id="Group_823" data-name="Group 823" clip-path="url(#clip-path-21)">
          <rect id="Rectangle_341" data-name="Rectangle 341" width="6.819" height="6.48" transform="translate(-1.797 0.855) rotate(-25.44)" fill="url(#linear-gradient-9)"/>
        </g>
      </g>
      <g id="Group_826" data-name="Group 826" transform="translate(325.52 1825.534)">
        <g id="Group_825" data-name="Group 825" clip-path="url(#clip-path-22)">
          <rect id="Rectangle_342" data-name="Rectangle 342" width="47.542" height="45.275" transform="translate(-12.58 5.984) rotate(-25.44)" fill="url(#linear-gradient-10)"/>
        </g>
      </g>
      <g id="Group_828" data-name="Group 828" transform="translate(323.2 1856.876)">
        <g id="Group_827" data-name="Group 827" clip-path="url(#clip-path-23)">
          <rect id="Rectangle_343" data-name="Rectangle 343" width="6.819" height="6.48" transform="translate(-1.797 0.855) rotate(-25.44)" fill="url(#linear-gradient-11)"/>
        </g>
      </g>
      <g id="Group_830" data-name="Group 830" transform="translate(409.318 1825.534)">
        <g id="Group_829" data-name="Group 829" clip-path="url(#clip-path-24)">
          <rect id="Rectangle_344" data-name="Rectangle 344" width="45.275" height="47.542" transform="translate(-12.58 26.446) rotate(-64.56)" fill="url(#linear-gradient-12)"/>
        </g>
      </g>
      <g id="Group_832" data-name="Group 832" transform="translate(443.285 1856.876)">
        <g id="Group_831" data-name="Group 831" clip-path="url(#clip-path-25)">
          <rect id="Rectangle_345" data-name="Rectangle 345" width="6.48" height="6.819" transform="translate(-1.797 3.777) rotate(-64.56)" fill="url(#linear-gradient-13)"/>
        </g>
      </g>
      <g id="Group_834" data-name="Group 834" transform="translate(325.084 1891.919)">
        <g id="Group_833" data-name="Group 833" clip-path="url(#clip-path-26)">
          <rect id="Rectangle_346" data-name="Rectangle 346" width="121.018" height="12.842" transform="translate(0 0)" fill="url(#linear-gradient-14)"/>
        </g>
      </g>
      <g id="Group_836" data-name="Group 836" transform="translate(302.883 1749.788)">
        <g id="Group_835" data-name="Group 835" clip-path="url(#clip-path-27)">
          <rect id="Rectangle_347" data-name="Rectangle 347" width="50.664" height="15.008" transform="matrix(0.982, -0.187, 0.187, 0.982, -1.04, 0.198)" fill="#3cb4e7"/>
        </g>
      </g>
      <g id="Group_838" data-name="Group 838" transform="translate(302.883 1762.413)">
        <g id="Group_837" data-name="Group 837" clip-path="url(#clip-path-28)">
          <rect id="Rectangle_349" data-name="Rectangle 349" width="50.664" height="15.008" transform="matrix(0.982, -0.187, 0.187, 0.982, -1.04, 0.198)" fill="#3cb4e7"/>
        </g>
      </g>
      <g id="Group_840" data-name="Group 840" transform="translate(171 1727.671)">
        <g id="Group_839" data-name="Group 839" clip-path="url(#clip-path-29)">
          <path id="Path_2497" data-name="Path 2497" d="M1694.948,59.809a1.027,1.027,0,0,1-.886-.508l-2.124-3.62a20.457,20.457,0,0,1-5.814-1.146l-3.339,2.548a1.027,1.027,0,0,1-1.192.039l-4.552-3.027a1.028,1.028,0,0,1-.425-1.115l1.058-4.064a20.49,20.49,0,0,1-3.3-4.919l-4.161-.559a1.029,1.029,0,0,1-.87-.815l-1.078-5.359a1.027,1.027,0,0,1,.488-1.089l3.62-2.123a20.465,20.465,0,0,1,1.146-5.814l-2.548-3.339a1.029,1.029,0,0,1-.038-1.193l3.027-4.551a1.028,1.028,0,0,1,1.115-.425l4.064,1.059a20.452,20.452,0,0,1,4.919-3.3l.559-4.16a1.028,1.028,0,0,1,.816-.87l5.358-1.078a1.028,1.028,0,0,1,1.089.487L1694,14.483a20.472,20.472,0,0,1,5.814,1.146l3.339-2.548a1.03,1.03,0,0,1,1.192-.039l4.551,3.027a1.027,1.027,0,0,1,.425,1.115l-1.059,4.064a20.461,20.461,0,0,1,3.3,4.919l4.16.559a1.028,1.028,0,0,1,.871.815l1.078,5.359a1.028,1.028,0,0,1-.488,1.089l-3.62,2.124a20.465,20.465,0,0,1-1.146,5.814l2.548,3.339a1.028,1.028,0,0,1,.039,1.192l-3.027,4.552a1.026,1.026,0,0,1-1.114.425l-4.065-1.059a20.464,20.464,0,0,1-4.919,3.3l-.559,4.16a1.028,1.028,0,0,1-.815.871l-5.359,1.077a1.032,1.032,0,0,1-.2.02m-9.046-6.747.338.126a19.18,19.18,0,0,0,6.1,1.2l.36.011,2.386,4.067,4.969-1,.628-4.674.328-.15a19.15,19.15,0,0,0,5.163-3.468l.263-.247,4.566,1.19,2.807-4.221-2.863-3.751.126-.338a19.167,19.167,0,0,0,1.2-6.1l.011-.36,4.068-2.386-1-4.969-4.674-.628-.15-.328a19.178,19.178,0,0,0-3.468-5.163l-.247-.263,1.189-4.566-4.22-2.807-3.751,2.863-.338-.126a19.181,19.181,0,0,0-6.1-1.2l-.36-.011-2.386-4.067-4.969,1-.628,4.674-.328.15a19.165,19.165,0,0,0-5.162,3.468l-.263.247-4.566-1.19-2.807,4.221,2.863,3.751-.126.338a19.168,19.168,0,0,0-1.2,6.1l-.011.36-4.067,2.386,1,4.969,4.674.628.15.328a19.179,19.179,0,0,0,3.468,5.163l.247.263-1.189,4.566,4.22,2.807Zm7.141-4.078A13.853,13.853,0,0,1,1679.5,37.868a13.986,13.986,0,0,1-.273-2.934.66.66,0,0,1,.662-.644.653.653,0,0,1,.644.662,12.63,12.63,0,0,0,.248,2.658,12.53,12.53,0,1,0,3.858-11.751.653.653,0,1,1-.879-.966A13.843,13.843,0,1,1,1695.8,48.709a13.991,13.991,0,0,1-2.758.276" transform="translate(-1348.704 -8.371)" fill="#91b3fa"/>
          <path id="Path_2498" data-name="Path 2498" d="M1774.105,121.716a5.513,5.513,0,0,1-4.977-3.132h0a5.508,5.508,0,1,1,4.977,3.132m-3.8-3.7a4.2,4.2,0,1,0,1.979-5.6,4.2,4.2,0,0,0-1.979,5.6Z" transform="translate(-1429.832 -89.499)" fill="#91b3fa"/>
          <path id="Path_2499" data-name="Path 2499" d="M1940.593,200.866a.827.827,0,0,1-.239-.035l-2.518-.757a.833.833,0,0,1-.592-.765l-.073-1.837a10.186,10.186,0,0,1-2-1.633l-1.814.295a.834.834,0,0,1-.868-.428l-1.245-2.316a.835.835,0,0,1,.121-.959l1.247-1.351a10.19,10.19,0,0,1-.258-2.57l-1.492-1.075a.833.833,0,0,1-.311-.916l.757-2.518a.834.834,0,0,1,.763-.592l1.839-.073a10.191,10.191,0,0,1,1.633-2l-.295-1.814a.834.834,0,0,1,.428-.867l2.316-1.245a.833.833,0,0,1,.959.121l1.351,1.247a10.122,10.122,0,0,1,2.57-.258l1.075-1.492a.833.833,0,0,1,.916-.311l2.518.757a.833.833,0,0,1,.592.765l.073,1.836a10.191,10.191,0,0,1,2,1.633l1.814-.295a.832.832,0,0,1,.867.428l1.245,2.316a.834.834,0,0,1-.123.961l-1.245,1.349a10.186,10.186,0,0,1,.258,2.57l1.492,1.075a.834.834,0,0,1,.311.916l-.757,2.517a.833.833,0,0,1-.763.592l-1.839.073a10.194,10.194,0,0,1-1.633,2l.295,1.814a.834.834,0,0,1-.428.867l-2.316,1.245a.834.834,0,0,1-.959-.121l-1.351-1.247a10.179,10.179,0,0,1-2.57.258l-1.075,1.492a.833.833,0,0,1-.676.346m-.383-1.11h0Zm-1.675-.836,1.872.563,1.295-1.8.36.022a8.927,8.927,0,0,0,2.867-.288l.348-.094,1.626,1.5,1.721-.926-.355-2.185.27-.239a8.885,8.885,0,0,0,1.822-2.232l.18-.312,2.213-.088.563-1.872-1.8-1.294.022-.36a8.89,8.89,0,0,0-.288-2.867l-.094-.348,1.5-1.627-.926-1.721-2.185.355-.239-.27a8.885,8.885,0,0,0-2.232-1.822l-.312-.18-.088-2.213-1.872-.563-1.295,1.8-.36-.022a8.886,8.886,0,0,0-2.867.288l-.348.094-1.626-1.5-1.721.926.355,2.185-.27.239a8.888,8.888,0,0,0-1.822,2.232l-.18.312-2.213.088-.563,1.872,1.8,1.294-.022.36a8.877,8.877,0,0,0,.288,2.867l.094.348-1.5,1.627.926,1.722,2.185-.355.238.27a8.884,8.884,0,0,0,2.233,1.822l.312.18Zm-5.284-3.431h0Zm19.64-11.258,0,0Zm-10.219,11.554a7.009,7.009,0,0,1-6.734-5.066.653.653,0,0,1,1.255-.362,5.722,5.722,0,0,0,.458,1.122,5.688,5.688,0,1,0,.126-5.613.653.653,0,0,1-1.122-.669,6.995,6.995,0,1,1,6.017,10.587" transform="translate(-1560.741 -142.839)" fill="#91b3fa"/>
          <path id="Path_2500" data-name="Path 2500" d="M1426.405,166.772l2.185-.064a.435.435,0,1,1,.025.869h-.007l-2.163.065h-.013a.435.435,0,0,1-.027-.87Z" transform="translate(-1152.848 -134.775)" fill="#7d97f4"/>
          <path id="Path_2501" data-name="Path 2501" d="M1449.147,166.511l2.179-.007a.433.433,0,1,1,0,.865h0l-2.171.009h0a.433.433,0,1,1,0-.867Z" transform="translate(-1171.226 -134.611)" fill="#7d97f4"/>
          <path id="Path_2502" data-name="Path 2502" d="M1471.879,166.579l2.179.035a.431.431,0,1,1-.014.862h0l-2.171-.033h0a.432.432,0,0,1,.013-.864Z" transform="translate(-1189.599 -134.671)" fill="#7d97f4"/>
          <path id="Path_2503" data-name="Path 2503" d="M1494.6,167.05l2.178.075a.429.429,0,1,1-.029.858h0l-2.171-.073h0a.43.43,0,1,1,.029-.859Z" transform="translate(-1207.966 -135.052)" fill="#7d97f4"/>
          <path id="Path_2504" data-name="Path 2504" d="M1517.319,167.936l2.177.115a.427.427,0,1,1-.045.853h0l-2.169-.113h0a.428.428,0,0,1,.044-.856Z" transform="translate(-1226.324 -135.768)" fill="#7d97f4"/>
          <path id="Path_2505" data-name="Path 2505" d="M1540.019,169.242l2.174.156a.426.426,0,0,1-.061.849h0l-2.166-.154h0a.426.426,0,1,1,.06-.851Z" transform="translate(-1244.672 -136.824)" fill="#7d97f4"/>
          <path id="Path_2506" data-name="Path 2506" d="M1562.685,170.981l2.172.2a.424.424,0,1,1-.077.844h0l-2.163-.2h0a.425.425,0,0,1,.077-.846Z" transform="translate(-1262.991 -138.229)" fill="#7d97f4"/>
          <path id="Path_2507" data-name="Path 2507" d="M1585.312,173.177l2.167.245a.422.422,0,0,1-.1.839h0l-2.158-.243h0a.423.423,0,1,1,.094-.84Z" transform="translate(-1281.278 -140.003)" fill="#7d97f4"/>
          <path id="Path_2508" data-name="Path 2508" d="M1607.894,175.862l2.162.3a.42.42,0,1,1-.114.833h0l-2.152-.292h0a.421.421,0,0,1,.113-.835Z" transform="translate(-1299.528 -142.173)" fill="#7d97f4"/>
          <path id="Path_2509" data-name="Path 2509" d="M1630.409,179.077l2.154.35a.418.418,0,0,1-.134.826h-.005l-2.143-.346h-.005a.419.419,0,0,1,.134-.828Z" transform="translate(-1317.724 -144.771)" fill="#7d97f4"/>
          <path id="Path_2510" data-name="Path 2510" d="M1652.833,182.872l2.144.41a.417.417,0,0,1-.156.819h-.006l-2.132-.405h-.006a.418.418,0,0,1,.156-.821Z" transform="translate(-1335.846 -147.838)" fill="#7d97f4"/>
          <path id="Path_2511" data-name="Path 2511" d="M1675.142,187.307l2.131.477a.415.415,0,0,1-.181.81l-.006,0-2.118-.471-.007,0a.416.416,0,0,1,.181-.812Z" transform="translate(-1353.873 -151.421)" fill="#7d97f4"/>
          <path id="Path_2512" data-name="Path 2512" d="M1697.3,192.457l2.114.552a.413.413,0,0,1-.209.8l-.007,0-2.1-.546-.008,0a.414.414,0,0,1,.208-.8Z" transform="translate(-1371.776 -155.582)" fill="#7d97f4"/>
          <path id="Path_2513" data-name="Path 2513" d="M1719.257,198.414l2.091.637a.411.411,0,1,1-.24.787l-.008,0-2.074-.63-.008,0a.412.412,0,1,1,.24-.789Z" transform="translate(-1389.517 -160.395)" fill="#7d97f4"/>
          <path id="Path_2514" data-name="Path 2514" d="M1740.947,205.29l2.06.736a.41.41,0,0,1-.276.772l-.01,0-2.041-.727-.01,0a.411.411,0,1,1,.275-.774Z" transform="translate(-1407.039 -165.949)" fill="#7d97f4"/>
          <path id="Path_2515" data-name="Path 2515" d="M1762.277,213.224l2.018.85a.408.408,0,1,1-.317.752l-.011,0-2-.838-.011,0a.409.409,0,1,1,.316-.754Z" transform="translate(-1424.268 -172.356)" fill="#7d97f4"/>
          <path id="Path_2516" data-name="Path 2516" d="M1783.113,222.38l1.959.982a.406.406,0,1,1-.364.726l-.013-.007-1.934-.967-.013-.006a.407.407,0,1,1,.364-.728Z" transform="translate(-1441.096 -179.75)" fill="#7d97f4"/>
          <path id="Path_2517" data-name="Path 2517" d="M1803.264,232.961l1.877,1.138a.4.4,0,0,1-.419.691l-.015-.009-1.847-1.117-.015-.009a.405.405,0,0,1,.419-.693Z" transform="translate(-1457.367 -188.291)" fill="#7d97f4"/>
          <path id="Path_2518" data-name="Path 2518" d="M1822.555,245.076l1.806,1.23a.4.4,0,0,1-.453.666l-.007,0-1.793-1.219-.007,0a.4.4,0,1,1,.454-.667Z" transform="translate(-1472.95 -198.076)" fill="#7d97f4"/>
          <path id="Path_2519" data-name="Path 2519" d="M1841.22,258.087l1.748,1.315a.4.4,0,0,1-.482.641l-.008-.006-1.732-1.3-.008-.006a.4.4,0,0,1,.483-.642Z" transform="translate(-1488.029 -208.587)" fill="#7d97f4"/>
          <path id="Path_2520" data-name="Path 2520" d="M1859.217,272.011l1.671,1.415a.4.4,0,1,1-.516.609l-.01-.008-1.652-1.4-.01-.008a.4.4,0,0,1,.516-.611Z" transform="translate(-1502.567 -219.832)" fill="#7d97f4"/>
          <path id="Path_2521" data-name="Path 2521" d="M1876.333,287.008l1.567,1.534a.4.4,0,1,1-.556.568l-.011-.011-1.545-1.511-.011-.011a.4.4,0,1,1,.556-.569Z" transform="translate(-1516.39 -231.942)" fill="#7d97f4"/>
          <path id="Path_2522" data-name="Path 2522" d="M1892.253,303.271l1.422,1.675a.4.4,0,0,1-.6.512l-.013-.016-1.4-1.643-.013-.015a.4.4,0,0,1,.6-.514Z" transform="translate(-1529.243 -245.069)" fill="#7d97f4"/>
          <path id="Path_2523" data-name="Path 2523" d="M1906.5,321.02l1.215,1.839a.394.394,0,0,1-.657.434l-.015-.023-1.187-1.793-.015-.022a.394.394,0,1,1,.658-.435Z" transform="translate(-1540.743 -259.387)" fill="#7d97f4"/>
          <path id="Path_2524" data-name="Path 2524" d="M1918.359,340.443l.915,2.013a.392.392,0,0,1-.713.324l-.015-.032-.887-1.948-.014-.031a.392.392,0,0,1,.714-.325Z" transform="translate(-1550.307 -275.048)" fill="#7d97f4"/>
          <path id="Path_2525" data-name="Path 2525" d="M1926.824,361.667a20,20,0,0,1,.5,2.162.39.39,0,0,1-.769.131,19.235,19.235,0,0,0-.478-2.077.391.391,0,0,1,.752-.217Z" transform="translate(-1557.137 -292.164)" fill="#7d97f4"/>
          <path id="Path_2526" data-name="Path 2526" d="M1930.552,384.11a18.291,18.291,0,0,1-.023,2.222.389.389,0,0,1-.775-.055,17.527,17.527,0,0,0,.021-2.128.389.389,0,1,1,.778-.04Z" transform="translate(-1560.125 -310.237)" fill="#7d97f4"/>
          <path id="Path_2527" data-name="Path 2527" d="M1926.786,406.824a19.562,19.562,0,0,1-.546,2.151.387.387,0,0,1-.738-.232,18.808,18.808,0,0,0,.523-2.066.388.388,0,0,1,.761.147Z" transform="translate(-1556.673 -328.527)" fill="#7d97f4"/>
          <path id="Path_2528" data-name="Path 2528" d="M1918.193,428.488l-.973,1.985a.385.385,0,0,1-.691-.339l.015-.031.94-1.922.016-.033a.385.385,0,1,1,.692.339Z" transform="translate(-1549.402 -345.965)" fill="#7d97f4"/>
          <path id="Path_2529" data-name="Path 2529" d="M1906.017,448.5l-1.279,1.794a.383.383,0,0,1-.624-.445l.015-.021,1.246-1.751.016-.023a.384.384,0,1,1,.625.445Z" transform="translate(-1539.34 -362.103)" fill="#7d97f4"/>
          <path id="Path_2530" data-name="Path 2530" d="M1891.335,466.608l-1.487,1.617a.381.381,0,1,1-.561-.516l.013-.015,1.457-1.587.014-.016a.382.382,0,1,1,.563.517Z" transform="translate(-1527.329 -376.714)" fill="#7d97f4"/>
          <path id="Path_2531" data-name="Path 2531" d="M1874.922,482.983l-1.629,1.465a.38.38,0,1,1-.507-.565l.011-.01,1.6-1.445.012-.011a.38.38,0,0,1,.509.565Z" transform="translate(-1513.966 -389.935)" fill="#7d97f4"/>
          <path id="Path_2532" data-name="Path 2532" d="M1857.364,497.883l-1.707,1.351,0,0a.378.378,0,0,1-.469-.592l1.706-1.352,0,0a.379.379,0,1,1,.471.593Z" transform="translate(-1499.724 -401.971)" fill="#7d97f4"/>
          <path id="Path_2533" data-name="Path 2533" d="M1839.786,512.1l-1.665,1.394-.005,0a.376.376,0,0,1-.483-.577l1.674-1.4a.377.377,0,1,1,.484.578h0Z" transform="translate(-1485.541 -413.472)" fill="#7d97f4"/>
          <path id="Path_2534" data-name="Path 2534" d="M1822.766,526.869l-1.6,1.461-.007.007a.374.374,0,0,1-.5-.553l1.615-1.476a.375.375,0,1,1,.506.554h0Z" transform="translate(-1471.822 -425.419)" fill="#7d97f4"/>
          <path id="Path_2535" data-name="Path 2535" d="M1806.618,542.424l-1.5,1.558-.011.011a.372.372,0,0,1-.536-.517l1.521-1.581a.373.373,0,1,1,.538.518h0Z" transform="translate(-1458.835 -438.007)" fill="#7d97f4"/>
          <path id="Path_2536" data-name="Path 2536" d="M1791.971,559.122l-1.323,1.7-.016.021a.37.37,0,0,1-.584-.455l1.353-1.739a.371.371,0,1,1,.586.456h0Z" transform="translate(-1447.115 -451.526)" fill="#7d97f4"/>
          <path id="Path_2537" data-name="Path 2537" d="M1780.208,577.582a18,18,0,0,0-.984,1.891.369.369,0,0,1-.675-.3,18.773,18.773,0,0,1,1.023-1.97.37.37,0,1,1,.636.377Z" transform="translate(-1437.856 -466.498)" fill="#7d97f4"/>
          <path id="Path_2538" data-name="Path 2538" d="M1773.785,598.266a12.006,12.006,0,0,0-.376,2.074.367.367,0,0,1-.731-.066,12.746,12.746,0,0,1,.4-2.2.368.368,0,0,1,.711.193Z" transform="translate(-1433.135 -483.297)" fill="#7d97f4"/>
          <path id="Path_2539" data-name="Path 2539" d="M1773.391,620.657a14.655,14.655,0,0,0,.336,2.095.365.365,0,0,1-.712.166,15.358,15.358,0,0,1-.354-2.2.366.366,0,1,1,.73-.062Z" transform="translate(-1433.121 -501.503)" fill="#7d97f4"/>
          <path id="Path_2540" data-name="Path 2540" d="M1778.351,642.636l.78,2,.008.022a.363.363,0,0,1-.677.264l-.8-2.05a.364.364,0,0,1,.679-.265h0Z" transform="translate(-1437.146 -519.336)" fill="#7d97f4"/>
          <path id="Path_2541" data-name="Path 2541" d="M1787.17,663.572l.956,1.946,0,.006a.362.362,0,0,1-.649.319l-.964-1.959a.363.363,0,1,1,.651-.32h0Z" transform="translate(-1444.293 -536.299)" fill="#7d97f4"/>
          <path id="Path_2542" data-name="Path 2542" d="M1797.27,683.872l.841,2.042a.36.36,0,1,1-.666.274l-.012-.028-.818-1.98-.013-.032a.361.361,0,1,1,.667-.275Z" transform="translate(-1452.457 -552.701)" fill="#7d97f4"/>
          <path id="Path_2543" data-name="Path 2543" d="M1805.132,705.256l.538,2.131a.358.358,0,0,1-.695.175l-.005-.021-.529-2.088-.005-.022a.359.359,0,0,1,.7-.176Z" transform="translate(-1458.802 -569.95)" fill="#7d97f4"/>
          <path id="Path_2544" data-name="Path 2544" d="M1810.075,727.476l.293,2.175a.356.356,0,0,1-.707.1l0-.019-.29-2.137,0-.019a.357.357,0,0,1,.708-.1Z" transform="translate(-1462.795 -587.883)" fill="#7d97f4"/>
          <path id="Path_2545" data-name="Path 2545" d="M1812.527,750.1l.06,2.193a.355.355,0,1,1-.709.019v-.019l-.061-2.156v-.019a.356.356,0,1,1,.711-.02Z" transform="translate(-1464.777 -606.142)" fill="#7d97f4"/>
          <path id="Path_2546" data-name="Path 2546" d="M1811.841,772.851l-.173,2.188a.353.353,0,1,1-.7-.056v-.019l.168-2.15,0-.019a.354.354,0,1,1,.705.055Z" transform="translate(-1464.088 -624.508)" fill="#7d97f4"/>
          <path id="Path_2547" data-name="Path 2547" d="M1808.464,795.475l-.408,2.156a.351.351,0,1,1-.69-.131l0-.019.4-2.118,0-.019a.352.352,0,1,1,.692.13Z" transform="translate(-1461.175 -642.771)" fill="#7d97f4"/>
          <path id="Path_2548" data-name="Path 2548" d="M1802.656,817.706l-.642,2.1a.349.349,0,0,1-.668-.2l.005-.018.629-2.062.006-.019a.35.35,0,0,1,.67.2Z" transform="translate(-1456.3 -660.714)" fill="#7d97f4"/>
          <path id="Path_2549" data-name="Path 2549" d="M1794.467,839.275l-.869,2.015a.348.348,0,1,1-.639-.275l.007-.017.852-1.981.008-.017a.349.349,0,0,1,.641.275Z" transform="translate(-1449.51 -678.125)" fill="#7d97f4"/>
          <path id="Path_2550" data-name="Path 2550" d="M1784.018,859.926l-1.081,1.91a.346.346,0,1,1-.6-.341l.009-.016,1.061-1.878.009-.016a.347.347,0,1,1,.6.341Z" transform="translate(-1440.907 -694.795)" fill="#7d97f4"/>
          <path id="Path_2551" data-name="Path 2551" d="M1771.507,879.431l-1.272,1.786a.344.344,0,0,1-.56-.4l.01-.014,1.251-1.758.01-.014a.345.345,0,1,1,.562.4Z" transform="translate(-1430.656 -710.541)" fill="#7d97f4"/>
          <path id="Path_2552" data-name="Path 2552" d="M1757.161,897.631l-1.44,1.652a.342.342,0,1,1-.516-.45l.01-.012,1.417-1.629.011-.012a.343.343,0,1,1,.518.451Z" transform="translate(-1418.942 -725.237)" fill="#7d97f4"/>
          <path id="Path_2553" data-name="Path 2553" d="M1741.238,914.444l-1.582,1.515a.341.341,0,1,1-.471-.492l.01-.01,1.56-1.5.011-.01a.342.342,0,0,1,.473.493Z" transform="translate(-1405.973 -738.814)" fill="#7d97f4"/>
          <path id="Path_2554" data-name="Path 2554" d="M1724,929.84l-1.7,1.378a.339.339,0,1,1-.427-.526l.01-.008,1.678-1.363.01-.008a.34.34,0,1,1,.428.527Z" transform="translate(-1391.961 -751.248)" fill="#7d97f4"/>
          <path id="Path_2555" data-name="Path 2555" d="M1705.675,943.838l-1.8,1.248a.337.337,0,0,1-.385-.554l.01-.006,1.776-1.236.01-.007a.338.338,0,0,1,.386.555Z" transform="translate(-1377.086 -762.555)" fill="#7d97f4"/>
          <path id="Path_2556" data-name="Path 2556" d="M1686.462,956.511l-1.875,1.126a.335.335,0,0,1-.345-.575l.009-.005,1.855-1.116.009-.006a.336.336,0,0,1,.347.576Z" transform="translate(-1361.508 -772.794)" fill="#7d97f4"/>
          <path id="Path_2557" data-name="Path 2557" d="M1666.541,967.938l-1.936,1.012a.334.334,0,1,1-.309-.591l.008,0,1.919-1,.008,0a.334.334,0,1,1,.31.592Z" transform="translate(-1345.369 -782.027)" fill="#7d97f4"/>
          <path id="Path_2558" data-name="Path 2558" d="M1646.046,978.2l-1.987.907a.332.332,0,1,1-.276-.6l.007,0,1.971-.9.007,0a.333.333,0,1,1,.277.605Z" transform="translate(-1328.773 -790.323)" fill="#7d97f4"/>
          <path id="Path_2559" data-name="Path 2559" d="M1625.088,987.413l-2.028.812a.33.33,0,0,1-.245-.613l.007,0,2.013-.808.007,0a.331.331,0,0,1,.246.614Z" transform="translate(-1311.811 -797.765)" fill="#7d97f4"/>
          <path id="Path_2560" data-name="Path 2560" d="M1603.764,995.646l-2.059.724a.328.328,0,1,1-.218-.619l.006,0,2.046-.721.006,0a.329.329,0,1,1,.219.621Z" transform="translate(-1294.558 -804.421)" fill="#7d97f4"/>
          <path id="Path_2561" data-name="Path 2561" d="M1371.017,137.549l1.155,7.043-5.266-2.246Z" transform="translate(-1105.085 -111.202)" fill="#7d97f4"/>
          <path id="Path_2562" data-name="Path 2562" d="M1219.557,99.191l21.756,13.566a1.806,1.806,0,0,0,2.523-.635l12.8-22.357a.724.724,0,0,0-.83-1.055Z" transform="translate(-985.961 -71.694)" fill="#91b3fa"/>
          <path id="Path_2563" data-name="Path 2563" d="M1251.89,137.555l-32.333,1.148,30.279,2.466.4,1.94Z" transform="translate(-985.961 -111.207)" fill="#7d97f4"/>
          <path id="Path_2564" data-name="Path 2564" d="M1371.194,158.559l4.445,1.294-3.211-3.428Z" transform="translate(-1108.553 -126.463)" fill="#7d97f4"/>
          <path id="Path_2565" data-name="Path 2565" d="M1808.819,575.881l-68.376-6.068a5.394,5.394,0,0,1-4.917-5.343l-.252-46.1a5.394,5.394,0,0,1,5.768-5.41l72.809,5.067a5.394,5.394,0,0,1,5,5.857l-4.18,47.1a5.394,5.394,0,0,1-5.849,4.9" transform="translate(-1402.896 -414.693)" fill="#7d97f4"/>
          <path id="Path_2566" data-name="Path 2566" d="M1754.293,550.637l-.452,39.806a3.336,3.336,0,0,0,3.006,3.358l65.565,6.512a3.336,3.336,0,0,0,3.653-3.025l3.777-42.563a3.336,3.336,0,0,0-3.141-3.626l-68.89-3.755a3.336,3.336,0,0,0-3.517,3.293" transform="translate(-1417.907 -442.5)" fill="#bdd0fb"/>
          <path id="Path_2567" data-name="Path 2567" d="M1915.456,746.123l37.106,2.177a.675.675,0,0,1,.633.734l-.053.6a.676.676,0,0,1-.723.614l-37.053-2.773a.676.676,0,0,1,.09-1.348" transform="translate(-1547.988 -603.208)" fill="#91b3fa"/>
          <path id="Path_2568" data-name="Path 2568" d="M1913.211,762.936l-.022.254a.675.675,0,0,0,.613.732l37.008,3.284a.675.675,0,0,0,.733-.613l.023-.254a.676.676,0,0,0-.613-.733l-37.007-3.284a.676.676,0,0,0-.733.613" transform="translate(-1546.731 -616.303)" fill="#91b3fa"/>
          <path id="Path_2569" data-name="Path 2569" d="M1970.37,785.461l-.01.112a.676.676,0,0,0,.613.733l25.775,2.287a.676.676,0,0,0,.733-.613l.046-.524a.675.675,0,0,0-.624-.734l-25.812-1.875a.676.676,0,0,0-.722.614" transform="translate(-1592.951 -634.514)" fill="#91b3fa"/>
          <path id="Path_2570" data-name="Path 2570" d="M1705.664,466.905l-80.694-1.642a6.342,6.342,0,0,1-6.2-5.874l-3.988-54.06a6.342,6.342,0,0,1,6.333-6.808l85.813.113a6.341,6.341,0,0,1,6.332,6.471l-1.132,55.589a6.341,6.341,0,0,1-6.469,6.211" transform="translate(-1305.474 -322.187)" fill="#7d97f4"/>
          <path id="Path_2571" data-name="Path 2571" d="M1641.25,437.529l2.657,46.73a3.922,3.922,0,0,0,3.795,3.7l77.432,2.388a3.922,3.922,0,0,0,4.042-3.841l1.022-50.23a3.922,3.922,0,0,0-3.975-4l-81.112,1.113a3.922,3.922,0,0,0-3.862,4.145" transform="translate(-1326.877 -349.473)" fill="#bdd0fb"/>
          <path id="Path_2572" data-name="Path 2572" d="M1842.848,657.951l43.7-.417a.794.794,0,0,1,.8.81l-.014.7a.794.794,0,0,1-.8.778l-43.686-.286a.794.794,0,0,1,0-1.588" transform="translate(-1489.23 -531.588)" fill="#7d97f4"/>
          <path id="Path_2573" data-name="Path 2573" d="M1841.646,679.606l-.006.3a.794.794,0,0,0,.778.81l43.674.889a.794.794,0,0,0,.81-.778l.006-.3a.794.794,0,0,0-.778-.81l-43.674-.889a.794.794,0,0,0-.81.778" transform="translate(-1488.889 -548.804)" fill="#7d97f4"/>
          <path id="Path_2574" data-name="Path 2574" d="M1910.451,701.457l0,.132a.794.794,0,0,0,.778.81l30.418.619a.8.8,0,0,0,.81-.778l.012-.618a.794.794,0,0,0-.791-.81l-30.428-.132a.794.794,0,0,0-.8.778" transform="translate(-1544.518 -566.469)" fill="#7d97f4"/>
        </g>
      </g>
      <g id="Group_842" data-name="Group 842" transform="translate(456.688 1786.044)">
        <g id="Group_841" data-name="Group 841" clip-path="url(#clip-path-30)">
          <rect id="Rectangle_352" data-name="Rectangle 352" width="109.585" height="75.739" transform="translate(-0.352 0)" fill="#3cb4e7"/>
        </g>
      </g>
      <g id="Group_844" data-name="Group 844" transform="translate(462.429 1793.136)">
        <g id="Group_843" data-name="Group 843" clip-path="url(#clip-path-31)">
          <rect id="Rectangle_353" data-name="Rectangle 353" width="98.801" height="64.451" transform="translate(-0.178 0)" fill="url(#linear-gradient-15)"/>
        </g>
      </g>
      <g id="Group_846" data-name="Group 846" transform="translate(171 1727.671)">
        <g id="Group_845" data-name="Group 845" clip-path="url(#clip-path-29)">
          <path id="Path_2577" data-name="Path 2577" d="M1757.43,373.649l48.452-1.449a.881.881,0,0,1,.907.881v.78a.881.881,0,0,1-.869.881l-48.452.669a.881.881,0,0,1-.038-1.761" transform="translate(-1420.117 -300.908)" fill="#7d97f4"/>
          <path id="Path_2578" data-name="Path 2578" d="M1756.575,401.854v.333a.881.881,0,0,0,.881.881h48.452a.881.881,0,0,0,.881-.881v-.333a.881.881,0,0,0-.881-.881h-48.452a.881.881,0,0,0-.881.881" transform="translate(-1420.117 -324.169)" fill="#7d97f4"/>
          <path id="Path_2579" data-name="Path 2579" d="M1692.985,574.649a.4.4,0,0,1-.4-.394l0-1.186a.4.4,0,0,1,.394-.4h0a.4.4,0,0,1,.4.394l0,1.186a.4.4,0,0,1-.395.4Zm-.01-3.953a.4.4,0,0,1-.4-.394l0-1.186a.4.4,0,0,1,.394-.4h0a.4.4,0,0,1,.4.394l0,1.186a.4.4,0,0,1-.394.4Zm-.01-3.953a.4.4,0,0,1-.4-.394l0-1.186a.4.4,0,0,1,.394-.4h0a.4.4,0,0,1,.4.394l0,1.186a.4.4,0,0,1-.394.4Zm-.01-3.953a.4.4,0,0,1-.4-.394l0-1.186a.4.4,0,0,1,.394-.4h0a.4.4,0,0,1,.4.394l0,1.186a.4.4,0,0,1-.394.4Z" transform="translate(-1368.362 -453.393)" fill="#7d97f4"/>
          <path id="Path_2580" data-name="Path 2580" d="M1796.781,552.083a.4.4,0,0,1-.4-.4V550.5a.4.4,0,0,1,.791,0v1.186a.4.4,0,0,1-.4.4m0-3.953a.4.4,0,0,1-.4-.4v-1.186a.4.4,0,0,1,.791,0v1.186a.4.4,0,0,1-.4.4m0-3.953a.4.4,0,0,1-.4-.4V542.6a.4.4,0,1,1,.791,0v1.186a.4.4,0,0,1-.4.4m0-3.953a.4.4,0,0,1-.4-.4v-1.186a.4.4,0,0,1,.791,0v1.186a.4.4,0,0,1-.4.4m0-3.953a.4.4,0,0,1-.4-.4v-1.186a.4.4,0,0,1,.791,0v1.186a.4.4,0,0,1-.4.4" transform="translate(-1452.303 -431.954)" fill="#7d97f4"/>
          <path id="Path_2581" data-name="Path 2581" d="M1872.644,537.833a.4.4,0,0,1-.4-.383l-.022-.708a.4.4,0,0,1,.383-.408.388.388,0,0,1,.407.383l.022.708a.4.4,0,0,1-.383.408Zm-.108-3.474a.4.4,0,0,1-.4-.383l-.037-1.185a.4.4,0,1,1,.79-.025l.037,1.185a.4.4,0,0,1-.383.408Zm-.123-3.951a.4.4,0,0,1-.4-.383l-.037-1.186a.4.4,0,0,1,.383-.408.406.406,0,0,1,.407.383l.037,1.185a.4.4,0,0,1-.383.408Zm-.123-3.951a.4.4,0,0,1-.4-.383l-.037-1.186a.4.4,0,1,1,.79-.025l.037,1.186a.4.4,0,0,1-.383.408Zm-.123-3.951a.4.4,0,0,1-.4-.383l-.037-1.186a.4.4,0,1,1,.79-.025l.037,1.186a.4.4,0,0,1-.383.408Zm-.123-3.951a.4.4,0,0,1-.4-.383l-.036-1.186a.4.4,0,0,1,.383-.408.39.39,0,0,1,.407.383l.037,1.186a.4.4,0,0,1-.383.408Zm-.122-3.951a.4.4,0,0,1-.4-.383l-.037-1.186a.4.4,0,0,1,.383-.408.39.39,0,0,1,.407.383l.037,1.186a.4.4,0,0,1-.383.408Z" transform="translate(-1513.022 -414.437)" fill="#7d97f4"/>
          <path id="Path_2582" data-name="Path 2582" d="M1950.989,490.844a.4.4,0,0,1-.4-.4v-1.186a.4.4,0,1,1,.791,0v1.186a.4.4,0,0,1-.4.4m0-3.953a.4.4,0,0,1-.4-.4V485.31a.4.4,0,0,1,.791,0V486.5a.4.4,0,0,1-.4.4m0-3.953a.4.4,0,0,1-.4-.4v-1.186a.4.4,0,0,1,.791,0v1.186a.4.4,0,0,1-.4.4m0-3.953a.4.4,0,0,1-.4-.4V477.4a.4.4,0,1,1,.791,0v1.186a.4.4,0,0,1-.4.4m0-3.953a.4.4,0,0,1-.4-.4v-1.186a.4.4,0,1,1,.791,0v1.186a.4.4,0,0,1-.4.4m0-3.953a.4.4,0,0,1-.4-.4V469.5a.4.4,0,1,1,.791,0v1.186a.4.4,0,0,1-.4.4m0-3.953a.4.4,0,0,1-.4-.4v-1.186a.4.4,0,1,1,.791,0v1.186a.4.4,0,0,1-.4.4m0-3.953a.4.4,0,0,1-.4-.4v-1.186a.4.4,0,1,1,.791,0v1.186a.4.4,0,0,1-.4.4m0-3.953a.4.4,0,0,1-.4-.4v-1.186a.4.4,0,1,1,.791,0v1.186a.4.4,0,0,1-.4.4" transform="translate(-1576.973 -369.661)" fill="#7d97f4"/>
          <path id="Path_2583" data-name="Path 2583" d="M1564.233,450.03a.593.593,0,0,1-.59-.543l-4.052-47.858a.593.593,0,1,1,1.182-.1l4.052,47.858a.593.593,0,0,1-.541.641l-.051,0" transform="translate(-1260.862 -324.181)" fill="#7d97f4"/>
          <path id="Path_2584" data-name="Path 2584" d="M1552.657,400.9l1.833-2.174,2.173,1.835-.144-1.7-2.173-1.834-1.834,2.173Z" transform="translate(-1255.142 -320.979)" fill="#7d97f4"/>
          <path id="Path_2585" data-name="Path 2585" d="M1648.671,640.247h-83.387a.593.593,0,1,1,0-1.186h83.387a.593.593,0,1,1,0,1.186" transform="translate(-1264.988 -516.654)" fill="#7d97f4"/>
          <path id="Path_2586" data-name="Path 2586" d="M1990.8,635.679l2.011-2.01-2.011-2.011h1.707l2.011,2.011-2.011,2.01Z" transform="translate(-1609.478 -510.669)" fill="#7d97f4"/>
          <path id="Path_2587" data-name="Path 2587" d="M1599.45,468.123a.593.593,0,0,1-.077-1.181c.438-.058,44.1-6.037,68-23.66a.593.593,0,1,1,.7.954c-24.147,17.8-68.1,23.823-68.545,23.881a.605.605,0,0,1-.079.005" transform="translate(-1292.61 -358.28)" fill="#7d97f4"/>
          <path id="Path_2588" data-name="Path 2588" d="M1941.4,444.373l-.047,0a.593.593,0,0,1-.545-.637l.183-2.329-3.284-.195a.593.593,0,1,1,.07-1.184l3.887.23a.592.592,0,0,1,.556.638l-.23,2.932a.593.593,0,0,1-.591.547" transform="translate(-1566.104 -355.741)" fill="#7d97f4"/>
        </g>
      </g>
      <g id="Group_848" data-name="Group 848" transform="translate(190.746 1848.566)">
        <g id="Group_847" data-name="Group 847" clip-path="url(#clip-path-33)">
          <rect id="Rectangle_355" data-name="Rectangle 355" width="158.097" height="134.679" transform="translate(-44.742 116.49) rotate(-68.995)" fill="#3cb4e7"/>
        </g>
      </g>
      <g id="Group_850" data-name="Group 850" transform="translate(171 1727.671)">
        <g id="Group_849" data-name="Group 849" clip-path="url(#clip-path-29)">
          <path id="Path_2590" data-name="Path 2590" d="M132.056,663.084l73.961.455a4.846,4.846,0,0,1,4.816,4.868L210.317,779.6a4.846,4.846,0,0,1-4.757,4.823L133.7,785.736a4.846,4.846,0,0,1-4.934-4.777L127.181,668a4.846,4.846,0,0,1,4.875-4.914" transform="translate(-102.82 -536.075)" fill="#91b3fa"/>
        </g>
      </g>
      <g id="Group_852" data-name="Group 852" transform="translate(203.244 1859.459)">
        <g id="Group_851" data-name="Group 851" clip-path="url(#clip-path-35)">
          <rect id="Rectangle_357" data-name="Rectangle 357" width="59.886" height="3.409" transform="translate(0)" fill="url(#linear-gradient-16)"/>
        </g>
      </g>
      <g id="Group_854" data-name="Group 854" transform="translate(209.6 1865.794)">
        <g id="Group_853" data-name="Group 853" clip-path="url(#clip-path-36)">
          <rect id="Rectangle_359" data-name="Rectangle 359" width="52.78" height="3.822" transform="translate(-0.043 0)" fill="url(#linear-gradient-17)"/>
        </g>
      </g>
      <g id="Group_856" data-name="Group 856" transform="translate(198.584 1872.835)">
        <g id="Group_855" data-name="Group 855" clip-path="url(#clip-path-37)">
          <rect id="Rectangle_360" data-name="Rectangle 360" width="77.715" height="100.881" transform="translate(-0.041 0)" fill="url(#linear-gradient-18)"/>
        </g>
      </g>
      <g id="Group_858" data-name="Group 858" transform="translate(199.458 1881.985)">
        <g id="Group_857" data-name="Group 857" clip-path="url(#clip-path-38)">
          <rect id="Rectangle_361" data-name="Rectangle 361" width="75.154" height="1.741" transform="translate(0)" fill="url(#linear-gradient-19)"/>
        </g>
      </g>
      <g id="Group_900" data-name="Group 900" transform="translate(171 1727.671)">
        <g id="Group_899" data-name="Group 899" clip-path="url(#clip-path-29)">
          <g id="Group_863" data-name="Group 863" transform="translate(36.121 203.08)" opacity="0.6">
            <g id="Group_862" data-name="Group 862">
              <g id="Group_861" data-name="Group 861" clip-path="url(#clip-path-40)">
                <g id="Group_860" data-name="Group 860">
                  <g id="Group_859" data-name="Group 859" clip-path="url(#clip-path-41)">
                    <rect id="Rectangle_362" data-name="Rectangle 362" width="9.147" height="33.219" transform="translate(0)" fill="url(#linear-gradient-20)"/>
                  </g>
                </g>
              </g>
            </g>
          </g>
          <g id="Group_868" data-name="Group 868" transform="translate(59.47 199.108)" opacity="0.6">
            <g id="Group_867" data-name="Group 867">
              <g id="Group_866" data-name="Group 866" clip-path="url(#clip-path-42)">
                <g id="Group_865" data-name="Group 865">
                  <g id="Group_864" data-name="Group 864" clip-path="url(#clip-path-43)">
                    <rect id="Rectangle_365" data-name="Rectangle 365" width="9.268" height="37.19" fill="url(#linear-gradient-21)"/>
                  </g>
                </g>
              </g>
            </g>
          </g>
          <g id="Group_873" data-name="Group 873" transform="translate(47.555 192.729)" opacity="0.6">
            <g id="Group_872" data-name="Group 872">
              <g id="Group_871" data-name="Group 871" clip-path="url(#clip-path-44)">
                <g id="Group_870" data-name="Group 870">
                  <g id="Group_869" data-name="Group 869" clip-path="url(#clip-path-45)">
                    <rect id="Rectangle_367" data-name="Rectangle 367" width="9.147" height="43.569" fill="url(#linear-gradient-22)"/>
                  </g>
                </g>
              </g>
            </g>
          </g>
          <g id="Group_878" data-name="Group 878" transform="translate(87.152 177.925)" opacity="0.6">
            <g id="Group_877" data-name="Group 877">
              <g id="Group_876" data-name="Group 876" clip-path="url(#clip-path-46)">
                <g id="Group_875" data-name="Group 875">
                  <g id="Group_874" data-name="Group 874" clip-path="url(#clip-path-47)">
                    <rect id="Rectangle_370" data-name="Rectangle 370" width="9.147" height="58.373" transform="translate(0)" fill="url(#linear-gradient-23)"/>
                  </g>
                </g>
              </g>
            </g>
          </g>
          <g id="Group_883" data-name="Group 883" transform="translate(73.552 185.989)" opacity="0.6">
            <g id="Group_882" data-name="Group 882">
              <g id="Group_881" data-name="Group 881" clip-path="url(#clip-path-48)">
                <g id="Group_880" data-name="Group 880">
                  <g id="Group_879" data-name="Group 879" clip-path="url(#clip-path-49)">
                    <rect id="Rectangle_373" data-name="Rectangle 373" width="9.147" height="50.309" fill="url(#linear-gradient-24)"/>
                  </g>
                </g>
              </g>
            </g>
          </g>
          <g id="Group_898" data-name="Group 898" transform="translate(38.982 172.452)" opacity="0.6">
            <g id="Group_897" data-name="Group 897">
              <g id="Group_896" data-name="Group 896" clip-path="url(#clip-path-50)">
                <g id="Group_885" data-name="Group 885" transform="translate(1.223 1.154)">
                  <g id="Group_884" data-name="Group 884" clip-path="url(#clip-path-51)">
                    <rect id="Rectangle_376" data-name="Rectangle 376" width="44.82" height="18.271" transform="translate(0)" fill="url(#linear-gradient-25)"/>
                  </g>
                </g>
                <g id="Group_887" data-name="Group 887" transform="translate(0 17.957)">
                  <g id="Group_886" data-name="Group 886" clip-path="url(#clip-path-52)">
                    <rect id="Rectangle_377" data-name="Rectangle 377" width="2.619" height="2.619" transform="translate(0 0)" fill="url(#linear-gradient-26)"/>
                  </g>
                </g>
                <g id="Group_889" data-name="Group 889" transform="translate(12.096 11.348)">
                  <g id="Group_888" data-name="Group 888" clip-path="url(#clip-path-53)">
                    <rect id="Rectangle_378" data-name="Rectangle 378" width="2.619" height="2.619" transform="translate(0 0)" fill="url(#linear-gradient-27)"/>
                  </g>
                </g>
                <g id="Group_891" data-name="Group 891" transform="translate(23.443 16.086)">
                  <g id="Group_890" data-name="Group 890" clip-path="url(#clip-path-54)">
                    <rect id="Rectangle_379" data-name="Rectangle 379" width="2.619" height="2.619" transform="translate(0 0)" fill="url(#linear-gradient-28)"/>
                  </g>
                </g>
                <g id="Group_893" data-name="Group 893" transform="translate(32.92 6.734)">
                  <g id="Group_892" data-name="Group 892" clip-path="url(#clip-path-55)">
                    <rect id="Rectangle_380" data-name="Rectangle 380" width="2.619" height="2.619" transform="translate(0 0)" fill="url(#linear-gradient-29)"/>
                  </g>
                </g>
                <g id="Group_895" data-name="Group 895" transform="translate(44.642 0)">
                  <g id="Group_894" data-name="Group 894" clip-path="url(#clip-path-56)">
                    <rect id="Rectangle_381" data-name="Rectangle 381" width="2.619" height="2.619" transform="translate(0 0)" fill="url(#linear-gradient-30)"/>
                  </g>
                </g>
              </g>
            </g>
          </g>
        </g>
      </g>
      <g id="Group_902" data-name="Group 902" transform="translate(241.206 1938.628)">
        <g id="Group_901" data-name="Group 901" clip-path="url(#clip-path-57)">
          <rect id="Rectangle_384" data-name="Rectangle 384" width="87.962" height="79.75" transform="matrix(0.82, -0.573, 0.573, 0.82, -20.509, 14.302)" fill="#db5c1c"/>
        </g>
      </g>
      <g id="Group_904" data-name="Group 904" transform="translate(246.716 1944.525)">
        <g id="Group_903" data-name="Group 903" clip-path="url(#clip-path-58)">
          <rect id="Rectangle_385" data-name="Rectangle 385" width="70.957" height="44.751" transform="translate(-5.074 0.721) rotate(-8.174)" fill="url(#linear-gradient-31)"/>
        </g>
      </g>
      <g id="Group_906" data-name="Group 906" transform="translate(251.554 1948.352)">
        <g id="Group_905" data-name="Group 905" clip-path="url(#clip-path-59)">
          <rect id="Rectangle_386" data-name="Rectangle 386" width="55.13" height="5.096" transform="translate(0)" fill="url(#linear-gradient-32)"/>
        </g>
      </g>
      <g id="Group_908" data-name="Group 908" transform="translate(252.334 1956.523)">
        <g id="Group_907" data-name="Group 907" clip-path="url(#clip-path-60)">
          <rect id="Rectangle_387" data-name="Rectangle 387" width="52.643" height="5.241" transform="translate(0 0)" fill="url(#linear-gradient-33)"/>
        </g>
      </g>
      <g id="Group_910" data-name="Group 910" transform="translate(171 1727.671)" opacity="0.53">
        <g id="Group_909" data-name="Group 909" clip-path="url(#clip-path-61)">
          <path id="Path_2605" data-name="Path 2605" d="M102.991,350.669a11.823,11.823,0,0,1,7.228,2.455l4.236-5.993a18.887,18.887,0,0,0-11.062-3.562c-.546,0-1.093.031-1.639.079l1.087,7.024c.05,0,.1,0,.149,0" transform="translate(-82.265 -277.761)" fill="#3cb4e7"/>
        </g>
      </g>
      <g id="Group_912" data-name="Group 912" transform="translate(171 1793.558)">
        <g id="Group_911" data-name="Group 911" clip-path="url(#clip-path-62)">
          <rect id="Rectangle_389" data-name="Rectangle 389" width="47.537" height="45.126" transform="matrix(0.561, -0.828, 0.828, 0.561, -17.59, 25.958)" fill="#3cb4e7"/>
        </g>
      </g>
      <g id="Group_914" data-name="Group 914" transform="translate(195.577 1797.04)">
        <g id="Group_913" data-name="Group 913" clip-path="url(#clip-path-63)">
          <rect id="Rectangle_390" data-name="Rectangle 390" width="36.251" height="27.869" transform="translate(-12.5 26.961) rotate(-65.126)" fill="#3cb4e7"/>
        </g>
      </g>
      <g id="Group_916" data-name="Group 916" transform="translate(232.714 1793.479)">
        <g id="Group_915" data-name="Group 915" clip-path="url(#clip-path-64)">
          <rect id="Rectangle_391" data-name="Rectangle 391" width="16.045" height="29.751" transform="translate(-1.142 13.594) rotate(-85.196)" fill="#db5c1c"/>
        </g>
      </g>
      <g id="Group_918" data-name="Group 918" transform="translate(225.161 1798.595)">
        <g id="Group_917" data-name="Group 917" clip-path="url(#clip-path-65)">
          <rect id="Rectangle_392" data-name="Rectangle 392" width="34.859" height="38.827" transform="translate(-14.652 9.012) rotate(-31.595)" fill="url(#linear-gradient-34)"/>
        </g>
      </g>
      <g id="Group_920" data-name="Group 920" transform="translate(245.56 1818.116)">
        <g id="Group_919" data-name="Group 919" clip-path="url(#clip-path-66)">
          <rect id="Rectangle_393" data-name="Rectangle 393" width="21.986" height="20.581" transform="matrix(0.851, -0.524, 0.524, 0.851, -5.948, 3.664)" fill="#db5c1c"/>
        </g>
      </g>
      <g id="Group_922" data-name="Group 922" transform="translate(256.335 1801.001)">
        <g id="Group_921" data-name="Group 921" clip-path="url(#clip-path-67)">
          <rect id="Rectangle_394" data-name="Rectangle 394" width="20.873" height="10.81" transform="matrix(0.095, -0.995, 0.995, 0.095, -1.908, 19.931)" fill="#db5c1c"/>
        </g>
      </g>
      <g id="Group_924" data-name="Group 924" transform="translate(286.483 1793.479)">
        <g id="Group_923" data-name="Group 923" clip-path="url(#clip-path-68)">
          <rect id="Rectangle_395" data-name="Rectangle 395" width="24.484" height="11.396" transform="translate(-0.288 0.008) rotate(-1.534)" fill="#7b4a8a" opacity="0.41"/>
        </g>
      </g>
      <g id="Group_926" data-name="Group 926" transform="translate(306.861 1796.48)">
        <g id="Group_925" data-name="Group 925" clip-path="url(#clip-path-69)">
          <rect id="Rectangle_396" data-name="Rectangle 396" width="19.602" height="19.621" transform="matrix(0.71, -0.704, 0.704, 0.71, -7.647, 7.576)" fill="#7b4a8a"/>
        </g>
      </g>
      <g id="Group_928" data-name="Group 928" transform="translate(279.322 1798.923)">
        <g id="Group_927" data-name="Group 927" clip-path="url(#clip-path-70)">
          <rect id="Rectangle_397" data-name="Rectangle 397" width="14.759" height="30.1" transform="matrix(1, -0.019, 0.019, 1, -0.581, 0.011)" fill="#7b4a8a" opacity="0.51"/>
        </g>
      </g>
      <g id="Group_930" data-name="Group 930" transform="translate(289.792 1810.28)">
        <g id="Group_929" data-name="Group 929" clip-path="url(#clip-path-71)">
          <rect id="Rectangle_398" data-name="Rectangle 398" width="34.701" height="29.233" transform="matrix(0.952, -0.307, 0.307, 0.952, -6.181, 1.994)" fill="#7b4a8a"/>
        </g>
      </g>
      <g id="Group_932" data-name="Group 932" transform="translate(171 1727.671)">
        <g id="Group_931" data-name="Group 931" clip-path="url(#clip-path-29)">
          <path id="Path_2616" data-name="Path 2616" d="M126.5,289.774a.97.97,0,0,0,.669-.267L140.374,277a6.134,6.134,0,0,1,4.235-1.687h44.96a.973.973,0,0,0,0-1.946h-44.96a8.072,8.072,0,0,0-5.573,2.221l-13.209,12.512a.973.973,0,0,0,.669,1.679" transform="translate(-101.48 -221.001)" fill="#7d97f4"/>
          <path id="Path_2617" data-name="Path 2617" d="M257.1,243.808h38.057a.973.973,0,0,0,0-1.946H257.1a.973.973,0,0,0,0,1.946" transform="translate(-207.072 -195.535)" fill="#7d97f4"/>
          <path id="Path_2618" data-name="Path 2618" d="M289.433,212.309H321.3a.973.973,0,0,0,0-1.946H289.433a.973.973,0,1,0,0,1.946" transform="translate(-233.208 -170.069)" fill="#7d97f4"/>
        </g>
      </g>
      <g id="Group_934" data-name="Group 934" transform="translate(183.72 1939.661)">
        <g id="Group_933" data-name="Group 933" clip-path="url(#clip-path-73)">
          <rect id="Rectangle_400" data-name="Rectangle 400" width="71.698" height="69.628" transform="translate(-20.464 17.098) rotate(-40.872)" fill="#7b4a8a"/>
        </g>
      </g>
      <g id="Group_941" data-name="Group 941" transform="translate(171 1727.671)">
        <g id="Group_940" data-name="Group 940" clip-path="url(#clip-path-29)">
          <g id="Group_939" data-name="Group 939" transform="translate(65.864 166.135)" opacity="0.42">
            <g id="Group_938" data-name="Group 938">
              <g id="Group_937" data-name="Group 937" clip-path="url(#clip-path-75)">
                <g id="Group_936" data-name="Group 936" transform="translate(0 0)">
                  <g id="Group_935" data-name="Group 935" clip-path="url(#clip-path-76)">
                    <rect id="Rectangle_401" data-name="Rectangle 401" width="62.799" height="61.847" transform="translate(-2.135 -2.161)" fill="url(#linear-gradient-35)"/>
                  </g>
                </g>
              </g>
            </g>
          </g>
        </g>
      </g>
      <g id="Group_943" data-name="Group 943" transform="translate(233.565 1890.563)">
        <g id="Group_942" data-name="Group 942" clip-path="url(#clip-path-77)">
          <rect id="Rectangle_404" data-name="Rectangle 404" width="79.423" height="76.545" transform="translate(-12.655 1.631) rotate(-9.016)" fill="#7b4a8a"/>
        </g>
      </g>
      <g id="Group_945" data-name="Group 945" transform="translate(171 1727.671)">
        <g id="Group_944" data-name="Group 944" clip-path="url(#clip-path-29)">
          <path id="Path_2622" data-name="Path 2622" d="M338.62,899.434a.218.218,0,0,1-.209-.156c-.214-.732-.4-1.484-.56-2.234a.218.218,0,1,1,.426-.089c.155.738.34,1.479.552,2.2a.218.218,0,0,1-.148.27.22.22,0,0,1-.061.009m-1.181-8.868h0a.218.218,0,0,1-.213-.222,29.456,29.456,0,0,1,.793-6.215h0a30.44,30.44,0,0,1,25.041-22.959,30.857,30.857,0,0,1,16.937,2.059.218.218,0,1,1-.17.4,30.418,30.418,0,0,0-16.7-2.029,30.005,30.005,0,0,0-24.686,22.63h0a29.017,29.017,0,0,0-.781,6.122.218.218,0,0,1-.218.213" transform="translate(-272.629 -695.905)" fill="#bdd0fb"/>
          <path id="Path_2623" data-name="Path 2623" d="M76.231,1262.386a.243.243,0,0,1-.038,0c-2.413-.428-3.159-1.694-3.36-2.682a3.525,3.525,0,0,1,1.738-3.716l6.6-3.858a.218.218,0,0,1,.22.376l-6.6,3.858a3.091,3.091,0,0,0-1.532,3.254c.253,1.244,1.266,2.031,3.01,2.34a.218.218,0,0,1-.038.432" transform="translate(-58.828 -1012.267)" fill="#bdd0fb"/>
          <path id="Path_2624" data-name="Path 2624" d="M126.9,1244.213a.218.218,0,0,1-.11-.406l.855-.5a.218.218,0,0,1,.22.376l-.855.5a.219.219,0,0,1-.11.03" transform="translate(-102.417 -1005.137)" fill="#bdd0fb"/>
        </g>
      </g>
      <rect id="Rectangle_406" data-name="Rectangle 406" width="415.973" height="256.317" transform="translate(171 1727.671)" fill="none"/>
    </g>
  </g>
</svg>
