<svg xmlns="http://www.w3.org/2000/svg" xmlns:xlink="http://www.w3.org/1999/xlink" width="1027" height="102.173" viewBox="0 0 1027 102.173">
  <defs>
    <clipPath id="clip-path">
      <rect id="Rectangle_1184" data-name="Rectangle 1184" width="1027" height="102.173" fill="none"/>
    </clipPath>
  </defs>
  <g id="Group_1215" data-name="Group 1215" transform="translate(0 0)">
    <g id="Group_1212" data-name="Group 1212" transform="translate(0 0)">
      <g id="Group_1211" data-name="Group 1211" clip-path="url(#clip-path)">
        <text id="t" transform="translate(0 54.678)" fill="#123c63" font-size="49" font-family="MyriadPro-It, Myriad Pro" font-style="italic"><tspan x="0" y="0">t</tspan></text>
      </g>
    </g>
    <text id="echnol" transform="translate(16.506 54.679)" fill="#123c63" font-size="49" font-family="MyriadPro-It, Myriad Pro" font-style="italic"><tspan x="0" y="0">echnol</tspan></text>
    <text id="o" transform="translate(149.014 53.679)" fill="#123c63" font-size="48" font-family="MyriadPro-It, Myriad Pro" font-style="italic"><tspan x="0" y="0">o</tspan></text>
    <text id="gy" transform="translate(176.969 54.679)" fill="#123c63" font-size="49" font-family="MyriadPro-It, Myriad Pro" font-style="italic"><tspan x="0" y="0">gy</tspan></text>
    <text id="_" data-name=" " transform="translate(239.301 47.679)" fill="#123c63" font-size="40" font-family="MyriadPro-BoldIt, Myriad Pro" font-weight="700" font-style="italic"><tspan x="0" y="0"> </tspan></text>
    <text id="that" transform="translate(247.1 54.679)" fill="#123c63" font-size="49" font-family="MyriadPro-It, Myriad Pro" font-style="italic"><tspan x="0" y="0">that</tspan></text>
    <text id="_2" data-name=" " transform="translate(338.666 47.679)" fill="#fff" font-size="40" font-family="MyriadPro-BoldIt, Myriad Pro" font-weight="700" font-style="italic"><tspan x="0" y="0"> </tspan></text>
    <g id="Group_1221" data-name="Group 1221" transform="translate(2)">
      <text id="m" transform="translate(348.464 53.679)" fill="#33b3e1" font-size="48" font-family="MyriadPro-It, Myriad Pro" font-style="italic"><tspan x="0" y="0">m</tspan></text>
      <text id="o-2" data-name="o" transform="translate(391.49 53.679)" fill="#33b3e1" font-size="48" font-family="MyriadPro-It, Myriad Pro" font-style="italic"><tspan x="0" y="0">o</tspan></text>
      <text id="v" transform="translate(418.966 54.679)" fill="#33b3e1" font-size="49" font-family="MyriadPro-It, Myriad Pro" font-style="italic"><tspan x="0" y="0">v</tspan></text>
      <text id="es" transform="translate(442.822 54.679)" fill="#33b3e1" font-size="49" font-family="MyriadPro-It, Myriad Pro" font-style="italic"><tspan x="0" y="0">es</tspan></text>
    </g>
    <g id="Group_1214" data-name="Group 1214" transform="translate(0 0)">
      <g id="Group_1213" data-name="Group 1213" clip-path="url(#clip-path)">
        <text id="digital_signing" data-name="digital signing" transform="translate(506.937 53.541)" fill="#33b3e1" font-size="65" font-family="SegoePrint-Bold, Segoe Print" font-weight="700"><tspan x="0" y="0">digital signing</tspan></text>
        <path id="Path_3157" data-name="Path 3157" d="M284.962,44.135a.344.344,0,0,0,.268.075l6.626-.6q40.921-3.692,81.912-6.569,20.492-1.435,41-2.654l20.507-1.153,6.728-.349s2.8-.316,5.537-.629,5.417-.629,5.179-.662c4.475-.7,7.336-1.724.036-2.23-4.306-.412-10.43-.512-10.43-.512l-25.7,1.408q-20.88,1.219-41.746,2.678-41.73,2.9-83.393,6.665l-6.632.6a1.133,1.133,0,0,0-.3.193c-1.941,1.917-.536,3.256.4,3.743" transform="translate(569.779 57.961)" fill="#33b3e1"/>
      </g>
    </g>
  </g>
</svg>
