<svg xmlns="http://www.w3.org/2000/svg" xmlns:xlink="http://www.w3.org/1999/xlink" width="535" height="535" viewBox="0 0 535 535">
  <defs>
    <clipPath id="clip-path">
      <circle id="Ellipse_544" data-name="Ellipse 544" cx="267.5" cy="267.5" r="267.5" transform="translate(0.367 0.367)" fill="none"/>
    </clipPath>
  </defs>
  <g id="Group_337" data-name="Group 337" transform="translate(-103 -1713.171)">
    <g id="Group_1180" data-name="Group 1180" transform="translate(-342 -1021.829)">
      <circle id="Ellipse_545" data-name="Ellipse 545" cx="267.5" cy="267.5" r="267.5" transform="translate(445 2735)" fill="#e3f3f2" style="mix-blend-mode: multiply;isolation: isolate"/>
      <g id="Mask_Group_8" data-name="Mask Group 8" transform="translate(444.633 2734.633)" clip-path="url(#clip-path)">
        <path id="Path_3156" data-name="Path 3156" d="M0,277.214V65C106.83,86.9,226,41.653,287.827,26.228S354.153,9.213,389.5,4.005,467.528-2.832,498.18,8.468c21.349,7.87,26.232,18.5,27.229,24.221a9.079,9.079,0,0,1,.135,1.568v2.485l0,.006V277.214Z" transform="matrix(0.998, 0.07, -0.07, 0.998, 14.751, 277.796)" fill="#f0f1f2"/>
      </g>
    </g>
    <g id="Group_336" data-name="Group 336" transform="translate(185.78 1830.633)">
      <g id="Group_285" data-name="Group 285" transform="translate(17.343 290.373)">
        <line id="Line_4" data-name="Line 4" x2="18.116" transform="translate(285.821)" fill="none" stroke="#7b4a8a" stroke-linecap="round" stroke-linejoin="round" stroke-width="4"/>
        <line id="Line_5" data-name="Line 5" x2="14.023" transform="translate(312.687)" fill="none" stroke="#7b4a8a" stroke-linecap="round" stroke-linejoin="round" stroke-width="4"/>
        <line id="Line_6" data-name="Line 6" x1="256.845" transform="translate(18.626)" fill="none" stroke="#7b4a8a" stroke-linecap="round" stroke-linejoin="round" stroke-width="4"/>
        <line id="Line_7" data-name="Line 7" x1="9.498" fill="none" stroke="#7b4a8a" stroke-linecap="round" stroke-linejoin="round" stroke-width="4"/>
      </g>
      <g id="Group_335" data-name="Group 335" transform="translate(0 0)">
        <g id="Group_286" data-name="Group 286" transform="translate(178.196 17.16)">
          <path id="Path_2106" data-name="Path 2106" d="M325.795,99.064a127.683,127.683,0,0,0-78.9-27.136" transform="translate(-246.897 -71.928)" fill="none" stroke="#7b4a8a" stroke-linecap="round" stroke-linejoin="round" stroke-width="3" stroke-dasharray="2.1 6.3 5.25 9.45"/>
          <path id="Path_2107" data-name="Path 2107" d="M394.995,207.442a127.96,127.96,0,0,0-45.378-97.877" transform="translate(-266.757 -79.205)" fill="none" stroke="#7b4a8a" stroke-linecap="round" stroke-linejoin="round" stroke-width="3"/>
        </g>
        <circle id="Ellipse_522" data-name="Ellipse 522" cx="116.05" cy="116.05" r="116.05" transform="translate(60.16 29.612)" fill="#7b4a8a"/>
        <g id="Group_287" data-name="Group 287" transform="translate(4.613 2.768)" style="mix-blend-mode: multiply;isolation: isolate">
          <circle id="Ellipse_523" data-name="Ellipse 523" cx="95.323" cy="95.323" r="95.323" transform="translate(41.454 145.665) rotate(-45)" fill="#ffd7cc"/>
          <path id="Path_2108" data-name="Path 2108" d="M447.4,309.759v-2.066a1.552,1.552,0,0,0-1.551-1.552h-4.33v-3.49a.949.949,0,0,0-.949-.949h-7.114a.949.949,0,0,0-.949.949v3.49h-4.329a1.552,1.552,0,0,0-1.552,1.552v2.066H412v65.564h50.023V309.759Zm-11.308-7.013h1.841a.949.949,0,0,1,0,1.9h-1.841a.949.949,0,1,1,0-1.9Z" transform="translate(-105.235 -101.962)" fill="#ffd7cc"/>
          <circle id="Ellipse_524" data-name="Ellipse 524" cx="18.697" cy="18.697" r="18.697" transform="translate(242.805 239.868) rotate(-9.217)" fill="#ffd7cc"/>
          <circle id="Ellipse_525" data-name="Ellipse 525" cx="18.697" cy="18.697" r="18.697" transform="matrix(0.383, -0.924, 0.924, 0.383, 300.722, 174.473)" fill="#ffd7cc"/>
          <circle id="Ellipse_526" data-name="Ellipse 526" cx="18.697" cy="18.697" r="18.697" transform="translate(15.965 85.225)" fill="#ffd7cc"/>
          <circle id="Ellipse_527" data-name="Ellipse 527" cx="18.697" cy="18.697" r="18.697" transform="translate(99.255 48.492) rotate(-80.782)" fill="#ffd7cc"/>
          <circle id="Ellipse_528" data-name="Ellipse 528" cx="9.828" cy="9.828" r="9.828" transform="translate(70.61 69.071)" fill="#ffd7cc"/>
          <circle id="Ellipse_529" data-name="Ellipse 529" cx="12.182" cy="12.182" r="12.182" transform="matrix(0.993, -0.122, 0.122, 0.993, 265.275, 189.139)" fill="#ffd7cc"/>
        </g>
        <g id="Group_288" data-name="Group 288" transform="translate(46.631 145.462)">
          <path id="Path_2110" data-name="Path 2110" d="M144.964,356.316a127.688,127.688,0,0,0,78.9,27.136" transform="translate(-95.624 -255.214)" fill="none" stroke="#7b4a8a" stroke-linecap="round" stroke-linejoin="round" stroke-width="3" stroke-dasharray="2.1 6.3 5.25 9.45"/>
          <path id="Path_2111" data-name="Path 2111" d="M83.8,230.982a127.96,127.96,0,0,0,45.378,97.877" transform="translate(-83.798 -230.982)" fill="none" stroke="#7b4a8a" stroke-linecap="round" stroke-linejoin="round" stroke-width="3"/>
        </g>
        <g id="Group_293" data-name="Group 293" transform="translate(80.938 50.343)">
          <circle id="Ellipse_530" data-name="Ellipse 530" cx="95.323" cy="95.323" r="95.323" fill="#1f2f6d"/>
          <circle id="Ellipse_531" data-name="Ellipse 531" cx="87.474" cy="87.474" r="87.474" transform="translate(7.849 7.849)" fill="#fff" stroke="#1f2f6d" stroke-miterlimit="10" stroke-width="1"/>
          <path id="Path_2112" data-name="Path 2112" d="M223.532,231.107,179.448,306.66a87.567,87.567,0,0,1-43.39-75.553q0-.265,0-.531Z" transform="translate(-128.21 -135.784)" fill="#a1b3ff" stroke="#1f2f6d" stroke-miterlimit="10" stroke-width="1"/>
          <path id="Path_2113" data-name="Path 2113" d="M244.4,210.268l-.415-87.473h.415c47.987,0,87.474,39.487,87.474,87.474Z" transform="translate(-149.076 -114.945)" fill="#f66" stroke="#1f2f6d" stroke-miterlimit="10" stroke-width="1"/>
          <path id="Path_2114" data-name="Path 2114" d="M233.961,231.234h87.474c0,47.986-39.487,87.474-87.474,87.474A87.475,87.475,0,0,1,190,306.857Z" transform="translate(-138.638 -135.911)" fill="#4dc7b8" stroke="#1f2f6d" stroke-miterlimit="10" stroke-width="1"/>
          <path id="Path_2115" data-name="Path 2115" d="M244.5,231.234h87.474A87.485,87.485,0,0,1,320.693,274.2Z" transform="translate(-149.176 -135.911)" fill="#ffc773" stroke="#1f2f6d" stroke-miterlimit="10" stroke-width="1"/>
          <g id="Group_289" data-name="Group 289" transform="translate(57.316 72.212)">
            <path id="Path_2116" data-name="Path 2116" d="M236.772,223.305l-35.251-20.351a2.759,2.759,0,0,0-2.759,4.779l35.249,20.351Z" transform="translate(-197.383 -202.584)" fill="#1f2f6d"/>
          </g>
          <g id="Group_290" data-name="Group 290" transform="translate(94.634 60.932)">
            <path id="Path_2117" data-name="Path 2117" d="M302.206,191.175a1.38,1.38,0,0,0-1.38-2.39L243.645,221.8l1.379,2.389Z" transform="translate(-243.645 -188.601)" fill="#1f2f6d"/>
          </g>
          <path id="Path_2118" data-name="Path 2118" d="M240.418,234.691a5.519,5.519,0,1,1,7.539-2.021A5.521,5.521,0,0,1,240.418,234.691Z" transform="translate(-147.853 -134.589)" fill="#1f2f6d"/>
          <path id="Path_2119" data-name="Path 2119" d="M248.457,217.323a.691.691,0,0,1,.944.249h0a.691.691,0,0,1-.249.943L173.232,262.7a.691.691,0,0,1-.943-.248h0a.69.69,0,0,1,.249-.944Z" transform="translate(-135.196 -133.204)" fill="#b53e44"/>
          <path id="Path_2120" data-name="Path 2120" d="M242.46,232.963a2.759,2.759,0,1,1,3.769-1.011A2.759,2.759,0,0,1,242.46,232.963Z" transform="translate(-148.515 -135.25)" fill="#f66"/>
          <g id="Group_291" data-name="Group 291" transform="translate(13.321 13.321)">
            <path id="Path_2121" data-name="Path 2121" d="M233.743,129.582a.341.341,0,0,0-.3.375l.289,2.745a.341.341,0,1,0,.679-.071l-.289-2.745A.341.341,0,0,0,233.743,129.582Z" transform="translate(-160.358 -129.578)" fill="#1f2f6d"/>
            <path id="Path_2122" data-name="Path 2122" d="M223.589,131.517a.341.341,0,0,0-.668.142l.574,2.7a.341.341,0,0,0,.668-.142Z" transform="translate(-158.323 -129.9)" fill="#1f2f6d"/>
            <path id="Path_2123" data-name="Path 2123" d="M213.288,134.239a.342.342,0,1,0-.65.211l.853,2.624a.342.342,0,0,0,.65-.211Z" transform="translate(-156.333 -130.433)" fill="#1f2f6d"/>
            <path id="Path_2124" data-name="Path 2124" d="M203.329,138.024a.342.342,0,1,0-.624.277l1.122,2.522a.342.342,0,0,0,.624-.278Z" transform="translate(-154.41 -131.172)" fill="#1f2f6d"/>
            <path id="Path_2125" data-name="Path 2125" d="M184.864,148.6a.342.342,0,1,0-.553.4l1.622,2.232a.342.342,0,0,0,.553-.4Z" transform="translate(-150.847 -133.229)" fill="#1f2f6d"/>
            <path id="Path_2126" data-name="Path 2126" d="M176.561,155.278a.342.342,0,0,0-.508.457l1.847,2.051a.341.341,0,1,0,.507-.457Z" transform="translate(-149.246 -134.525)" fill="#1f2f6d"/>
            <path id="Path_2127" data-name="Path 2127" d="M169,162.787a.342.342,0,1,0-.457.508l2.051,1.846a.342.342,0,0,0,.457-.507Z" transform="translate(-147.789 -135.982)" fill="#1f2f6d"/>
            <path id="Path_2128" data-name="Path 2128" d="M162.269,171.044a.342.342,0,1,0-.4.553l2.232,1.621a.342.342,0,0,0,.4-.553Z" transform="translate(-146.493 -137.582)" fill="#1f2f6d"/>
            <path id="Path_2129" data-name="Path 2129" d="M154.087,190.56l-2.522-1.123a.342.342,0,1,0-.277.624l2.521,1.122a.341.341,0,0,0,.278-.624Z" transform="translate(-144.436 -141.145)" fill="#1f2f6d"/>
            <path id="Path_2130" data-name="Path 2130" d="M147.5,200.021l2.625.853a.342.342,0,0,0,.211-.65l-2.624-.853a.342.342,0,1,0-.211.65Z" transform="translate(-143.697 -143.068)" fill="#1f2f6d"/>
            <path id="Path_2131" data-name="Path 2131" d="M144.78,210.321l2.7.574a.342.342,0,0,0,.142-.669l-2.7-.574a.341.341,0,0,0-.142.668Z" transform="translate(-143.164 -145.058)" fill="#1f2f6d"/>
            <path id="Path_2132" data-name="Path 2132" d="M143.149,220.851l2.744.289a.342.342,0,1,0,.072-.68l-2.745-.289a.342.342,0,0,0-.071.68Z" transform="translate(-142.842 -147.093)" fill="#1f2f6d"/>
            <path id="Path_2133" data-name="Path 2133" d="M146.268,241.4a.341.341,0,0,0-.375-.3l-2.745.289a.341.341,0,1,0,.071.678l2.745-.288A.342.342,0,0,0,146.268,241.4Z" transform="translate(-142.842 -151.138)" fill="#1f2f6d"/>
            <path id="Path_2134" data-name="Path 2134" d="M147.884,251.531a.343.343,0,0,0-.406-.264l-2.7.574a.342.342,0,0,0,.142.669l2.7-.574A.342.342,0,0,0,147.884,251.531Z" transform="translate(-143.164 -153.104)" fill="#1f2f6d"/>
            <path id="Path_2135" data-name="Path 2135" d="M150.557,261.441a.341.341,0,0,0-.431-.219l-2.625.853a.341.341,0,1,0,.211.649l2.625-.853A.341.341,0,0,0,150.557,261.441Z" transform="translate(-143.697 -155.027)" fill="#1f2f6d"/>
            <path id="Path_2136" data-name="Path 2136" d="M153.807,270.848l-2.522,1.123a.342.342,0,0,0,.278.624l2.521-1.123a.342.342,0,1,0-.277-.624Z" transform="translate(-144.435 -156.886)" fill="#1f2f6d"/>
            <path id="Path_2137" data-name="Path 2137" d="M164.1,288.694l-2.233,1.621a.342.342,0,0,0,.4.553l2.233-1.621a.342.342,0,0,0-.4-.553Z" transform="translate(-146.492 -160.329)" fill="#1f2f6d"/>
            <path id="Path_2138" data-name="Path 2138" d="M170.591,296.719l-2.051,1.846a.342.342,0,0,0,.457.507l2.051-1.845a.342.342,0,1,0-.457-.508Z" transform="translate(-147.788 -161.876)" fill="#1f2f6d"/>
            <path id="Path_2139" data-name="Path 2139" d="M177.9,304.024l-1.847,2.051a.342.342,0,1,0,.508.457l1.846-2.05a.342.342,0,1,0-.507-.458Z" transform="translate(-149.245 -163.284)" fill="#1f2f6d"/>
            <path id="Path_2140" data-name="Path 2140" d="M185.928,310.532l-1.622,2.232a.341.341,0,1,0,.552.4l1.622-2.232a.341.341,0,1,0-.552-.4Z" transform="translate(-150.846 -164.537)" fill="#1f2f6d"/>
            <path id="Path_2141" data-name="Path 2141" d="M204.273,320.7a.342.342,0,0,0-.452.173L202.7,323.4a.342.342,0,1,0,.624.279l1.123-2.521A.342.342,0,0,0,204.273,320.7Z" transform="translate(-154.409 -166.525)" fill="#1f2f6d"/>
            <path id="Path_2142" data-name="Path 2142" d="M213.916,324.382a.341.341,0,0,0-.431.219l-.853,2.624a.341.341,0,0,0,.649.211l.853-2.624A.341.341,0,0,0,213.916,324.382Z" transform="translate(-156.332 -167.238)" fill="#1f2f6d"/>
            <path id="Path_2143" data-name="Path 2143" d="M223.894,327.039a.343.343,0,0,0-.406.263l-.574,2.7a.342.342,0,0,0,.669.143l.574-2.7A.342.342,0,0,0,223.894,327.039Z" transform="translate(-158.322 -167.754)" fill="#1f2f6d"/>
            <path id="Path_2144" data-name="Path 2144" d="M234.1,328.645a.341.341,0,0,0-.375.3l-.289,2.743a.342.342,0,1,0,.679.072l.289-2.743A.341.341,0,0,0,234.1,328.645Z" transform="translate(-160.356 -168.065)" fill="#1f2f6d"/>
            <path id="Path_2145" data-name="Path 2145" d="M254.659,328.646a.341.341,0,0,0-.3.374l.288,2.743a.341.341,0,0,0,.679-.07l-.288-2.743A.34.34,0,0,0,254.659,328.646Z" transform="translate(-164.402 -168.066)" fill="#1f2f6d"/>
            <path id="Path_2146" data-name="Path 2146" d="M265.2,327.3a.342.342,0,0,0-.669.141l.572,2.7a.342.342,0,1,0,.669-.141Z" transform="translate(-166.368 -167.754)" fill="#1f2f6d"/>
            <path id="Path_2147" data-name="Path 2147" d="M275.134,324.605a.341.341,0,1,0-.649.211l.853,2.625a.341.341,0,0,0,.649-.211Z" transform="translate(-168.291 -167.239)" fill="#1f2f6d"/>
            <path id="Path_2148" data-name="Path 2148" d="M284.735,320.882a.342.342,0,0,0-.624.277l1.121,2.52a.342.342,0,0,0,.624-.277Z" transform="translate(-170.149 -166.526)" fill="#1f2f6d"/>
            <path id="Path_2149" data-name="Path 2149" d="M302.511,310.538a.342.342,0,0,0-.553.4l1.621,2.232a.342.342,0,0,0,.553-.4Z" transform="translate(-173.593 -164.538)" fill="#1f2f6d"/>
            <path id="Path_2150" data-name="Path 2150" d="M310.49,304.031a.341.341,0,0,0-.507.457l1.844,2.05a.342.342,0,1,0,.508-.457Z" transform="translate(-175.14 -163.285)" fill="#1f2f6d"/>
            <path id="Path_2151" data-name="Path 2151" d="M317.745,296.724a.342.342,0,0,0-.457.507l2.05,1.848a.342.342,0,0,0,.457-.508Z" transform="translate(-176.548 -161.877)" fill="#1f2f6d"/>
            <path id="Path_2152" data-name="Path 2152" d="M324.2,288.7a.342.342,0,1,0-.4.553l2.23,1.622a.342.342,0,0,0,.4-.553Z" transform="translate(-177.801 -160.33)" fill="#1f2f6d"/>
            <path id="Path_2153" data-name="Path 2153" d="M336.939,271.978l-2.518-1.124a.342.342,0,1,0-.278.624l2.518,1.124a.342.342,0,1,0,.278-.624Z" transform="translate(-179.789 -156.887)" fill="#1f2f6d"/>
            <path id="Path_2154" data-name="Path 2154" d="M340.7,262.083l-2.622-.854a.341.341,0,1,0-.212.649l2.622.855a.342.342,0,1,0,.212-.649Z" transform="translate(-180.503 -155.028)" fill="#1f2f6d"/>
            <path id="Path_2155" data-name="Path 2155" d="M343.406,251.849l-2.7-.576a.342.342,0,0,0-.143.668l2.7.576a.342.342,0,0,0,.143-.668Z" transform="translate(-181.018 -153.105)" fill="#1f2f6d"/>
            <path id="Path_2156" data-name="Path 2156" d="M345.026,241.389l-2.743-.291a.341.341,0,1,0-.072.679l2.743.291a.341.341,0,0,0,.072-.679Z" transform="translate(-181.329 -151.139)" fill="#1f2f6d"/>
            <path id="Path_2157" data-name="Path 2157" d="M341.91,220.84a.342.342,0,0,0,.375.3l2.742-.286a.342.342,0,0,0-.071-.68l-2.742.286A.341.341,0,0,0,341.91,220.84Z" transform="translate(-181.33 -147.095)" fill="#1f2f6d"/>
            <path id="Path_2158" data-name="Path 2158" d="M340.3,210.637a.342.342,0,0,0,.4.264l2.7-.571a.342.342,0,1,0-.141-.669l-2.7.572A.34.34,0,0,0,340.3,210.637Z" transform="translate(-181.018 -145.06)" fill="#1f2f6d"/>
            <path id="Path_2159" data-name="Path 2159" d="M337.647,200.659a.343.343,0,0,0,.431.219l2.624-.849a.342.342,0,1,0-.21-.65l-2.625.849A.343.343,0,0,0,337.647,200.659Z" transform="translate(-180.503 -143.07)" fill="#1f2f6d"/>
            <path id="Path_2160" data-name="Path 2160" d="M334.422,191.188l2.521-1.119a.342.342,0,1,0-.277-.624l-2.521,1.12a.341.341,0,1,0,.277.624Z" transform="translate(-179.789 -141.147)" fill="#1f2f6d"/>
            <path id="Path_2161" data-name="Path 2161" d="M326.035,171.05l-2.233,1.619a.341.341,0,1,0,.4.553l2.233-1.619a.341.341,0,1,0-.4-.553Z" transform="translate(-177.802 -137.584)" fill="#1f2f6d"/>
            <path id="Path_2162" data-name="Path 2162" d="M319.345,162.792l-2.051,1.844a.342.342,0,1,0,.457.508L319.8,163.3a.342.342,0,0,0-.457-.508Z" transform="translate(-176.549 -135.983)" fill="#1f2f6d"/>
            <path id="Path_2163" data-name="Path 2163" d="M311.836,155.283l-1.849,2.049a.342.342,0,0,0,.507.457l1.849-2.048a.342.342,0,0,0-.507-.458Z" transform="translate(-175.141 -134.526)" fill="#1f2f6d"/>
            <path id="Path_2164" data-name="Path 2164" d="M303.587,148.605l-1.624,2.23a.342.342,0,0,0,.553.4l1.623-2.23a.341.341,0,1,0-.552-.4Z" transform="translate(-173.594 -133.229)" fill="#1f2f6d"/>
            <path id="Path_2165" data-name="Path 2165" d="M285.692,137.853a.34.34,0,0,0-.451.173l-1.125,2.52a.342.342,0,0,0,.624.278l1.124-2.52A.341.341,0,0,0,285.692,137.853Z" transform="translate(-170.15 -131.172)" fill="#1f2f6d"/>
            <path id="Path_2166" data-name="Path 2166" d="M275.778,134.021a.342.342,0,0,0-.431.219l-.855,2.623a.342.342,0,0,0,.649.212l.855-2.623A.34.34,0,0,0,275.778,134.021Z" transform="translate(-168.292 -130.434)" fill="#1f2f6d"/>
            <path id="Path_2167" data-name="Path 2167" d="M265.517,131.253a.342.342,0,0,0-.4.263l-.575,2.7a.341.341,0,1,0,.668.143l.575-2.7A.342.342,0,0,0,265.517,131.253Z" transform="translate(-166.369 -129.9)" fill="#1f2f6d"/>
            <path id="Path_2168" data-name="Path 2168" d="M255.027,129.58a.341.341,0,0,0-.375.3l-.29,2.744a.342.342,0,1,0,.679.073l.29-2.745A.342.342,0,0,0,255.027,129.58Z" transform="translate(-164.403 -129.578)" fill="#1f2f6d"/>
          </g>
          <g id="Group_292" data-name="Group 292" transform="translate(12.175 12.174)">
            <path id="Path_2169" data-name="Path 2169" d="M342.785,232.75a2.419,2.419,0,1,1,3.307-.887A2.418,2.418,0,0,1,342.785,232.75Z" transform="translate(-180.12 -147.506)" fill="#1f2f6d"/>
            <path id="Path_2170" data-name="Path 2170" d="M330.587,183.037a2.42,2.42,0,1,1,2.422-2.422A2.419,2.419,0,0,1,330.587,183.037Z" transform="translate(-177.528 -137.831)" fill="#1f2f6d"/>
            <path id="Path_2171" data-name="Path 2171" d="M295.167,146.081a2.42,2.42,0,1,1,.887-3.307A2.418,2.418,0,0,1,295.167,146.081Z" transform="translate(-170.445 -130.748)" fill="#1f2f6d"/>
            <path id="Path_2172" data-name="Path 2172" d="M246.015,131.789a2.42,2.42,0,1,1-.885-3.31A2.42,2.42,0,0,1,246.015,131.789Z" transform="translate(-160.771 -128.156)" fill="#1f2f6d"/>
            <path id="Path_2173" data-name="Path 2173" d="M196.3,143.986a2.42,2.42,0,1,1-2.422-2.423A2.421,2.421,0,0,1,196.3,143.986Z" transform="translate(-151.096 -130.748)" fill="#1f2f6d"/>
            <path id="Path_2174" data-name="Path 2174" d="M159.346,179.407a2.419,2.419,0,1,1-3.307-.887A2.42,2.42,0,0,1,159.346,179.407Z" transform="translate(-144.014 -137.831)" fill="#1f2f6d"/>
            <path id="Path_2175" data-name="Path 2175" d="M145.053,228.559a2.419,2.419,0,1,1-3.308.884A2.418,2.418,0,0,1,145.053,228.559Z" transform="translate(-141.421 -147.505)" fill="#1f2f6d"/>
            <path id="Path_2176" data-name="Path 2176" d="M157.252,278.271a2.42,2.42,0,1,1-2.424,2.422A2.42,2.42,0,0,1,157.252,278.271Z" transform="translate(-144.013 -157.18)" fill="#1f2f6d"/>
            <path id="Path_2177" data-name="Path 2177" d="M192.671,315.224a2.42,2.42,0,1,1-.888,3.309A2.419,2.419,0,0,1,192.671,315.224Z" transform="translate(-151.096 -164.262)" fill="#1f2f6d"/>
            <path id="Path_2178" data-name="Path 2178" d="M241.821,329.518a2.42,2.42,0,1,1,.885,3.307A2.424,2.424,0,0,1,241.821,329.518Z" transform="translate(-160.77 -166.854)" fill="#1f2f6d"/>
            <path id="Path_2179" data-name="Path 2179" d="M291.536,317.321a2.42,2.42,0,1,1,2.422,2.422A2.42,2.42,0,0,1,291.536,317.321Z" transform="translate(-170.445 -164.262)" fill="#1f2f6d"/>
            <path id="Path_2180" data-name="Path 2180" d="M328.489,281.9a2.42,2.42,0,1,1,3.306.889A2.422,2.422,0,0,1,328.489,281.9Z" transform="translate(-177.527 -157.181)" fill="#1f2f6d"/>
          </g>
        </g>
        <g id="Group_308" data-name="Group 308" transform="translate(306.761 199.742)">
          <rect id="Rectangle_57" data-name="Rectangle 57" width="65.564" height="50.023" transform="translate(50.023 8.056) rotate(90)" fill="#a1b3ff" stroke="#6579cf" stroke-miterlimit="10" stroke-width="1"/>
          <rect id="Rectangle_58" data-name="Rectangle 58" width="46.041" height="61.581" transform="translate(1.991 10.047)" fill="#fff" stroke="#7a90eb" stroke-miterlimit="10" stroke-width="1"/>
          <g id="Group_306" data-name="Group 306" transform="translate(4.87 15.673)">
            <g id="Group_296" data-name="Group 296">
              <rect id="Rectangle_59" data-name="Rectangle 59" width="8.538" height="8.538" transform="translate(0 2.9)" fill="none" stroke="#1f2f6d" stroke-linecap="round" stroke-linejoin="round" stroke-width="1"/>
              <g id="Group_294" data-name="Group 294" transform="translate(11.49 2.79)">
                <rect id="Rectangle_60" data-name="Rectangle 60" width="28.794" height="2.13" fill="#dee1ef"/>
                <rect id="Rectangle_61" data-name="Rectangle 61" width="25.202" height="2.13" transform="translate(0 3.314)" fill="#dee1ef"/>
                <rect id="Rectangle_62" data-name="Rectangle 62" width="21.609" height="2.13" transform="translate(0 6.628)" fill="#dee1ef"/>
              </g>
              <g id="Group_295" data-name="Group 295" transform="translate(1.206)">
                <path id="Path_2181" data-name="Path 2181" d="M416.819,327.542a.935.935,0,0,1-.734-.356l-2.074-2.618a.937.937,0,1,1,1.469-1.163l1.228,1.551,4.03-6.8a.937.937,0,0,1,1.612.956l-4.725,7.967a.938.938,0,0,1-.743.457Z" transform="translate(-413.809 -317.701)" fill="#4dc7b8"/>
              </g>
            </g>
            <g id="Group_299" data-name="Group 299" transform="translate(0 13.285)">
              <rect id="Rectangle_63" data-name="Rectangle 63" width="8.538" height="8.538" transform="translate(0 2.9)" fill="none" stroke="#1f2f6d" stroke-linecap="round" stroke-linejoin="round" stroke-width="1"/>
              <g id="Group_297" data-name="Group 297" transform="translate(11.49 2.791)">
                <rect id="Rectangle_64" data-name="Rectangle 64" width="28.794" height="2.13" fill="#dee1ef"/>
                <rect id="Rectangle_65" data-name="Rectangle 65" width="25.202" height="2.13" transform="translate(0 3.314)" fill="#dee1ef"/>
                <rect id="Rectangle_66" data-name="Rectangle 66" width="21.609" height="2.13" transform="translate(0 6.628)" fill="#dee1ef"/>
              </g>
              <g id="Group_298" data-name="Group 298" transform="translate(1.206)">
                <path id="Path_2182" data-name="Path 2182" d="M416.819,344.011a.937.937,0,0,1-.734-.355l-2.074-2.619a.937.937,0,1,1,1.469-1.162l1.228,1.551,4.03-6.8a.937.937,0,0,1,1.612.956l-4.725,7.967a.936.936,0,0,1-.743.457Z" transform="translate(-413.809 -334.17)" fill="#4dc7b8"/>
              </g>
            </g>
            <g id="Group_302" data-name="Group 302" transform="translate(0 26.57)">
              <rect id="Rectangle_67" data-name="Rectangle 67" width="8.538" height="8.538" transform="translate(0 2.901)" fill="none" stroke="#1f2f6d" stroke-linecap="round" stroke-linejoin="round" stroke-width="1"/>
              <g id="Group_300" data-name="Group 300" transform="translate(11.49 2.791)">
                <rect id="Rectangle_68" data-name="Rectangle 68" width="28.794" height="2.13" fill="#dee1ef"/>
                <rect id="Rectangle_69" data-name="Rectangle 69" width="25.202" height="2.13" transform="translate(0 3.314)" fill="#dee1ef"/>
                <rect id="Rectangle_70" data-name="Rectangle 70" width="21.609" height="2.13" transform="translate(0 6.628)" fill="#dee1ef"/>
              </g>
              <g id="Group_301" data-name="Group 301" transform="translate(1.206)">
                <path id="Path_2183" data-name="Path 2183" d="M416.819,360.48a.937.937,0,0,1-.734-.355l-2.074-2.619a.937.937,0,1,1,1.469-1.162l1.228,1.551,4.03-6.8a.937.937,0,0,1,1.612.955l-4.725,7.968a.94.94,0,0,1-.743.457C416.861,360.48,416.84,360.48,416.819,360.48Z" transform="translate(-413.809 -350.639)" fill="#4dc7b8"/>
              </g>
            </g>
            <g id="Group_305" data-name="Group 305" transform="translate(0 39.855)">
              <rect id="Rectangle_71" data-name="Rectangle 71" width="8.538" height="8.538" transform="translate(0 2.9)" fill="none" stroke="#1f2f6d" stroke-linecap="round" stroke-linejoin="round" stroke-width="1"/>
              <g id="Group_303" data-name="Group 303" transform="translate(11.49 2.79)">
                <rect id="Rectangle_72" data-name="Rectangle 72" width="28.794" height="2.13" fill="#dee1ef"/>
                <rect id="Rectangle_73" data-name="Rectangle 73" width="25.202" height="2.13" transform="translate(0 3.314)" fill="#dee1ef"/>
                <rect id="Rectangle_74" data-name="Rectangle 74" width="21.609" height="2.13" transform="translate(0 6.628)" fill="#dee1ef"/>
              </g>
              <g id="Group_304" data-name="Group 304" transform="translate(1.206)">
                <path id="Path_2184" data-name="Path 2184" d="M416.819,376.95a.935.935,0,0,1-.734-.356l-2.074-2.618a.937.937,0,1,1,1.469-1.163l1.228,1.551,4.03-6.8a.937.937,0,0,1,1.612.956l-4.725,7.967a.938.938,0,0,1-.743.457Z" transform="translate(-413.809 -367.109)" fill="#4dc7b8"/>
              </g>
            </g>
          </g>
          <g id="Group_307" data-name="Group 307" transform="translate(14.624)">
            <path id="Path_2185" data-name="Path 2185" d="M431.7,299.221v6.289a.949.949,0,0,0,.949.949h7.114a.95.95,0,0,0,.949-.949v-6.289a.949.949,0,0,0-.949-.949h-7.114A.948.948,0,0,0,431.7,299.221Zm5.426,1.992h-1.841a.949.949,0,0,1-.949-.949h0a.949.949,0,0,1,.949-.949h1.841a.949.949,0,0,1,.949.949h0A.949.949,0,0,1,437.124,301.212Z" transform="translate(-425.816 -298.272)" fill="#1f2f6d"/>
            <rect id="Rectangle_75" data-name="Rectangle 75" width="20.776" height="7.494" rx="1.924" transform="translate(0 4.438)" fill="#1f2f6d"/>
          </g>
        </g>
        <g id="Group_321" data-name="Group 321" transform="translate(245.559 236.632)">
          <circle id="Ellipse_532" data-name="Ellipse 532" cx="18.697" cy="18.697" r="18.697" fill="#4dc7b8" stroke="#31897c" stroke-miterlimit="10" stroke-width="1"/>
          <g id="Group_320" data-name="Group 320" transform="translate(5.533 5.907)">
            <g id="Group_318" data-name="Group 318" transform="translate(7.267 6.279)">
              <g id="Group_315" data-name="Group 315">
                <g id="Group_310" data-name="Group 310">
                  <g id="Group_309" data-name="Group 309">
                    <path id="Path_2186" data-name="Path 2186" d="M346.274,365.008a5.9,5.9,0,1,1,10.495,3.692,7.014,7.014,0,0,0-1.583,4.391v.11h-6.027v-.11a6.81,6.81,0,0,0-1.538-4.335A5.868,5.868,0,0,1,346.274,365.008Z" transform="translate(-346.274 -359.111)" fill="#fce001"/>
                  </g>
                </g>
                <g id="Group_312" data-name="Group 312" transform="translate(6.155 8.199)">
                  <g id="Group_311" data-name="Group 311">
                    <path id="Path_2187" data-name="Path 2187" d="M353.9,375.159h.34v-4.734a.809.809,0,1,1,.809.809h-.386v.34h.386a1.149,1.149,0,1,0-1.149-1.149Z" transform="translate(-353.904 -369.275)" fill="#fca701"/>
                  </g>
                </g>
                <g id="Group_314" data-name="Group 314" transform="translate(3.323 8.199)">
                  <g id="Group_313" data-name="Group 313">
                    <path id="Path_2188" data-name="Path 2188" d="M352.353,375.159h.34v-4.734a1.149,1.149,0,1,0-1.15,1.149h.386v-.34h-.386a.809.809,0,1,1,.809-.809Z" transform="translate(-350.394 -369.275)" fill="#fca701"/>
                  </g>
                </g>
              </g>
              <g id="Group_316" data-name="Group 316" transform="translate(2.91 14.064)">
                <path id="Rectangle_76" data-name="Rectangle 76" d="M1.763,0H4.212A1.763,1.763,0,0,1,5.975,1.763V4.044a0,0,0,0,1,0,0H0a0,0,0,0,1,0,0V1.763A1.763,1.763,0,0,1,1.763,0Z" transform="translate(5.975 4.044) rotate(180)" fill="#1f2f6d"/>
              </g>
              <g id="Group_317" data-name="Group 317" transform="translate(4.162 18.023)">
                <path id="Rectangle_77" data-name="Rectangle 77" d="M.776,0H2.694A.776.776,0,0,1,3.47.776v.5a0,0,0,0,1,0,0H0a0,0,0,0,1,0,0v-.5A.776.776,0,0,1,.776,0Z" transform="translate(3.47 1.279) rotate(180)" fill="#1f2f6d"/>
              </g>
            </g>
            <g id="Group_319" data-name="Group 319">
              <line id="Line_8" data-name="Line 8" x2="4.05" y2="2.122" transform="translate(20.475 15.031)" fill="none" stroke="#1f2f6d" stroke-linecap="round" stroke-linejoin="round" stroke-width="1"/>
              <line id="Line_9" data-name="Line 9" y1="1.351" x2="4.585" transform="translate(21.744 8.972)" fill="none" stroke="#1f2f6d" stroke-linecap="round" stroke-linejoin="round" stroke-width="1"/>
              <line id="Line_10" data-name="Line 10" y1="3.973" x2="2.126" transform="translate(19.449 2.176)" fill="none" stroke="#1f2f6d" stroke-linecap="round" stroke-linejoin="round" stroke-width="1"/>
              <line id="Line_11" data-name="Line 11" y1="4.687" transform="translate(13.482)" fill="none" stroke="#1f2f6d" stroke-linecap="round" stroke-linejoin="round" stroke-width="1"/>
              <line id="Line_12" data-name="Line 12" x1="4.05" y2="2.122" transform="translate(1.149 15.031)" fill="none" stroke="#1f2f6d" stroke-linecap="round" stroke-linejoin="round" stroke-width="1"/>
              <line id="Line_13" data-name="Line 13" x1="4.585" y1="1.351" transform="translate(0 8.972)" fill="none" stroke="#1f2f6d" stroke-linecap="round" stroke-linejoin="round" stroke-width="1"/>
              <line id="Line_14" data-name="Line 14" x1="2.126" y1="3.973" transform="translate(5.409 2.176)" fill="none" stroke="#1f2f6d" stroke-linecap="round" stroke-linejoin="round" stroke-width="1"/>
            </g>
          </g>
        </g>
        <g id="Group_324" data-name="Group 324" transform="translate(300.722 139.926)">
          <circle id="Ellipse_533" data-name="Ellipse 533" cx="18.697" cy="18.697" r="18.697" transform="translate(0 14.31) rotate(-22.5)" fill="#fff573" stroke="#db5c1c" stroke-miterlimit="10" stroke-width="1"/>
          <g id="Group_323" data-name="Group 323" transform="translate(17.808 14.176)">
            <g id="Group_322" data-name="Group 322">
              <path id="Path_2189" data-name="Path 2189" d="M427.488,241.693a6.618,6.618,0,0,0-6.621,6.616c0,3.655,6.183,13.6,6.183,13.6a.467.467,0,0,0,.865,0s6.2-9.953,6.2-13.6a6.626,6.626,0,0,0-6.622-6.616Zm0,1.952a3.762,3.762,0,1,1-3.768,3.757,3.755,3.755,0,0,1,3.768-3.757Z" transform="translate(-420.867 -241.693)" fill="#0c3761" fill-rule="evenodd"/>
            </g>
          </g>
        </g>
        <g id="Group_327" data-name="Group 327" transform="translate(8.22 77.481)">
          <circle id="Ellipse_534" data-name="Ellipse 534" cx="18.697" cy="18.697" r="18.697" transform="translate(0 26.442) rotate(-45)" fill="#a1b3ff" stroke="#6579cf" stroke-miterlimit="10" stroke-width="1"/>
          <g id="Group_326" data-name="Group 326" transform="translate(13.907 17.546)">
            <path id="Path_2190" data-name="Path 2190" d="M71.843,180.049a5.028,5.028,0,0,1,2.771-2.075,2.955,2.955,0,1,1,2.86.007,5.126,5.126,0,0,1,3.579,4.882v1.566a1.035,1.035,0,0,1-1.036,1.035H72.082a1.035,1.035,0,0,1-1.035-1.035v-1.525A5.156,5.156,0,0,1,71.843,180.049Z" transform="translate(-56.829 -169.228)" fill="#fff"/>
            <g id="Group_325" data-name="Group 325" transform="translate(0 3.209)">
              <path id="Path_2191" data-name="Path 2191" d="M54.217,180.049a5.028,5.028,0,0,1,2.771-2.075,2.955,2.955,0,1,1,2.86.007,5.126,5.126,0,0,1,3.579,4.882v1.566a1.035,1.035,0,0,1-1.036,1.035H54.456a1.035,1.035,0,0,1-1.035-1.035v-1.525A5.156,5.156,0,0,1,54.217,180.049Z" transform="translate(-53.421 -172.437)" fill="#fff"/>
            </g>
            <path id="Path_2192" data-name="Path 2192" d="M62.81,176.863a6.182,6.182,0,0,1,2.558-1.5,3.683,3.683,0,1,1,3.564.009,6.39,6.39,0,0,1,4.461,6.085v1.952A1.292,1.292,0,0,1,72.1,184.7h-9.89a1.291,1.291,0,0,1-1.29-1.29v-2.075A6.186,6.186,0,0,1,62.81,176.863Z" transform="translate(-54.871 -168.459)" fill="#1f2f6d"/>
          </g>
        </g>
        <g id="Group_329" data-name="Group 329" transform="translate(98.213 10.538)">
          <circle id="Ellipse_535" data-name="Ellipse 535" cx="18.697" cy="18.697" r="18.697" transform="matrix(0.23, -0.973, 0.973, 0.23, 0, 36.394)" fill="#f66" stroke="#b53e44" stroke-miterlimit="10" stroke-width="1"/>
          <g id="Group_328" data-name="Group 328" transform="translate(14.393 11.302)">
            <path id="Path_2193" data-name="Path 2193" d="M166,93.652h1.324V87.323a6.2,6.2,0,0,1,5.616-6.576V78.462a.742.742,0,0,1,.747-.732.73.73,0,0,1,.73.732v2.285a6.205,6.205,0,0,1,5.618,6.576v6.329h1.326a.428.428,0,0,1,.423.427v2.245a.427.427,0,0,1-.423.426H177.05a3.363,3.363,0,1,1-6.725,0h-4.312a.423.423,0,0,1-.425-.426V94.079A.418.418,0,0,1,166,93.652Z" transform="translate(-165.587 -77.73)" fill="#fce001" fill-rule="evenodd"/>
          </g>
        </g>
        <g id="Group_330" data-name="Group 330" transform="translate(70.61 69.071)">
          <circle id="Ellipse_536" data-name="Ellipse 536" cx="9.828" cy="9.828" r="9.828" fill="#4dc7b8" stroke="#31897c" stroke-miterlimit="10" stroke-width="1"/>
          <path id="Path_2194" data-name="Path 2194" d="M122.945,151.792l-3.575-2.3a.783.783,0,0,1-.237-1.114l.318-.477a.775.775,0,0,1,1.035-.238l2.7,1.747,4.764-6.277a.778.778,0,0,1,1.115-.158l.477.318a.773.773,0,0,1,.077,1.112l-5.484,7.232a.75.75,0,0,1-.872.237.623.623,0,0,1-.321-.079Z" transform="translate(-114.583 -137.543)" fill="#fff" fill-rule="evenodd"/>
        </g>
        <g id="Group_331" data-name="Group 331" transform="translate(262.937 183.826)">
          <circle id="Ellipse_537" data-name="Ellipse 537" cx="12.182" cy="12.182" r="12.182" transform="translate(0 9.323) rotate(-22.5)" fill="#ee5a30" stroke="#b53e44" stroke-miterlimit="10" stroke-width="1"/>
          <path id="Path_2195" data-name="Path 2195" d="M374.38,302.882l-4.167-4.17-4.169,4.077-1.707-1.705,4.168-4.17-4.168-4.078,1.8-1.8,4.073,4.17,4.167-4.17,1.711,1.708-4.08,4.17,4.174,4.17Z" transform="translate(-354.345 -280.956)" fill="#fff"/>
        </g>
      </g>
    </g>
  </g>
</svg>
