<svg xmlns="http://www.w3.org/2000/svg" width="86.06" height="82.447" viewBox="0 0 86.06 82.447">
  <g id="select" transform="translate(0 -1)">
    <path id="Path_3744" data-name="Path 3744" d="M43.432,54.9c-3.614,0-7.8-1.143-12.608-3.425-5.365-2.545-7.952-2.456-9.662-2.375a4.965,4.965,0,0,1-4.23-1.31c-.5-.5-2.757-3.206,1.685-7.647a11.15,11.15,0,0,1,7.892-2.891L11.125,21.872a5.393,5.393,0,0,1,.011-7.64,5.4,5.4,0,0,1,3.822-1.592h.007a5.346,5.346,0,0,1,3.814,1.584l6.39,6.393a5.307,5.307,0,0,1,1.013-1.4,5.388,5.388,0,0,1,5.425-1.343,5.41,5.41,0,0,1,8.623-2.293,5.322,5.322,0,0,1,1.017-1.41,5.411,5.411,0,0,1,7.644-.011L58.909,24.184c6.289,6.286,5.588,15.4-1.711,22.7l-.048.048-4.145,4.141A13.059,13.059,0,0,1,43.432,54.9ZM22.167,45.371c2.026,0,5.139.334,10.249,2.753,11.076,5.258,15.566,2.7,17.985.319l4.178-4.178a.35.35,0,0,1,.037-.037c4.423-4.475,7.454-11.64,1.7-17.391L46.271,16.789a1.7,1.7,0,0,0-2.412,2.4l0,0,2.5,2.5a1.856,1.856,0,0,1-2.623,2.627L37.9,18.485a1.7,1.7,0,0,0-2.4,2.408l4.174,4.174a1.856,1.856,0,0,1-2.623,2.627L31.2,21.85a1.705,1.705,0,0,0-2.9,1.217,1.67,1.67,0,0,0,.49,1.187l4.174,4.174a1.856,1.856,0,1,1-2.623,2.627L16.152,16.867a1.676,1.676,0,0,0-1.191-.5,1.723,1.723,0,0,0-1.707,1.707,1.673,1.673,0,0,0,.494,1.191l19.2,19.2a1.847,1.847,0,0,1,.282,2.256,1.871,1.871,0,0,1-2.119.835c-.07-.019-6.716-1.926-9.877,1.228-1.436,1.44-1.647,2.323-1.61,2.519.156.108.193.148,1.388.1.345-.022.727-.037,1.154-.037Zm20.4-29.881H42.6Z" transform="translate(22.871 28.544)" fill="#db5c1c"/>
    <path id="Path_3745" data-name="Path 3745" d="M66.123,26.974H12.51A12.769,12.769,0,0,1,0,13.987,12.769,12.769,0,0,1,12.51,1H66.123a12.769,12.769,0,0,1,12.51,12.987A12.769,12.769,0,0,1,66.123,26.974ZM12.51,4.711a9.121,9.121,0,0,0-8.936,9.276,9.121,9.121,0,0,0,8.936,9.276H66.123a9.121,9.121,0,0,0,8.936-9.276,9.121,9.121,0,0,0-8.936-9.276Z" transform="translate(0)" fill="#db5c1c"/>
    <path id="Path_3746" data-name="Path 3746" d="M8.566,14.132a5.566,5.566,0,1,1,5.566-5.566A5.573,5.573,0,0,1,8.566,14.132Zm0-7.421a1.855,1.855,0,1,0,1.855,1.855A1.858,1.858,0,0,0,8.566,6.711Z" transform="translate(8.132 5.421)" fill="#db5c1c"/>
    <path id="Path_3747" data-name="Path 3747" d="M13.566,14.132a5.566,5.566,0,1,1,5.566-5.566A5.573,5.573,0,0,1,13.566,14.132Zm0-7.421a1.855,1.855,0,1,0,1.855,1.855A1.858,1.858,0,0,0,13.566,6.711Z" transform="translate(20.542 5.421)" fill="#db5c1c"/>
    <path id="Path_3748" data-name="Path 3748" d="M26.807,32.974H12.51A12.769,12.769,0,0,1,0,19.987a13.148,13.148,0,0,1,3.667-9.18A12.2,12.2,0,0,1,12.51,7H66.123a12.769,12.769,0,0,1,12.51,12.987,1.788,1.788,0,1,1-3.574,0,9.121,9.121,0,0,0-8.936-9.276H12.51a8.736,8.736,0,0,0-6.316,2.72,9.374,9.374,0,0,0-2.62,6.557,9.121,9.121,0,0,0,8.936,9.276h14.3a1.857,1.857,0,0,1,0,3.711Z" transform="translate(0 15.185)" fill="#db5c1c"/>
    <path id="Path_3749" data-name="Path 3749" d="M8.566,20.132a5.566,5.566,0,1,1,5.566-5.566A5.573,5.573,0,0,1,8.566,20.132Zm0-7.421a1.855,1.855,0,1,0,1.855,1.855A1.858,1.858,0,0,0,8.566,12.711Z" transform="translate(8.132 20.535)" fill="#db5c1c"/>
    <path id="Path_3750" data-name="Path 3750" d="M13.566,20.132a5.566,5.566,0,1,1,5.566-5.566A5.573,5.573,0,0,1,13.566,20.132Zm0-7.421a1.855,1.855,0,1,0,1.855,1.855A1.858,1.858,0,0,0,13.566,12.711Z" transform="translate(20.542 20.535)" fill="#db5c1c"/>
    <path id="Path_3751" data-name="Path 3751" d="M35.25,38.974H12.987a12.987,12.987,0,0,1,0-25.974H27.829a1.855,1.855,0,1,1,0,3.711H12.987a9.276,9.276,0,1,0,0,18.553H35.25a1.855,1.855,0,0,1,0,3.711Z" transform="translate(0 30.371)" fill="#db5c1c"/>
    <path id="Path_3752" data-name="Path 3752" d="M8.566,26.132a5.566,5.566,0,1,1,5.566-5.566A5.573,5.573,0,0,1,8.566,26.132Zm0-7.421a1.855,1.855,0,1,0,1.855,1.855A1.858,1.858,0,0,0,8.566,18.711Z" transform="translate(8.132 35.936)" fill="#db5c1c"/>
  </g>
</svg>
