<svg xmlns="http://www.w3.org/2000/svg" width="86.93" height="107.881" viewBox="0 0 86.93 107.881">
  <path id="send" d="M135.936,80.477l-10.281-9.111V15.058a2.107,2.107,0,0,0-.617-1.49L112.088.617A2.108,2.108,0,0,0,110.6,0H60.652a2.107,2.107,0,0,0-2.107,2.107V8.829H51.823a2.107,2.107,0,0,0-2.107,2.107V90.581a2.107,2.107,0,0,0,2.107,2.107H86.215a66.288,66.288,0,0,0-1.13,13.085,2.107,2.107,0,0,0,4.068.77c4.228-10.774,11.269-12.913,26.06-13.081v3.85a2.107,2.107,0,0,0,3.5,1.577l17.219-15.258a2.107,2.107,0,0,0,0-3.154ZM112.7,7.194l5.757,5.757H112.7ZM62.759,4.214h45.732V15.058a2.107,2.107,0,0,0,2.107,2.107h10.844V67.632l-2.723-2.413a2.107,2.107,0,0,0-3.5,1.577V72.03c-10.663.249-17.587,2.444-22.285,7.022-.2.193-.391.392-.581.594H62.759Zm24.558,84.26H53.93V13.043h4.614v68.71a2.107,2.107,0,0,0,2.107,2.107H89.3A26.893,26.893,0,0,0,87.317,88.474Zm32.11,4.156V91.344a2.107,2.107,0,0,0-2.107-2.107c-8.291,0-14.889.448-20.139,2.632A19.485,19.485,0,0,0,89.756,97.2C91.847,79.7,101.1,76.22,117.32,76.22a2.107,2.107,0,0,0,2.107-2.107V71.478l11.935,10.576ZM74.685,51.145a2.107,2.107,0,0,1,2.107-2.107h29.063a2.107,2.107,0,0,1,0,4.214H76.792a2.107,2.107,0,0,1-2.107-2.107Zm2.107,15.5a2.107,2.107,0,1,1,0-4.214h29.063a2.107,2.107,0,1,1,0,4.214ZM74.685,37.753a2.107,2.107,0,0,1,2.107-2.107h29.063a2.107,2.107,0,1,1,0,4.214H76.792a2.107,2.107,0,0,1-2.107-2.107Zm0-13.392a2.107,2.107,0,0,1,2.107-2.107h29.063a2.107,2.107,0,1,1,0,4.214H76.792a2.107,2.107,0,0,1-2.107-2.107Z" transform="translate(-49.716)" fill="#3cb4e7"/>
</svg>
