<svg xmlns="http://www.w3.org/2000/svg" width="86.877" height="76.796" viewBox="0 0 86.877 76.796">
  <g id="signup" transform="translate(0 -29.705)">
    <path id="Path_3728" data-name="Path 3728" d="M234.715,101.05a1.7,1.7,0,0,0,1.7-1.7V92.966l4.905,7.1a1.852,1.852,0,0,0,2.1.765,1.907,1.907,0,0,0,1.31-1.885V87.49a1.7,1.7,0,1,0-3.4,0v6.6l-5.211-7.546a1.7,1.7,0,0,0-3.1.966V99.35A1.7,1.7,0,0,0,234.715,101.05Z" transform="translate(-193.477 -46.568)" fill="#7b4a8a"/>
    <path id="Path_3729" data-name="Path 3729" d="M115.557,87.49V99.35a1.7,1.7,0,0,0,3.4,0V87.49a1.7,1.7,0,0,0-3.4,0Z" transform="translate(-95.949 -46.568)" fill="#7b4a8a"/>
    <path id="Path_3730" data-name="Path 3730" d="M150.649,91.722a1.7,1.7,0,0,0,0,3.4h1.633a3.223,3.223,0,0,1-3.2,2.529,4.23,4.23,0,1,1,2.364-7.738,1.7,1.7,0,1,0,1.9-2.817,7.63,7.63,0,1,0-4.267,13.956c4.015,0,6.819-3.138,6.819-7.63a1.7,1.7,0,0,0-1.7-1.7h-3.548Z" transform="translate(-117.447 -46.57)" fill="#7b4a8a"/>
    <path id="Path_3731" data-name="Path 3731" d="M48.642,97.653a3.909,3.909,0,0,1-2.873-1.2,1.7,1.7,0,1,0-2.52,2.283,7.258,7.258,0,0,0,5.392,2.316,5.108,5.108,0,0,0,5.2-3.972c.311-1.74-.468-4.01-3.586-5.16-1.419-.524-2.744-1.093-3.188-1.287a.6.6,0,0,1-.191-.554.983.983,0,0,1,.791-.773,3.731,3.731,0,0,1,3.063.715,1.7,1.7,0,0,0,2.178-2.611,7.142,7.142,0,0,0-6.222-1.359A4.387,4.387,0,0,0,43.515,89.6a3.985,3.985,0,0,0,1.778,3.945,1.688,1.688,0,0,0,.236.128c.069.031,1.708.761,3.555,1.441.365.135,1.548.632,1.416,1.372A1.81,1.81,0,0,1,48.642,97.653Z" transform="translate(-35.545 -46.571)" fill="#7b4a8a"/>
    <path id="Path_3732" data-name="Path 3732" d="M329.427,85.79a1.7,1.7,0,0,0-1.7,1.7v8.161a5.16,5.16,0,0,0,2.645,4.506,5.677,5.677,0,0,0,3.1.893h.009a5.981,5.981,0,0,0,2.717-.63,5.251,5.251,0,0,0,3.171-4.778V87.49a1.7,1.7,0,0,0-3.4,0v8.152c0,.537-.154,1.164-1.3,1.741a2.578,2.578,0,0,1-1.187.267h0a2.3,2.3,0,0,1-1.273-.358c-.9-.572-1.076-1.052-1.076-1.641V87.49A1.7,1.7,0,0,0,329.427,85.79Z" transform="translate(-272.118 -46.568)" fill="#7b4a8a"/>
    <path id="Path_3733" data-name="Path 3733" d="M409.1,100.4V96.935h1.6a5.047,5.047,0,1,0,0-10.094h-3.3a1.7,1.7,0,0,0-1.7,1.7V100.4a1.7,1.7,0,1,0,3.4,0Zm0-10.159h1.6a1.648,1.648,0,1,1,0,3.293h-1.6V90.241Z" transform="translate(-336.856 -47.441)" fill="#7b4a8a"/>
    <path id="Path_3734" data-name="Path 3734" d="M69.25,29.7H51.115a1.735,1.735,0,0,0-1.735,1.448,1.7,1.7,0,0,0,1.682,1.952h18.2A14.3,14.3,0,0,1,83.473,46.816,14.033,14.033,0,0,1,69.442,61.175H39.882a5.158,5.158,0,0,0-9.2,0H17.614A14.3,14.3,0,0,1,3.4,47.467,14.036,14.036,0,0,1,17.435,33.105H35.764A1.735,1.735,0,0,0,37.5,31.657a1.7,1.7,0,0,0-1.682-1.952H17.434A17.437,17.437,0,0,0,.009,47.71,17.556,17.556,0,0,0,17.626,64.575h12.5V80.054h0l-.26-.253a5.4,5.4,0,0,0-7.5.013l-.065.064A5.632,5.632,0,0,0,21.92,87.3c2.978,4.039,7.22,9.917,8.409,11.567v4.43a3.2,3.2,0,0,0,3.2,3.2H51.962a3.2,3.2,0,0,0,3.2-3.2v-3.039a23.094,23.094,0,0,0,5.616-15.116v-9.34a5.188,5.188,0,0,0-5.188-5.188h-.142a5.154,5.154,0,0,0-2.3.537h0a5,5,0,0,0-7.8-1.558h0a4.989,4.989,0,0,0-4.909-.986h0V64.575h29a17.434,17.434,0,0,0,17.426-18A17.556,17.556,0,0,0,69.25,29.7ZM40.445,73.351a1.606,1.606,0,0,1,1.846-1.587A1.638,1.638,0,0,1,43.653,73.4V78.26A1.681,1.681,0,0,0,44.8,79.874a1.706,1.706,0,0,0,2.25-1.614V73.4a1.638,1.638,0,0,1,1.362-1.638,1.607,1.607,0,0,1,1.846,1.587v4.856a1.735,1.735,0,0,0,1.448,1.735,1.7,1.7,0,0,0,1.952-1.682V75.806a1.787,1.787,0,0,1,1.787-1.787h.142a1.787,1.787,0,0,1,1.787,1.787V85.847A18.8,18.8,0,0,1,52.207,98.47a1.7,1.7,0,0,0-.445,1.147V103.1H33.73V98.322a1.7,1.7,0,0,0-.32-.993c-.052-.073-5.263-7.311-8.752-12.043a2.234,2.234,0,0,1,.022-2.981l.065-.064a1.977,1.977,0,0,1,2.744-.006L30.6,85.27a1.741,1.741,0,0,0,1.478.495,1.7,1.7,0,0,0,1.441-1.681V63.561a1.792,1.792,0,0,1,1.464-1.784,1.764,1.764,0,0,1,2.059,1.737V78.207a1.735,1.735,0,0,0,1.448,1.735,1.7,1.7,0,0,0,1.952-1.682V73.351Z" transform="translate(0)" fill="#7b4a8a"/>
    <circle id="Ellipse_552" data-name="Ellipse 552" cx="1.697" cy="1.697" r="1.697" transform="translate(41.741 29.709)" fill="#7b4a8a"/>
  </g>
</svg>
