<svg xmlns="http://www.w3.org/2000/svg" xmlns:xlink="http://www.w3.org/1999/xlink" width="309.682" height="180.788" viewBox="0 0 309.682 180.788">
  <defs>
    <clipPath id="clip-path">
      <rect id="Rectangle_1418" data-name="Rectangle 1418" width="309.682" height="180.788" fill="none"/>
    </clipPath>
    <clipPath id="clip-path-4">
      <rect id="Rectangle_1407" data-name="Rectangle 1407" width="66.411" height="34.178" fill="none"/>
    </clipPath>
    <clipPath id="clip-path-5">
      <rect id="Rectangle_1408" data-name="Rectangle 1408" width="10.556" height="10.555" fill="none"/>
    </clipPath>
    <clipPath id="clip-path-6">
      <rect id="Rectangle_1409" data-name="Rectangle 1409" width="14.78" height="7.584" fill="none"/>
    </clipPath>
    <clipPath id="clip-path-7">
      <rect id="Rectangle_1410" data-name="Rectangle 1410" width="3.8" height="2.498" fill="none"/>
    </clipPath>
    <clipPath id="clip-path-8">
      <rect id="Rectangle_1411" data-name="Rectangle 1411" width="12.672" height="6.679" fill="none"/>
    </clipPath>
    <clipPath id="clip-path-9">
      <rect id="Rectangle_1412" data-name="Rectangle 1412" width="2.846" height="3.427" fill="none"/>
    </clipPath>
    <clipPath id="clip-path-10">
      <rect id="Rectangle_1413" data-name="Rectangle 1413" width="13.026" height="5.861" fill="none"/>
    </clipPath>
  </defs>
  <g id="Group_1650" data-name="Group 1650" clip-path="url(#clip-path)">
    <rect id="Rectangle_1388" data-name="Rectangle 1388" width="47.142" height="64.426" transform="translate(262.54 0)" fill="#e0e0e0"/>
    <rect id="Rectangle_1389" data-name="Rectangle 1389" width="43.838" height="60.974" transform="translate(264.18 1.763)" fill="#fafafa"/>
    <rect id="Rectangle_1390" data-name="Rectangle 1390" width="14.301" height="34.928" transform="translate(278.948 16.036)" fill="#e0e0e0"/>
    <rect id="Rectangle_1391" data-name="Rectangle 1391" width="37.228" height="36.578" transform="translate(0 39.787)" fill="#e0e0e0"/>
    <rect id="Rectangle_1392" data-name="Rectangle 1392" width="34.619" height="34.619" transform="translate(1.295 40.788)" fill="#fafafa"/>
    <rect id="Rectangle_1393" data-name="Rectangle 1393" width="11.294" height="11.294" transform="translate(12.957 52.451)" fill="#e0e0e0"/>
    <g id="Group_1624" data-name="Group 1624">
      <g id="Group_1623" data-name="Group 1623" clip-path="url(#clip-path)">
        <path id="Path_3524" data-name="Path 3524" d="M304.973,27.4h-190.1a5.934,5.934,0,0,0-5.934,5.933V167.6a5.934,5.934,0,0,0,5.934,5.934h72.96s4.641,14.351-9.746,21.777h68.221s-16.243-5.569-12.067-21.777h70.732a5.934,5.934,0,0,0,5.933-5.933V33.333a5.934,5.934,0,0,0-5.934-5.934" transform="translate(-57.757 -14.526)" fill="#0c3761"/>
        <path id="Path_3525" data-name="Path 3525" d="M322.181,307.111a3.662,3.662,0,0,1-5.158,5.158,1.329,1.329,0,0,1-.318-.319,3.662,3.662,0,0,1,5.158-5.157,1.3,1.3,0,0,1,.318.318" transform="translate(-167.476 -162.221)" fill="#263238"/>
        <path id="Path_3526" data-name="Path 3526" d="M309.524,159.006H119.608a1.537,1.537,0,0,1-1.537-1.538V46.069a1.537,1.537,0,0,1,1.537-1.538H309.524a1.538,1.538,0,0,1,1.538,1.537v111.4a1.538,1.538,0,0,1-1.538,1.538" transform="translate(-62.598 -23.609)" fill="#fafafa"/>
        <path id="Path_3527" data-name="Path 3527" d="M309.259,158.976H119.344a1.775,1.775,0,0,1-1.773-1.773V45.8a1.774,1.774,0,0,1,1.773-1.773H309.259a1.775,1.775,0,0,1,1.773,1.772V157.2a1.775,1.775,0,0,1-1.773,1.773M119.344,44.5a1.3,1.3,0,0,0-1.3,1.3V157.2a1.3,1.3,0,0,0,1.3,1.3H309.259a1.3,1.3,0,0,0,1.3-1.3V45.8a1.3,1.3,0,0,0-1.3-1.3Z" transform="translate(-62.333 -23.344)" fill="#fff"/>
        <path id="Path_3528" data-name="Path 3528" d="M148.282,52.2a1.541,1.541,0,1,1-1.541-1.541,1.542,1.542,0,0,1,1.541,1.541" transform="translate(-76.98 -26.859)" fill="#455a64"/>
        <path id="Path_3529" data-name="Path 3529" d="M128.4,52.2a1.541,1.541,0,1,1-1.541-1.541A1.541,1.541,0,0,1,128.4,52.2" transform="translate(-66.44 -26.859)" fill="#455a64"/>
        <path id="Path_3530" data-name="Path 3530" d="M137.944,52.2A1.541,1.541,0,1,1,136.4,50.66a1.541,1.541,0,0,1,1.542,1.541" transform="translate(-71.499 -26.859)" fill="#455a64"/>
        <path id="Path_3531" data-name="Path 3531" d="M311.044,63.653c0,.068-43.268.123-96.63.123-53.38,0-96.638-.054-96.638-.123s43.258-.122,96.638-.122c53.362,0,96.63.055,96.63.122" transform="translate(-62.442 -33.682)" fill="#263238"/>
        <rect id="Rectangle_1394" data-name="Rectangle 1394" width="34.867" height="27.876" transform="translate(203.147 40.319) rotate(-0.105)" fill="#f5f5f5"/>
        <rect id="Rectangle_1395" data-name="Rectangle 1395" width="32.418" height="24.366" transform="matrix(1, -0.002, 0.002, 1, 204.353, 42.071)" fill="#ebebeb"/>
        <path id="Path_3532" data-name="Path 3532" d="M435.048,124.293l11.295-15.167,7.031,9.463,4.748-5.075,9.344,10.718Z" transform="translate(-230.65 -57.856)" fill="#e0e0e0"/>
        <path id="Path_3533" data-name="Path 3533" d="M474.585,102.264a2.553,2.553,0,1,1-2.557-2.548,2.553,2.553,0,0,1,2.557,2.548" transform="translate(-248.905 -52.867)" fill="#e0e0e0"/>
        <rect id="Rectangle_1396" data-name="Rectangle 1396" width="34.867" height="27.875" transform="translate(203.147 99.999) rotate(-0.105)" fill="#f5f5f5"/>
        <rect id="Rectangle_1397" data-name="Rectangle 1397" width="32.418" height="24.366" transform="matrix(1, -0.002, 0.002, 1, 204.353, 101.752)" fill="#ebebeb"/>
        <path id="Path_3534" data-name="Path 3534" d="M435.048,251.319l11.295-15.167,7.031,9.463,4.748-5.074,9.344,10.718Z" transform="translate(-230.65 -125.201)" fill="#e0e0e0"/>
        <path id="Path_3535" data-name="Path 3535" d="M474.585,229.29a2.553,2.553,0,1,1-2.557-2.548,2.553,2.553,0,0,1,2.557,2.548" transform="translate(-248.905 -120.212)" fill="#e0e0e0"/>
        <rect id="Rectangle_1398" data-name="Rectangle 1398" width="34.867" height="27.876" transform="translate(63.361 40.319) rotate(-0.105)" fill="#f5f5f5"/>
        <rect id="Rectangle_1399" data-name="Rectangle 1399" width="32.418" height="24.366" transform="matrix(1, -0.002, 0.002, 1, 64.567, 42.071)" fill="#ebebeb"/>
        <path id="Path_3536" data-name="Path 3536" d="M137.521,124.293l11.295-15.167,7.031,9.463,4.748-5.075,9.344,10.718Z" transform="translate(-72.91 -57.856)" fill="#e0e0e0"/>
        <path id="Path_3537" data-name="Path 3537" d="M177.059,102.264a2.553,2.553,0,1,1-2.558-2.548,2.553,2.553,0,0,1,2.558,2.548" transform="translate(-91.165 -52.867)" fill="#e0e0e0"/>
        <rect id="Rectangle_1400" data-name="Rectangle 1400" width="34.867" height="27.875" transform="translate(63.361 70.36) rotate(-0.105)" fill="#f5f5f5"/>
        <rect id="Rectangle_1401" data-name="Rectangle 1401" width="32.418" height="24.366" transform="matrix(1, -0.002, 0.002, 1, 64.567, 72.113)" fill="#ebebeb"/>
        <path id="Path_3538" data-name="Path 3538" d="M137.521,188.234l11.295-15.167,7.031,9.463,4.748-5.074,9.344,10.718Z" transform="translate(-72.91 -91.756)" fill="#e0e0e0"/>
        <path id="Path_3539" data-name="Path 3539" d="M177.059,166.2a2.553,2.553,0,1,1-2.558-2.548,2.553,2.553,0,0,1,2.558,2.548" transform="translate(-91.165 -86.766)" fill="#e0e0e0"/>
        <rect id="Rectangle_1402" data-name="Rectangle 1402" width="34.867" height="27.875" transform="matrix(1, -0.002, 0.002, 1, 63.361, 100.671)" fill="#f5f5f5"/>
        <rect id="Rectangle_1403" data-name="Rectangle 1403" width="32.418" height="24.366" transform="matrix(1, -0.002, 0.002, 1, 64.567, 102.424)" fill="#ebebeb"/>
        <path id="Path_3540" data-name="Path 3540" d="M137.521,252.75l11.295-15.167,7.031,9.463,4.748-5.074,9.344,10.718Z" transform="translate(-72.91 -125.96)" fill="#e0e0e0"/>
        <path id="Path_3541" data-name="Path 3541" d="M177.059,230.721a2.553,2.553,0,1,1-2.558-2.548,2.553,2.553,0,0,1,2.558,2.548" transform="translate(-91.165 -120.971)" fill="#e0e0e0"/>
      </g>
    </g>
    <g id="Group_1647" data-name="Group 1647">
      <g id="Group_1646" data-name="Group 1646" clip-path="url(#clip-path)">
        <path id="Path_3542" data-name="Path 3542" d="M477.51,143.913A6.889,6.889,0,0,0,471.451,146c-2.456,2.465-12.7,11.474-12.7,11.474l-14.838-2.97-2.047,6.624s17.524,5.451,18.8,4.983,10.78-6.905,10.78-6.905Z" transform="translate(-234.267 -76.253)" fill="#8f2225"/>
        <rect id="Rectangle_1405" data-name="Rectangle 1405" width="72.085" height="57.63" transform="translate(156.891 54.496) rotate(-7.735)" fill="#ebebeb"/>
        <path id="Path_3543" data-name="Path 3543" d="M405.2,95.342s-.117.021-.342.054l-1,.143-3.872.541L385.378,98.1l-51.588,7.07.107-.14c2.313,16.995,4.964,36.479,7.77,57.1v.006l-.157-.119,71.432-9.678-.1.131c-2.312-17.21-4.228-31.475-5.568-41.443-.665-4.989-1.186-8.9-1.542-11.573-.175-1.333-.31-2.355-.4-3.051s-.13-1.055-.13-1.055.055.344.152,1.027.239,1.7.424,3.025l1.6,11.539c1.37,9.982,3.331,24.266,5.7,41.5l.016.115-.116.016-71.426,9.725-.139.019-.018-.139v-.006c-2.8-20.619-5.437-40.1-7.741-57.1l-.017-.124.125-.017,51.684-6.957,14.593-1.948,3.852-.508.986-.126c.22-.028.329-.038.329-.038" transform="translate(-176.883 -50.548)" fill="#263238"/>
        <rect id="Rectangle_1406" data-name="Rectangle 1406" width="67.02" height="50.374" transform="matrix(0.991, -0.135, 0.135, 0.991, 159.842, 57.756)" fill="#8f2225"/>
        <path id="Path_3544" data-name="Path 3544" d="M354.644,190.606l18.982-34.178,17,17.461,8.336-11.7,22.088,19.4Z" transform="translate(-188.022 -82.934)" fill="#e8505b"/>
        <path id="Path_3545" data-name="Path 3545" d="M425.654,137.267a5.277,5.277,0,1,1-5.939-4.519,5.277,5.277,0,0,1,5.939,4.519" transform="translate(-220.099 -70.354)" fill="#e8505b"/>
        <g id="Group_1627" data-name="Group 1627" transform="translate(166.622 73.494)" opacity="0.2">
          <g id="Group_1626" data-name="Group 1626">
            <g id="Group_1625" data-name="Group 1625" clip-path="url(#clip-path-4)">
              <path id="Path_3546" data-name="Path 3546" d="M354.644,190.606l18.982-34.178,17,17.461,8.336-11.7,22.088,19.4Z" transform="translate(-354.644 -156.428)"/>
            </g>
          </g>
        </g>
        <g id="Group_1630" data-name="Group 1630" transform="translate(195.048 62.346)" opacity="0.2">
          <g id="Group_1629" data-name="Group 1629">
            <g id="Group_1628" data-name="Group 1628" clip-path="url(#clip-path-5)">
              <path id="Path_3547" data-name="Path 3547" d="M425.654,137.267a5.277,5.277,0,1,1-5.939-4.519,5.277,5.277,0,0,1,5.939,4.519" transform="translate(-415.147 -132.7)"/>
            </g>
          </g>
        </g>
        <path id="Path_3548" data-name="Path 3548" d="M526.6,150.277c.674-4.643-1.483-6.088-4.871-7.491-4.232-1.753-12.29-.881-15.012,1.574l-3.12,9.167c-1.3,1.518-1.1,3.838-.343,5.692s1.961,3.517,2.522,5.438c1.084,3.713.324,7,.066,10.856-.06.891-.745,2.535-.086,3.138a3.2,3.2,0,0,0,2.336.541,46.834,46.834,0,0,0,18.663-4.726c-2.209-4.463-4.649-9.627-3.225-13.049a47.369,47.369,0,0,0,3.07-11.142" transform="translate(-266.493 -75.213)" fill="#8f2225"/>
        <path id="Path_3549" data-name="Path 3549" d="M488.974,162.831l-2.089,7.133s10.941,3.979,16.868,3.907c5.552-.068,7.143-.7,9.1-5.182s4.171-9.634,4.635-12.6a16.037,16.037,0,0,0,.7-3.024c.812-6.085-6.59-7.688-7.671-1.645l-.881,3.239s-2.017,4.557-2.112,4.81c-.892,2.363-2.435,6.148-3.553,6.566s-15-3.2-15-3.2" transform="translate(-258.133 -78.26)" fill="#8f2225"/>
        <path id="Path_3550" data-name="Path 3550" d="M515.526,169.881a.984.984,0,0,1-.057.169l-.191.487c-.172.427-.433,1.054-.812,1.843a25.763,25.763,0,0,1-1.54,2.8,16.758,16.758,0,0,1-2.67,3.285,11.01,11.01,0,0,1-.932.774c-.334.243-.7.458-1.074.677l-.6.27c-.1.044-.2.093-.3.134l-.325.091-.659.183-.689.081a23.156,23.156,0,0,1-5.889-.418,97.269,97.269,0,0,1-13.109-3.429l-.111-.036.033-.114.264-.9c.626-2.134,1.239-4.223,1.828-6.231l.033-.113.114.031c4,1.07,7.787,2.005,11.234,2.632.862.15,1.7.286,2.522.349a5.744,5.744,0,0,0,1.2,0,1.167,1.167,0,0,0,.268-.063.379.379,0,0,0,.191-.152,3.691,3.691,0,0,0,.314-.474c.769-1.329,1.358-2.641,1.919-3.814,1.1-2.361,1.943-4.27,2.527-5.582l.671-1.505.177-.388a.77.77,0,0,1,.067-.129.727.727,0,0,1-.046.138c-.04.1-.092.231-.157.4l-.633,1.522c-.56,1.322-1.381,3.241-2.462,5.614-.553,1.181-1.13,2.492-1.9,3.844a3.84,3.84,0,0,1-.329.5.575.575,0,0,1-.264.207,1.355,1.355,0,0,1-.311.077,5.883,5.883,0,0,1-1.24.009c-.832-.061-1.677-.193-2.544-.34-3.463-.615-7.25-1.542-11.261-2.608l.147-.082c-.587,2.008-1.2,4.1-1.823,6.232-.09.309-.18.617-.264.9l-.078-.15a99.124,99.124,0,0,0,13.068,3.44,23.137,23.137,0,0,0,5.83.439l.673-.076.64-.175.316-.086c.1-.039.2-.086.3-.129l.585-.259c.364-.212.726-.419,1.054-.656a10.8,10.8,0,0,0,.922-.755,16.815,16.815,0,0,0,2.672-3.231,26.905,26.905,0,0,0,1.568-2.764c.392-.78.666-1.4.852-1.82l.213-.477a.988.988,0,0,1,.08-.16" transform="translate(-257.963 -85.002)" fill="#263238"/>
        <path id="Path_3551" data-name="Path 3551" d="M505.437,162.995a12.123,12.123,0,0,1-.761,1.3,9.463,9.463,0,0,0-1.347,3.291,6.213,6.213,0,0,0,.581,3.462,14.181,14.181,0,0,1,.593,1.378c-.015.008-.1-.111-.23-.335s-.318-.552-.521-.973a8.1,8.1,0,0,1-.572-1.545,5.054,5.054,0,0,1-.093-2.025,8.668,8.668,0,0,1,1.442-3.346,7.412,7.412,0,0,1,.908-1.2" transform="translate(-266.69 -86.415)" fill="#263238"/>
        <g id="Group_1633" data-name="Group 1633" transform="translate(239.656 90.846)" opacity="0.2">
          <g id="Group_1632" data-name="Group 1632">
            <g id="Group_1631" data-name="Group 1631" clip-path="url(#clip-path-6)">
              <path id="Path_3552" data-name="Path 3552" d="M510.153,197.289a2.838,2.838,0,0,0,.943,2.166,5.191,5.191,0,0,0,2.134,1.133,9.323,9.323,0,0,0,7.374-1,10.089,10.089,0,0,0,4.268-6.227s-1.378,1.735-2.283,2.636a6.942,6.942,0,0,1-4.222,2.016,24.524,24.524,0,0,1-8.275-.725" transform="translate(-510.092 -193.359)"/>
            </g>
          </g>
        </g>
        <path id="Path_3553" data-name="Path 3553" d="M508.333,148.792a6.1,6.1,0,0,1,.764.366l1.92,1.007.171.09-.167.109-1.328.866-1.237.79-.18.115,0-.208c-.009-.913-.008-1.7,0-2.253a3.964,3.964,0,0,1,.055-.884,3.963,3.963,0,0,1,.088.881c.031.555.061,1.338.086,2.251l-.182-.093,1.235-.8,1.343-.858,0,.2a16.892,16.892,0,0,1-2.575-1.575" transform="translate(-269.47 -78.885)" fill="#fafafa"/>
        <path id="Path_3554" data-name="Path 3554" d="M497.21,158.7a6.1,6.1,0,0,1,.764.366l1.92,1.007.172.09-.167.109-1.328.866-1.236.79-.18.115,0-.208c-.009-.913-.008-1.7,0-2.252a3.961,3.961,0,0,1,.055-.884,3.96,3.96,0,0,1,.088.881c.031.555.061,1.338.086,2.251l-.182-.093,1.235-.8,1.343-.858,0,.2a16.921,16.921,0,0,1-2.575-1.575" transform="translate(-263.573 -84.136)" fill="#fafafa"/>
        <path id="Path_3555" data-name="Path 3555" d="M527.028,158.471a6.16,6.16,0,0,1,.056-.846c.063-.609.137-1.336.222-2.157l.02-.193.163.115,1.3.911,1.193.854.174.124-.193.079c-.845.347-1.572.638-2.092.835a3.941,3.941,0,0,1-.841.277,3.956,3.956,0,0,1,.785-.41c.5-.234,1.22-.553,2.058-.916l-.019.2-1.206-.848-1.3-.928.183-.078a16.92,16.92,0,0,1-.506,2.976" transform="translate(-279.413 -82.323)" fill="#fafafa"/>
        <path id="Path_3556" data-name="Path 3556" d="M507.394,171.026a6.11,6.11,0,0,1,.537-.656l1.434-1.626.128-.145.066.188.527,1.5.475,1.388.069.2-.2-.047c-.889-.208-1.651-.395-2.188-.536a3.943,3.943,0,0,1-.845-.264,3.944,3.944,0,0,1,.877.123c.546.1,1.315.258,2.207.451l-.133.155-.489-1.391-.515-1.508.195.043a16.91,16.91,0,0,1-2.141,2.127" transform="translate(-269.006 -89.386)" fill="#fafafa"/>
        <path id="Path_3557" data-name="Path 3557" d="M522.742,171.724a6.135,6.135,0,0,1,.056-.845c.063-.609.137-1.337.222-2.157l.02-.193.163.115,1.3.911,1.193.855.173.124-.192.08c-.845.347-1.573.638-2.092.835a3.955,3.955,0,0,1-.841.276,3.952,3.952,0,0,1,.785-.41c.5-.234,1.22-.553,2.058-.916l-.019.2-1.206-.848-1.3-.928.183-.078a16.931,16.931,0,0,1-.506,2.976" transform="translate(-277.14 -89.349)" fill="#fafafa"/>
        <path id="Path_3558" data-name="Path 3558" d="M517.285,181.09a6.157,6.157,0,0,1,.056-.846c.063-.609.137-1.336.222-2.157l.02-.193.164.115,1.3.911,1.193.854.173.124-.192.079c-.845.347-1.573.638-2.092.835a3.943,3.943,0,0,1-.841.277,3.939,3.939,0,0,1,.785-.409c.5-.235,1.22-.554,2.058-.917l-.019.2-1.207-.848-1.3-.928.183-.078a16.93,16.93,0,0,1-.506,2.976" transform="translate(-274.247 -94.315)" fill="#fafafa"/>
        <path id="Path_3559" data-name="Path 3559" d="M528.617,212.576a6.161,6.161,0,0,1,.056-.846c.063-.608.137-1.336.222-2.156l.02-.193.164.115,1.3.911,1.193.854.173.124-.192.079c-.845.348-1.573.638-2.092.836a3.942,3.942,0,0,1-.841.277,3.955,3.955,0,0,1,.785-.41c.5-.234,1.22-.553,2.058-.916l-.019.2-1.206-.848-1.3-.928.183-.078a16.923,16.923,0,0,1-.506,2.976" transform="translate(-280.255 -111.008)" fill="#fafafa"/>
        <path id="Path_3560" data-name="Path 3560" d="M538.472,150.364a6.157,6.157,0,0,1,.056-.846c.063-.609.137-1.336.222-2.157l.02-.193.163.115,1.3.911,1.193.854.174.124-.193.079c-.845.347-1.573.638-2.092.835a3.946,3.946,0,0,1-.841.277,3.952,3.952,0,0,1,.785-.41c.5-.234,1.22-.553,2.058-.916l-.019.2-1.207-.848-1.3-.928.183-.078a16.932,16.932,0,0,1-.506,2.976" transform="translate(-285.48 -78.025)" fill="#fafafa"/>
        <path id="Path_3561" data-name="Path 3561" d="M513.9,161.393a6.165,6.165,0,0,1,.056-.846c.063-.609.137-1.336.222-2.157l.02-.193.164.115,1.3.911,1.193.854.173.125-.192.079c-.845.348-1.572.638-2.092.836a3.942,3.942,0,0,1-.841.277,3.953,3.953,0,0,1,.785-.41c.5-.234,1.22-.553,2.058-.916l-.019.2-1.207-.848-1.3-.928.183-.078a16.931,16.931,0,0,1-.506,2.976" transform="translate(-272.452 -83.872)" fill="#fafafa"/>
        <path id="Path_3562" data-name="Path 3562" d="M515.293,209.981a6.184,6.184,0,0,1,.055-.846c.062-.609.137-1.336.222-2.157l.02-.193.163.115,1.3.911,1.193.854.174.124-.192.079c-.845.347-1.573.638-2.092.835a3.961,3.961,0,0,1-.841.277,3.922,3.922,0,0,1,.785-.41c.5-.234,1.22-.553,2.058-.916l-.018.2-1.207-.848-1.3-.928.184-.078a17.028,17.028,0,0,1-.506,2.976" transform="translate(-273.191 -109.632)" fill="#fafafa"/>
        <path id="Path_3563" data-name="Path 3563" d="M541.624,169.363a6.157,6.157,0,0,1,.056-.846c.063-.609.137-1.336.222-2.157l.02-.193.164.115,1.3.911,1.193.854.174.124-.193.079c-.845.347-1.573.638-2.092.835a3.944,3.944,0,0,1-.841.277,3.948,3.948,0,0,1,.785-.41c.5-.234,1.22-.553,2.058-.916l-.019.2-1.207-.848-1.3-.928.183-.078a16.932,16.932,0,0,1-.505,2.976" transform="translate(-287.151 -88.098)" fill="#fafafa"/>
        <path id="Path_3564" data-name="Path 3564" d="M530.219,192.006a6.152,6.152,0,0,1,.056-.846c.063-.609.137-1.336.222-2.157l.02-.193.164.115,1.3.911,1.193.854.174.124-.193.079c-.845.348-1.573.638-2.092.836a3.944,3.944,0,0,1-.841.277,3.95,3.95,0,0,1,.785-.41c.5-.234,1.22-.553,2.058-.916l-.019.2-1.207-.848-1.3-.928.183-.078a16.934,16.934,0,0,1-.505,2.976" transform="translate(-281.104 -100.102)" fill="#fafafa"/>
        <path id="Path_3565" data-name="Path 3565" d="M539.737,202.492a6.152,6.152,0,0,1,.056-.846c.063-.609.137-1.336.222-2.157l.02-.193.163.115,1.3.911,1.193.854.173.124-.192.079c-.845.348-1.572.638-2.092.836a3.942,3.942,0,0,1-.841.277,3.953,3.953,0,0,1,.785-.41c.5-.234,1.22-.553,2.058-.916l-.019.2-1.207-.848-1.3-.928.183-.078a16.931,16.931,0,0,1-.506,2.976" transform="translate(-286.15 -105.662)" fill="#fafafa"/>
        <path id="Path_3566" data-name="Path 3566" d="M533.221,180.494a6.128,6.128,0,0,1,.056-.846c.063-.609.137-1.336.222-2.157l.02-.193.164.115,1.3.911,1.193.854.173.124-.192.079c-.845.348-1.573.639-2.092.836a3.943,3.943,0,0,1-.841.277,3.953,3.953,0,0,1,.785-.41c.5-.234,1.22-.553,2.058-.916l-.019.2-1.206-.848-1.3-.928.183-.078a16.913,16.913,0,0,1-.505,2.976" transform="translate(-282.696 -93.999)" fill="#fafafa"/>
        <path id="Path_3567" data-name="Path 3567" d="M502.719,193.977a6.164,6.164,0,0,1,.056-.846c.062-.608.137-1.336.222-2.157l.02-.193.163.115,1.3.911,1.193.854.173.125-.192.079c-.845.348-1.573.639-2.092.836a3.941,3.941,0,0,1-.841.277,3.955,3.955,0,0,1,.785-.41c.5-.234,1.22-.553,2.058-.916l-.019.2-1.207-.848-1.3-.928.183-.078a16.922,16.922,0,0,1-.506,2.976" transform="translate(-266.525 -101.147)" fill="#fafafa"/>
        <path id="Path_3568" data-name="Path 3568" d="M517.755,190.81a6.152,6.152,0,0,1,.056-.846c.063-.609.137-1.336.222-2.157l.02-.193.164.115,1.3.911,1.193.854.173.124-.192.079c-.845.347-1.573.638-2.092.835a3.943,3.943,0,0,1-.841.277,3.952,3.952,0,0,1,.785-.41c.5-.234,1.22-.553,2.058-.916l-.019.2-1.206-.848-1.3-.928.183-.078a16.931,16.931,0,0,1-.506,2.976" transform="translate(-274.496 -99.468)" fill="#fafafa"/>
        <path id="Path_3569" data-name="Path 3569" d="M491.592,187.23a6.152,6.152,0,0,1,.056-.846c.063-.609.137-1.336.222-2.157l.02-.193.164.115,1.3.911,1.193.854.173.124-.192.079c-.845.347-1.573.638-2.092.835a3.943,3.943,0,0,1-.841.277,3.954,3.954,0,0,1,.785-.41c.5-.234,1.22-.553,2.058-.916l-.019.2-1.207-.848-1.3-.928.183-.078a16.925,16.925,0,0,1-.506,2.976" transform="translate(-260.625 -97.57)" fill="#fafafa"/>
        <path id="Path_3570" data-name="Path 3570" d="M547.089,158.1a6.085,6.085,0,0,1-.821-.211l-2.078-.617L544,157.22l.143-.14,1.136-1.107,1.06-1.015.154-.148.042.2c.186.895.336,1.664.434,2.211a3.956,3.956,0,0,1,.116.878,3.955,3.955,0,0,1-.257-.847c-.138-.538-.319-1.3-.52-2.192l.2.056-1.056,1.029-1.151,1.1-.043-.195a16.881,16.881,0,0,1,2.831,1.047" transform="translate(-288.416 -82.076)" fill="#fafafa"/>
        <path id="Path_3571" data-name="Path 3571" d="M448.851,367.941l2.062-3.989,7.5,3.815-2.955,5.867-.48-.207c-2.127-.938-10.749-4.918-11.918-6.041-1.3-1.253,5.795.554,5.795.554" transform="translate(-234.811 -192.957)" fill="#8f2225"/>
        <g id="Group_1636" data-name="Group 1636" transform="translate(217.955 178.068)" opacity="0.5">
          <g id="Group_1635" data-name="Group 1635">
            <g id="Group_1634" data-name="Group 1634" clip-path="url(#clip-path-7)">
              <path id="Path_3572" data-name="Path 3572" d="M463.9,380.174a2.919,2.919,0,0,1,1.77-1.112,2.837,2.837,0,0,1,2.03.347l-1.065,2.1Z" transform="translate(-463.904 -379.007)" fill="#8f2225"/>
            </g>
          </g>
        </g>
        <g id="Group_1639" data-name="Group 1639" transform="translate(208.044 173.998)" opacity="0.4">
          <g id="Group_1638" data-name="Group 1638">
            <g id="Group_1637" data-name="Group 1637" clip-path="url(#clip-path-8)">
              <path id="Path_3573" data-name="Path 3573" d="M445.28,370.558s-2.56-.492-2.469.017,8.652,4.859,12.6,6.448l.073-.173-10.029-4.989s.255-1.062-.172-1.3" transform="translate(-442.809 -370.344)" fill="#fff"/>
            </g>
          </g>
        </g>
        <path id="Path_3574" data-name="Path 3574" d="M455.673,377.023a.749.749,0,0,1-.136-.052l-.382-.165-1.393-.634c-1.172-.543-2.781-1.315-4.54-2.207s-3.333-1.735-4.463-2.359l-1.334-.749-.359-.21a.828.828,0,0,1-.122-.079.722.722,0,0,1,.132.061l.368.193,1.349.721c1.139.608,2.717,1.44,4.476,2.332s3.361,1.673,4.524,2.233l1.378.663.374.183a.758.758,0,0,1,.127.07" transform="translate(-234.836 -196.464)" fill="#fff"/>
        <path id="Path_3575" data-name="Path 3575" d="M448.171,372.086a2.22,2.22,0,0,0-.124-1.538,1.359,1.359,0,0,1,.124,1.538" transform="translate(-237.541 -196.454)" fill="#fff"/>
        <path id="Path_3576" data-name="Path 3576" d="M454.119,372.894a1.711,1.711,0,1,1,.011-.418.881.881,0,0,1-.011.418" transform="translate(-240.706 -197.26)" fill="#fff"/>
        <path id="Path_3577" data-name="Path 3577" d="M455.578,373.056c-.026.01-.1-.129-.175-.311s-.106-.337-.079-.348.1.129.175.311.106.337.079.348" transform="translate(-241.395 -197.434)" fill="#fff"/>
        <path id="Path_3578" data-name="Path 3578" d="M456.568,372.263a.987.987,0,0,1-.417-.149c-.218-.108-.383-.215-.371-.241a1.006,1.006,0,0,1,.417.149c.218.108.384.215.371.241" transform="translate(-241.641 -197.154)" fill="#fff"/>
        <path id="Path_3579" data-name="Path 3579" d="M457.237,371.351a1.238,1.238,0,0,1-.921-.384,37.837,37.837,0,0,0,.921.384" transform="translate(-241.925 -196.675)" fill="#fff"/>
        <path id="Path_3580" data-name="Path 3580" d="M453.029,370.739a1.56,1.56,0,0,1-.48-.248,3.136,3.136,0,0,1-.456-.374,1.583,1.583,0,0,1-.232-.27.294.294,0,0,1-.043-.21.213.213,0,0,1,.171-.156.992.992,0,0,1,.961.814.974.974,0,0,1-.006.4c-.023.092-.048.138-.054.136a1.514,1.514,0,0,0-.01-.522.977.977,0,0,0-.276-.477.836.836,0,0,0-.594-.252c-.105.017-.121.123-.062.217a1.593,1.593,0,0,0,.212.253,3.777,3.777,0,0,0,.431.382c.263.2.446.291.438.306" transform="translate(-239.538 -195.888)" fill="#fff"/>
        <path id="Path_3581" data-name="Path 3581" d="M454.106,371.235a.535.535,0,0,1,.115-.363.885.885,0,0,1,.31-.285.543.543,0,0,1,.526-.042.215.215,0,0,1,.035.3.6.6,0,0,1-.191.174,1.644,1.644,0,0,1-.375.176.778.778,0,0,1-.375.055c0-.016.14-.038.35-.123a1.88,1.88,0,0,0,.349-.187c.118-.069.256-.228.147-.311a.484.484,0,0,0-.421.043.887.887,0,0,0-.3.244,2,2,0,0,0-.173.321" transform="translate(-240.752 -196.424)" fill="#fff"/>
        <path id="Path_3582" data-name="Path 3582" d="M467.712,379.18c-.01.016-.2-.13-.564-.262a2.634,2.634,0,0,0-2.759.568c-.278.263-.4.474-.414.463a.482.482,0,0,1,.077-.151,2.219,2.219,0,0,1,.287-.363,2.556,2.556,0,0,1,2.836-.583,2.23,2.23,0,0,1,.407.22c.089.063.134.1.13.109" transform="translate(-245.986 -200.75)" fill="#fff"/>
        <path id="Path_3583" data-name="Path 3583" d="M471.926,372.294a29.217,29.217,0,0,1-1.527,3.1,29.453,29.453,0,0,1,1.527-3.1" transform="translate(-249.392 -197.38)" fill="#fff"/>
        <path id="Path_3584" data-name="Path 3584" d="M460.2,377.68a6.914,6.914,0,0,1-2.2-1.093c.016-.025.49.254,1.1.554s1.115.511,1.1.539" transform="translate(-242.819 -199.655)" fill="#fff"/>
        <path id="Path_3585" data-name="Path 3585" d="M465.347,380.487c.009.028-.093.084-.2.171s-.185.172-.21.158.022-.138.147-.238.257-.117.264-.091" transform="translate(-246.493 -201.717)" fill="#fff"/>
        <path id="Path_3586" data-name="Path 3586" d="M467.26,379.615c.009.027-.079.08-.2.119s-.22.049-.229.023.079-.08.2-.119.22-.049.229-.023" transform="translate(-247.502 -201.253)" fill="#fff"/>
        <path id="Path_3587" data-name="Path 3587" d="M469.207,379.648c-.018.023-.117-.029-.247-.046s-.239,0-.25-.026.1-.1.264-.075.252.127.233.147" transform="translate(-248.496 -201.199)" fill="#fff"/>
        <path id="Path_3588" data-name="Path 3588" d="M470.826,380.037c0,.028-.065.045-.14.037s-.133-.036-.13-.064.065-.045.14-.037.133.036.13.064" transform="translate(-249.475 -201.45)" fill="#fff"/>
        <path id="Path_3589" data-name="Path 3589" d="M555.306,367.364l-1.787-4.119,7.695-3.4,2.678,6-.463.241c-2.071,1.055-10.606,5.218-12.216,5.415-1.795.218,4.093-4.139,4.093-4.139" transform="translate(-292.057 -190.782)" fill="#8f2225"/>
        <g id="Group_1642" data-name="Group 1642" transform="translate(268.932 172.81)" opacity="0.5">
          <g id="Group_1641" data-name="Group 1641">
            <g id="Group_1640" data-name="Group 1640" clip-path="url(#clip-path-9)">
              <path id="Path_3590" data-name="Path 3590" d="M572.492,371.242a2.915,2.915,0,0,1,.258-2.074,2.831,2.831,0,0,1,1.551-1.353l.951,2.149Z" transform="translate(-572.406 -367.815)" fill="#8f2225"/>
            </g>
          </g>
        </g>
        <g id="Group_1645" data-name="Group 1645" transform="translate(258.809 174.899)" opacity="0.4">
          <g id="Group_1644" data-name="Group 1644">
            <g id="Group_1643" data-name="Group 1643" clip-path="url(#clip-path-10)">
              <path id="Path_3591" data-name="Path 3591" d="M552.472,376.188s-2,1.672-1.547,1.923,9.235-3.631,12.96-5.683l-.088-.167-10.206,4.617s-.662-.869-1.118-.69" transform="translate(-550.858 -372.262)" fill="#fff"/>
            </g>
          </g>
        </g>
        <path id="Path_3592" data-name="Path 3592" d="M563.922,372.139a.766.766,0,0,1-.126.073l-.37.191-1.371.678c-1.162.564-2.778,1.323-4.58,2.122s-3.451,1.486-4.65,1.967l-1.424.56-.389.146a.8.8,0,0,1-.139.044.778.778,0,0,1,.131-.063l.383-.163,1.411-.59c1.191-.5,2.834-1.2,4.636-1.993s3.421-1.546,4.591-2.094l1.385-.649.378-.173a.752.752,0,0,1,.135-.055" transform="translate(-292.057 -197.297)" fill="#fff"/>
        <path id="Path_3593" data-name="Path 3593" d="M555.356,381.34a3.435,3.435,0,0,0-.556-.552,3.475,3.475,0,0,0-.713-.325,1.357,1.357,0,0,1,1.269.877" transform="translate(-293.761 -201.705)" fill="#fff"/>
        <path id="Path_3594" data-name="Path 3594" d="M559.758,377.23c-.015.023-.183-.061-.373-.188s-.332-.249-.316-.272.182.061.373.188.332.249.317.272" transform="translate(-296.402 -199.751)" fill="#fff"/>
        <path id="Path_3595" data-name="Path 3595" d="M560.8,376.208c-.009.027-.166,0-.351-.061s-.328-.131-.32-.158.166,0,.351.061.328.131.32.158" transform="translate(-296.963 -199.334)" fill="#fff"/>
        <path id="Path_3596" data-name="Path 3596" d="M560.8,374.544c.011.026-.158.128-.379.229a.992.992,0,0,1-.421.136c-.012-.026.158-.128.379-.229a.987.987,0,0,1,.422-.136" transform="translate(-296.898 -198.57)" fill="#fff"/>
        <path id="Path_3597" data-name="Path 3597" d="M560.52,373.331c.019.019-.138.194-.39.328a.856.856,0,0,1-.49.143,2.678,2.678,0,0,1,.442-.233,2.706,2.706,0,0,1,.438-.238" transform="translate(-296.705 -197.928)" fill="#fff"/>
        <path id="Path_3598" data-name="Path 3598" d="M557.477,376.186a1.563,1.563,0,0,1-.5.216,3.208,3.208,0,0,1-.578.117,1.578,1.578,0,0,1-.356.009.292.292,0,0,1-.19-.1.212.212,0,0,1-.013-.231.992.992,0,0,1,1.238-.23.958.958,0,0,1,.307.258c.057.076.077.125.072.128a1.527,1.527,0,0,0-.412-.322.974.974,0,0,0-.544-.088.837.837,0,0,0-.571.3c-.053.093.019.172.129.185a1.619,1.619,0,0,0,.33,0,3.751,3.751,0,0,0,.568-.093c.319-.078.508-.162.514-.146" transform="translate(-294.678 -199.262)" fill="#fff"/>
        <path id="Path_3599" data-name="Path 3599" d="M558.82,375.412a.532.532,0,0,1-.209-.318.888.888,0,0,1-.025-.421.542.542,0,0,1,.3-.434.215.215,0,0,1,.253.161.582.582,0,0,1,.014.258,1.645,1.645,0,0,1-.1.4.787.787,0,0,1-.194.325c-.014-.008.059-.132.126-.349a1.866,1.866,0,0,0,.076-.388c.022-.134-.015-.342-.148-.311s-.2.222-.233.354a.887.887,0,0,0,0,.383,1.993,1.993,0,0,0,.139.337" transform="translate(-296.139 -198.407)" fill="#fff"/>
        <path id="Path_3600" data-name="Path 3600" d="M574.129,367.8c.006.018-.23.077-.559.271a2.636,2.636,0,0,0-1.3,2.5c.028.382.115.608.1.614a.5.5,0,0,1-.069-.155,2.226,2.226,0,0,1-.1-.452,2.556,2.556,0,0,1,1.341-2.567,2.2,2.2,0,0,1,.428-.176.481.481,0,0,1,.167-.032" transform="translate(-303.351 -194.999)" fill="#fff"/>
        <path id="Path_3601" data-name="Path 3601" d="M571.622,361.743a29.21,29.21,0,0,1,1.438,3.144,29.172,29.172,0,0,1-1.438-3.144" transform="translate(-303.057 -191.786)" fill="#fff"/>
        <path id="Path_3602" data-name="Path 3602" d="M567.3,374.422a6.905,6.905,0,0,1-2.239,1.015c-.009-.028.507-.219,1.123-.5s1.1-.54,1.116-.515" transform="translate(-299.577 -198.507)" fill="#fff"/>
        <path id="Path_3603" data-name="Path 3603" d="M572.92,373c.027.01.006.125.006.263s.017.252-.01.263-.094-.1-.092-.264.071-.273.1-.262" transform="translate(-303.695 -197.753)" fill="#fff"/>
        <path id="Path_3604" data-name="Path 3604" d="M573.379,370.96c.026.01.012.112-.032.228s-.1.2-.127.192-.012-.112.032-.228.1-.2.127-.192" transform="translate(-303.898 -196.672)" fill="#fff"/>
        <path id="Path_3605" data-name="Path 3605" d="M574.57,369.492c.006.029-.1.073-.192.163s-.15.186-.178.177-.011-.143.109-.252.258-.115.261-.087" transform="translate(-304.419 -195.887)" fill="#fff"/>
        <path id="Path_3606" data-name="Path 3606" d="M575.864,368.632c.02.02-.007.079-.06.132s-.112.079-.132.06.007-.079.06-.132.112-.08.132-.06" transform="translate(-305.202 -195.435)" fill="#fff"/>
        <path id="Path_3607" data-name="Path 3607" d="M542.685,296.445,531.856,302.6l-15.179-30.42c-2.255-8.132-4.427-36.76-4.427-36.76l12.509.955s1.927,20.552,4.954,31.143Z" transform="translate(-271.58 -124.814)" fill="#263238"/>
        <path id="Path_3608" data-name="Path 3608" d="M500.305,208.818c.3-.017,2.492,8.471-.179,13.586-.26.5-2.18,3.277-2.18,3.277-6.816,8.042-13.722,23.643-15.651,27.741-3.956,8.407-18.537,36.062-18.537,36.062l-9.365-5.363,13.694-35.207,11.741-34.547Z" transform="translate(-240.906 -110.709)" fill="#263238"/>
        <path id="Path_3609" data-name="Path 3609" d="M528.431,255.068a5.221,5.221,0,0,0-.4.693l-1.013,1.921c-.855,1.622-2.056,3.851-3.389,6.311s-2.513,4.705-3.33,6.348c-.409.821-.733,1.489-.948,1.955a5.223,5.223,0,0,0-.314.733,5.189,5.189,0,0,0,.4-.693l1.013-1.92c.855-1.622,2.057-3.851,3.389-6.313s2.513-4.7,3.33-6.347c.409-.821.733-1.489.948-1.955a5.15,5.15,0,0,0,.314-.733" transform="translate(-275.18 -135.23)" fill="#455a64"/>
        <path id="Path_3610" data-name="Path 3610" d="M475.228,181.2a45.6,45.6,0,0,1-4.933-.676c-2.008-.486-1.971-.669-1.881-.9.244-.609,3.561.72,3,.017s-4.234-1.15-3.953-1.775c.366-.815,3.815.641,4.116.742s.446-.333.17-.41c-.4-.11-4.533-1.376-4.181-2.18.195-.446.958,0,.958,0s3.791,1.472,3.944,1.086-2.043-1.331-2.8-1.6-.945-.728-.561-.969a12.909,12.909,0,0,1,3.363.868c.748.279,2.788,1.081,2.082-.139a3.689,3.689,0,0,1-.605-2.756c.2-.338.736-.174.781.26a5.238,5.238,0,0,0,.472,1.34,3.43,3.43,0,0,0,.644.94c.23.237.441.44.633.619l1.674,1.582-1.164,4.106Z" transform="translate(-247.828 -91.366)" fill="#ffbe9d"/>
        <path id="Path_3611" data-name="Path 3611" d="M514.512,94.863a3.382,3.382,0,0,0-2.984-1.3,7.077,7.077,0,0,0-6.652,5.653,28.064,28.064,0,0,1-.495,3.842,10.694,10.694,0,0,1-1.354,2.448,6.519,6.519,0,0,0-1.136,2.541,2.547,2.547,0,0,0,.934,2.49,3.118,3.118,0,0,0,2.753,5.256c.685-.118,1.419-.456,2.033-.131a3.382,3.382,0,0,1,.754.711,3.553,3.553,0,0,0,3.765.635,6.583,6.583,0,0,0,2.978-2.64c.2-.3.454-.644.808-.608a1.116,1.116,0,0,1,.535.3,3.167,3.167,0,0,0,4.331-4.586,3.649,3.649,0,0,0,2.377-2.382,5.291,5.291,0,0,0-.132-3.435,13.7,13.7,0,0,0-2.915-4.259c-1.053-1.184-1.364-3.013-2.417-4.2A3.374,3.374,0,0,0,515.73,93.9a3.881,3.881,0,0,0-2.254.5" transform="translate(-266.071 -49.606)" fill="#263238"/>
        <path id="Path_3612" data-name="Path 3612" d="M517.1,97.523a5.886,5.886,0,0,1,5.886,5.949l-.173,16.091a3.789,3.789,0,0,1-4.008,3.614,4,4,0,0,1-4.025-3.835c-.007-2.175-.054-4.465-.054-4.465s-2.8-.465-3.382-4.121c-.146-.919-.156-4.29-.129-7.4a5.885,5.885,0,0,1,5.886-5.834" transform="translate(-271.025 -51.704)" fill="#ffbe9d"/>
        <path id="Path_3613" data-name="Path 3613" d="M513,114.23a.469.469,0,0,0,.452.473.449.449,0,0,0,.483-.423.468.468,0,0,0-.451-.473.449.449,0,0,0-.484.423" transform="translate(-271.979 -60.337)" fill="#263238"/>
        <path id="Path_3614" data-name="Path 3614" d="M512.778,113.035c.058.061.413-.2.918-.2s.874.254.929.192c.027-.027-.032-.138-.194-.255a1.286,1.286,0,0,0-.744-.229,1.236,1.236,0,0,0-.731.236c-.155.119-.208.23-.179.257" transform="translate(-271.856 -59.667)" fill="#263238"/>
        <path id="Path_3615" data-name="Path 3615" d="M523.751,114.23a.469.469,0,0,0,.452.473.449.449,0,0,0,.484-.423.469.469,0,0,0-.452-.473.449.449,0,0,0-.484.423" transform="translate(-277.678 -60.337)" fill="#263238"/>
        <path id="Path_3616" data-name="Path 3616" d="M523.332,113.235c.058.061.413-.2.918-.2s.874.253.929.192c.027-.027-.032-.138-.194-.255a1.286,1.286,0,0,0-.744-.229,1.237,1.237,0,0,0-.731.236c-.155.119-.208.23-.179.257" transform="translate(-277.452 -59.773)" fill="#263238"/>
        <path id="Path_3617" data-name="Path 3617" d="M517.994,117.011a3.368,3.368,0,0,0-.819-.148c-.129-.014-.251-.039-.272-.127a.651.651,0,0,1,.086-.381l.381-.981a16.875,16.875,0,0,0,.856-2.566,16.877,16.877,0,0,0-1.06,2.49c-.127.345-.25.673-.365.988a.743.743,0,0,0-.067.505.322.322,0,0,0,.211.189.865.865,0,0,0,.219.031,3.277,3.277,0,0,0,.831,0" transform="translate(-273.944 -59.808)" fill="#263238"/>
        <path id="Path_3618" data-name="Path 3618" d="M518.7,132.987a9.3,9.3,0,0,0,4.9-1.306s-1.188,2.511-4.846,2.169Z" transform="translate(-275.001 -69.814)" fill="#eb996e"/>
        <path id="Path_3619" data-name="Path 3619" d="M519.841,123.955a.909.909,0,0,1,.815-.338.829.829,0,0,1,.573.308.526.526,0,0,1,.04.6.612.612,0,0,1-.662.167,1.911,1.911,0,0,1-.645-.385.569.569,0,0,1-.144-.149.169.169,0,0,1,0-.188" transform="translate(-275.578 -65.535)" fill="#eb996e"/>
        <path id="Path_3620" data-name="Path 3620" d="M520.789,122.5c-.082,0-.083.543-.552.932s-1.051.328-1.056.4c-.008.034.13.106.376.113a1.362,1.362,0,0,0,.881-.307,1.185,1.185,0,0,0,.428-.781c.021-.229-.04-.365-.078-.361" transform="translate(-275.255 -64.944)" fill="#263238"/>
        <path id="Path_3621" data-name="Path 3621" d="M523.292,110.358c.05.137.554.072,1.146.144s1.071.233,1.149.109c.035-.059-.048-.188-.242-.321a2.007,2.007,0,0,0-1.748-.193c-.218.087-.327.2-.305.26" transform="translate(-277.433 -58.308)" fill="#263238"/>
        <path id="Path_3622" data-name="Path 3622" d="M513.165,109.893c.089.115.436,0,.854-.01s.772.077.853-.043c.036-.058-.02-.173-.175-.282a1.238,1.238,0,0,0-1.376.043c-.148.118-.2.236-.157.292" transform="translate(-272.059 -57.985)" fill="#263238"/>
        <path id="Path_3623" data-name="Path 3623" d="M523.258,102.611a7.515,7.515,0,0,0-3.2-5.611,12.219,12.219,0,0,0-8.9.865,6.172,6.172,0,0,0-1.883,3.857,8.906,8.906,0,0,0,.66,4.291l.281-3.7a8.763,8.763,0,0,0,4.715-4.334,7.733,7.733,0,0,0,5.54,5.4,6.333,6.333,0,0,0,2.172,5.868,20.866,20.866,0,0,0,.623-6.628" transform="translate(-269.974 -50.941)" fill="#263238"/>
        <path id="Path_3624" data-name="Path 3624" d="M532.938,112.494a9.708,9.708,0,0,1-.56,4.255,5.51,5.51,0,0,0,.18,4.21,2.2,2.2,0,0,1,.507,1.121,4.143,4.143,0,0,1-.38,1.039,1.626,1.626,0,0,0,.729,1.761,2.667,2.667,0,0,0,1.975.283,7.941,7.941,0,0,0,1.9-.748l1.782-.887a3.069,3.069,0,0,0,.748-.467,2.518,2.518,0,0,0,.648-1.327,8.041,8.041,0,0,0-.95-5.609c-.952-1.689-.529-4.5-2.167-5.535" transform="translate(-282.079 -58.631)" fill="#263238"/>
        <path id="Path_3625" data-name="Path 3625" d="M533.757,116.557a3.556,3.556,0,0,0,.954-.375,3.041,3.041,0,0,0,1.409-2.278,3.779,3.779,0,0,0-.319-1.865,4.442,4.442,0,0,0-.545-.913c-.227-.289-.493-.564-.769-.85a7.868,7.868,0,0,1-.8-.936,2.7,2.7,0,0,1-.487-1.22c-.111-.9.229-1.789.084-2.652a1.648,1.648,0,0,0-.646-1.05,4.067,4.067,0,0,0-1.145-.553,8.607,8.607,0,0,1-2.289-1.02A15.5,15.5,0,0,1,526.075,100c-.789-.909-1.361-1.7-1.752-2.242-.194-.274-.341-.489-.436-.638a1.142,1.142,0,0,1-.137-.233,1.09,1.09,0,0,1,.177.2l.473.61c.412.527,1,1.3,1.8,2.183a15.93,15.93,0,0,0,3.118,2.769,8.511,8.511,0,0,0,2.245.983,4.256,4.256,0,0,1,1.215.586,1.893,1.893,0,0,1,.74,1.2c.151.963-.194,1.842-.086,2.668a3.682,3.682,0,0,0,1.216,2.029,11.594,11.594,0,0,1,.776.874,4.635,4.635,0,0,1,.561.965,3.924,3.924,0,0,1,.3,1.964,3.081,3.081,0,0,1-.607,1.523,2.978,2.978,0,0,1-.927.819,2.418,2.418,0,0,1-.732.269.91.91,0,0,1-.27.024" transform="translate(-277.677 -51.367)" fill="#455a64"/>
        <path id="Path_3626" data-name="Path 3626" d="M533.417,101.823a1.265,1.265,0,0,1-.39-.079A10.575,10.575,0,0,1,532,101.4a15.719,15.719,0,0,1-5.855-3.982,10.454,10.454,0,0,1-.695-.826c-.153-.2-.231-.322-.218-.333.031-.025.4.4,1.037,1.039a18.857,18.857,0,0,0,5.8,3.941c.828.362,1.36.544,1.348.582" transform="translate(-278.464 -51.034)" fill="#455a64"/>
        <path id="Path_3627" data-name="Path 3627" d="M515.3,94.892c-.019-.024.168-.227.535-.483a3.08,3.08,0,0,1,1.655-.573,2.118,2.118,0,0,1,.968.2,1.778,1.778,0,0,1,.627.511c.281.377.276.686.25.685a4.686,4.686,0,0,0-.383-.573,1.9,1.9,0,0,0-1.458-.58,3.437,3.437,0,0,0-1.569.476,3.142,3.142,0,0,1-.625.336" transform="translate(-273.195 -49.749)" fill="#455a64"/>
      </g>
    </g>
    <rect id="Rectangle_1415" data-name="Rectangle 1415" width="93.7" height="93.7" transform="translate(101.832 35.63)" fill="#f5f5f5"/>
    <g id="Group_1649" data-name="Group 1649">
      <g id="Group_1648" data-name="Group 1648" clip-path="url(#clip-path)">
        <path id="Path_3628" data-name="Path 3628" d="M310.306,169.4c0-.9-.042-37.531-.106-93.7l.106.105-93.691.016h-.009l.122-.122c-.006,34.312-.012,66.468-.016,93.7l-.106-.105,93.7.105-93.7.106H216.5V169.4c0-27.232-.01-59.388-.016-93.7v-.123h.132l93.691.016h.106V75.7c-.063,56.169-.1,92.8-.106,93.7" transform="translate(-114.773 -40.068)" fill="#263238"/>
        <path id="Path_3629" data-name="Path 3629" d="M398.294,260.2a16.349,16.349,0,0,1,2.819-.122c-.244.244-.068.067-.122.121h0v-.286c0-.094,0-.188,0-.28,0-.18,0-.356.007-.53.009-.308.018-.606.026-.9a2.819,2.819,0,0,1,.086-.826,2.819,2.819,0,0,1,.086.826c.008.29.017.588.026.9,0,.174,0,.35.007.53,0,.093,0,.186,0,.28v.286h0c-.055.055.123-.121-.122.123a16.345,16.345,0,0,1-2.819-.122" transform="translate(-211.164 -136.459)" fill="#455a64"/>
        <path id="Path_3630" data-name="Path 3630" d="M373.114,263.248a35.863,35.863,0,0,1,5.915,0,35.872,35.872,0,0,1-5.915,0" transform="translate(-197.815 -139.502)" fill="#455a64"/>
        <path id="Path_3631" data-name="Path 3631" d="M347.935,263.248a35.863,35.863,0,0,1,5.915,0,35.872,35.872,0,0,1-5.915,0" transform="translate(-184.465 -139.502)" fill="#455a64"/>
        <path id="Path_3632" data-name="Path 3632" d="M322.756,263.248a35.863,35.863,0,0,1,5.915,0,35.872,35.872,0,0,1-5.915,0" transform="translate(-171.116 -139.502)" fill="#455a64"/>
        <path id="Path_3633" data-name="Path 3633" d="M297.577,263.248a35.863,35.863,0,0,1,5.915,0,35.872,35.872,0,0,1-5.915,0" transform="translate(-157.767 -139.502)" fill="#455a64"/>
        <path id="Path_3634" data-name="Path 3634" d="M272.4,263.248a35.863,35.863,0,0,1,5.915,0,35.872,35.872,0,0,1-5.915,0" transform="translate(-144.417 -139.502)" fill="#455a64"/>
        <path id="Path_3635" data-name="Path 3635" d="M247.218,263.248a35.863,35.863,0,0,1,5.915,0,35.872,35.872,0,0,1-5.915,0" transform="translate(-131.068 -139.502)" fill="#455a64"/>
        <path id="Path_3636" data-name="Path 3636" d="M228.49,257.386a16.316,16.316,0,0,1,.123,2.819c-.245-.244-.067-.068-.122-.122h.287l.28,0,.53.007.9.026a2.819,2.819,0,0,1,.825.086,2.818,2.818,0,0,1-.825.086l-.9.026-.53.007-.28,0h-.287c-.055-.055.121.123-.123-.122a16.343,16.343,0,0,1,.122-2.819" transform="translate(-121.074 -136.459)" fill="#455a64"/>
        <path id="Path_3637" data-name="Path 3637" d="M228.49,232.207a35.725,35.725,0,0,1,0,5.915,35.863,35.863,0,0,1,0-5.915" transform="translate(-121.074 -123.11)" fill="#455a64"/>
        <path id="Path_3638" data-name="Path 3638" d="M228.49,207.028a35.725,35.725,0,0,1,0,5.915,35.863,35.863,0,0,1,0-5.915" transform="translate(-121.074 -109.76)" fill="#455a64"/>
        <path id="Path_3639" data-name="Path 3639" d="M228.49,181.848a35.73,35.73,0,0,1,0,5.916,35.868,35.868,0,0,1,0-5.916" transform="translate(-121.074 -96.411)" fill="#455a64"/>
        <path id="Path_3640" data-name="Path 3640" d="M228.49,156.669a35.725,35.725,0,0,1,0,5.915,35.863,35.863,0,0,1,0-5.915" transform="translate(-121.074 -83.061)" fill="#455a64"/>
        <path id="Path_3641" data-name="Path 3641" d="M228.49,131.49a17.949,17.949,0,0,1,.123,2.958,17.949,17.949,0,0,1-.123,2.958,17.979,17.979,0,0,1-.122-2.958,17.979,17.979,0,0,1,.122-2.958" transform="translate(-121.074 -69.712)" fill="#455a64"/>
        <path id="Path_3642" data-name="Path 3642" d="M228.49,106.311a17.954,17.954,0,0,1,.123,2.958,17.949,17.949,0,0,1-.123,2.958,17.979,17.979,0,0,1-.122-2.958,17.984,17.984,0,0,1,.122-2.958" transform="translate(-121.074 -56.363)" fill="#455a64"/>
        <path id="Path_3643" data-name="Path 3643" d="M231.3,87.583a16.35,16.35,0,0,1-2.819.122c.244-.244.068-.067.122-.121h0v.286c0,.094,0,.188,0,.28,0,.18,0,.356-.007.529-.009.308-.018.606-.026.9a2.82,2.82,0,0,1-.086.825,2.819,2.819,0,0,1-.086-.825c-.008-.29-.017-.588-.026-.9,0-.174,0-.35-.007-.529,0-.092,0-.186,0-.28v-.286h0c.055-.055-.123.121.122-.123a16.351,16.351,0,0,1,2.819.122" transform="translate(-121.061 -46.369)" fill="#455a64"/>
        <path id="Path_3644" data-name="Path 3644" d="M253.133,87.583a35.865,35.865,0,0,1-5.915,0,35.865,35.865,0,0,1,5.915,0" transform="translate(-131.068 -46.369)" fill="#455a64"/>
        <path id="Path_3645" data-name="Path 3645" d="M278.312,87.583a35.865,35.865,0,0,1-5.915,0,35.865,35.865,0,0,1,5.915,0" transform="translate(-144.417 -46.369)" fill="#455a64"/>
        <path id="Path_3646" data-name="Path 3646" d="M303.491,87.583a35.865,35.865,0,0,1-5.915,0,35.865,35.865,0,0,1,5.915,0" transform="translate(-157.766 -46.369)" fill="#455a64"/>
        <path id="Path_3647" data-name="Path 3647" d="M328.67,87.583a35.865,35.865,0,0,1-5.915,0,35.865,35.865,0,0,1,5.915,0" transform="translate(-171.116 -46.369)" fill="#455a64"/>
        <path id="Path_3648" data-name="Path 3648" d="M353.85,87.583a35.865,35.865,0,0,1-5.915,0,35.865,35.865,0,0,1,5.915,0" transform="translate(-184.465 -46.369)" fill="#455a64"/>
        <path id="Path_3649" data-name="Path 3649" d="M379.029,87.583a35.865,35.865,0,0,1-5.915,0,35.865,35.865,0,0,1,5.915,0" transform="translate(-197.815 -46.369)" fill="#455a64"/>
        <path id="Path_3650" data-name="Path 3650" d="M401.113,90.389a16.352,16.352,0,0,1-.122-2.819c.244.244.067.068.121.122h-.287l-.28,0-.529-.007-.9-.026a2.82,2.82,0,0,1-.825-.086,2.819,2.819,0,0,1,.825-.086l.9-.026.529-.007.28,0h.287c.055.054-.121-.123.123.122a16.355,16.355,0,0,1-.122,2.819" transform="translate(-211.164 -46.356)" fill="#455a64"/>
        <path id="Path_3651" data-name="Path 3651" d="M404.156,112.225a17.984,17.984,0,0,1-.122-2.957,17.987,17.987,0,0,1,.122-2.958,17.984,17.984,0,0,1,.122,2.958,17.982,17.982,0,0,1-.122,2.957" transform="translate(-214.207 -56.363)" fill="#455a64"/>
        <path id="Path_3652" data-name="Path 3652" d="M404.156,137.405a17.979,17.979,0,0,1-.122-2.957,17.986,17.986,0,0,1,.122-2.958,17.984,17.984,0,0,1,.122,2.958,17.977,17.977,0,0,1-.122,2.957" transform="translate(-214.207 -69.712)" fill="#455a64"/>
        <path id="Path_3653" data-name="Path 3653" d="M404.156,162.584a35.872,35.872,0,0,1,0-5.915,35.863,35.863,0,0,1,0,5.915" transform="translate(-214.207 -83.061)" fill="#455a64"/>
        <path id="Path_3654" data-name="Path 3654" d="M404.156,187.763a35.871,35.871,0,0,1,0-5.915,35.863,35.863,0,0,1,0,5.915" transform="translate(-214.207 -96.411)" fill="#455a64"/>
        <path id="Path_3655" data-name="Path 3655" d="M404.156,212.942a35.872,35.872,0,0,1,0-5.915,35.863,35.863,0,0,1,0,5.915" transform="translate(-214.207 -109.76)" fill="#455a64"/>
        <path id="Path_3656" data-name="Path 3656" d="M404.156,238.122a35.872,35.872,0,0,1,0-5.915,35.863,35.863,0,0,1,0,5.915" transform="translate(-214.207 -123.11)" fill="#455a64"/>
        <path id="Path_3657" data-name="Path 3657" d="M305.133,130.021a1.867,1.867,0,0,1-.482-.061,2.457,2.457,0,0,1-1.207-.686,2.522,2.522,0,0,1-.752-2.038,2.23,2.23,0,0,1,.6-1.26,2.046,2.046,0,0,1,1.418-.667l-.093.092a3.09,3.09,0,0,1,.493-2.006,1.778,1.778,0,0,1,.962-.622,2.589,2.589,0,0,1,1.195-.014l-.132.118a2.73,2.73,0,0,1,.916-2.37,3.157,3.157,0,0,1,1.217-.638l.337-.1.347-.055a4.25,4.25,0,0,1,.7-.069,4.906,4.906,0,0,1,2.839.61,3.157,3.157,0,0,1,1.031,1.134,4.14,4.14,0,0,1,.44,2.172l-.128-.135a4.021,4.021,0,0,1,2.621.735A4.868,4.868,0,0,1,319,126.284a2.6,2.6,0,0,1,.241,1.263,2.515,2.515,0,0,1-.41,1.186,2.775,2.775,0,0,1-1.98,1.221h-.011l-8.483.081-2.383.006-.629-.008a1.036,1.036,0,0,1-.215-.014,1.047,1.047,0,0,1,.217-.02l.629-.026,2.385-.065,8.477-.169h-.011a2.56,2.56,0,0,0,1.816-1.133,2.249,2.249,0,0,0,.14-2.236,4.648,4.648,0,0,0-1.468-2.012,3.787,3.787,0,0,0-2.465-.685l-.141.007.013-.142a3.653,3.653,0,0,0-.008-.632,3.2,3.2,0,0,0-1.352-2.445,4.686,4.686,0,0,0-2.7-.578,4.037,4.037,0,0,0-2.47.794,2.516,2.516,0,0,0-.853,2.167l.014.152-.146-.033a1.918,1.918,0,0,0-1.95.551,2.928,2.928,0,0,0-.47,1.878l0,.09-.094,0a1.89,1.89,0,0,0-1.3.6,2.086,2.086,0,0,0-.573,1.167,2.429,2.429,0,0,0,.683,1.953,2.487,2.487,0,0,0,1.15.705c.3.086.47.094.468.11" transform="translate(-160.472 -63.431)" fill="#263238"/>
        <path id="Path_3658" data-name="Path 3658" d="M319.774,132.8a21.254,21.254,0,0,1-2.224-2.3l.179,0-.045.046a21.861,21.861,0,0,1-2.363,2.253,21.853,21.853,0,0,1,2.188-2.424l.045-.046.092-.094.087.1a21.273,21.273,0,0,1,2.041,2.466" transform="translate(-167.174 -69.05)" fill="#263238"/>
        <path id="Path_3659" data-name="Path 3659" d="M320.124,138.5A31.785,31.785,0,0,1,320,134.56a31.788,31.788,0,0,1,.122-3.938,31.8,31.8,0,0,1,.122,3.938,31.8,31.8,0,0,1-.122,3.937" transform="translate(-169.656 -69.252)" fill="#263238"/>
        <path id="Path_3660" data-name="Path 3660" d="M274.9,161.54H272.75l-.445,1.012h-.6l1.834-4.049h.573l1.84,4.049h-.607Zm-.2-.463-.874-1.985-.874,1.985Z" transform="translate(-144.052 -84.034)" fill="#263238"/>
        <path id="Path_3661" data-name="Path 3661" d="M284.366,157.986v4.292h-.532v-.486a1.3,1.3,0,0,1-1.093.521,1.565,1.565,0,0,1,0-3.13,1.305,1.305,0,0,1,1.07.492v-1.689Zm-.55,2.759a1.034,1.034,0,1,0-1.029,1.082,1.009,1.009,0,0,0,1.029-1.082" transform="translate(-149.079 -83.76)" fill="#263238"/>
        <path id="Path_3662" data-name="Path 3662" d="M292.761,157.986v4.292h-.532v-.486a1.3,1.3,0,0,1-1.094.521,1.565,1.565,0,0,1,0-3.13,1.3,1.3,0,0,1,1.07.492v-1.689Zm-.549,2.759a1.034,1.034,0,1,0-1.03,1.082,1.009,1.009,0,0,0,1.03-1.082" transform="translate(-153.53 -83.76)" fill="#263238"/>
        <path id="Path_3663" data-name="Path 3663" d="M301.687,158.165a.366.366,0,0,1,.376-.364.36.36,0,0,1,.376.353.376.376,0,0,1-.752.011m.1.949h.555v3.066h-.555Z" transform="translate(-159.946 -83.662)" fill="#263238"/>
        <path id="Path_3664" data-name="Path 3664" d="M306.56,162.725a1.045,1.045,0,0,1-.671.215.875.875,0,0,1-.972-.961V160.3H304.4v-.457h.521v-.671h.555v.671h.88v.457h-.88v1.661a.452.452,0,0,0,.48.515.7.7,0,0,0,.434-.145Z" transform="translate(-161.382 -84.386)" fill="#263238"/>
        <path id="Path_3665" data-name="Path 3665" d="M312.646,162.282h-2.488a1.038,1.038,0,0,0,1.111.9,1.147,1.147,0,0,0,.886-.37l.306.359a1.672,1.672,0,0,1-2.858-1.07,1.5,1.5,0,0,1,1.539-1.562,1.478,1.478,0,0,1,1.516,1.58c0,.046-.006.116-.012.168m-2.488-.4h1.967a.99.99,0,0,0-1.967,0" transform="translate(-164.143 -85.111)" fill="#263238"/>
        <path id="Path_3666" data-name="Path 3666" d="M322.833,161.866v1.765h-.556v-1.7c0-.6-.289-.9-.792-.9a.89.89,0,0,0-.92,1.018v1.58h-.555v-1.7c0-.6-.289-.9-.793-.9a.89.89,0,0,0-.92,1.018v1.58h-.555v-3.067h.532v.457a1.244,1.244,0,0,1,1.059-.486,1.136,1.136,0,0,1,1.065.567,1.382,1.382,0,0,1,1.18-.567,1.176,1.176,0,0,1,1.255,1.331" transform="translate(-168.458 -85.111)" fill="#263238"/>
        <path id="Path_3667" data-name="Path 3667" d="M333.857,158.165a.366.366,0,0,1,.376-.364.362.362,0,1,1-.376.364m.1.949h.556v3.066h-.556Z" transform="translate(-177.002 -83.662)" fill="#263238"/>
        <path id="Path_3668" data-name="Path 3668" d="M342.593,161.866v1.765h-.556v-1.7c0-.6-.289-.9-.792-.9a.89.89,0,0,0-.92,1.018v1.58h-.555v-1.7c0-.6-.289-.9-.793-.9a.89.89,0,0,0-.92,1.018v1.58H337.5v-3.067h.532v.457a1.244,1.244,0,0,1,1.059-.486,1.134,1.134,0,0,1,1.064.567,1.384,1.384,0,0,1,1.181-.567,1.176,1.176,0,0,1,1.255,1.331" transform="translate(-178.934 -85.111)" fill="#263238"/>
        <path id="Path_3669" data-name="Path 3669" d="M352.677,161.779v1.852h-.527v-.4a1.138,1.138,0,0,1-1.006.439c-.694,0-1.134-.37-1.134-.9,0-.491.319-.9,1.232-.9h.88v-.11c0-.469-.272-.74-.822-.74a1.55,1.55,0,0,0-.972.33l-.232-.417a2.044,2.044,0,0,1,1.268-.393c.839,0,1.313.4,1.313,1.244m-.555.914v-.428h-.856c-.549,0-.706.214-.706.475,0,.307.255.5.677.5a.89.89,0,0,0,.886-.544" transform="translate(-185.565 -85.111)" fill="#263238"/>
        <path id="Path_3670" data-name="Path 3670" d="M360.527,160.564v2.65a1.393,1.393,0,0,1-1.591,1.573,2.268,2.268,0,0,1-1.464-.457l.266-.428a1.871,1.871,0,0,0,1.18.4c.723,0,1.053-.335,1.053-1.03v-.243a1.4,1.4,0,0,1-1.105.475,1.486,1.486,0,1,1,0-2.968,1.4,1.4,0,0,1,1.134.5v-.475Zm-.544,1.452a1.057,1.057,0,1,0-1.053,1,.979.979,0,0,0,1.053-1" transform="translate(-189.436 -85.111)" fill="#263238"/>
        <path id="Path_3671" data-name="Path 3671" d="M368.848,162.282H366.36a1.038,1.038,0,0,0,1.111.9,1.145,1.145,0,0,0,.885-.37l.306.359a1.672,1.672,0,0,1-2.858-1.07,1.5,1.5,0,0,1,1.539-1.562,1.478,1.478,0,0,1,1.516,1.58c0,.046-.006.116-.011.168m-2.488-.4h1.967a.989.989,0,0,0-1.967,0" transform="translate(-193.939 -85.111)" fill="#263238"/>
        <path id="Path_3672" data-name="Path 3672" d="M285,209.031H258.52a1.654,1.654,0,1,1,0-3.307H285a1.654,1.654,0,1,1,0,3.307" transform="translate(-136.183 -109.069)" fill="#8f2225"/>
        <path id="Path_3673" data-name="Path 3673" d="M301.854,220.672v1.759h-.3v-.265a.717.717,0,0,1-.6.285.691.691,0,0,1-.757-.767v-1.012h.319v.976c0,.345.173.518.475.518a.518.518,0,0,0,.545-.584v-.91Z" transform="translate(-159.157 -116.994)" fill="#263238"/>
        <path id="Path_3674" data-name="Path 3674" d="M306.842,221.533a.855.855,0,0,1-.889.9.75.75,0,0,1-.614-.285v.909h-.319v-2.4h.3v.279a.751.751,0,0,1,.628-.3.853.853,0,0,1,.889.9m-.322,0a.593.593,0,1,0-.594.621.582.582,0,0,0,.594-.621" transform="translate(-161.713 -116.976)" fill="#263238"/>
        <rect id="Rectangle_1416" data-name="Rectangle 1416" width="0.319" height="2.463" transform="translate(145.572 102.974)" fill="#263238"/>
        <path id="Path_3675" data-name="Path 3675" d="M311.467,221.533a.915.915,0,1,1,.916.9.875.875,0,0,1-.916-.9m1.507,0a.593.593,0,1,0-.591.621.577.577,0,0,0,.591-.621" transform="translate(-165.131 -116.976)" fill="#263238"/>
        <path id="Path_3676" data-name="Path 3676" d="M317.507,221.35v1.062h-.3v-.233a.653.653,0,0,1-.577.252c-.4,0-.651-.212-.651-.517,0-.282.183-.514.707-.514h.5v-.063c0-.269-.156-.425-.471-.425a.886.886,0,0,0-.558.189l-.133-.239a1.169,1.169,0,0,1,.727-.226c.482,0,.754.232.754.714m-.319.524v-.246H316.7c-.315,0-.4.123-.4.273,0,.176.146.285.389.285a.51.51,0,0,0,.508-.312" transform="translate(-167.522 -116.975)" fill="#263238"/>
        <path id="Path_3677" data-name="Path 3677" d="M321.991,219.174v2.463h-.305v-.279a.743.743,0,0,1-.627.3.9.9,0,0,1,0-1.8.749.749,0,0,1,.614.282v-.969Zm-.315,1.583a.593.593,0,1,0-.591.621.579.579,0,0,0,.591-.621" transform="translate(-169.745 -116.2)" fill="#263238"/>
        <path id="Path_3678" data-name="Path 3678" d="M325.217,219.277a.21.21,0,0,1,.216-.209.208.208,0,1,1-.216.209m.057.545h.319v1.759h-.319Z" transform="translate(-172.421 -116.144)" fill="#263238"/>
        <path id="Path_3679" data-name="Path 3679" d="M328.979,221.4v1.012h-.319v-.975c0-.345-.172-.514-.475-.514a.522.522,0,0,0-.557.584v.905h-.319v-1.759h.306v.266a.752.752,0,0,1,.633-.283.682.682,0,0,1,.731.763" transform="translate(-173.53 -116.975)" fill="#263238"/>
        <path id="Path_3680" data-name="Path 3680" d="M333.643,220.653v1.52a.8.8,0,0,1-.912.9,1.3,1.3,0,0,1-.84-.263l.152-.245a1.073,1.073,0,0,0,.677.229c.415,0,.6-.192.6-.591v-.139a.8.8,0,0,1-.634.272.852.852,0,1,1,0-1.7.8.8,0,0,1,.651.289v-.272Zm-.312.833a.606.606,0,1,0-.6.574.561.561,0,0,0,.6-.574" transform="translate(-175.91 -116.975)" fill="#263238"/>
        <path id="Path_3681" data-name="Path 3681" d="M336.7,223.716a.222.222,0,0,1,.226-.226.218.218,0,0,1,.219.226.221.221,0,0,1-.219.229.225.225,0,0,1-.226-.229" transform="translate(-178.511 -118.488)" fill="#263238"/>
        <path id="Path_3682" data-name="Path 3682" d="M338.309,223.716a.222.222,0,0,1,.225-.226.218.218,0,0,1,.219.226.221.221,0,0,1-.219.229.225.225,0,0,1-.225-.229" transform="translate(-179.362 -118.488)" fill="#263238"/>
        <path id="Path_3683" data-name="Path 3683" d="M339.915,223.716a.222.222,0,0,1,.225-.226.218.218,0,0,1,.219.226.221.221,0,0,1-.219.229.225.225,0,0,1-.225-.229" transform="translate(-180.213 -118.488)" fill="#263238"/>
        <path id="Path_3684" data-name="Path 3684" d="M313.234,196.076c0,.559-.4,1.006-1.223,1.006a1.853,1.853,0,0,1-1.186-.392l.212-.365a1.45,1.45,0,0,0,.969.347c.49,0,.767-.226.767-.577s-.231-.591-.979-.591h-.734l.171-1.69h1.824v.4h-1.436l-.088.887h.36c.965,0,1.343.4,1.343.974" transform="translate(-164.79 -102.755)" fill="#8f2225"/>
        <path id="Path_3685" data-name="Path 3685" d="M316.768,195.387c0-1.052.563-1.653,1.32-1.653s1.316.6,1.316,1.653-.563,1.653-1.316,1.653-1.32-.6-1.32-1.653m2.174,0c0-.826-.351-1.242-.854-1.242s-.858.416-.858,1.242.351,1.242.858,1.242.854-.416.854-1.242" transform="translate(-167.941 -102.712)" fill="#8f2225"/>
        <path id="Path_3686" data-name="Path 3686" d="M323.212,194.637a.782.782,0,0,1,.753-.882c.448,0,.748.35.748.882s-.3.881-.748.881a.782.782,0,0,1-.753-.881m1.205,0c0-.388-.171-.619-.452-.619s-.452.235-.452.619.175.618.452.618.452-.231.452-.618m1.5-.855h.356l-2.207,3.232h-.356Zm-.651,2.378a.76.76,0,1,1,.748.882.779.779,0,0,1-.748-.882m1.2,0c0-.383-.176-.618-.453-.618s-.452.231-.452.618.172.619.452.619.453-.235.453-.619" transform="translate(-171.358 -102.723)" fill="#8f2225"/>
        <path id="Path_3687" data-name="Path 3687" d="M312.285,208.894c0-.01.105,0,.3-.042a1.637,1.637,0,0,0,.782-.4,1.619,1.619,0,0,0-.583-2.737,4.008,4.008,0,0,0-1.166-.076l-1.311.005-2.975.01-7.253.018-41.993.036a1.531,1.531,0,0,0-.568,2.954,1.722,1.722,0,0,0,.693.109h.75l5.9,0,11.149.007,18.88.026,12.728.039,3.46.023.9.012c.2,0,.306.013.306.013s-.1.008-.306.013l-.9.012-3.46.023-12.728.039-18.88.026-11.149.007-5.9,0h-.75a1.96,1.96,0,0,1-.783-.126,1.775,1.775,0,0,1,.659-3.425l41.993.036,7.253.018,2.975.01,1.311.005a4.048,4.048,0,0,1,1.2.092,1.7,1.7,0,0,1,1.154,1.54,1.668,1.668,0,0,1-.569,1.324,1.625,1.625,0,0,1-.81.388,1.1,1.1,0,0,1-.307.017" transform="translate(-135.889 -108.932)" fill="#263238"/>
      </g>
    </g>
  </g>
</svg>
