<svg xmlns="http://www.w3.org/2000/svg" width="83.006" height="83.006" viewBox="0 0 83.006 83.006">
  <g id="upload-file" transform="translate(-1 -1)">
    <path id="Path_3735" data-name="Path 3735" d="M79.989,17.066H78.651V6.355H73.3V1H6.355V22.421H5.016A4.021,4.021,0,0,0,1,26.437V63.924A4.021,4.021,0,0,0,5.016,67.94h8.143A10.708,10.708,0,0,0,22.421,73.3H37.148v10.71h2.678V65.263h-4.6a.757.757,0,0,1-.649-1.147L41.7,52.243a.758.758,0,0,1,.649-.368h.3a.76.76,0,0,1,.649.368l7.124,11.871a.77.77,0,0,1,.107.391.759.759,0,0,1-.758.758h-4.6V84.006h2.678V73.3h17.4a8.038,8.038,0,0,0,7.564-5.355h7.163a4.021,4.021,0,0,0,4.016-4.016V21.082a4.021,4.021,0,0,0-4.016-4.016ZM75.973,9.033v8.033H60.223a4,4,0,0,0-3.592,2.22l-1.568,3.135H14.388V9.033ZM9.033,3.678H70.618V6.355H11.71V22.421H9.033Zm56.23,66.94h-17.4V67.94h1.92a3.435,3.435,0,0,0,2.945-5.2L45.6,50.868A3.451,3.451,0,0,0,42.654,49.2h-.3A3.452,3.452,0,0,0,39.4,50.865L32.281,62.736a3.437,3.437,0,0,0,2.947,5.2h1.92v2.678H22.421a8.033,8.033,0,1,1,0-16.066,8.18,8.18,0,0,1,1.6.159l1.229.246.327-1.21a13.362,13.362,0,0,1,23.517-4.666l.542.7.86-.226a10.656,10.656,0,0,1,13.361,9.163l.131,1.193h1.2l.162-.007a5.355,5.355,0,0,1-.084,10.709Zm16.066-6.694a1.34,1.34,0,0,1-1.339,1.339H73.3A8.047,8.047,0,0,0,66.344,57.3,13.363,13.363,0,0,0,53.213,46.519a13.184,13.184,0,0,0-2.548.254,16.039,16.039,0,0,0-27.326,5.14q-.46-.038-.918-.039A10.669,10.669,0,0,0,12.063,65.263H5.016a1.34,1.34,0,0,1-1.339-1.339V30.454H81.328Zm0-36.148H3.678V26.437A1.34,1.34,0,0,1,5.016,25.1h51.7l2.308-4.615a1.33,1.33,0,0,1,1.2-.74H79.989a1.34,1.34,0,0,1,1.339,1.339Z" fill="#8fc069"/>
    <path id="Path_3736" data-name="Path 3736" d="M57,17h2.678v2.678H57Z" transform="translate(18.973 5.421)" fill="#8fc069"/>
    <path id="Path_3737" data-name="Path 3737" d="M45,17h2.678v2.678H45Z" transform="translate(14.907 5.421)" fill="#8fc069"/>
    <path id="Path_3738" data-name="Path 3738" d="M49,17h2.678v2.678H49Z" transform="translate(16.263 5.421)" fill="#8fc069"/>
    <path id="Path_3739" data-name="Path 3739" d="M53,17h2.678v2.678H53Z" transform="translate(17.618 5.421)" fill="#8fc069"/>
    <path id="Path_3740" data-name="Path 3740" d="M53,9h2.678v2.678H53Z" transform="translate(17.618 2.71)" fill="#8fc069"/>
    <path id="Path_3741" data-name="Path 3741" d="M13,9H63.875v2.678H13Z" transform="translate(4.066 2.71)" fill="#8fc069"/>
    <path id="Path_3742" data-name="Path 3742" d="M13,13h2.678v2.678H13Z" transform="translate(4.066 4.066)" fill="#8fc069"/>
    <path id="Path_3743" data-name="Path 3743" d="M17,13H49.131v2.678H17Z" transform="translate(5.421 4.066)" fill="#8fc069"/>
  </g>
</svg>
