<svg xmlns="http://www.w3.org/2000/svg" width="74.038" height="74.037" viewBox="0 0 74.038 74.037"><g transform="translate(0 0)"><path d="M162.592,0H118.17A6.177,6.177,0,0,0,112,6.17V34.551h2.468V6.17a3.7,3.7,0,0,1,3.7-3.7h30.849v6.17a6.177,6.177,0,0,0,6.17,6.17h6.17V62.932a3.7,3.7,0,0,1-3.7,3.7H139.147V69.1h23.445a6.177,6.177,0,0,0,6.17-6.17V6.17A6.177,6.177,0,0,0,162.592,0Zm-7.4,12.34a3.7,3.7,0,0,1-3.7-3.7V4.213l8.127,8.127Zm11.106,50.592a3.7,3.7,0,0,1-3.7,3.7h-.032a6.109,6.109,0,0,0,1.266-3.7V13.574c0-.027-.014-.051-.016-.078a1.163,1.163,0,0,0-.063-.317c-.014-.04-.024-.078-.041-.116a1.213,1.213,0,0,0-.246-.362L153.232,2.468h9.361a3.7,3.7,0,0,1,3.7,3.7Zm0,0" transform="translate(-94.725 0)" fill="#0c3761"/><path d="M152,174.17v2.468h25.913v3.7h-12.34v2.468h12.34v3.7h-4.936v2.468h4.936v3.7h-4.936v2.468h4.936v3.7h-7.4v2.468h20.977v-2.468H180.381v-3.7h11.106v-2.468H180.381v-3.7h11.106v-2.468H180.381v-3.7h11.106V180.34H180.381v-3.7h11.106V174.17H180.381v-3.7h11.106V168H152v2.468h25.913v3.7Zm0,0" transform="translate(-128.555 -142.087)" fill="#0c3761"/><path d="M272,400h20.977v2.468H272Zm0,0" transform="translate(-230.045 -338.302)" fill="#0c3761"/><path d="M240,56h14.808v2.468H240Zm0,0" transform="translate(-202.981 -47.362)" fill="#0c3761"/><path d="M240,88h7.4v2.468H240Zm0,0" transform="translate(-202.981 -74.427)" fill="#0c3761"/><path d="M304,88h4.936v2.468H304Zm0,0" transform="translate(-257.11 -74.427)" fill="#0c3761"/><path d="M240,120h14.808v2.468H240Zm0,0" transform="translate(-202.981 -101.491)" fill="#0c3761"/><path d="M40.721,269.613H39.487V254.806h1.234a1.234,1.234,0,0,0,1.234-1.234V247.4a1.234,1.234,0,0,0-.864-1.177l-19.743-6.17a1.231,1.231,0,0,0-.74,0L.864,246.225A1.234,1.234,0,0,0,0,247.4v6.17a1.234,1.234,0,0,0,1.234,1.234H2.468v14.807H1.234A1.234,1.234,0,0,0,0,270.847v4.936a1.234,1.234,0,0,0,1.234,1.234H40.721a1.234,1.234,0,0,0,1.234-1.234v-4.936A1.234,1.234,0,0,0,40.721,269.613Zm-3.7,0H34.551V254.806h2.468Zm-7.4,0V254.806h2.468v14.807Zm-9.872,0V254.806h2.468v14.807Zm-9.872,0V254.806H12.34v14.807Zm4.936-14.807h2.468v14.807H14.808Zm9.872,0h2.468v14.807H24.679Zm-22.211-6.5,18.509-5.784,18.509,5.784v4.029H2.468Zm2.468,6.5H7.4v14.807H4.936Zm34.551,19.743H2.468v-2.468H39.487Zm0,0" transform="translate(0 -202.98)" fill="#0c3761"/><path d="M124.936,274.468A2.468,2.468,0,1,1,122.468,272,2.468,2.468,0,0,1,124.936,274.468Zm0,0" transform="translate(-101.491 -230.045)" fill="#0c3761"/><path d="M155.7,40v2.468a3.7,3.7,0,0,0,0,7.4h2.468a1.234,1.234,0,1,1,0,2.468h-4.936v2.468H155.7v2.468h2.468V54.807a3.7,3.7,0,1,0,0-7.4H155.7a1.234,1.234,0,0,1,0-2.468h4.936V42.468H158.17V40Zm0,0" transform="translate(-128.555 -33.83)" fill="#0c3761"/></g></svg>