<svg xmlns="http://www.w3.org/2000/svg" width="73.94" height="73.94" viewBox="0 0 73.94 73.94"><path d="M241.444,162.888A1.444,1.444,0,1,0,240,161.444,1.445,1.445,0,0,0,241.444,162.888Zm0,0" transform="translate(-205.341 -136.894)" fill="#0c3761"/><path d="M241.444,202.888A1.444,1.444,0,1,0,240,201.444,1.445,1.445,0,0,0,241.444,202.888Zm0,0" transform="translate(-205.341 -171.117)" fill="#0c3761"/><path d="M73.516,14.865,59.075.423A1.459,1.459,0,0,0,58.054,0H21.662a4.337,4.337,0,0,0-4.332,4.332v4.4c-.479-.043-.962-.067-1.444-.067a15.885,15.885,0,1,0,0,31.771c.482,0,.965-.023,1.444-.067V69.608a4.337,4.337,0,0,0,4.332,4.332H69.607a4.337,4.337,0,0,0,4.332-4.332V15.886a1.453,1.453,0,0,0-.423-1.021ZM59.5,4.931l9.511,9.511H59.5Zm-42.169,6.7A13.017,13.017,0,0,1,28.8,23.106H17.329ZM2.888,24.551A13.015,13.015,0,0,1,14.441,11.634V24.551a1.443,1.443,0,0,0,1.444,1.442H28.8A13,13,0,0,1,2.888,24.551Zm66.719,46.5H21.662a1.445,1.445,0,0,1-1.444-1.444V39.835a15.887,15.887,0,0,0,0-30.568V4.333a1.445,1.445,0,0,1,1.444-1.444H56.61v13a1.444,1.444,0,0,0,1.444,1.444h13V69.607a1.445,1.445,0,0,1-1.444,1.444Zm0,0" transform="translate(0 0)" fill="#0c3761"/><path d="M247.444,62.888h15.308a1.444,1.444,0,0,0,0-2.888H247.444a1.444,1.444,0,1,0,0,2.888Zm0,0" transform="translate(-210.474 -51.335)" fill="#0c3761"/><path d="M247.444,102.888h15.308a1.444,1.444,0,0,0,0-2.888H247.444a1.444,1.444,0,1,0,0,2.888Zm0,0" transform="translate(-210.474 -85.559)" fill="#0c3761"/><path d="M50.109,168.665a7.229,7.229,0,0,1-7.221-7.221,1.444,1.444,0,0,0-2.888,0,10.12,10.12,0,0,0,10.109,10.109,1.444,1.444,0,1,0,0-2.888Zm0,0" transform="translate(-34.223 -136.894)" fill="#0c3761"/><path d="M200.291,266a4.331,4.331,0,0,0-3.592,6.752l-10.028,10.763a4.338,4.338,0,0,0-2.994.178l-4.517-5.6a4.333,4.333,0,1,0-7.74-.072l-5.266,5.708a4.333,4.333,0,1,0,2.066,2.02l5.266-5.708a4.346,4.346,0,0,0,3.562.036l4.517,5.6a4.333,4.333,0,1,0,7.444-.434l10.028-10.763A4.332,4.332,0,1,0,200.291,266Zm-35.959,23.106a1.444,1.444,0,1,1,1.444-1.444A1.445,1.445,0,0,1,164.332,289.106Zm9.531-13a1.444,1.444,0,1,1,1.444,1.444A1.445,1.445,0,0,1,173.864,276.109Zm11.553,13a1.444,1.444,0,1,1,1.444-1.444A1.445,1.445,0,0,1,185.417,289.106Zm14.875-17.33a1.444,1.444,0,1,1,1.444-1.444A1.445,1.445,0,0,1,200.291,271.777Zm0,0" transform="translate(-136.894 -227.586)" fill="#0c3761"/><path d="M280,161.444a1.444,1.444,0,0,0,1.444,1.444h21.951a1.444,1.444,0,1,0,0-2.888H281.444A1.444,1.444,0,0,0,280,161.444Zm0,0" transform="translate(-239.564 -136.894)" fill="#0c3761"/><path d="M303.395,200H281.444a1.444,1.444,0,0,0,0,2.888h21.951a1.444,1.444,0,1,0,0-2.888Zm0,0" transform="translate(-239.564 -171.117)" fill="#0c3761"/></svg>