<svg xmlns="http://www.w3.org/2000/svg" width="72.956" height="75.433" viewBox="0 0 72.956 75.433"><path d="M17.286,35.581v8.8H12.257A1.257,1.257,0,0,0,11,45.639a26.4,26.4,0,0,0,52.8,0,1.257,1.257,0,0,0-1.257-1.257H57.517v-8.8a3.772,3.772,0,0,0-3.772-3.772h-.48a5.029,5.029,0,1,0-6.583,0H46.2a3.748,3.748,0,0,0-2.514.981,3.748,3.748,0,0,0-2.514-.981h-.48a5.029,5.029,0,1,0-6.583,0h-.48a3.748,3.748,0,0,0-2.514.981,3.748,3.748,0,0,0-2.514-.981h-.988a4.981,4.981,0,0,0,1.753-3.772,5.071,5.071,0,1,0-10.143,0,4.98,4.98,0,0,0,1.761,3.779A3.772,3.772,0,0,0,17.286,35.581Zm6.971,29.985a24.067,24.067,0,0,1-6.183-5.909,39.559,39.559,0,0,1,6.553-1.792,31.171,31.171,0,0,0,2.864,7Q25.785,65.168,24.257,65.566Zm2.865-8.109a73.441,73.441,0,0,1,20.558,0,27.1,27.1,0,0,1-3.068,7.015,64.57,64.57,0,0,0-14.424,0,27.075,27.075,0,0,1-3.066-7.015ZM37.4,69.526A23.7,23.7,0,0,1,27.614,67.4c.685-.126,1.383-.244,2.113-.344a61.834,61.834,0,0,1,15.338,0c.73.1,1.433.22,2.121.346A23.705,23.705,0,0,1,37.4,69.526Zm13.144-3.96q-1.525-.4-3.234-.7a31.207,31.207,0,0,0,2.864-7,39.558,39.558,0,0,1,6.553,1.792A24.067,24.067,0,0,1,50.546,65.566ZM61.256,46.9a23.7,23.7,0,0,1-3.136,10.6,40.747,40.747,0,0,0-7.359-2.081,46.338,46.338,0,0,0,.979-8.519ZM49.974,25.523a2.514,2.514,0,1,1-2.514,2.514A2.514,2.514,0,0,1,49.974,25.523ZM44.945,35.581A1.257,1.257,0,0,1,46.2,34.324h7.543A1.257,1.257,0,0,1,55,35.581v8.8H44.945ZM37.4,25.523a2.514,2.514,0,1,1-2.514,2.514A2.514,2.514,0,0,1,37.4,25.523ZM32.373,35.581a1.257,1.257,0,0,1,1.257-1.257h7.543a1.257,1.257,0,0,1,1.257,1.257v8.8H32.373ZM49.227,46.9a43.6,43.6,0,0,1-.948,8.109,75.8,75.8,0,0,0-21.75,0,43.61,43.61,0,0,1-.953-8.109ZM24.3,25.523a2.514,2.514,0,1,1-2.557,2.514A2.514,2.514,0,0,1,24.3,25.523ZM19.8,35.581a1.257,1.257,0,0,1,1.257-1.257H28.6a1.257,1.257,0,0,1,1.257,1.257v8.8H19.8ZM23.062,46.9a46.324,46.324,0,0,0,.979,8.518A40.876,40.876,0,0,0,16.683,57.5a23.7,23.7,0,0,1-3.136-10.6Z" transform="translate(-0.883 3.393)" fill="#0c3761"/><path d="M23.075,15.955a2.162,2.162,0,0,0,.243,1.695l1.621,2.682A2.307,2.307,0,0,0,28,21.137l.473-.262a9.791,9.791,0,0,0,1.954,1.09V22.4a2.248,2.248,0,0,0,2.267,2.225h3.241A2.248,2.248,0,0,0,38.2,22.407v-.439a9.826,9.826,0,0,0,1.954-1.09l.474.262a2.3,2.3,0,0,0,3.063-.8l1.621-2.682a2.166,2.166,0,0,0,.243-1.7,2.245,2.245,0,0,0-1.081-1.375l-.415-.228a8.8,8.8,0,0,0,0-2.079l.416-.229a2.242,2.242,0,0,0,1.084-1.372,2.162,2.162,0,0,0-.243-1.695L43.693,6.3a2.306,2.306,0,0,0-3.064-.806l-.473.262A9.792,9.792,0,0,0,38.2,4.662V4.223A2.248,2.248,0,0,0,35.936,2H32.695a2.248,2.248,0,0,0-2.263,2.223v.439a9.827,9.827,0,0,0-1.954,1.09L28,5.49a2.306,2.306,0,0,0-3.063.8L23.317,8.976a2.166,2.166,0,0,0-.243,1.7,2.245,2.245,0,0,0,1.081,1.375l.415.228a8.8,8.8,0,0,0,0,2.079l-.416.229a2.242,2.242,0,0,0-1.08,1.369Zm3.949-2.64a6.628,6.628,0,0,1,.067-.927,2.205,2.205,0,0,0-1.131-2.219l-.318-.175,1.329-2.2.407.225a2.333,2.333,0,0,0,2.5-.18,7.409,7.409,0,0,1,1.614-.9,2.245,2.245,0,0,0,1.45-2.072V4.514h2.746V4.87a2.245,2.245,0,0,0,1.45,2.072,7.371,7.371,0,0,1,1.613.9,2.336,2.336,0,0,0,2.5.18l.407-.225,1.329,2.2-.317.175a2.206,2.206,0,0,0-1.132,2.22,6.467,6.467,0,0,1,0,1.852,2.205,2.205,0,0,0,1.132,2.219l.316.175-1.329,2.2-.407-.225a2.34,2.34,0,0,0-2.5.18,7.409,7.409,0,0,1-1.614.9,2.245,2.245,0,0,0-1.45,2.072v.356H32.942V21.76a2.245,2.245,0,0,0-1.45-2.072,7.371,7.371,0,0,1-1.613-.9,2.343,2.343,0,0,0-2.5-.18l-.407.225-1.329-2.2.317-.175a2.206,2.206,0,0,0,1.131-2.22,6.6,6.6,0,0,1-.065-.925Z" transform="translate(2.203 -2)" fill="#0c3761"/><path d="M33.029,17.058A5.029,5.029,0,1,0,28,12.029,5.029,5.029,0,0,0,33.029,17.058Zm0-7.543a2.514,2.514,0,1,1-2.514,2.514A2.514,2.514,0,0,1,33.029,9.514Z" transform="translate(3.49 -0.714)" fill="#0c3761"/><path d="M42.8,7.025,43,9.539C50.859,8.9,57.047,11,60.417,15.461c5.246,6.942,2.851,18.622-6.1,29.756l1.96,1.574c9.7-12.061,12.112-24.953,6.148-32.846C58.515,8.767,51.548,6.311,42.8,7.025Z" transform="translate(7.296 -0.739)" fill="#0c3761"/><path d="M16.554,67.205l.576-2.448a14.981,14.981,0,0,1-8.853-5.395A15.549,15.549,0,0,1,5.752,47.5c1.4-9.666,9.161-20.768,20.268-28.968q.8-.59,1.6-1.149l-1.436-2.066c-.557.388-1.113.785-1.663,1.193-11.8,8.713-19.752,20.167-21.261,30.63A17.99,17.99,0,0,0,6.27,60.879,17.429,17.429,0,0,0,16.554,67.205Z" transform="translate(-2.953 1.427)" fill="#0c3761"/></svg>