<svg xmlns="http://www.w3.org/2000/svg" width="75.905" height="78.435" viewBox="0 0 75.905 78.435"><path d="M48.832,24.615a1.265,1.265,0,0,0-1.265-1.265h-1.6a11.515,11.515,0,0,0-.717-1.725l1.135-1.135a1.265,1.265,0,0,0,0-1.789L43.13,15.449a1.265,1.265,0,0,0-1.789,0l-1.135,1.135a11.539,11.539,0,0,0-1.725-.717v-1.6A1.265,1.265,0,0,0,37.216,13h-4.6a1.265,1.265,0,0,0-1.265,1.265v1.6a11.516,11.516,0,0,0-1.725.717l-1.135-1.135a1.265,1.265,0,0,0-1.789,0L23.449,18.7a1.265,1.265,0,0,0,0,1.789l1.135,1.135a11.539,11.539,0,0,0-.717,1.725h-1.6A1.265,1.265,0,0,0,21,24.616v4.6a1.265,1.265,0,0,0,1.265,1.265h1.6a11.516,11.516,0,0,0,.717,1.725l-1.135,1.135a1.265,1.265,0,0,0,0,1.789L26.7,38.383a1.265,1.265,0,0,0,1.789,0l1.135-1.135a11.538,11.538,0,0,0,1.725.717v1.6a1.265,1.265,0,0,0,1.265,1.265h4.6a1.265,1.265,0,0,0,1.265-1.265v-1.6a11.516,11.516,0,0,0,1.725-.717l1.135,1.135a1.265,1.265,0,0,0,1.789,0l3.253-3.253a1.265,1.265,0,0,0,0-1.789l-1.135-1.135a11.538,11.538,0,0,0,.717-1.725h1.6a1.265,1.265,0,0,0,1.265-1.265ZM46.3,27.951h-.44a2.415,2.415,0,0,0-2.292,1.712,9.041,9.041,0,0,1-.591,1.423,2.415,2.415,0,0,0,.408,2.836l.313.313L42.235,35.7l-.313-.313a2.413,2.413,0,0,0-2.835-.408,9.073,9.073,0,0,1-1.424.591,2.415,2.415,0,0,0-1.712,2.292v.44H33.881v-.44a2.415,2.415,0,0,0-1.712-2.292,9.042,9.042,0,0,1-1.423-.591,2.415,2.415,0,0,0-2.836.408L27.6,35.7l-1.464-1.464.313-.313a2.414,2.414,0,0,0,.408-2.835,9.072,9.072,0,0,1-.591-1.424,2.415,2.415,0,0,0-2.292-1.712h-.44V25.881h.44a2.415,2.415,0,0,0,2.292-1.712,9.042,9.042,0,0,1,.591-1.423,2.415,2.415,0,0,0-.408-2.836l-.313-.313L27.6,18.133l.313.313a2.413,2.413,0,0,0,2.835.408,9.072,9.072,0,0,1,1.424-.591,2.415,2.415,0,0,0,1.712-2.292v-.44h2.071v.44a2.415,2.415,0,0,0,1.712,2.292,9.042,9.042,0,0,1,1.423.591,2.414,2.414,0,0,0,2.836-.408l.313-.313L43.7,19.6l-.313.313a2.414,2.414,0,0,0-.408,2.835,9.073,9.073,0,0,1,.591,1.424,2.415,2.415,0,0,0,2.292,1.712h.44Z" transform="translate(3.037 2.181)" fill="#0c3761"/><path d="M33.59,18a7.59,7.59,0,1,0,7.59,7.59A7.59,7.59,0,0,0,33.59,18Zm0,12.651a5.06,5.06,0,1,1,5.06-5.06A5.06,5.06,0,0,1,33.59,30.651Z" transform="translate(4.362 3.506)" fill="#0c3761"/><path d="M3.265,67.241H76.64A1.265,1.265,0,0,0,77.8,65.478l-7.59-17.711A1.264,1.264,0,0,0,69.049,47H53.868v2.53H68.215l6.506,15.181H5.184L11.689,49.53H26.037V47H10.856a1.264,1.264,0,0,0-1.163.767L2.1,65.478a1.265,1.265,0,0,0,1.163,1.764Z" transform="translate(-2 11.194)" fill="#0c3761"/><path d="M29,38h2.53v7.59H29Z" transform="translate(5.157 8.808)" fill="#0c3761"/><path d="M29,46h2.53v2.53H29Z" transform="translate(5.157 10.929)" fill="#0c3761"/><path d="M29,50h2.53v6.325H29Z" transform="translate(5.157 11.989)" fill="#0c3761"/><path d="M33,38h2.53v8.856H33Z" transform="translate(6.218 8.808)" fill="#0c3761"/><path d="M33,47h2.53V57.121H33Z" transform="translate(6.218 11.194)" fill="#0c3761"/><path d="M37,40h2.53V51.386H37Z" transform="translate(7.278 9.338)" fill="#0c3761"/><path d="M25,51h2.53v2.53H25Z" transform="translate(4.097 12.254)" fill="#0c3761"/><path d="M25,39h2.53V51.651H25Z" transform="translate(4.097 9.073)" fill="#0c3761"/><path d="M37,51h2.53v2.53H37Z" transform="translate(7.278 12.254)" fill="#0c3761"/><path d="M48.265,4A1.265,1.265,0,0,0,47,5.265v7.59a1.265,1.265,0,0,0,1.265,1.265h3.8v2.53H49.53a1.265,1.265,0,0,0-1.265,1.265v6.325a1.265,1.265,0,0,0,1.265,1.265h6.325a1.265,1.265,0,0,0,1.265-1.265v-2.53h6.325a1.265,1.265,0,0,0,1.265-1.265V10.325A1.265,1.265,0,0,0,63.446,9.06H57.121v-3.8A1.265,1.265,0,0,0,55.856,4Zm1.265,7.59V6.53h5.06V9.06H53.325a1.265,1.265,0,0,0-1.265,1.265V11.59Zm5.06,11.386H50.8v-3.8H52.06v1.265a1.265,1.265,0,0,0,1.265,1.265H54.59Zm7.59-11.386v7.59H54.59V11.59Z" transform="translate(9.929 -0.205)" fill="#0c3761"/><path d="M36.856,11.121a1.265,1.265,0,0,0,1.265-1.265V2.265A1.265,1.265,0,0,0,36.856,1h-7.59A1.265,1.265,0,0,0,28,2.265v7.59a1.265,1.265,0,0,0,1.265,1.265ZM30.53,3.53h5.06V8.59H30.53Z" transform="translate(4.892 -1)" fill="#0c3761"/><path d="M4.265,34.711h7.59a1.265,1.265,0,0,0,1.265-1.265v-3.8h6.325a1.265,1.265,0,0,0,1.265-1.265V18.265A1.265,1.265,0,0,0,19.446,17H9.325A1.265,1.265,0,0,0,8.06,18.265V24.59h-3.8A1.265,1.265,0,0,0,3,25.856v7.59A1.265,1.265,0,0,0,4.265,34.711ZM10.59,19.53h7.59v7.59H10.59Zm-5.06,7.59H8.06v1.265a1.265,1.265,0,0,0,1.265,1.265H10.59v2.53H5.53Z" transform="translate(-1.735 3.241)" fill="#0c3761"/><path d="M10.265,15.856H16.59a1.265,1.265,0,0,0,1.265-1.265V8.265A1.265,1.265,0,0,0,16.59,7H10.265A1.265,1.265,0,0,0,9,8.265V14.59A1.265,1.265,0,0,0,10.265,15.856ZM11.53,9.53h3.8v3.8h-3.8Z" transform="translate(-0.144 0.59)" fill="#0c3761"/><path d="M47.265,31A1.265,1.265,0,0,0,46,32.265v5.06a1.265,1.265,0,0,0,1.265,1.265h5.06a1.265,1.265,0,0,0,1.265-1.265v-5.06A1.265,1.265,0,0,0,52.325,31Zm3.8,5.06H48.53V33.53h2.53Z" transform="translate(9.664 6.952)" fill="#0c3761"/><path d="M12.937,52.53h9.244V50H12.06a1.266,1.266,0,0,0-1.185.821L7.08,60.942a1.265,1.265,0,0,0,1.185,1.709H68.989a1.265,1.265,0,0,0,1.185-1.709l-3.8-10.121A1.266,1.266,0,0,0,65.194,50H55.073v2.53h9.244l2.846,7.59H10.09Z" transform="translate(-0.675 11.989)" fill="#0c3761"/></svg>