<svg xmlns="http://www.w3.org/2000/svg" width="69.641" height="69.941" viewBox="0 0 69.641 69.941"><g transform="translate(0 0)"><path d="M79.837,16H31.089a5.81,5.81,0,0,0-5.8,5.8V76.355H17.161A1.161,1.161,0,0,0,16,77.516v2.321a5.81,5.81,0,0,0,5.8,5.8H34.571V83.319H21.8a3.486,3.486,0,0,1-3.482-3.482V78.677h16.25V76.355H27.607V21.8a3.486,3.486,0,0,1,3.482-3.482H75.2A5.774,5.774,0,0,0,74.034,21.8V36.892h2.321V25.285H84.48a1.161,1.161,0,0,0,1.161-1.161V21.8a5.81,5.81,0,0,0-5.8-5.8Zm3.482,6.964H76.355V21.8a3.482,3.482,0,0,1,6.964,0Z" transform="translate(-16 -16)" fill="#0c3761"/><path d="M120,176h17.41v2.321H120Z" transform="translate(-104.911 -152.786)" fill="#0c3761"/><path d="M207.839,273.044l-1.462-.325a37.547,37.547,0,0,0-18.4.549l-3.6,1.029a35.286,35.286,0,0,1-22.685-1.16l-.094-.038A1.161,1.161,0,0,0,160,274.177v26.7a1.161,1.161,0,0,0,.73,1.078l.094.037a37.612,37.612,0,0,0,24.185,1.237l3.6-1.029a35.216,35.216,0,0,1,17.262-.515l1.462.325a1.161,1.161,0,0,0,1.412-1.133v-26.7a1.161,1.161,0,0,0-.909-1.133Zm-1.412,26.382-.05-.011a37.548,37.548,0,0,0-18.4.549l-3.6,1.029a35.292,35.292,0,0,1-22.05-.913V275.854a37.639,37.639,0,0,0,22.687.675l3.6-1.029h0a35.215,35.215,0,0,1,17.262-.515l.553.123Z" transform="translate(-139.108 -234.714)" fill="#0c3761"/><path d="M273.285,320A9.3,9.3,0,0,0,264,329.285h2.321a6.962,6.962,0,1,1,1.248,3.979,1.161,1.161,0,0,0-2.048,1.046l2.026,5.8,2.192-.765-.616-1.765A9.285,9.285,0,1,0,273.285,320Z" transform="translate(-228.019 -275.894)" fill="#0c3761"/><path d="M214.966,390.292l-.423,2.282a37.544,37.544,0,0,0,4.791.57l.125-2.318A35.266,35.266,0,0,1,214.966,390.292Z" transform="translate(-185.738 -335.988)" fill="#0c3761"/><path d="M412.138,370.4l.152-2.316a37.576,37.576,0,0,0-4.791-.006l.146,2.317A35.248,35.248,0,0,1,412.138,370.4Z" transform="translate(-350.698 -316.932)" fill="#0c3761"/><path d="M192.448,322.9a1.161,1.161,0,0,0-.448.916v6.579h2.321v-5.118a37.485,37.485,0,0,0,6.939.8l.051-2.321a35.17,35.17,0,0,1-7.865-1.07A1.162,1.162,0,0,0,192.448,322.9Z" transform="translate(-166.465 -278.162)" fill="#0c3761"/><path d="M407.627,304.316a37.478,37.478,0,0,0-8.385-.145l.22,2.311a35.18,35.18,0,0,1,6.854.02v4.465h2.321v-5.5a1.161,1.161,0,0,0-1.011-1.151Z" transform="translate(-343.639 -262.218)" fill="#0c3761"/><path d="M406.316,396.809a37.485,37.485,0,0,0-7.074,0l.22,2.311a35.157,35.157,0,0,1,7.865.137,1.161,1.161,0,0,0,1.311-1.151V392h-2.321Z" transform="translate(-343.64 -337.448)" fill="#0c3761"/><path d="M194.321,416H192v5.027a1.161,1.161,0,0,0,.875,1.125,37.481,37.481,0,0,0,8.385,1.141l.051-2.321a35.178,35.178,0,0,1-6.99-.86Z" transform="translate(-166.465 -357.966)" fill="#0c3761"/><path d="M0,0H10.381V2.321H0Z" transform="translate(41.875 57.521) rotate(-63.435)" fill="#0c3761"/><path d="M296,360h2.321v2.321H296Z" transform="translate(-255.376 -310.091)" fill="#0c3761"/><path d="M336,400h2.321v2.321H336Z" transform="translate(-289.573 -344.287)" fill="#0c3761"/><path d="M287.338,176H259.482A3.486,3.486,0,0,0,256,179.482v11.607h2.321v-3.482H288.5v1.161h2.321v-9.285A3.486,3.486,0,0,0,287.338,176Zm-29.017,9.285v-5.8a1.162,1.162,0,0,1,1.161-1.161h27.856a1.162,1.162,0,0,1,1.161,1.161v5.8Z" transform="translate(-221.18 -152.786)" fill="#0c3761"/><path d="M288,208h2.321v2.321H288Z" transform="translate(-248.537 -180.144)" fill="#0c3761"/><path d="M320,208h2.321v2.321H320Z" transform="translate(-275.894 -180.144)" fill="#0c3761"/><path d="M352,208h2.321v2.321H352Z" transform="translate(-303.251 -180.144)" fill="#0c3761"/><path d="M200,56h16.25v2.321H200Z" transform="translate(-173.304 -50.197)" fill="#0c3761"/><path d="M264,96h4.643v2.321H264Z" transform="translate(-228.019 -84.393)" fill="#0c3761"/><path d="M312,96h4.643v2.321H312Z" transform="translate(-269.055 -84.393)" fill="#0c3761"/><path d="M168,96h4.643v2.321H168Z" transform="translate(-145.947 -84.393)" fill="#0c3761"/><path d="M216,96h4.643v2.321H216Z" transform="translate(-186.983 -84.393)" fill="#0c3761"/><path d="M120,136h18.571v2.321H120Z" transform="translate(-104.911 -118.59)" fill="#0c3761"/><path d="M264,136h18.571v2.321H264Z" transform="translate(-228.019 -118.59)" fill="#0c3761"/><path d="M120,216h17.41v2.321H120Z" transform="translate(-104.911 -186.983)" fill="#0c3761"/><path d="M120,256h5.8v2.321H120Z" transform="translate(-104.911 -221.18)" fill="#0c3761"/><path d="M120,296h3.482v2.321H120Z" transform="translate(-104.911 -255.376)" fill="#0c3761"/><path d="M120,336h3.482v2.321H120Z" transform="translate(-104.911 -289.573)" fill="#0c3761"/><path d="M120,376h3.482v2.321H120Z" transform="translate(-104.911 -323.769)" fill="#0c3761"/></g></svg>