<svg xmlns="http://www.w3.org/2000/svg" width="75.411" height="75.411" viewBox="0 0 75.411 75.411"><path d="M76.411,38.693V33.828a3.649,3.649,0,0,0-3.649-3.649H64.248V20.461h8.514a1.216,1.216,0,0,0,1.216-1.216V7.081A6.089,6.089,0,0,0,67.9,1H16.812A6.089,6.089,0,0,0,10.73,7.081V15.6a15.812,15.812,0,0,0,0,29.191V67.9H4.649a1.216,1.216,0,0,0-1.216,1.216,7.305,7.305,0,0,0,7.3,7.3H56.95a7.305,7.305,0,0,0,7.3-7.3V60.586h6.081a3.649,3.649,0,0,0,3.649-3.649V55.721h1.216A1.216,1.216,0,0,0,76.411,54.5V52.072a3.649,3.649,0,0,0-2.433-3.425V42.118a3.649,3.649,0,0,0,2.433-3.425Zm-21.893,9.73V42.342H71.545v6.081Zm19.461-14.6v4.865a1.216,1.216,0,0,1-1.216,1.216H53.3a1.216,1.216,0,0,1-1.216-1.216V33.828A1.216,1.216,0,0,1,53.3,32.612H72.762A1.216,1.216,0,0,1,73.978,33.828ZM71.545,7.081V18.028h-7.3V7.081a3.649,3.649,0,0,1,7.3,0Zm-58.382,0a3.649,3.649,0,0,1,3.649-3.649H63.063a6.018,6.018,0,0,0-1.248,3.649v23.1H53.3a3.649,3.649,0,0,0-3.649,3.649v1.228H31.85a15.243,15.243,0,0,0,.567-7.3H56.95V25.326H31.85a15.657,15.657,0,0,0-1.025-2.433H56.95V20.461H29.25a15.668,15.668,0,0,0-16.087-5.64Zm-9.73,23.11A13.379,13.379,0,1,1,16.812,43.57,13.379,13.379,0,0,1,3.433,30.191Zm7.3,43.787A4.872,4.872,0,0,1,6.02,70.329H49.753a7.284,7.284,0,0,0,1.761,3.649Zm51.085-4.865a4.865,4.865,0,1,1-9.73,0A1.216,1.216,0,0,0,50.868,67.9H13.163V45.562a15.707,15.707,0,0,0,17.662-8.073H49.652v1.2a3.649,3.649,0,0,0,2.433,3.425v6.529a3.649,3.649,0,0,0-2.433,3.425V54.5a1.216,1.216,0,0,0,1.216,1.216h1.216v1.216a3.649,3.649,0,0,0,3.649,3.649h6.081Zm9.73-12.175a1.216,1.216,0,0,1-1.216,1.216h-14.6a1.216,1.216,0,0,1-1.216-1.216V55.721H71.545Zm2.433-3.649H52.085V52.072A1.216,1.216,0,0,1,53.3,50.856H72.762a1.216,1.216,0,0,1,1.216,1.216Z" transform="translate(-1 -1)" fill="#0c3761"/><path d="M25.1,21.789l-2.433-2.433a1.216,1.216,0,0,0-1.72,0l-8.87,8.87-1.573-1.573a1.216,1.216,0,0,0-1.72,0L6.356,29.087a1.216,1.216,0,0,0,0,1.72l4.865,4.865a1.216,1.216,0,0,0,1.72,0L25.1,23.509a1.216,1.216,0,0,0,0-1.72Zm-13.023,11.3L8.936,29.947l.713-.713,1.573,1.573a1.216,1.216,0,0,0,1.72,0l8.87-8.87.713.713Z" transform="translate(0.082 2.893)" fill="#0c3761"/><path d="M22.216,14.73H46.542a1.216,1.216,0,0,0,1.216-1.216v-7.3A1.216,1.216,0,0,0,46.542,5H22.216A1.216,1.216,0,0,0,21,6.216v7.3A1.216,1.216,0,0,0,22.216,14.73Zm1.216-7.3H45.326V12.3H23.433Z" transform="translate(3.326 -0.135)" fill="#0c3761"/><path d="M30.371,51.155a3.154,3.154,0,0,0-5.616-.752l-1.526,2.245-1.751-.056A3.593,3.593,0,0,0,14.9,50.6L13.168,53.19l2.024,1.35,1.727-2.591a1.16,1.16,0,0,1,2.126.643,2.492,2.492,0,0,0,2.489,2.489h1.7A2.485,2.485,0,0,0,25.3,53.974l1.479-2.221a.75.75,0,0,1,1.283.173,4.611,4.611,0,0,0,4.384,3.156h1.2V52.649h-1.2a2.178,2.178,0,0,1-2.071-1.494Z" transform="translate(1.632 9.382)" fill="#0c3761"/></svg>