<svg xmlns="http://www.w3.org/2000/svg" width="292.403" height="44.662" viewBox="0 0 292.403 44.662">
  <g id="FT_Reverse" data-name="FT Reverse" transform="translate(146.202 22.331)">
    <g id="Group_3953" data-name="Group 3953" transform="translate(-146.202 -22.331)">
      <g id="Group_3952" data-name="Group 3952">
        <g id="Layer_1" data-name="Layer 1">
          <g id="Group_3951" data-name="Group 3951">
            <g id="Cygnet">
              <path id="Path_4793" data-name="Path 4793" d="M22.127,29.931a18.752,18.752,0,0,1-7.708,1.386C6.194,31.317,0,26.12,0,16.55,0,7.415,6.189,1.22,15.243,1.22a15.562,15.562,0,0,1,6.925,1.3l-.911,3.074A13.728,13.728,0,0,0,15.37,4.381c-6.844,0-11.385,4.374-11.385,12.036C3.985,23.562,8.1,28.15,15.2,28.15a15.045,15.045,0,0,0,6.148-1.212Z" fill="#fff"/>
              <path id="Path_4794" data-name="Path 4794" d="M28.1,9.926l4.588,12.383c.476,1.387,1,3.034,1.34,4.287h.087c.389-1.259.824-2.86,1.34-4.374l4.159-12.3H43.64L37.933,24.867c-2.726,7.187-4.588,10.87-7.187,13.12a10.33,10.33,0,0,1-4.675,2.471l-.951-3.2a10.063,10.063,0,0,0,3.335-1.862,11.548,11.548,0,0,0,3.2-4.245,2.68,2.68,0,0,0,.3-.911,3.366,3.366,0,0,0-.261-1L23.943,9.926Z" fill="#fff"/>
              <path id="Path_4795" data-name="Path 4795" d="M61.661,18.2a5.569,5.569,0,0,0-5.539-5.759c-3.637,0-6.235,3.074-6.235,7.923,0,4.112,2.076,7.534,6.194,7.534A5.574,5.574,0,0,0,61.365,24a6.675,6.675,0,0,0,.3-2.036V18.2ZM65.6,9.926c-.087,1.514-.174,3.2-.174,5.76V27.854c0,4.809-.951,7.749-2.987,9.57-2.036,1.9-4.976,2.512-7.621,2.512A13.475,13.475,0,0,1,47.845,38.2l.951-2.9a11.835,11.835,0,0,0,6.148,1.647c3.9,0,6.757-2.036,6.757-7.32V27.292h-.087a7.479,7.479,0,0,1-6.67,3.509c-5.2,0-8.92-4.414-8.92-10.22,0-7.1,4.634-11.13,9.436-11.13A6.97,6.97,0,0,1,62,13.087h.087l.174-3.161Z" fill="#fff"/>
              <path id="Path_4796" data-name="Path 4796" d="M72.356,15.6c0-2.164-.04-3.939-.174-5.673h3.376l.214,3.463h.087a7.706,7.706,0,0,1,6.926-3.938c2.9,0,7.406,1.734,7.406,8.92V30.882h-3.81V18.8c0-3.375-1.253-6.188-4.849-6.188a5.592,5.592,0,0,0-5.371,5.672v12.6H72.35V15.6Z" fill="#fff"/>
              <path id="Path_4797" data-name="Path 4797" d="M110.5,18.371c.041-2.424-1-6.194-5.284-6.194-3.851,0-5.544,3.549-5.846,6.194ZM99.332,21.1c.087,5.151,3.376,7.274,7.187,7.274a13.718,13.718,0,0,0,5.8-1.085l.649,2.726A16.88,16.88,0,0,1,106,31.317c-6.449,0-10.306-4.246-10.306-10.562s3.723-11.3,9.825-11.3c6.844,0,8.66,6.021,8.66,9.872a14.955,14.955,0,0,1-.128,1.775H99.332Z" fill="#fff"/>
              <path id="Path_4798" data-name="Path 4798" d="M124.36,3.906v6.02h5.458v2.9H124.36v11.3c0,2.6.736,4.072,2.859,4.072a8.333,8.333,0,0,0,2.21-.261L129.6,30.8a9.355,9.355,0,0,1-3.376.522,5.285,5.285,0,0,1-4.112-1.6c-1.084-1.125-1.473-2.987-1.473-5.458V12.826h-3.248v-2.9h3.248V4.9Z" fill="#fff"/>
            </g>
          </g>
        </g>
        <g id="Fintech">
          <path id="Path_4799" data-name="Path 4799" d="M166.244,10.005h2.044V30.883h-2.044Zm2.7-5.959A1.7,1.7,0,0,1,167.2,5.829a1.677,1.677,0,0,1-1.61-1.783,1.785,1.785,0,0,1,1.7-1.827,1.7,1.7,0,0,1,1.653,1.827" fill="#fff"/>
          <path id="Path_4800" data-name="Path 4800" d="M176.814,15.007c0-1.914-.087-3.349-.174-5h1.913l.174,3.784h.088a7.833,7.833,0,0,1,7.177-4.263c2,0,7.263,1,7.263,8.83V30.883h-2.044V18.53c0-3.784-1.479-7.221-5.785-7.221a6.667,6.667,0,0,0-6.263,4.785,6.234,6.234,0,0,0-.3,1.871V30.883h-2.044Z" fill="#fff"/>
          <path id="Path_4801" data-name="Path 4801" d="M204.479,3.959v6.046h5.959v1.653h-5.959v13.57c0,2.653.826,4.35,3.044,4.35a7.523,7.523,0,0,0,2.393-.348l.261,1.609a8.253,8.253,0,0,1-2.914.478,4.328,4.328,0,0,1-3.567-1.479c-.957-1.086-1.3-2.827-1.3-4.958V11.658h-3.523V10.005h3.523V4.611Z" fill="#fff"/>
          <path id="Path_4802" data-name="Path 4802" d="M230.142,18.573c.043-2.914-1.175-7.351-6.22-7.351-4.611,0-6.611,4.132-6.96,7.351Zm-13.31,1.653c0,6.7,3.654,9.308,7.96,9.308a12.139,12.139,0,0,0,5.785-1.174l.522,1.652a13.961,13.961,0,0,1-6.568,1.305c-6,0-9.744-4.349-9.744-10.483,0-6.959,4-11.308,9.4-11.308,6.829,0,8.134,6.437,8.134,9.438a5.182,5.182,0,0,1-.087,1.262Z" fill="#fff"/>
          <path id="Path_4803" data-name="Path 4803" d="M253.5,29.969a13.535,13.535,0,0,1-6.089,1.348c-6.046,0-10.048-4.349-10.048-10.656,0-6.612,4.524-11.135,10.787-11.135a10.825,10.825,0,0,1,5.481,1.305l-.74,1.7a10.13,10.13,0,0,0-4.958-1.218c-5.611,0-8.482,4.306-8.482,9.221,0,5.438,3.436,9,8.265,9a12.291,12.291,0,0,0,5.219-1.174Z" fill="#fff"/>
          <path id="Path_4804" data-name="Path 4804" d="M259.982,0h2.045V13.744h.087a7.69,7.69,0,0,1,2.87-3.044,7.855,7.855,0,0,1,4.22-1.174c1.957,0,7.22,1,7.22,8.743V30.883h-2.045V18.53c0-3.784-1.479-7.221-5.741-7.221a6.839,6.839,0,0,0-6.307,4.741,5.793,5.793,0,0,0-.3,2.045V30.883h-2.045Z" fill="#fff"/>
          <path id="Path_4805" data-name="Path 4805" d="M144.712,1.566V30.883h2.044V16.7h11.4v-1.74h-11.4V3.306H159.2V1.566Z" fill="#fff"/>
        </g>
      </g>
      <path id="Path_4806" data-name="Path 4806" d="M239.457,40.672c4.287,1.509,8.754,1.026,13.1.422,9.056-1.267,17.508-5.433,26.865-4.769a19.878,19.878,0,0,1,12.98,5.313,28.731,28.731,0,0,0-12.98-1.691c-8.935.725-17.387,4.89-26.624,4.709-4.588-.06-9.9-.664-13.342-3.984Z" fill="#18b57b"/>
    </g>
  </g>
</svg>
