<svg xmlns="http://www.w3.org/2000/svg" width="74.257" height="79.56" viewBox="0 0 74.257 79.56"><g transform="translate(0 0)"><path d="M5.3,66.3H22.543V70.28a6.638,6.638,0,0,0-6.63,6.63,2.652,2.652,0,0,0,2.652,2.652H50.39a2.652,2.652,0,0,0,2.652-2.652,6.638,6.638,0,0,0-6.63-6.63V66.3H63.65a5.3,5.3,0,0,0,5.3-5.3V22.542a1.326,1.326,0,0,0-2.652,0v30.5H2.652v-30.5A2.652,2.652,0,0,1,5.3,19.89H6.63V49.063a1.326,1.326,0,0,0,2.652,0V6.63A1.326,1.326,0,0,1,10.608,5.3H56.614l-6.78,4.689L23.694,28.07a1.281,1.281,0,0,0-.375.366L14.852,40.848a2.652,2.652,0,0,0,2.815,4.072l14.6-3.539a1.671,1.671,0,0,0,.477-.223L59.672,22.534V49.063a1.326,1.326,0,0,0,2.652,0V20.7l9.646-6.671a5.3,5.3,0,0,0,1.346-7.379L70.3,2.287A5.312,5.312,0,0,0,62.921.941L60.449,2.651H10.608A3.978,3.978,0,0,0,6.63,6.63V17.238H5.3a5.3,5.3,0,0,0-5.3,5.3V61a5.3,5.3,0,0,0,5.3,5.3ZM58.465,20.145l-6.033-8.725L55.7,9.157l6.035,8.725Zm-8.208-7.216,6.035,8.725-24,16.594-6.036-8.727ZM24.243,40.6l-3.026-4.375,3.2-4.7,5.347,7.731Zm-7.2,1.745,2.573-3.773,1.866,2.7ZM64.43,3.122a2.652,2.652,0,0,1,3.689.674l3.017,4.361a2.66,2.66,0,0,1-.672,3.692l-6.548,4.524L57.88,7.648ZM50.39,76.91H18.565a3.978,3.978,0,0,1,3.978-3.978H46.411A3.978,3.978,0,0,1,50.39,76.91Zm-6.63-6.63H25.195V66.3H43.759ZM66.3,55.693V61a2.652,2.652,0,0,1-2.652,2.652H5.3A2.652,2.652,0,0,1,2.652,61v-5.3Z" transform="translate(0 -0.002)" fill="#0c3761"/><path d="M25.326,46.652H29.3A1.326,1.326,0,0,0,29.3,44H25.326a1.326,1.326,0,1,0,0,2.652Z" transform="translate(7.825 14.343)" fill="#0c3761"/><path d="M11.326,9.652H38.7A1.326,1.326,0,1,0,38.7,7H11.326a1.326,1.326,0,0,0,0,2.652Z" transform="translate(3.26 2.28)" fill="#0c3761"/><path d="M11.326,14.652H29.108a1.326,1.326,0,0,0,0-2.652H11.326a1.326,1.326,0,0,0,0,2.652Z" transform="translate(3.26 3.91)" fill="#0c3761"/><path d="M11.326,19.652h8.195a1.326,1.326,0,1,0,0-2.652H11.326a1.326,1.326,0,1,0,0,2.652Z" transform="translate(3.26 5.54)" fill="#0c3761"/><path d="M45.848,32H27.456a1.326,1.326,0,1,0,0,2.652H45.848a1.326,1.326,0,1,0,0-2.652Z" transform="translate(8.519 10.431)" fill="#0c3761"/><path d="M43.491,27h-8.8a1.326,1.326,0,0,0,0,2.652h8.8a1.326,1.326,0,1,0,0-2.652Z" transform="translate(10.877 8.8)" fill="#0c3761"/></g></svg>